<svg width="35" height="32" viewBox="0 0 35 32" fill="none" xmlns="http://www.w3.org/2000/svg">
<g clip-path="url(#clip0_217_8)">
<path d="M34.0096 23.8316L25.8003 29.8782C24.7248 30.6736 23.3941 31.1111 22.0026 31.1111H0.917535C0.385912 31.1111 0 30.6708 0 30.1395V24.3068C0 23.7752 0.440538 23.3333 0.917535 23.3333L4.28203 23.3348L7.10755 21.0416C8.32891 20.0633 9.97075 19.4465 11.6114 19.4465H21.2789C22.4638 19.4465 23.3977 20.502 23.2003 21.7173C23.0408 22.6743 22.1448 23.3348 21.1726 23.3348H16.4731C15.9415 23.3348 15.5556 23.7753 15.5556 24.2523C15.5556 24.7294 15.9961 25.1699 16.4731 25.1699H23.8012L31.0747 19.8123C32.1563 19.0108 33.676 19.2447 34.4732 20.3268C35.3221 21.5165 35.0911 23.0356 34.0096 23.8316Z" fill="#78B5A3"/>
</g>
<defs>
<clipPath id="clip0_217_8">
<rect width="35" height="31.1111" fill="white"/>
</clipPath>
</defs>
</svg>
