<svg width="35" height="35" viewBox="0 0 35 35" fill="none" xmlns="http://www.w3.org/2000/svg">
<g clip-path="url(#clip0_217_2)">
<path d="M33.6806 2.92236C35.3896 4.63066 35.3896 7.40332 33.6806 9.1123L29.8252 12.9678L22.0322 5.17617L25.8877 1.3207C27.5967 -0.388149 30.3721 -0.388149 32.081 1.3207L33.6806 2.92236ZM3.06863 24.1445L20.4873 6.72246L28.2803 14.5127L10.8554 31.9307C10.3974 32.3887 9.83006 32.7236 9.20115 32.9082L2.09109 34.9385C1.51824 35.1025 0.901641 34.9385 0.480547 34.46C0.0592414 34.0977 -0.100508 33.4824 0.0631584 32.9082L2.0952 25.7988C2.27361 25.1699 2.60857 24.6025 3.06863 24.1445ZM17.0488 7.06835L7.06834 17.0488L1.09373 11.0674C-0.187666 9.78906 -0.187666 7.71093 1.09373 6.42988L6.42986 1.09375C7.71092 -0.187651 9.78904 -0.187651 11.0674 1.09375L12.4209 2.44453C12.4004 2.46435 12.373 2.48554 12.3525 2.5081L7.97752 6.88378C7.54686 7.30761 7.54686 8.00488 7.97752 8.42871C8.40135 8.85937 9.09861 8.85937 9.52244 8.42871L13.8974 4.05439C13.9179 4.03251 13.8838 4.00927 13.959 3.98535L17.0488 7.06835ZM31.0146 21.041C30.9941 21.0547 30.9668 21.082 30.9463 21.1025L26.5713 25.4775C26.1406 25.9014 26.1406 26.5986 26.5713 27.0225C26.9951 27.4531 27.6924 27.4531 28.1162 27.0225L32.4912 22.6475C32.5117 22.5654 32.4775 22.5996 32.5527 22.5791L33.9062 23.9326C35.1846 25.2109 35.1846 27.2891 33.9062 28.5674L28.5674 33.9062C27.289 35.1846 25.2109 35.1846 23.9326 33.9062L17.9512 27.9316L27.9316 17.9512L31.0146 21.041Z" fill="#78B5A3"/>
</g>
<defs>
<clipPath id="clip0_217_2">
<rect width="35" height="35" fill="white"/>
</clipPath>
</defs>
</svg>
