<svg width="35" height="35" viewBox="0 0 35 35" fill="none" xmlns="http://www.w3.org/2000/svg">
<path d="M24.0625 17.5C24.0625 19.0176 23.9805 20.4805 23.8369 21.875H11.1631C11.0195 20.4805 10.876 19.0176 10.876 17.5C10.876 15.9824 11.0195 14.5195 11.1631 13.125H23.8369C23.9805 14.5195 24.0625 15.9824 24.0625 17.5ZM34.4463 13.125C34.8086 14.5264 35 15.9893 35 17.5C35 19.0107 34.8086 20.4736 34.4463 21.875H26.0312C26.1748 20.4668 26.25 18.9424 26.25 17.5C26.25 15.9961 26.1748 14.5332 26.0312 13.125H34.4463ZM33.7285 10.9375H25.751C25.0674 6.57207 23.7139 2.91348 21.9707 0.57709C27.3301 1.98857 31.6777 5.8748 33.7285 10.9375ZM23.5361 10.9375H11.4639C11.8809 8.44922 12.5234 6.24668 13.3096 4.46729C14.0273 2.85332 14.8271 1.68232 15.5996 0.944043C16.3652 0.217246 17.001 0 17.5 0C17.999 0 18.6348 0.217246 19.4004 0.944043C20.1729 1.68232 20.9727 2.85332 21.6904 4.46729C22.4766 6.24668 23.1191 8.44922 23.5361 10.9375ZM1.27217 10.9375C3.32158 5.8748 7.66992 1.98857 13.0293 0.57709C11.2861 2.91348 9.93262 6.57207 9.24902 10.9375H1.27217ZM8.96875 13.125C8.8252 14.5332 8.68848 15.9961 8.68848 17.5C8.68848 18.9424 8.8252 20.4668 8.96875 21.875H0.551318C0.191406 20.4736 0 19.0107 0 17.5C0 15.9893 0.191406 14.5264 0.551318 13.125H8.96875ZM13.3096 30.5293C12.5234 28.752 11.8809 26.5508 11.4639 24.0625H23.5361C23.1191 26.5508 22.4766 28.752 21.6904 30.5293C20.9727 32.1494 20.1729 33.3184 19.4004 34.0566C18.6348 34.7813 17.999 35 17.4385 35C17.001 35 16.3652 34.7813 15.5996 34.0566C14.8271 33.3184 14.0273 32.1494 13.3096 30.5293ZM13.0293 34.4258C7.66992 33.0107 3.32158 29.1279 1.27217 24.0625H9.24902C9.93262 28.4307 11.2861 32.0879 13.0293 34.4258ZM21.9707 34.4258C23.7139 32.0879 25.0674 28.4307 25.751 24.0625H33.7285C31.6777 29.1279 27.3301 33.0107 21.9707 34.4258Z" fill="#78B5A3"/>
</svg>
