<svg width="35" height="35" viewBox="0 0 35 35" fill="none" xmlns="http://www.w3.org/2000/svg">
<path d="M35 17.5C35 27.166 27.166 35 17.5 35C7.83398 35 0 27.166 0 17.5C0 7.83398 7.83398 0 17.5 0C27.166 0 35 7.83398 35 17.5ZM17.5 4.375C16.29 4.375 15.3125 5.35459 15.3125 6.5625C15.3125 7.77246 16.29 8.75 17.5 8.75C18.71 8.75 19.6875 7.77246 19.6875 6.5625C19.6875 5.35459 18.71 4.375 17.5 4.375ZM17.5 28.4375C19.9131 28.4375 21.875 26.4756 21.875 24.0625C21.875 22.873 21.4033 21.7998 20.6377 21.0137L24.958 11.0537C25.3818 10.2197 25.0059 9.25586 24.1787 8.88672C23.3447 8.52441 22.3809 8.90039 22.0117 9.72754L17.6299 19.6875C17.5889 19.6875 17.541 19.626 17.5 19.626C15.0869 19.626 13.125 21.6494 13.125 24.0625C13.125 26.4756 15.0869 28.4375 17.5 28.4375ZM9.84375 7.65625C8.63379 7.65625 7.65625 8.63379 7.65625 9.84375C7.65625 11.0537 8.63379 12.0312 9.84375 12.0312C11.0537 12.0312 12.0312 11.0537 12.0312 9.84375C12.0312 8.63379 11.0537 7.65625 9.84375 7.65625ZM6.5625 19.6875C7.77246 19.6875 8.75 18.71 8.75 17.5C8.75 16.29 7.77246 15.3125 6.5625 15.3125C5.35459 15.3125 4.375 16.29 4.375 17.5C4.375 18.71 5.35459 19.6875 6.5625 19.6875ZM28.4375 15.3125C27.2275 15.3125 26.25 16.29 26.25 17.5C26.25 18.71 27.2275 19.6875 28.4375 19.6875C29.6475 19.6875 30.625 18.71 30.625 17.5C30.625 16.29 29.6475 15.3125 28.4375 15.3125Z" fill="#78B5A3"/>
</svg>
