<svg width="35" height="35" viewBox="0 0 35 35" fill="none" xmlns="http://www.w3.org/2000/svg">
<path d="M32.8125 19.6875H2.1875C0.983008 19.6875 0 20.6705 0 21.875V30.625C0 31.8295 0.983008 32.8125 2.1875 32.8125H32.8125C34.017 32.8125 35 31.8295 35 30.625V21.875C35 20.6719 34.0156 19.6875 32.8125 19.6875ZM24.0625 27.8906C23.1567 27.8906 22.4219 27.1558 22.4219 26.25C22.4219 25.3442 23.1567 24.6094 24.0625 24.6094C24.9683 24.6094 25.7031 25.3442 25.7031 26.25C25.7031 27.1558 24.9717 27.8906 24.0625 27.8906ZM28.4375 27.8906C27.5317 27.8906 26.7969 27.1558 26.7969 26.25C26.7969 25.3442 27.5317 24.6094 28.4375 24.6094C29.3433 24.6094 30.0781 25.3442 30.0781 26.25C30.0781 27.1558 29.3467 27.8906 28.4375 27.8906ZM32.8125 2.1875H2.1875C0.983008 2.1875 0 3.17051 0 4.375V13.125C0 14.3295 0.983008 15.3125 2.1875 15.3125H32.8125C34.017 15.3125 35 14.3295 35 13.125V4.375C35 3.17051 34.0156 2.1875 32.8125 2.1875ZM24.0625 10.3906C23.1567 10.3906 22.4219 9.65576 22.4219 8.75C22.4219 7.84424 23.1602 7.10938 24.0625 7.10938C24.9648 7.10938 25.7031 7.84766 25.7031 8.75C25.7031 9.65234 24.9717 10.3906 24.0625 10.3906ZM28.4375 10.3906C27.5317 10.3906 26.7969 9.65576 26.7969 8.75C26.7969 7.84424 27.5352 7.10938 28.4375 7.10938C29.3398 7.10938 30.0781 7.84766 30.0781 8.75C30.0781 9.65234 29.3467 10.3906 28.4375 10.3906Z" fill="#78B5A3"/>
</svg>
