<svg width="35" height="28" viewBox="0 0 35 28" fill="none" xmlns="http://www.w3.org/2000/svg">
<path d="M27.0648 5.25055C24.9441 5.25055 22.9512 6.07578 21.4539 7.57477L17.5 11.5281L13.5516 7.57422C12.0526 6.07523 10.0603 5.25 7.94062 5.25C3.5607 5.25055 0 8.81016 0 13.1852V14.8121C0 19.1888 3.5607 22.7473 7.93516 22.7473C10.0559 22.7473 12.0487 21.922 13.5461 20.423L17.5 16.4773L21.4501 20.4285C22.9491 21.9275 24.9413 22.7527 27.061 22.7527C31.4398 22.75 35 19.1898 35 14.8148V13.1879C35 8.81016 31.4398 5.25055 27.0648 5.25055ZM11.0742 17.9539C10.237 18.7912 9.12242 19.2527 7.93625 19.2527C5.49062 19.25 3.5 17.2594 3.5 14.8148V13.1879C3.5 10.7423 5.49117 8.75109 7.93734 8.75109C9.12352 8.75109 10.2375 9.21255 11.0753 10.0499L15.0254 14.0011L11.0742 17.9539ZM31.5 14.8148C31.5 17.2605 29.5088 19.2516 27.0627 19.2516C25.8765 19.2516 24.7625 18.7902 23.9247 17.9528L19.9746 14.0016L23.9247 10.0505C24.762 9.2132 25.8765 8.75164 27.0627 8.75164C29.5094 8.75 31.5 10.7406 31.5 13.1852V14.8148Z" fill="#78B5A3"/>
</svg>
