<svg width="216" height="178" viewBox="0 0 216 178" fill="none" xmlns="http://www.w3.org/2000/svg">
<path d="M33.7366 128.39L33.9764 146.874L63.1247 160.309C70.0117 152.069 69.2493 138.508 61.4822 131.093C53.7151 123.677 40.134 123.542 33.7366 128.39Z" fill="#E7816D"/>
<path d="M213.638 77.8278C213.177 72.3994 212.552 66.9833 211.648 61.6098C210.856 57.6761 210.663 52.9905 207.344 50.25C203.234 46.9535 198.116 45.2203 193.07 43.9328C188.533 42.7872 183.931 41.9227 179.304 41.2356C170.784 40.0235 162.188 39.1586 153.574 39.1958C147.503 39.217 141.458 39.7526 135.406 40.1908C135.414 39.4225 135.413 38.6542 135.405 37.8859C135.12 28.5929 134.348 18.4979 129.13 10.5244C124.559 4.12077 117.061 -0.212819 109.091 0.00807056C99.7647 0.120622 88.6479 7.89665 84.2174 15.941C78.7495 25.2567 78.9535 33.4895 79.6914 43.6561C74.5893 44.2985 69.4855 44.9587 64.3458 45.1736C51.2574 45.4398 39.2036 44.2184 27.2704 42.2915C25.6171 42.0949 23.9574 41.9241 22.292 41.8853C22.1575 41.8824 22.023 41.8795 21.8886 41.8767C22.051 41.9132 22.2134 41.9499 22.3757 41.9866C22.6141 42.042 22.8508 42.1051 23.0884 42.164C18.3906 41.6694 13.5963 40.7539 9.28127 42.4412C1.63578 45.7286 0.690209 56.9044 0.149357 64.1762C-0.419935 76.4398 0.814953 88.6975 0.919526 100.962C1.48439 119.779 2.0216 138.652 4.78824 157.302C5.33349 161.124 5.37348 165.65 8.2155 170.085C9.96437 172.453 12.6858 173.853 15.3212 175.02C19.8412 176.867 24.735 177.522 29.5828 177.762C39.5799 177.799 49.5638 177.006 59.5651 177.073C69.0261 176.985 78.4831 177.65 87.944 177.378C104.68 176.712 121.413 176.008 138.126 174.905C147.291 174.483 156.47 174.055 165.552 172.681C172.208 171.728 178.837 170.598 185.491 169.638C190.135 168.915 194.947 168.496 199.176 166.278C213.454 158.638 212.502 128.929 214.275 114.602C215.576 102.363 214.436 90.0632 213.638 77.8278ZM87.4629 18.9783C90.5605 14.4735 93.7528 11.9703 99.5218 8.86387C105.443 5.9534 109.257 5.09745 115.686 6.85026C127.733 10.8168 131.472 22.6627 134.635 38.1335C134.771 38.8269 134.885 39.5243 135.009 40.22C132.864 40.3737 130.718 40.5138 128.569 40.6119C113.635 41.588 98.6217 41.3193 83.7509 43.1572C82.4821 43.3063 81.2138 43.4648 79.9453 43.6243C81.0213 34.433 81.8506 26.5997 87.4629 18.9783ZM106.992 47.6896C107.494 49.3316 107.858 51.0154 108.295 52.6756C108.941 55.664 109.447 57.4589 109.486 59.9305C109.421 59.8368 109.359 59.7528 109.29 59.6444C106.856 56.0199 105.874 52.1507 104.7 47.7427C105.464 47.7244 106.228 47.7067 106.992 47.6896ZM209.08 126.563C208.352 135.312 208.061 141.333 205.649 149.671C204.209 154.121 203.672 156.205 200.961 159.905C198.063 163.611 193.685 164.615 188.694 165.392C183.408 166.244 180.473 166.606 175.034 167.466C167.389 168.587 162.379 169.474 154.906 170.066C144.428 170.765 133.924 171.011 123.441 171.648C113.213 172.13 102.977 172.405 92.7496 172.934C84.3088 173.386 75.8627 173.028 67.423 172.744C58.7934 172.498 50.1531 172.614 41.5256 172.891C33.8931 173.17 26.3806 173.443 20.4869 171.768C17.4954 171.149 14.6983 169.814 12.3346 167.879C10.4418 166.684 9.60708 160.725 9.27061 158.081C7.8635 147.936 6.99263 137.724 6.66165 127.487C6.20748 113.528 6.20731 99.5587 5.85689 85.5975C5.69939 76.2955 4.75949 66.9881 5.30319 57.686C6.64523 43.3571 10.288 43.7646 24.038 42.4045C25.5097 42.7974 26.9677 43.2441 28.4202 43.7017C36.0298 46.4513 43.9056 48.3992 51.9195 49.5138C57.0671 50.2655 62.2616 50.9011 67.4734 50.7215C79.5028 50.2092 91.3866 47.6634 103.462 47.7714C103.65 47.7668 103.839 47.7629 104.027 47.7583C103.917 53.273 104.266 59.2562 108.185 63.3969C109.651 64.986 112.076 64.4529 112.591 62.3156C113 60.1041 112.365 57.8583 111.727 55.7496C110.758 52.9251 109.484 50.2151 107.925 47.668C115.681 47.4922 123.438 47.3367 131.187 46.9844C139.375 46.5417 147.541 45.664 155.749 45.6756C170.592 45.7921 186.504 47.9246 197.836 51.4786C200.419 52.5309 202.657 53.3493 204.272 54.8957C204.826 55.6136 204.597 55.0783 205.405 57.6833C208.562 70.1216 209.275 81.367 209.933 94.0412C207.462 93.9012 204.99 93.7972 202.516 93.7292C193.911 93.4947 185.311 93.957 176.724 94.4535C171.452 94.7224 166.172 94.8708 160.912 95.3481C146.518 96.7389 132.173 98.6411 117.74 99.6336C102.592 101.065 87.3556 99.9759 72.2054 101.358C57.0197 102.337 40.2797 104.337 26.4977 106.319C21.7508 106.982 12.8603 107.614 6.87625 108.896C12.8559 108.606 18.8234 109.055 24.8019 109.064C35.6685 108.948 46.5343 108.443 57.3824 107.815C66.5967 107.256 75.7932 106.364 85.0204 106.048C92.7533 105.747 100.499 106.123 108.226 105.629C131.338 104.346 154.285 101.121 177.263 98.4355C187.977 96.8626 196.953 95.3189 207.429 94.5147C208.268 94.4435 209.107 94.3718 209.947 94.2997C210.072 96.7186 210.196 99.1843 210.335 101.727C210.765 110.026 209.55 118.29 209.08 126.563Z" fill="black"/>
<path d="M190.013 97.3264C189.861 96.1203 189.82 98.1686 189.712 98.6159C189.19 101.472 188.66 104.568 187.187 106.719C187.049 106.904 186.889 107.072 186.71 107.219C186.601 107.237 186.565 107.262 186.602 107.292C186.684 107.334 186.444 107.342 186.502 107.328C186.534 107.353 186.505 107.346 186.415 107.308C186.392 107.298 186.377 107.291 186.361 107.283C185.437 106.664 184.921 105.715 184.385 104.871C183.329 103.045 182.334 101.183 181.229 99.3858C181.687 101.46 182.268 103.505 182.968 105.51C183.481 106.779 184.069 108.128 185.222 108.943C187.992 110.629 189.803 106.71 190.072 104.458C190.467 102.096 190.447 99.6821 190.013 97.3264V97.3264Z" fill="black"/>
<path d="M62.3567 149.046C62.208 143.699 61.8174 138.271 60.4321 133.091C58.3901 126.058 45.2422 129.683 39.7553 129.875C39.3701 129.915 38.9851 129.961 38.6006 130.003C41.9591 130.306 45.3234 130.531 48.6861 130.777C51.7378 131.102 54.5831 131.243 56.6428 132.978C56.6954 133.04 56.7198 133.067 56.7248 133.07C56.8191 133.317 56.8971 133.571 56.9582 133.828C57.6553 138.176 57.4014 146.911 56.8287 152.988C56.761 153.459 56.7616 153.553 56.7869 153.419C56.7472 153.715 56.7076 154.01 56.6681 154.306C56.6813 154.161 56.6953 154.042 56.708 153.944C56.6954 154.015 56.6798 154.099 56.6595 154.204C56.4868 155.039 56.2503 155.859 55.952 156.658C55.8903 156.793 55.8218 156.924 55.75 157.054C55.3906 157.083 55.0308 157.105 54.6708 157.122C45.0292 157.372 38.9035 157.567 31.8094 152.375C30.0271 150.727 29.8922 150.773 28.9174 148.821L28.9124 148.807C27.9358 145.776 27.3942 141.699 27.0968 139.663C26.9214 138.207 26.8195 136.743 26.7916 135.277C26.7383 134.09 26.8565 132.752 27.7748 131.895C29.6819 131.13 31.8261 131.046 33.8215 130.558C32.0911 130.562 30.3598 130.533 28.6299 130.58C27.2805 130.5 26.2193 131.375 25.6066 132.516C24.6481 134.477 24.6861 136.766 24.485 138.901C24.3271 142.315 24.4742 145.737 24.9243 149.126C25.484 152.626 27.9723 155.479 30.7305 157.545C34.4161 160.558 39.0713 162.138 43.7487 162.753C47.2671 163.248 50.8281 163.368 54.3719 163.111C57.0308 163.1 59.8437 162.331 60.9544 159.654C62.5008 156.351 62.4171 152.614 62.3567 149.046Z" fill="black"/>
<path d="M56.708 153.944C56.7703 153.595 56.7463 153.65 56.708 153.944V153.944Z" fill="black"/>
</svg>
