<svg width="400" height="170" viewBox="0 0 400 170" fill="none" xmlns="http://www.w3.org/2000/svg">
<g clip-path="url(#clip0_249_214)">
<g clip-path="url(#clip1_249_214)">
<path d="M40.3069 16.8532L34.9577 17.9902L33.1044 16.7867L29.2836 17.5989C28.442 17.7778 27.9012 18.6106 28.0801 19.4521L29.7044 27.0939C29.8833 27.9354 30.716 28.4763 31.5576 28.2974L42.2561 26.0234C43.0976 25.8445 43.6385 25.0117 43.4596 24.1701L42.1601 18.0567C41.9812 17.2152 41.1475 16.6745 40.3069 16.8532ZM43.2307 30.6084L37.8814 31.7454L36.0282 30.5419L32.2073 31.3541C31.3658 31.533 30.8249 32.3658 31.0038 33.2073L32.6281 40.8491C32.807 41.6906 33.6398 42.2315 34.4813 42.0526L45.1798 39.7786C46.0214 39.5997 46.5622 38.7669 46.3833 37.9253L45.0839 31.8119C44.9052 30.9713 44.0713 30.4297 43.2307 30.6084ZM17.2191 20.962C17.129 20.5381 16.7167 20.2701 16.2925 20.3602L14.7642 20.6851C14.3403 20.7752 14.0723 21.1878 14.1624 21.6117L18.2232 40.7161C18.4021 41.5577 19.2349 42.0985 20.0764 41.9196L30.7749 39.6456L30.1252 36.5889L20.9551 38.5381L18.681 27.8396L27.8512 25.8904L27.2014 22.8337L18.0313 24.7829L17.2191 20.962Z" fill="#3B695B" fill-opacity="0.25"/>
</g>
<g clip-path="url(#clip2_249_214)">
<path d="M307.307 117.853L301.958 118.99L300.104 117.787L296.284 118.599C295.442 118.778 294.901 119.611 295.08 120.452L296.704 128.094C296.883 128.935 297.716 129.476 298.558 129.297L309.256 127.023C310.098 126.844 310.638 126.012 310.46 125.17L309.16 119.057C308.981 118.215 308.148 117.675 307.307 117.853ZM310.231 131.608L304.881 132.745L303.028 131.542L299.207 132.354C298.366 132.533 297.825 133.366 298.004 134.207L299.628 141.849C299.807 142.691 300.64 143.231 301.481 143.053L312.18 140.779C313.021 140.6 313.562 139.767 313.383 138.925L312.084 132.812C311.905 131.971 311.071 131.43 310.231 131.608ZM284.219 121.962C284.129 121.538 283.717 121.27 283.293 121.36L281.764 121.685C281.34 121.775 281.072 122.188 281.162 122.612L285.223 141.716C285.402 142.558 286.235 143.099 287.076 142.92L297.775 140.646L297.125 137.589L287.955 139.538L285.681 128.84L294.851 126.89L294.201 123.834L285.031 125.783L284.219 121.962Z" fill="#3B695B" fill-opacity="0.25"/>
</g>
<g clip-path="url(#clip3_249_214)">
<path d="M35.3069 128.853L29.9577 129.99L28.1044 128.787L24.2836 129.599C23.442 129.778 22.9012 130.611 23.0801 131.452L24.7044 139.094C24.8833 139.935 25.716 140.476 26.5576 140.297L37.2561 138.023C38.0976 137.844 38.6385 137.012 38.4596 136.17L37.1601 130.057C36.9812 129.215 36.1475 128.675 35.3069 128.853ZM38.2307 142.608L32.8814 143.745L31.0282 142.542L27.2073 143.354C26.3658 143.533 25.8249 144.366 26.0038 145.207L27.6281 152.849C27.807 153.691 28.6398 154.231 29.4813 154.053L40.1798 151.779C41.0214 151.6 41.5622 150.767 41.3833 149.925L40.0839 143.812C39.9052 142.971 39.0713 142.43 38.2307 142.608ZM12.2191 132.962C12.129 132.538 11.7167 132.27 11.2925 132.36L9.76418 132.685C9.3403 132.775 9.07233 133.188 9.16243 133.612L13.2232 152.716C13.4021 153.558 14.2349 154.099 15.0764 153.92L25.7749 151.646L25.1252 148.589L15.9551 150.538L13.681 139.84L22.8512 137.89L22.2014 134.834L13.0313 136.783L12.2191 132.962Z" fill="#3B695B" fill-opacity="0.25"/>
</g>
<g clip-path="url(#clip4_249_214)">
<path d="M187.307 117.853L181.958 118.99L180.104 117.787L176.284 118.599C175.442 118.778 174.901 119.611 175.08 120.452L176.704 128.094C176.883 128.935 177.716 129.476 178.558 129.297L189.256 127.023C190.098 126.844 190.638 126.012 190.46 125.17L189.16 119.057C188.981 118.215 188.148 117.675 187.307 117.853ZM190.231 131.608L184.881 132.745L183.028 131.542L179.207 132.354C178.366 132.533 177.825 133.366 178.004 134.207L179.628 141.849C179.807 142.691 180.64 143.231 181.481 143.053L192.18 140.779C193.021 140.6 193.562 139.767 193.383 138.925L192.084 132.812C191.905 131.971 191.071 131.43 190.231 131.608ZM164.219 121.962C164.129 121.538 163.717 121.27 163.293 121.36L161.764 121.685C161.34 121.775 161.072 122.188 161.162 122.612L165.223 141.716C165.402 142.558 166.235 143.099 167.076 142.92L177.775 140.646L177.125 137.589L167.955 139.538L165.681 128.84L174.851 126.89L174.201 123.834L165.031 125.783L164.219 121.962Z" fill="#3B695B" fill-opacity="0.25"/>
</g>
<g clip-path="url(#clip5_249_214)">
<path d="M266.307 14.8532L260.958 15.9902L259.104 14.7867L255.284 15.5989C254.442 15.7778 253.901 16.6106 254.08 17.4521L255.704 25.0939C255.883 25.9354 256.716 26.4763 257.558 26.2974L268.256 24.0234C269.098 23.8445 269.638 23.0117 269.46 22.1701L268.16 16.0567C267.981 15.2152 267.148 14.6745 266.307 14.8532ZM269.231 28.6084L263.881 29.7454L262.028 28.5419L258.207 29.3541C257.366 29.533 256.825 30.3658 257.004 31.2073L258.628 38.8491C258.807 39.6906 259.64 40.2315 260.481 40.0526L271.18 37.7786C272.021 37.5997 272.562 36.7669 272.383 35.9253L271.084 29.8119C270.905 28.9713 270.071 28.4297 269.231 28.6084ZM243.219 18.962C243.129 18.5381 242.717 18.2701 242.293 18.3602L240.764 18.6851C240.34 18.7752 240.072 19.1878 240.162 19.6117L244.223 38.7161C244.402 39.5577 245.235 40.0985 246.076 39.9196L256.775 37.6456L256.125 34.5889L246.955 36.5381L244.681 25.8396L253.851 23.8904L253.201 20.8337L244.031 22.7829L243.219 18.962Z" fill="#3B695B" fill-opacity="0.25"/>
</g>
<g clip-path="url(#clip6_249_214)">
<path d="M82.4108 28.8512C82.6362 29.9115 82.7961 30.9457 82.9029 31.9414L74.048 33.8235C73.7406 32.8705 73.4231 31.8698 73.1977 30.8095C72.9723 29.7492 72.8554 28.7058 72.7486 27.7101L81.6035 25.8279C81.9109 26.781 82.1854 27.7909 82.4108 28.8512ZM89.016 24.2524C89.4772 25.1777 89.8282 26.1713 90.0526 27.2268C90.2769 28.2824 90.3605 29.3329 90.3154 30.3658L84.4361 31.6155C84.3272 30.6103 84.1534 29.5341 83.9392 28.5263C83.7158 27.4755 83.446 26.4646 83.1366 25.5021L89.016 24.2524ZM88.1896 22.8306L82.6159 24.0153C81.49 21.0668 80.001 18.7117 78.4361 17.3382C82.3902 17.5284 86.005 19.598 88.1896 22.8306ZM81.0685 24.3443L72.6338 26.1371C72.5557 24.3367 72.6775 22.7024 72.9625 21.3424C73.2243 20.1082 73.6092 19.1712 74.0393 18.5407C74.4663 17.9192 74.8782 17.673 75.2268 17.5989C75.5755 17.5248 76.0519 17.5822 76.6948 17.9763C77.3441 18.3774 78.0769 19.0767 78.818 20.0978C79.6315 21.2242 80.4076 22.6677 81.0685 24.3443ZM65.5131 27.6506C66.1932 23.8091 68.6541 20.4481 72.189 18.666C71.318 20.5573 70.9157 23.3145 71.0864 26.466L65.5131 27.6506ZM71.2154 28.036C71.3243 29.0412 71.446 30.0836 71.6693 31.1343C71.8835 32.1421 72.2055 33.1869 72.5149 34.1494L66.6338 35.3995C66.1742 34.4738 65.8233 33.4802 65.5989 32.4246C65.3745 31.3691 65.291 30.3186 65.3344 29.2861L71.2154 28.036ZM76.8329 39.5513C76.0197 38.4263 75.2439 36.9838 74.583 35.3072L83.0176 33.5144C83.0958 35.3148 82.9738 36.9482 82.6885 38.3067C82.4276 39.5452 82.0424 40.4807 81.6123 41.1113C81.185 41.7312 80.7733 41.9785 80.3817 42.0617C80.076 42.1267 79.5993 42.0683 78.9568 41.6757C78.3074 41.2746 77.575 40.5767 76.8329 39.5513ZM77.2158 42.3153C73.2612 42.1226 69.6465 40.0555 67.4623 36.8208L73.0356 35.6361C74.1619 38.5866 75.6507 40.9408 77.2158 42.3153ZM83.4629 40.9875C84.3337 39.0952 84.7362 36.3389 84.5651 33.1855L90.1388 32.0007C89.4582 35.8444 86.9973 39.2029 83.4629 40.9875Z" fill="#3B695B" fill-opacity="0.25"/>
</g>
<g clip-path="url(#clip7_249_214)">
<path d="M378.411 148.851C378.636 149.911 378.796 150.946 378.903 151.941L370.048 153.824C369.741 152.871 369.423 151.87 369.198 150.809C368.972 149.749 368.855 148.706 368.749 147.71L377.603 145.828C377.911 146.781 378.185 147.791 378.411 148.851ZM385.016 144.252C385.477 145.178 385.828 146.171 386.053 147.227C386.277 148.282 386.36 149.333 386.315 150.366L380.436 151.615C380.327 150.61 380.153 149.534 379.939 148.526C379.716 147.476 379.446 146.465 379.137 145.502L385.016 144.252ZM384.19 142.831L378.616 144.015C377.49 141.067 376.001 138.712 374.436 137.338C378.39 137.528 382.005 139.598 384.19 142.831ZM377.068 144.344L368.634 146.137C368.556 144.337 368.678 142.702 368.963 141.342C369.224 140.108 369.609 139.171 370.039 138.541C370.466 137.919 370.878 137.673 371.227 137.599C371.576 137.525 372.052 137.582 372.695 137.976C373.344 138.377 374.077 139.077 374.818 140.098C375.632 141.224 376.408 142.668 377.068 144.344ZM361.513 147.651C362.193 143.809 364.654 140.448 368.189 138.666C367.318 140.557 366.916 143.314 367.086 146.466L361.513 147.651ZM367.215 148.036C367.324 149.041 367.446 150.084 367.669 151.134C367.884 152.142 368.205 153.187 368.515 154.149L362.634 155.399C362.174 154.474 361.823 153.48 361.599 152.425C361.375 151.369 361.291 150.319 361.334 149.286L367.215 148.036ZM372.833 159.551C372.02 158.426 371.244 156.984 370.583 155.307L379.018 153.514C379.096 155.315 378.974 156.948 378.688 158.307C378.428 159.545 378.042 160.481 377.612 161.111C377.185 161.731 376.773 161.978 376.382 162.062C376.076 162.127 375.599 162.068 374.957 161.676C374.307 161.275 373.575 160.577 372.833 159.551ZM373.216 162.315C369.261 162.123 365.646 160.056 363.462 156.821L369.036 155.636C370.162 158.587 371.651 160.941 373.216 162.315ZM379.463 160.987C380.334 159.095 380.736 156.339 380.565 153.185L386.139 152.001C385.458 155.844 382.997 159.203 379.463 160.987Z" fill="#3B695B" fill-opacity="0.25"/>
</g>
<g clip-path="url(#clip8_249_214)">
<path d="M213.411 100.851C213.636 101.911 213.796 102.946 213.903 103.941L205.048 105.824C204.741 104.871 204.423 103.87 204.198 102.809C203.972 101.749 203.855 100.706 203.749 99.7101L212.603 97.8279C212.911 98.7809 213.185 99.7909 213.411 100.851ZM220.016 96.2524C220.477 97.1777 220.828 98.1713 221.053 99.2268C221.277 100.282 221.36 101.333 221.315 102.366L215.436 103.615C215.327 102.61 215.153 101.534 214.939 100.526C214.716 99.4755 214.446 98.4646 214.137 97.5021L220.016 96.2524ZM219.19 94.8306L213.616 96.0153C212.49 93.0668 211.001 90.7117 209.436 89.3382C213.39 89.5284 217.005 91.598 219.19 94.8306ZM212.068 96.3443L203.634 98.1371C203.556 96.3367 203.678 94.7024 203.963 93.3424C204.224 92.1082 204.609 91.1712 205.039 90.5407C205.466 89.9192 205.878 89.673 206.227 89.5989C206.576 89.5248 207.052 89.5822 207.695 89.9762C208.344 90.3773 209.077 91.0767 209.818 92.0978C210.632 93.2242 211.408 94.6677 212.068 96.3443ZM196.513 99.6506C197.193 95.8091 199.654 92.4481 203.189 90.666C202.318 92.5573 201.916 95.3145 202.086 98.466L196.513 99.6506ZM202.215 100.036C202.324 101.041 202.446 102.084 202.669 103.134C202.884 104.142 203.205 105.187 203.515 106.149L197.634 107.399C197.174 106.474 196.823 105.48 196.599 104.425C196.375 103.369 196.291 102.319 196.334 101.286L202.215 100.036ZM207.833 111.551C207.02 110.426 206.244 108.984 205.583 107.307L214.018 105.514C214.096 107.315 213.974 108.948 213.688 110.307C213.428 111.545 213.042 112.481 212.612 113.111C212.185 113.731 211.773 113.978 211.382 114.062C211.076 114.127 210.599 114.068 209.957 113.676C209.307 113.275 208.575 112.577 207.833 111.551ZM208.216 114.315C204.261 114.123 200.646 112.056 198.462 108.821L204.036 107.636C205.162 110.587 206.651 112.941 208.216 114.315ZM214.463 112.987C215.334 111.095 215.736 108.339 215.565 105.185L221.139 104.001C220.458 107.844 217.997 111.203 214.463 112.987Z" fill="#3B695B" fill-opacity="0.25"/>
</g>
<g clip-path="url(#clip9_249_214)">
<path d="M367.411 76.8003C367.185 77.8606 366.911 78.8705 366.603 79.8235L357.749 77.9414C357.855 76.9457 357.972 75.9023 358.198 74.842C358.423 73.7817 358.741 72.7809 359.048 71.8279L367.903 73.7101C367.796 74.7058 367.636 75.74 367.411 76.8003ZM375.315 75.2857C375.36 76.3186 375.277 77.3691 375.053 78.4246C374.828 79.4802 374.477 80.4738 374.016 81.3991L368.137 80.1494C368.446 79.1868 368.725 78.1329 368.939 77.1252C369.162 76.0744 369.327 75.0412 369.436 74.036L375.315 75.2857ZM375.139 73.6507L369.565 72.466C369.736 69.3145 369.333 66.5573 368.462 64.666C371.997 66.4481 374.458 69.809 375.139 73.6507ZM368.018 72.1371L359.583 70.3443C360.244 68.6677 361.02 67.2242 361.833 66.0978C362.575 65.0767 363.307 64.3773 363.957 63.9762C364.6 63.5822 365.076 63.5248 365.425 63.5989C365.773 63.673 366.185 63.9192 366.612 64.5407C367.042 65.1712 367.427 66.1082 367.689 67.3424C367.974 68.7024 368.096 70.3367 368.018 72.1371ZM352.462 68.8307C354.646 65.5979 358.261 63.5284 362.215 63.3382C360.65 64.7117 359.161 67.0668 358.036 70.0153L352.462 68.8307ZM357.515 71.5021C357.205 72.4646 356.893 73.4664 356.669 74.5171C356.455 75.5249 356.324 76.6103 356.215 77.6155L350.334 76.3654C350.291 75.3329 350.374 74.2824 350.599 73.2268C350.823 72.1713 351.174 71.1777 351.634 70.252L357.515 71.5021ZM357.963 84.3067C357.678 82.9482 357.556 81.3148 357.634 79.5144L366.068 81.3072C365.408 82.9838 364.632 84.4263 363.818 85.5513C363.076 86.5767 362.344 87.2746 361.695 87.6757C361.052 88.0683 360.575 88.1267 360.184 88.0434C359.878 87.9785 359.466 87.7312 359.039 87.1113C358.609 86.4807 358.224 85.5452 357.963 84.3067ZM357.189 86.9874C353.654 85.2029 351.193 81.8443 350.513 78.0008L356.086 79.1855C355.915 82.3389 356.318 85.0951 357.189 86.9874ZM363.436 88.3153C365.001 86.9408 366.49 84.5866 367.616 81.6361L373.19 82.8209C371.005 86.0554 367.39 88.1226 363.436 88.3153Z" fill="#3B695B" fill-opacity="0.25"/>
</g>
<g clip-path="url(#clip10_249_214)">
<path d="M71.4108 137.8C71.1854 138.861 70.9108 139.871 70.6034 140.824L61.7485 138.941C61.8553 137.946 61.9723 136.902 62.1977 135.842C62.423 134.782 62.7406 133.781 63.048 132.828L71.9029 134.71C71.7961 135.706 71.6361 136.74 71.4108 137.8ZM79.3154 136.286C79.3604 137.319 79.2769 138.369 79.0525 139.425C78.8282 140.48 78.4772 141.474 78.016 142.399L72.1366 141.149C72.446 140.187 72.7249 139.133 72.9391 138.125C73.1625 137.074 73.3272 136.041 73.436 135.036L79.3154 136.286ZM79.1388 134.651L73.5651 133.466C73.7357 130.314 73.3334 127.557 72.4625 125.666C75.9973 127.448 78.4578 130.809 79.1388 134.651ZM72.0176 133.137L63.583 131.344C64.2439 129.668 65.0199 128.224 65.8334 127.098C66.5746 126.077 67.3073 125.377 67.9566 124.976C68.5995 124.582 69.0759 124.525 69.4246 124.599C69.7733 124.673 70.1852 124.919 70.6122 125.541C71.0422 126.171 71.4271 127.108 71.6889 128.342C71.9739 129.702 72.0958 131.337 72.0176 133.137ZM56.4623 129.831C58.646 126.598 62.2612 124.528 66.2153 124.338C64.6504 125.712 63.1614 128.067 62.0355 131.015L56.4623 129.831ZM61.5148 132.502C61.2054 133.465 60.8926 134.466 60.6693 135.517C60.4551 136.525 60.3242 137.61 60.2154 138.615L54.3343 137.365C54.291 136.333 54.3745 135.282 54.5989 134.227C54.8232 133.171 55.1742 132.178 55.6338 131.252L61.5148 132.502ZM61.963 145.307C61.6777 143.948 61.5556 142.315 61.6338 140.514L70.0684 142.307C69.4075 143.984 68.6317 145.426 67.8185 146.551C67.0764 147.577 66.344 148.275 65.6947 148.676C65.0521 149.068 64.5755 149.127 64.1838 149.043C63.8782 148.978 63.4665 148.731 63.0391 148.111C62.6091 147.481 62.2239 146.545 61.963 145.307ZM61.1885 147.987C57.6542 146.203 55.1927 142.844 54.5131 139.001L60.0864 140.185C59.9153 143.339 60.3178 146.095 61.1885 147.987ZM67.4357 149.315C69.0008 147.941 70.4896 145.587 71.6159 142.636L77.1896 143.821C75.0045 147.055 71.3903 149.123 67.4357 149.315Z" fill="#3B695B" fill-opacity="0.25"/>
</g>
<g clip-path="url(#clip11_249_214)">
<path d="M141.053 36.4246C139.617 43.1781 132.98 47.4881 126.227 46.0526C119.473 44.6171 115.163 37.9803 116.599 31.2268C118.034 24.4734 124.671 20.1634 131.425 21.5989C138.178 23.0344 142.488 29.6712 141.053 36.4246ZM130.775 24.6556C129.93 24.4759 129.101 25.0152 128.922 25.8591C128.742 26.7045 129.28 27.5326 130.125 27.7123C130.971 27.892 131.799 27.3542 131.978 26.5088C132.158 25.6649 131.62 24.8353 130.775 24.6556ZM127.201 41.4675C128.887 41.8259 130.549 40.7465 130.908 39.0605C131.084 38.2295 130.914 37.4096 130.496 36.7466L134.994 30.4294C135.414 29.9097 135.294 29.1804 134.771 28.7997C134.242 28.4227 133.513 28.5422 133.132 29.0653L128.592 35.3734C128.563 35.3673 128.539 35.3172 128.51 35.3111C126.824 34.9527 125.153 36.0751 124.794 37.7611C124.436 39.4471 125.515 41.1092 127.201 41.4675ZM124.938 25.8111C124.093 25.6314 123.265 26.1692 123.085 27.0146C122.905 27.86 123.443 28.6881 124.289 28.8678C125.134 29.0475 125.962 28.5097 126.142 27.6643C126.322 26.819 125.784 25.9908 124.938 25.8111ZM120.859 33.7298C121.704 33.9095 122.533 33.3717 122.712 32.5263C122.892 31.6809 122.354 30.8528 121.509 30.6731C120.665 30.4937 119.835 31.0312 119.656 31.8766C119.476 32.7219 120.015 33.5504 120.859 33.7298ZM136.792 33.9217C135.947 33.742 135.119 34.2798 134.939 35.1252C134.759 35.9706 135.297 36.7987 136.143 36.9784C136.988 37.1581 137.816 36.6203 137.996 35.7749C138.176 34.9295 137.638 34.1014 136.792 33.9217Z" fill="#3B695B" fill-opacity="0.25"/>
</g>
<g clip-path="url(#clip12_249_214)">
<path d="M44.0525 88.4246C42.6171 95.1781 35.9802 99.4881 29.2268 98.0526C22.4734 96.6171 18.1634 89.9803 19.5989 83.2268C21.0343 76.4734 27.6712 72.1634 34.4246 73.5989C41.178 75.0344 45.488 81.6712 44.0525 88.4246ZM33.7749 76.6556C32.9295 76.4759 32.101 77.0152 31.9217 77.8591C31.742 78.7045 32.2798 79.5326 33.1252 79.7123C33.9705 79.892 34.7987 79.3542 34.9784 78.5088C35.1578 77.6649 34.6202 76.8353 33.7749 76.6556ZM30.2014 93.4675C31.8874 93.8259 33.5495 92.7465 33.9078 91.0605C34.0845 90.2295 33.9143 89.4096 33.4961 88.7466L37.9938 82.4294C38.4137 81.9097 38.2942 81.1804 37.7711 80.7997C37.2422 80.4227 36.513 80.5422 36.1322 81.0653L31.5916 87.3734C31.5629 87.3673 31.5386 87.3172 31.51 87.3111C29.824 86.9527 28.1528 88.0751 27.7944 89.7611C27.436 91.4471 28.5154 93.1092 30.2014 93.4675ZM27.9383 77.8111C27.093 77.6314 26.2648 78.1692 26.0851 79.0146C25.9054 79.86 26.4432 80.6881 27.2886 80.8678C28.134 81.0475 28.9621 80.5097 29.1418 79.6643C29.3215 78.819 28.7837 77.9908 27.9383 77.8111ZM23.8591 85.7298C24.7044 85.9095 25.5326 85.3717 25.7123 84.5263C25.892 83.6809 25.3542 82.8528 24.5088 82.6731C23.6648 82.4937 22.8353 83.0312 22.6556 83.8766C22.4759 84.7219 23.0151 85.5504 23.8591 85.7298ZM39.7923 85.9217C38.947 85.742 38.1188 86.2798 37.9391 87.1252C37.7594 87.9706 38.2972 88.7987 39.1426 88.9784C39.988 89.1581 40.8161 88.6203 40.9958 87.7749C41.1755 86.9295 40.6377 86.1014 39.7923 85.9217Z" fill="#3B695B" fill-opacity="0.25"/>
</g>
<g clip-path="url(#clip13_249_214)">
<path d="M276.053 72.4246C274.617 79.1781 267.98 83.4881 261.227 82.0526C254.473 80.6171 250.163 73.9803 251.599 67.2268C253.034 60.4734 259.671 56.1634 266.425 57.5989C273.178 59.0344 277.488 65.6712 276.053 72.4246ZM265.775 60.6556C264.93 60.4759 264.101 61.0152 263.922 61.8591C263.742 62.7045 264.28 63.5326 265.125 63.7123C265.971 63.892 266.799 63.3542 266.978 62.5088C267.158 61.6649 266.62 60.8353 265.775 60.6556ZM262.201 77.4675C263.887 77.8259 265.549 76.7465 265.908 75.0605C266.084 74.2295 265.914 73.4096 265.496 72.7466L269.994 66.4294C270.414 65.9097 270.294 65.1804 269.771 64.7997C269.242 64.4227 268.513 64.5422 268.132 65.0653L263.592 71.3734C263.563 71.3673 263.539 71.3172 263.51 71.3111C261.824 70.9527 260.153 72.0751 259.794 73.7611C259.436 75.4471 260.515 77.1092 262.201 77.4675ZM259.938 61.8111C259.093 61.6314 258.265 62.1692 258.085 63.0146C257.905 63.86 258.443 64.6881 259.289 64.8678C260.134 65.0475 260.962 64.5097 261.142 63.6643C261.322 62.819 260.784 61.9908 259.938 61.8111ZM255.859 69.7298C256.704 69.9095 257.533 69.3717 257.712 68.5263C257.892 67.6809 257.354 66.8528 256.509 66.6731C255.665 66.4937 254.835 67.0312 254.656 67.8766C254.476 68.7219 255.015 69.5504 255.859 69.7298ZM271.792 69.9217C270.947 69.742 270.119 70.2798 269.939 71.1252C269.759 71.9706 270.297 72.7987 271.143 72.9784C271.988 73.1581 272.816 72.6203 272.996 71.7749C273.176 70.9295 272.638 70.1014 271.792 69.9217Z" fill="#3B695B" fill-opacity="0.25"/>
</g>
<g clip-path="url(#clip14_249_214)">
<path d="M248.053 140.227C249.488 146.98 245.178 153.617 238.425 155.053C231.671 156.488 225.034 152.178 223.599 145.425C222.163 138.671 226.473 132.034 233.227 130.599C239.98 129.163 246.617 133.473 248.053 140.227ZM233.877 133.656C233.031 133.835 232.494 134.665 232.673 135.509C232.853 136.354 233.681 136.892 234.526 136.712C235.372 136.533 235.909 135.704 235.73 134.859C235.55 134.015 234.722 133.476 233.877 133.656ZM237.45 150.468C239.136 150.109 240.215 148.447 239.857 146.761C239.68 145.93 239.191 145.25 238.54 144.815L240.079 137.214C240.251 136.569 239.846 135.951 239.213 135.816C238.576 135.687 237.959 136.093 237.824 136.725L236.241 144.335C236.213 144.341 236.17 144.305 236.141 144.311C234.455 144.669 233.385 146.375 233.744 148.061C234.102 149.746 235.764 150.826 237.45 150.468ZM229.015 137.085C228.169 137.265 227.631 138.093 227.811 138.938C227.991 139.784 228.819 140.322 229.664 140.142C230.51 139.962 231.048 139.134 230.868 138.289C230.688 137.443 229.86 136.905 229.015 137.085ZM228.509 145.978C229.354 145.799 229.892 144.971 229.712 144.125C229.533 143.28 228.704 142.742 227.859 142.922C227.015 143.101 226.476 143.93 226.656 144.775C226.835 145.62 227.665 146.158 228.509 145.978ZM243.143 139.673C242.297 139.853 241.759 140.681 241.939 141.526C242.119 142.372 242.947 142.909 243.792 142.73C244.638 142.55 245.176 141.722 244.996 140.877C244.816 140.031 243.988 139.493 243.143 139.673Z" fill="#3B695B" fill-opacity="0.25"/>
</g>
<g clip-path="url(#clip15_249_214)">
<path d="M167.053 78.2268C168.488 84.9803 164.178 91.6171 157.425 93.0526C150.671 94.4881 144.034 90.1781 142.599 83.4246C141.163 76.6712 145.473 70.0344 152.227 68.5989C158.98 67.1634 165.617 71.4734 167.053 78.2268ZM152.877 71.6556C152.031 71.8353 151.494 72.6649 151.673 73.5088C151.853 74.3542 152.681 74.892 153.526 74.7123C154.372 74.5326 154.909 73.7045 154.73 72.8591C154.55 72.0152 153.722 71.4759 152.877 71.6556ZM156.45 88.4675C158.136 88.1091 159.215 86.447 158.857 84.7611C158.68 83.93 158.191 83.2502 157.54 82.8147L159.079 75.2143C159.251 74.5687 158.846 73.9511 158.213 73.816C157.576 73.6867 156.959 74.0925 156.824 74.7253L155.241 82.3348C155.213 82.3409 155.17 82.305 155.141 82.3111C153.455 82.6695 152.385 84.3746 152.744 86.0605C153.102 87.7465 154.764 88.8259 156.45 88.4675ZM148.015 75.0852C147.169 75.2648 146.631 76.093 146.811 76.9384C146.991 77.7837 147.819 78.3216 148.664 78.1419C149.51 77.9622 150.048 77.134 149.868 76.2886C149.688 75.4433 148.86 74.9055 148.015 75.0852ZM147.509 83.9784C148.354 83.7987 148.892 82.9706 148.712 82.1252C148.533 81.2798 147.704 80.742 146.859 80.9217C146.015 81.1011 145.476 81.9295 145.656 82.7749C145.835 83.6203 146.665 84.1578 147.509 83.9784ZM162.143 77.6731C161.297 77.8528 160.759 78.6809 160.939 79.5263C161.119 80.3717 161.947 80.9095 162.792 80.7298C163.638 80.5501 164.176 79.7219 163.996 78.8766C163.816 78.0312 162.988 77.4934 162.143 77.6731Z" fill="#3B695B" fill-opacity="0.25"/>
</g>
<g clip-path="url(#clip16_249_214)">
<path d="M329.053 84.2269C330.488 90.9803 326.178 97.6171 319.425 99.0526C312.671 100.488 306.034 96.1781 304.599 89.4246C303.163 82.6712 307.473 76.0344 314.227 74.5989C320.98 73.1634 327.617 77.4734 329.053 84.2269ZM314.877 77.6556C314.031 77.8353 313.494 78.6649 313.673 79.5088C313.853 80.3542 314.681 80.892 315.526 80.7123C316.372 80.5326 316.909 79.7045 316.73 78.8591C316.55 78.0152 315.722 77.4759 314.877 77.6556ZM318.45 94.4675C320.136 94.1092 321.215 92.4471 320.857 90.7611C320.68 89.93 320.191 89.2502 319.54 88.8147L321.079 81.2143C321.251 80.5687 320.846 79.9511 320.213 79.816C319.576 79.6867 318.959 80.0926 318.824 80.7253L317.241 88.3348C317.213 88.3409 317.17 88.305 317.141 88.3111C315.455 88.6695 314.385 90.3746 314.744 92.0605C315.102 93.7465 316.764 94.8259 318.45 94.4675ZM310.015 81.0852C309.169 81.2649 308.631 82.093 308.811 82.9384C308.991 83.7838 309.819 84.3216 310.664 84.1419C311.51 83.9622 312.048 83.134 311.868 82.2887C311.688 81.4433 310.86 80.9055 310.015 81.0852ZM309.509 89.9784C310.354 89.7987 310.892 88.9706 310.712 88.1252C310.533 87.2798 309.704 86.742 308.859 86.9217C308.015 87.1011 307.476 87.9295 307.656 88.7749C307.835 89.6203 308.665 90.1578 309.509 89.9784ZM324.143 83.6731C323.297 83.8528 322.759 84.6809 322.939 85.5263C323.119 86.3717 323.947 86.9095 324.792 86.7298C325.638 86.5501 326.176 85.7219 325.996 84.8766C325.816 84.0312 324.988 83.4934 324.143 83.6731Z" fill="#3B695B" fill-opacity="0.25"/>
</g>
<g clip-path="url(#clip17_249_214)">
<path d="M376.288 20.6878C374.806 20.3728 373.291 20.6535 372.023 21.4784L368.673 23.6533L366.502 20.3045C365.677 19.0345 364.407 18.1621 362.926 17.8473C359.866 17.1972 356.85 19.1555 356.2 22.2122L355.958 23.3489C355.309 26.4067 357.268 29.4218 360.324 30.0714C361.806 30.3864 363.321 30.1058 364.59 29.2808L367.938 27.1112L370.111 30.4584C370.936 31.7284 372.205 32.6008 373.686 32.9156C376.746 33.564 379.762 31.6053 380.412 28.5486L380.653 27.4119C381.304 24.3532 379.345 21.3375 376.288 20.6878ZM363.229 27.1886C362.52 27.6492 361.673 27.8062 360.844 27.63C359.136 27.2649 358.04 25.5785 358.403 23.8706L358.645 22.7339C359.008 21.0252 360.695 19.9297 362.404 20.2929C363.233 20.4691 363.943 20.9569 364.404 21.6664L366.577 25.0136L363.229 27.1886ZM377.966 28.0288C377.603 29.7375 375.916 30.833 374.207 30.4697C373.378 30.2935 372.669 29.8057 372.208 29.0962L370.035 25.749L373.381 23.575C374.091 23.1144 374.938 22.9574 375.767 23.1336C377.476 23.4958 378.571 25.1822 378.208 26.8902L377.966 28.0288Z" fill="#3B695B" fill-opacity="0.25"/>
</g>
<g clip-path="url(#clip18_249_214)">
<path d="M142.288 107.688C140.806 107.373 139.291 107.653 138.023 108.478L134.673 110.653L132.502 107.304C131.677 106.035 130.407 105.162 128.926 104.847C125.866 104.197 122.85 106.155 122.2 109.212L121.958 110.349C121.309 113.407 123.268 116.422 126.324 117.071C127.806 117.386 129.321 117.106 130.59 116.281L133.938 114.111L136.111 117.458C136.936 118.728 138.205 119.601 139.686 119.916C142.746 120.564 145.762 118.605 146.412 115.549L146.653 114.412C147.304 111.353 145.345 108.338 142.288 107.688ZM129.229 114.189C128.52 114.649 127.673 114.806 126.844 114.63C125.136 114.265 124.04 112.579 124.403 110.871L124.645 109.734C125.008 108.025 126.695 106.93 128.404 107.293C129.233 107.469 129.943 107.957 130.404 108.666L132.577 112.014L129.229 114.189ZM143.966 115.029C143.603 116.738 141.916 117.833 140.207 117.47C139.378 117.294 138.669 116.806 138.208 116.096L136.035 112.749L139.381 110.575C140.091 110.114 140.938 109.957 141.767 110.134C143.476 110.496 144.571 112.182 144.208 113.89L143.966 115.029Z" fill="#3B695B" fill-opacity="0.25"/>
</g>
<g clip-path="url(#clip19_249_214)">
<path d="M75.288 55.6878C73.8063 55.3728 72.2914 55.6535 71.0226 56.4784L67.673 58.6533L65.5015 55.3045C64.6768 54.0345 63.4074 53.1621 61.9265 52.8473C58.8662 52.1972 55.8498 54.1555 55.2001 57.2122L54.9585 58.3489C54.3085 61.4067 56.2678 64.4218 59.3242 65.0714C60.8059 65.3864 62.3208 65.1058 63.5896 64.2808L66.938 62.1112L69.1111 65.4584C69.9358 66.7284 71.2052 67.6008 72.6861 67.9156C75.7459 68.564 78.762 66.6053 79.4118 63.5486L79.6534 62.4119C80.3035 59.3532 78.3448 56.3375 75.288 55.6878ZM62.2292 62.1886C61.5199 62.6492 60.6726 62.8062 59.8439 62.63C58.1356 62.2649 57.0404 60.5785 57.4034 58.8706L57.6451 57.7339C58.0083 56.0252 59.6952 54.9297 61.4042 55.2929C62.233 55.4691 62.9428 55.9569 63.4038 56.6664L65.5768 60.0136L62.2292 62.1886ZM76.9664 63.0288C76.6032 64.7375 74.9163 65.833 73.2072 65.4697C72.3785 65.2935 71.6687 64.8057 71.2077 64.0962L69.0346 60.749L72.3813 58.575C73.0906 58.1144 73.9378 57.9574 74.7666 58.1336C76.4763 58.4958 77.5715 60.1822 77.2084 61.8902L76.9664 63.0288Z" fill="#3B695B" fill-opacity="0.25"/>
</g>
<g clip-path="url(#clip20_249_214)">
<path d="M206.689 64.8469C205.208 65.1618 203.938 66.0343 203.114 67.304L200.939 70.6533L197.593 68.4772C196.323 67.6525 194.809 67.3718 193.328 67.6866C190.268 68.3374 188.308 71.3532 188.958 74.41L189.2 75.5467C189.85 78.6045 192.866 80.562 195.922 79.9123C197.404 79.5974 198.674 78.7249 199.497 77.4552L201.674 74.1112L205.02 76.2852C206.29 77.1099 207.805 77.3906 209.286 77.0758C212.345 76.4236 214.304 73.4075 213.654 70.3508L213.412 69.2141C212.762 66.1555 209.746 64.1971 206.689 64.8469ZM197.404 76.0972C196.943 76.8065 196.233 77.2945 195.404 77.4706C193.695 77.8319 192.009 76.7367 191.645 75.0288L191.404 73.8921C191.041 72.1834 192.136 70.4965 193.845 70.1332C194.674 69.9571 195.521 70.114 196.231 70.5747L199.577 72.7486L197.404 76.0972ZM211.208 70.8706C211.572 72.5793 210.476 74.2662 208.767 74.6294C207.938 74.8056 207.091 74.6486 206.382 74.188L203.035 72.014L205.208 68.6668C205.669 67.9575 206.379 67.4695 207.208 67.2933C208.917 66.9288 210.603 68.024 210.966 69.7319L211.208 70.8706Z" fill="#3B695B" fill-opacity="0.25"/>
</g>
<g clip-path="url(#clip21_249_214)">
<path d="M321.689 150.847C320.208 151.162 318.938 152.034 318.114 153.304L315.939 156.653L312.593 154.477C311.323 153.653 309.809 153.372 308.328 153.687C305.268 154.337 303.308 157.353 303.958 160.41L304.2 161.547C304.85 164.605 307.866 166.562 310.922 165.912C312.404 165.597 313.674 164.725 314.497 163.455L316.674 160.111L320.02 162.285C321.29 163.11 322.805 163.391 324.286 163.076C327.345 162.424 329.304 159.407 328.654 156.351L328.412 155.214C327.762 152.155 324.746 150.197 321.689 150.847ZM312.404 162.097C311.943 162.806 311.233 163.294 310.404 163.471C308.695 163.832 307.009 162.737 306.645 161.029L306.404 159.892C306.041 158.183 307.136 156.496 308.845 156.133C309.674 155.957 310.521 156.114 311.231 156.575L314.577 158.749L312.404 162.097ZM326.208 156.871C326.572 158.579 325.476 160.266 323.767 160.629C322.938 160.806 322.091 160.649 321.382 160.188L318.035 158.014L320.208 154.667C320.669 153.957 321.379 153.469 322.208 153.293C323.917 152.929 325.603 154.024 325.966 155.732L326.208 156.871Z" fill="#3B695B" fill-opacity="0.25"/>
</g>
<g clip-path="url(#clip22_249_214)">
<path d="M192.32 22.9325C192.589 21.6663 193.834 20.8582 195.1 21.1273L198.156 21.777C199.422 22.046 200.231 23.2907 199.962 24.5568L199.312 27.6135C199.043 28.8792 197.798 29.6878 196.532 29.4188L196.15 29.3375L195.744 31.248L203.004 32.7911C204.48 33.1048 205.424 34.5584 205.11 36.0342L204.785 37.5626L205.167 37.6438C206.433 37.9128 207.241 39.1579 206.972 40.4236L206.323 43.4803C206.054 44.746 204.808 45.5546 203.543 45.2856L200.486 44.6358C199.22 44.3668 198.412 43.1217 198.681 41.856L199.33 38.7993C199.6 37.5336 200.845 36.725 202.11 36.9941L202.492 37.0753L202.817 35.5469C202.862 35.3368 202.727 35.1283 202.516 35.0836L195.257 33.5405L194.851 35.451L195.233 35.5322C196.498 35.8012 197.307 37.0463 197.038 38.312L196.388 41.3687C196.119 42.6344 194.874 43.443 193.608 43.174L190.552 42.5242C189.286 42.2552 188.477 41.0101 188.746 39.7444L189.396 36.6877C189.665 35.422 190.91 34.6134 192.176 34.8825L192.558 34.9637L192.964 33.0532L185.704 31.5101C185.494 31.4655 185.286 31.6009 185.241 31.811L184.916 33.3394L185.298 33.4206C186.564 33.6896 187.373 34.9347 187.104 36.2004L186.454 39.2571C186.185 40.5228 184.94 41.3314 183.674 41.0624L180.617 40.4126C179.351 40.1435 178.543 38.8985 178.812 37.6328L179.462 34.5761C179.731 33.3104 180.976 32.5017 182.242 32.7709L182.624 32.8521L182.949 31.3237C183.262 29.8479 184.715 28.9036 186.192 29.2176L193.451 30.7607L193.858 28.8502L193.475 28.769C192.21 28.5 191.401 27.2549 191.67 25.9892L192.32 22.9325Z" fill="#3B695B" fill-opacity="0.25"/>
</g>
<g clip-path="url(#clip23_249_214)">
<path d="M87.7464 74.5568C87.4773 73.2907 88.286 72.046 89.5517 71.777L92.6084 71.1272C93.8741 70.8582 95.1191 71.6663 95.3882 72.9325L96.0379 75.9892C96.307 77.2549 95.4984 78.5 94.2327 78.769L93.8506 78.8502L94.2567 80.7607L101.516 79.2176C102.992 78.9039 104.446 79.8479 104.76 81.3237L105.084 82.8521L105.466 82.7708C106.732 82.5018 107.977 83.3104 108.246 84.5761L108.896 87.6328C109.165 88.8985 108.356 90.1436 107.091 90.4126L104.034 91.0623C102.768 91.3314 101.523 90.5228 101.254 89.2571L100.605 86.2004C100.335 84.9347 101.144 83.6896 102.41 83.4206L102.792 83.3394L102.467 81.811C102.422 81.6009 102.214 81.4655 102.004 81.5101L94.744 83.0532L95.1501 84.9637L95.5321 84.8825C96.7978 84.6134 98.0429 85.422 98.312 86.6877L98.9617 89.7444C99.2307 91.0101 98.4221 92.2552 97.1565 92.5242L94.0997 93.174C92.8341 93.443 91.5889 92.6344 91.3199 91.3687L90.6702 88.312C90.4012 87.0463 91.2098 85.8012 92.4754 85.5322L92.8575 85.451L92.4514 83.5405L85.1918 85.0836C84.9816 85.1283 84.8462 85.3368 84.8909 85.5469L85.2157 87.0753L85.5978 86.9941C86.8635 86.725 88.1086 87.5336 88.3777 88.7993L89.0274 91.856C89.2964 93.1217 88.4878 94.3668 87.2221 94.6358L84.1654 95.2856C82.8993 95.5547 81.6546 94.746 81.3856 93.4803L80.7359 90.4236C80.4669 89.1579 81.275 87.9129 82.5411 87.6438L82.9232 87.5626L82.5983 86.0342C82.2847 84.5584 83.2272 83.1051 84.7045 82.7911L91.9642 81.248L91.5581 79.3375L91.176 79.4188C89.9103 79.6878 88.6652 78.8792 88.3962 77.6135L87.7464 74.5568Z" fill="#3B695B" fill-opacity="0.25"/>
</g>
<g clip-path="url(#clip24_249_214)">
<path d="M346.746 114.557C346.477 113.291 347.286 112.046 348.552 111.777L351.608 111.127C352.874 110.858 354.119 111.666 354.388 112.932L355.038 115.989C355.307 117.255 354.498 118.5 353.233 118.769L352.851 118.85L353.257 120.761L360.516 119.218C361.992 118.904 363.446 119.848 363.76 121.324L364.084 122.852L364.466 122.771C365.732 122.502 366.977 123.31 367.246 124.576L367.896 127.633C368.165 128.898 367.356 130.144 366.091 130.413L363.034 131.062C361.768 131.331 360.523 130.523 360.254 129.257L359.605 126.2C359.335 124.935 360.144 123.69 361.41 123.421L361.792 123.339L361.467 121.811C361.422 121.601 361.214 121.465 361.004 121.51L353.744 123.053L354.15 124.964L354.532 124.882C355.798 124.613 357.043 125.422 357.312 126.688L357.962 129.744C358.231 131.01 357.422 132.255 356.156 132.524L353.1 133.174C351.834 133.443 350.589 132.634 350.32 131.369L349.67 128.312C349.401 127.046 350.21 125.801 351.475 125.532L351.858 125.451L351.451 123.541L344.192 125.084C343.982 125.128 343.846 125.337 343.891 125.547L344.216 127.075L344.598 126.994C345.864 126.725 347.109 127.534 347.378 128.799L348.027 131.856C348.296 133.122 347.488 134.367 346.222 134.636L343.165 135.286C341.899 135.555 340.655 134.746 340.386 133.48L339.736 130.424C339.467 129.158 340.275 127.913 341.541 127.644L341.923 127.563L341.598 126.034C341.285 124.558 342.227 123.105 343.704 122.791L350.964 121.248L350.558 119.338L350.176 119.419C348.91 119.688 347.665 118.879 347.396 117.614L346.746 114.557Z" fill="#3B695B" fill-opacity="0.25"/>
</g>
<g clip-path="url(#clip25_249_214)">
<path d="M246.746 98.5568C246.477 97.2907 247.286 96.046 248.552 95.777L251.608 95.1272C252.874 94.8582 254.119 95.6663 254.388 96.9325L255.038 99.9892C255.307 101.255 254.498 102.5 253.233 102.769L252.851 102.85L253.257 104.761L260.516 103.218C261.992 102.904 263.446 103.848 263.76 105.324L264.084 106.852L264.466 106.771C265.732 106.502 266.977 107.31 267.246 108.576L267.896 111.633C268.165 112.898 267.356 114.144 266.091 114.413L263.034 115.062C261.768 115.331 260.523 114.523 260.254 113.257L259.605 110.2C259.335 108.935 260.144 107.69 261.41 107.421L261.792 107.339L261.467 105.811C261.422 105.601 261.214 105.465 261.004 105.51L253.744 107.053L254.15 108.964L254.532 108.882C255.798 108.613 257.043 109.422 257.312 110.688L257.962 113.744C258.231 115.01 257.422 116.255 256.156 116.524L253.1 117.174C251.834 117.443 250.589 116.634 250.32 115.369L249.67 112.312C249.401 111.046 250.21 109.801 251.475 109.532L251.858 109.451L251.451 107.541L244.192 109.084C243.982 109.128 243.846 109.337 243.891 109.547L244.216 111.075L244.598 110.994C245.864 110.725 247.109 111.534 247.378 112.799L248.027 115.856C248.296 117.122 247.488 118.367 246.222 118.636L243.165 119.286C241.899 119.555 240.655 118.746 240.386 117.48L239.736 114.424C239.467 113.158 240.275 111.913 241.541 111.644L241.923 111.563L241.598 110.034C241.285 108.558 242.227 107.105 243.704 106.791L250.964 105.248L250.558 103.338L250.176 103.419C248.91 103.688 247.665 102.879 247.396 101.614L246.746 98.5568Z" fill="#3B695B" fill-opacity="0.25"/>
</g>
<g clip-path="url(#clip26_249_214)">
<path d="M297.746 31.5568C297.477 30.2907 298.286 29.046 299.552 28.777L302.608 28.1273C303.874 27.8582 305.119 28.6664 305.388 29.9325L306.038 32.9892C306.307 34.2549 305.498 35.5 304.233 35.769L303.851 35.8503L304.257 37.7607L311.516 36.2176C312.992 35.9039 314.446 36.8479 314.76 38.3237L315.084 39.8521L315.466 39.7709C316.732 39.5018 317.977 40.3104 318.246 41.5761L318.896 44.6328C319.165 45.8985 318.356 47.1436 317.091 47.4126L314.034 48.0624C312.768 48.3314 311.523 47.5228 311.254 46.2571L310.605 43.2004C310.335 41.9347 311.144 40.6896 312.41 40.4206L312.792 40.3394L312.467 38.811C312.422 38.6009 312.214 38.4655 312.004 38.5101L304.744 40.0532L305.15 41.9637L305.532 41.8825C306.798 41.6134 308.043 42.422 308.312 43.6877L308.962 46.7444C309.231 48.0101 308.422 49.2552 307.156 49.5242L304.1 50.174C302.834 50.443 301.589 49.6344 301.32 48.3687L300.67 45.312C300.401 44.0463 301.21 42.8012 302.475 42.5322L302.858 42.451L302.451 40.5405L295.192 42.0836C294.982 42.1283 294.846 42.3368 294.891 42.5469L295.216 44.0753L295.598 43.9941C296.864 43.725 298.109 44.5336 298.378 45.7993L299.027 48.856C299.296 50.1217 298.488 51.3668 297.222 51.6358L294.165 52.2856C292.899 52.5547 291.655 51.746 291.386 50.4803L290.736 47.4236C290.467 46.1579 291.275 44.9129 292.541 44.6438L292.923 44.5626L292.598 43.0342C292.285 41.5584 293.227 40.1051 294.704 39.7911L301.964 38.248L301.558 36.3375L301.176 36.4188C299.91 36.6878 298.665 35.8792 298.396 34.6135L297.746 31.5568Z" fill="#3B695B" fill-opacity="0.25"/>
</g>
<g clip-path="url(#clip27_249_214)">
<path d="M112.32 131.932C112.589 130.666 113.834 129.858 115.1 130.127L118.156 130.777C119.422 131.046 120.231 132.291 119.962 133.557L119.312 136.614C119.043 137.879 117.798 138.688 116.532 138.419L116.15 138.338L115.744 140.248L123.004 141.791C124.48 142.105 125.424 143.558 125.11 145.034L124.785 146.563L125.167 146.644C126.433 146.913 127.241 148.158 126.972 149.424L126.323 152.48C126.054 153.746 124.808 154.555 123.543 154.286L120.486 153.636C119.22 153.367 118.412 152.122 118.681 150.856L119.33 147.799C119.6 146.534 120.845 145.725 122.11 145.994L122.492 146.075L122.817 144.547C122.862 144.337 122.727 144.128 122.516 144.084L115.257 142.541L114.851 144.451L115.233 144.532C116.498 144.801 117.307 146.046 117.038 147.312L116.388 150.369C116.119 151.634 114.874 152.443 113.608 152.174L110.552 151.524C109.286 151.255 108.477 150.01 108.746 148.744L109.396 145.688C109.665 144.422 110.91 143.613 112.176 143.882L112.558 143.964L112.964 142.053L105.704 140.51C105.494 140.465 105.286 140.601 105.241 140.811L104.916 142.339L105.298 142.421C106.564 142.69 107.373 143.935 107.104 145.2L106.454 148.257C106.185 149.523 104.94 150.331 103.674 150.062L100.617 149.413C99.3512 149.143 98.5431 147.898 98.8121 146.633L99.4619 143.576C99.7309 142.31 100.976 141.502 102.242 141.771L102.624 141.852L102.949 140.324C103.262 138.848 104.715 137.904 106.192 138.218L113.451 139.761L113.858 137.85L113.475 137.769C112.21 137.5 111.401 136.255 111.67 134.989L112.32 131.932Z" fill="#3B695B" fill-opacity="0.25"/>
</g>
</g>
<defs>
<clipPath id="clip0_249_214">
<rect width="400" height="170" fill="white"/>
</clipPath>
<clipPath id="clip1_249_214">
<rect width="28.125" height="25" fill="white" transform="translate(14 20.8475) rotate(-12)"/>
</clipPath>
<clipPath id="clip2_249_214">
<rect width="28.125" height="25" fill="white" transform="translate(281 121.848) rotate(-12)"/>
</clipPath>
<clipPath id="clip3_249_214">
<rect width="28.125" height="25" fill="white" transform="translate(9 132.848) rotate(-12)"/>
</clipPath>
<clipPath id="clip4_249_214">
<rect width="28.125" height="25" fill="white" transform="translate(161 121.848) rotate(-12)"/>
</clipPath>
<clipPath id="clip5_249_214">
<rect width="28.125" height="25" fill="white" transform="translate(240 18.8475) rotate(-12)"/>
</clipPath>
<clipPath id="clip6_249_214">
<rect width="25" height="25" fill="white" transform="translate(63 20.1978) rotate(-12)"/>
</clipPath>
<clipPath id="clip7_249_214">
<rect width="25" height="25" fill="white" transform="translate(359 140.198) rotate(-12)"/>
</clipPath>
<clipPath id="clip8_249_214">
<rect width="25" height="25" fill="white" transform="translate(194 92.1978) rotate(-12)"/>
</clipPath>
<clipPath id="clip9_249_214">
<rect width="25" height="25" fill="white" transform="translate(353.198 61) rotate(12)"/>
</clipPath>
<clipPath id="clip10_249_214">
<rect width="25" height="25" fill="white" transform="translate(57.1978 122) rotate(12)"/>
</clipPath>
<clipPath id="clip11_249_214">
<rect width="25" height="25" fill="white" transform="translate(119.198 19) rotate(12)"/>
</clipPath>
<clipPath id="clip12_249_214">
<rect width="25" height="25" fill="white" transform="translate(22.1978 71) rotate(12)"/>
</clipPath>
<clipPath id="clip13_249_214">
<rect width="25" height="25" fill="white" transform="translate(254.198 55) rotate(12)"/>
</clipPath>
<clipPath id="clip14_249_214">
<rect width="25" height="25" fill="white" transform="translate(221 133.198) rotate(-12)"/>
</clipPath>
<clipPath id="clip15_249_214">
<rect width="25" height="25" fill="white" transform="translate(140 71.1978) rotate(-12)"/>
</clipPath>
<clipPath id="clip16_249_214">
<rect width="25" height="25" fill="white" transform="translate(302 77.1978) rotate(-12)"/>
</clipPath>
<clipPath id="clip17_249_214">
<rect width="25" height="20" fill="white" transform="translate(358.158 13) rotate(12)"/>
</clipPath>
<clipPath id="clip18_249_214">
<rect width="25" height="20" fill="white" transform="translate(124.158 100) rotate(12)"/>
</clipPath>
<clipPath id="clip19_249_214">
<rect width="25" height="20" fill="white" transform="translate(57.1582 48) rotate(12)"/>
</clipPath>
<clipPath id="clip20_249_214">
<rect width="25" height="20" fill="white" transform="translate(187 65.1978) rotate(-12)"/>
</clipPath>
<clipPath id="clip21_249_214">
<rect width="25" height="20" fill="white" transform="translate(302 151.198) rotate(-12)"/>
</clipPath>
<clipPath id="clip22_249_214">
<rect width="28.125" height="25" fill="white" transform="translate(183.198 17) rotate(12)"/>
</clipPath>
<clipPath id="clip23_249_214">
<rect width="28.125" height="25" fill="white" transform="translate(77 72.8475) rotate(-12)"/>
</clipPath>
<clipPath id="clip24_249_214">
<rect width="28.125" height="25" fill="white" transform="translate(336 112.848) rotate(-12)"/>
</clipPath>
<clipPath id="clip25_249_214">
<rect width="28.125" height="25" fill="white" transform="translate(236 96.8475) rotate(-12)"/>
</clipPath>
<clipPath id="clip26_249_214">
<rect width="28.125" height="25" fill="white" transform="translate(287 29.8475) rotate(-12)"/>
</clipPath>
<clipPath id="clip27_249_214">
<rect width="28.125" height="25" fill="white" transform="translate(103.198 126) rotate(12)"/>
</clipPath>
</defs>
</svg>
