<svg width="400" height="170" viewBox="0 0 400 170" fill="none" xmlns="http://www.w3.org/2000/svg">
<g clip-path="url(#clip0_249_65)">
<path d="M30.4108 135.93C30.6362 136.991 30.7961 138.025 30.9029 139.02L22.048 140.903C21.7406 139.95 21.4231 138.949 21.1977 137.889C20.9723 136.828 20.8554 135.785 20.7486 134.789L29.6035 132.907C29.9109 133.86 30.1854 134.87 30.4108 135.93ZM37.016 131.331C37.4772 132.257 37.8282 133.25 38.0526 134.306C38.2769 135.361 38.3605 136.412 38.3154 137.445L32.4361 138.695C32.3272 137.689 32.1534 136.613 31.9392 135.605C31.7158 134.555 31.446 133.544 31.1366 132.581L37.016 131.331ZM36.1896 129.91L30.6159 131.094C29.49 128.146 28.001 125.791 26.4361 124.417C30.3902 124.608 34.005 126.677 36.1896 129.91ZM29.0685 131.423L20.6338 133.216C20.5557 131.416 20.6775 129.781 20.9625 128.422C21.2243 127.187 21.6092 126.25 22.0393 125.62C22.4663 124.998 22.8782 124.752 23.2268 124.678C23.5755 124.604 24.0519 124.661 24.6948 125.055C25.3441 125.456 26.0769 126.156 26.818 127.177C27.6315 128.303 28.4076 129.747 29.0685 131.423ZM13.5131 134.73C14.1932 130.888 16.6541 127.527 20.189 125.745C19.318 127.636 18.9157 130.394 19.0864 133.545L13.5131 134.73ZM19.2154 135.115C19.3243 136.12 19.446 137.163 19.6693 138.213C19.8835 139.221 20.2054 140.266 20.5149 141.229L14.6338 142.479C14.1742 141.553 13.8233 140.559 13.5989 139.504C13.3745 138.448 13.291 137.398 13.3344 136.365L19.2154 135.115ZM24.8329 146.63C24.0197 145.505 23.2439 144.063 22.583 142.386L31.0176 140.594C31.0958 142.394 30.9738 144.027 30.6885 145.386C30.4276 146.624 30.0424 147.56 29.6123 148.19C29.185 148.81 28.7733 149.058 28.3817 149.141C28.076 149.206 27.5993 149.147 26.9568 148.755C26.3074 148.354 25.575 147.656 24.8329 146.63ZM25.2158 149.394C21.2612 149.202 17.6465 147.135 15.4623 143.9L21.0356 142.715C22.1619 145.666 23.6507 148.02 25.2158 149.394ZM31.4629 148.067C32.3336 146.174 32.7362 143.418 32.5651 140.265L38.1388 139.08C37.4582 142.924 34.9973 146.282 31.4629 148.067Z" fill="#3B695B" fill-opacity="0.25"/>
</g>
<g clip-path="url(#clip1_249_65)">
<path d="M326.411 99.9303C326.636 100.991 326.796 102.025 326.903 103.02L318.048 104.903C317.741 103.95 317.423 102.949 317.198 101.889C316.972 100.828 316.855 99.7849 316.749 98.7892L325.603 96.9071C325.911 97.8601 326.185 98.87 326.411 99.9303ZM333.016 95.3315C333.477 96.2568 333.828 97.2504 334.053 98.306C334.277 99.3615 334.36 100.412 334.315 101.445L328.436 102.695C328.327 101.689 328.153 100.613 327.939 99.6054C327.716 98.5547 327.446 97.5437 327.137 96.5812L333.016 95.3315ZM332.19 93.9097L326.616 95.0945C325.49 92.1459 324.001 89.7908 322.436 88.4173C326.39 88.6075 330.005 90.6771 332.19 93.9097ZM325.068 95.4234L316.634 97.2162C316.556 95.4158 316.678 93.7815 316.963 92.4215C317.224 91.1873 317.609 90.2504 318.039 89.6198C318.466 88.9983 318.878 88.7521 319.227 88.678C319.576 88.6039 320.052 88.6613 320.695 89.0554C321.344 89.4565 322.077 90.1558 322.818 91.1769C323.632 92.3034 324.408 93.7468 325.068 95.4234ZM309.513 98.7298C310.193 94.8882 312.654 91.5272 316.189 89.7451C315.318 91.6364 314.916 94.3936 315.086 97.5451L309.513 98.7298ZM315.215 99.1151C315.324 100.12 315.446 101.163 315.669 102.213C315.884 103.221 316.205 104.266 316.515 105.229L310.634 106.479C310.174 105.553 309.823 104.559 309.599 103.504C309.375 102.448 309.291 101.398 309.334 100.365L315.215 99.1151ZM320.833 110.63C320.02 109.505 319.244 108.063 318.583 106.386L327.018 104.594C327.096 106.394 326.974 108.027 326.688 109.386C326.428 110.624 326.042 111.56 325.612 112.19C325.185 112.81 324.773 113.058 324.382 113.141C324.076 113.206 323.599 113.147 322.957 112.755C322.307 112.354 321.575 111.656 320.833 110.63ZM321.216 113.394C317.261 113.202 313.646 111.135 311.462 107.9L317.036 106.715C318.162 109.666 319.651 112.02 321.216 113.394ZM327.463 112.067C328.334 110.174 328.736 107.418 328.565 104.265L334.139 103.08C333.458 106.924 330.997 110.282 327.463 112.067Z" fill="#3B695B" fill-opacity="0.25"/>
</g>
<g clip-path="url(#clip2_249_65)">
<path d="M30.4108 23.9303C30.6362 24.9906 30.7961 26.0248 30.9029 27.0205L22.048 28.9027C21.7406 27.9497 21.4231 26.9489 21.1977 25.8886C20.9723 24.8283 20.8554 23.7849 20.7486 22.7892L29.6035 20.9071C29.9109 21.8601 30.1854 22.87 30.4108 23.9303ZM37.016 19.3315C37.4772 20.2568 37.8282 21.2504 38.0526 22.306C38.2769 23.3615 38.3605 24.412 38.3154 25.4449L32.4361 26.6946C32.3272 25.6894 32.1534 24.6132 31.9392 23.6054C31.7158 22.5547 31.446 21.5438 31.1366 20.5812L37.016 19.3315ZM36.1896 17.9097L30.6159 19.0945C29.49 16.146 28.001 13.7908 26.4361 12.4173C30.3902 12.6075 34.005 14.6771 36.1896 17.9097ZM29.0685 19.4234L20.6338 21.2162C20.5557 19.4158 20.6775 17.7815 20.9625 16.4215C21.2243 15.1873 21.6092 14.2504 22.0393 13.6198C22.4663 12.9983 22.8782 12.7521 23.2268 12.678C23.5755 12.6039 24.0519 12.6613 24.6948 13.0554C25.3441 13.4565 26.0769 14.1559 26.818 15.1769C27.6315 16.3034 28.4076 17.7468 29.0685 19.4234ZM13.5131 22.7298C14.1932 18.8882 16.6541 15.5272 20.189 13.7452C19.318 15.6364 18.9157 18.3936 19.0864 21.5451L13.5131 22.7298ZM19.2154 23.1151C19.3243 24.1203 19.446 25.1627 19.6693 26.2135C19.8835 27.2212 20.2054 28.266 20.5149 29.2285L14.6338 30.4786C14.1742 29.5529 13.8233 28.5593 13.5989 27.5038C13.3745 26.4482 13.291 25.3977 13.3344 24.3652L19.2154 23.1151ZM24.8329 34.6304C24.0197 33.5054 23.2439 32.0629 22.583 30.3863L31.0176 28.5935C31.0958 30.3939 30.9738 32.0273 30.6885 33.3858C30.4276 34.6244 30.0424 35.5598 29.6123 36.1904C29.185 36.8104 28.7733 37.0576 28.3817 37.1408C28.076 37.2058 27.5993 37.1474 26.9568 36.7548C26.3074 36.3537 25.575 35.6558 24.8329 34.6304ZM25.2158 37.3945C21.2612 37.2017 17.6465 35.1346 15.4623 31.8999L21.0356 30.7153C22.1619 33.6657 23.6507 36.0199 25.2158 37.3945ZM31.4629 36.0666C32.3336 34.1743 32.7362 31.418 32.5651 28.2646L38.1388 27.0799C37.4582 30.9235 34.9973 34.282 31.4629 36.0666Z" fill="#3B695B" fill-opacity="0.25"/>
</g>
<g clip-path="url(#clip3_249_65)">
<path d="M232.411 101.8C232.185 102.861 231.911 103.871 231.603 104.824L222.749 102.941C222.855 101.946 222.972 100.902 223.198 99.842C223.423 98.7817 223.741 97.781 224.048 96.828L232.903 98.7101C232.796 99.7058 232.636 100.74 232.411 101.8ZM240.315 100.286C240.36 101.319 240.277 102.369 240.053 103.425C239.828 104.48 239.477 105.474 239.016 106.399L233.137 105.149C233.446 104.187 233.725 103.133 233.939 102.125C234.162 101.074 234.327 100.041 234.436 99.036L240.315 100.286ZM240.139 98.6508L234.565 97.466C234.736 94.3145 234.333 91.5573 233.462 89.666C236.997 91.4481 239.458 94.809 240.139 98.6508ZM233.018 97.1371L224.583 95.3443C225.244 93.6677 226.02 92.2243 226.833 91.0978C227.575 90.0767 228.307 89.3774 228.957 88.9763C229.6 88.5822 230.076 88.5248 230.425 88.5989C230.773 88.673 231.185 88.9192 231.612 89.5407C232.042 90.1712 232.427 91.1082 232.689 92.3424C232.974 93.7024 233.096 95.3367 233.018 97.1371ZM217.462 93.8307C219.646 90.5979 223.261 88.5284 227.215 88.3382C225.65 89.7117 224.161 92.0668 223.036 95.0153L217.462 93.8307ZM222.515 96.5021C222.205 97.4646 221.893 98.4664 221.669 99.5172C221.455 100.525 221.324 101.61 221.215 102.615L215.334 101.365C215.291 100.333 215.374 99.2824 215.599 98.2269C215.823 97.1713 216.174 96.1777 216.634 95.252L222.515 96.5021ZM222.963 109.307C222.678 107.948 222.556 106.315 222.634 104.514L231.068 106.307C230.408 107.984 229.632 109.426 228.818 110.551C228.076 111.577 227.344 112.275 226.695 112.676C226.052 113.068 225.575 113.127 225.184 113.043C224.878 112.978 224.466 112.731 224.039 112.111C223.609 111.481 223.224 110.545 222.963 109.307ZM222.189 111.987C218.654 110.203 216.193 106.844 215.513 103.001L221.086 104.185C220.915 107.339 221.318 110.095 222.189 111.987ZM228.436 113.315C230.001 111.941 231.49 109.587 232.616 106.636L238.19 107.821C236.005 111.055 232.39 113.123 228.436 113.315Z" fill="#3B695B" fill-opacity="0.25"/>
</g>
<g clip-path="url(#clip4_249_65)">
<path d="M136.296 60.0436C137.236 61.491 136.824 63.4282 135.376 64.3684L132.11 66.4896L127.823 59.8884L131.089 57.7673C132.537 56.8271 134.476 57.2393 135.416 58.687L136.296 60.0436ZM111.756 70.3249L126.513 60.7394L130.801 67.3395L116.04 76.9213C115.652 77.1733 115.206 77.3231 114.739 77.3587L109.47 77.7213C109.046 77.7508 108.639 77.5446 108.416 77.1477C108.175 76.832 108.155 76.3785 108.355 76.0016L110.83 71.3362C111.048 70.9233 111.367 70.5766 111.756 70.3249ZM124.06 60.4704L115.604 65.9613L112.318 60.895C111.613 59.8115 111.922 58.3596 113.007 57.6548L117.528 54.7191C118.613 54.014 120.065 54.3227 120.768 55.4078L121.513 56.5525C121.496 56.5633 121.473 56.5741 121.456 56.5868L117.749 58.9943C117.385 59.2264 117.282 59.7136 117.52 60.0737C117.752 60.4375 118.239 60.5411 118.599 60.3031L122.306 57.8966C122.323 57.8844 122.303 57.863 122.359 57.8575L124.06 60.4704ZM131.742 72.3068C131.726 72.3133 131.703 72.3284 131.685 72.3396L127.979 74.7466C127.615 74.9788 127.512 75.4659 127.749 75.826C127.982 76.1899 128.469 76.2934 128.829 76.0555L132.535 73.6485C132.562 73.5942 132.533 73.613 132.588 73.6098L133.333 74.7565C134.036 75.8395 133.728 77.2914 132.645 77.9947L128.122 80.932C127.039 81.6353 125.587 81.3267 124.884 80.2437L121.592 75.1811L130.047 69.6902L131.742 72.3068Z" fill="#3B695B" fill-opacity="0.25"/>
</g>
<g clip-path="url(#clip5_249_65)">
<path d="M329.375 35.0436C330.315 36.491 329.903 38.4282 328.456 39.3684L325.189 41.4896L320.902 34.8884L324.168 32.7673C325.616 31.8271 327.555 32.2393 328.495 33.687L329.375 35.0436ZM304.835 45.3249L319.593 35.7394L323.88 42.3395L309.119 51.9213C308.731 52.1733 308.285 52.3231 307.818 52.3587L302.549 52.7213C302.125 52.7508 301.718 52.5446 301.495 52.1477C301.255 51.832 301.234 51.3785 301.434 51.0016L303.909 46.3362C304.127 45.9233 304.446 45.5766 304.835 45.3249ZM317.139 35.4704L308.684 40.9613L305.397 35.895C304.692 34.8115 305.001 33.3596 306.086 32.6548L310.607 29.7191C311.692 29.014 313.144 29.3227 313.847 30.4078L314.592 31.5525C314.575 31.5633 314.553 31.5741 314.535 31.5868L310.828 33.9943C310.464 34.2264 310.361 34.7136 310.599 35.0737C310.831 35.4375 311.318 35.5411 311.678 35.3031L315.385 32.8966C315.402 32.8844 315.382 32.863 315.438 32.8575L317.139 35.4704ZM324.821 47.3068C324.805 47.3133 324.782 47.3284 324.764 47.3396L321.058 49.7466C320.694 49.9788 320.591 50.4659 320.829 50.826C321.061 51.1899 321.548 51.2934 321.908 51.0555L325.614 48.6485C325.641 48.5942 325.612 48.613 325.668 48.6098L326.412 49.7565C327.116 50.8395 326.807 52.2914 325.724 52.9947L321.201 55.932C320.118 56.6353 318.666 56.3267 317.963 55.2437L314.671 50.1811L323.126 44.6902L324.821 47.3068Z" fill="#3B695B" fill-opacity="0.25"/>
</g>
<g clip-path="url(#clip6_249_65)">
<path d="M286.375 139.044C287.315 140.491 286.903 142.428 285.456 143.368L282.189 145.49L277.902 138.888L281.168 136.767C282.616 135.827 284.555 136.239 285.495 137.687L286.375 139.044ZM261.835 149.325L276.593 139.739L280.88 146.34L266.119 155.921C265.731 156.173 265.285 156.323 264.818 156.359L259.549 156.721C259.125 156.751 258.718 156.545 258.495 156.148C258.255 155.832 258.234 155.378 258.434 155.002L260.909 150.336C261.127 149.923 261.446 149.577 261.835 149.325ZM274.139 139.47L265.684 144.961L262.397 139.895C261.692 138.812 262.001 137.36 263.086 136.655L267.607 133.719C268.692 133.014 270.144 133.323 270.847 134.408L271.592 135.553C271.575 135.563 271.553 135.574 271.535 135.587L267.828 137.994C267.464 138.226 267.361 138.714 267.599 139.074C267.831 139.438 268.318 139.541 268.678 139.303L272.385 136.897C272.402 136.884 272.382 136.863 272.438 136.857L274.139 139.47ZM281.821 151.307C281.805 151.313 281.782 151.328 281.764 151.34L278.058 153.747C277.694 153.979 277.591 154.466 277.829 154.826C278.061 155.19 278.548 155.293 278.908 155.055L282.614 152.648C282.641 152.594 282.612 152.613 282.668 152.61L283.412 153.757C284.116 154.84 283.807 156.291 282.724 156.995L278.201 159.932C277.118 160.635 275.666 160.327 274.963 159.244L271.671 154.181L280.126 148.69L281.821 151.307Z" fill="#3B695B" fill-opacity="0.25"/>
</g>
<g clip-path="url(#clip7_249_65)">
<path d="M248.375 19.0436C249.315 20.491 248.903 22.4282 247.456 23.3684L244.189 25.4896L239.902 18.8884L243.168 16.7673C244.616 15.8271 246.555 16.2393 247.495 17.687L248.375 19.0436ZM223.835 29.3249L238.593 19.7394L242.88 26.3395L228.119 35.9213C227.731 36.1733 227.285 36.3231 226.818 36.3587L221.549 36.7213C221.125 36.7508 220.718 36.5446 220.495 36.1477C220.255 35.832 220.234 35.3785 220.434 35.0016L222.909 30.3362C223.127 29.9233 223.446 29.5766 223.835 29.3249ZM236.139 19.4704L227.684 24.9613L224.397 19.895C223.692 18.8115 224.001 17.3596 225.086 16.6548L229.607 13.7191C230.692 13.014 232.144 13.3227 232.847 14.4078L233.592 15.5525C233.575 15.5633 233.553 15.5741 233.535 15.5868L229.828 17.9943C229.464 18.2264 229.361 18.7136 229.599 19.0737C229.831 19.4375 230.318 19.5411 230.678 19.3031L234.385 16.8966C234.402 16.8844 234.382 16.863 234.438 16.8575L236.139 19.4704ZM243.821 31.3068C243.805 31.3133 243.782 31.3284 243.764 31.3396L240.058 33.7466C239.694 33.9788 239.591 34.4659 239.829 34.826C240.061 35.1899 240.548 35.2934 240.908 35.0555L244.614 32.6485C244.641 32.5942 244.612 32.613 244.668 32.6098L245.412 33.7565C246.116 34.8395 245.807 36.2914 244.724 36.9947L240.201 39.932C239.118 40.6353 237.666 40.3267 236.963 39.2437L233.671 34.1811L242.126 28.6902L243.821 31.3068Z" fill="#3B695B" fill-opacity="0.25"/>
</g>
<g clip-path="url(#clip8_249_65)">
<path d="M68.9659 94.3168C70.4137 95.2566 70.8254 97.1938 69.8852 98.6416L67.764 101.908L61.1622 97.6214L63.2833 94.3551C64.2236 92.9074 66.1627 92.4952 67.6105 93.4353L68.9659 94.3168ZM50.7297 113.69L60.3124 98.9312L66.9141 103.217L57.3265 117.974C57.0745 118.362 56.7278 118.68 56.3158 118.903L51.6497 121.377C51.2738 121.577 50.8187 121.554 50.4534 121.282C50.1052 121.091 49.9023 120.685 49.9313 120.26L50.2953 114.991C50.3265 114.525 50.4763 114.079 50.7297 113.69ZM57.9614 99.6835L52.4704 108.139L47.4078 104.847C46.3227 104.144 46.0141 102.692 46.7191 101.607L49.6549 97.0862C50.3596 96.0007 51.8116 95.692 52.895 96.3975L54.0413 97.1402C54.0299 97.1571 54.0139 97.176 54.003 97.1948L51.5961 100.902C51.3581 101.262 51.4617 101.749 51.8255 101.981C52.1856 102.219 52.6727 102.116 52.9049 101.752L55.312 98.0457C55.3231 98.0274 55.2957 98.0162 55.3447 97.9884L57.9614 99.6835ZM69.794 107.372C69.7817 107.384 69.7667 107.408 69.7554 107.425L67.3484 111.131C67.1105 111.491 67.214 111.979 67.5779 112.211C67.9379 112.449 68.4251 112.345 68.6573 111.981L71.0642 108.275C71.0664 108.215 71.0476 108.244 71.0971 108.218L72.2438 108.963C73.3267 109.666 73.6353 111.118 72.9321 112.201L69.9948 116.724C69.2915 117.807 67.8395 118.116 66.7566 117.412L61.6902 114.126L67.1811 105.671L69.794 107.372Z" fill="#3B695B" fill-opacity="0.25"/>
</g>
<g clip-path="url(#clip9_249_65)">
<path d="M178.966 79.3168C180.414 80.2566 180.825 82.1938 179.885 83.6416L177.764 86.9079L171.162 82.6214L173.283 79.3551C174.224 77.9074 176.163 77.4952 177.61 78.4354L178.966 79.3168ZM160.73 98.6904L170.312 83.9312L176.914 88.2167L167.326 102.974C167.074 103.362 166.728 103.68 166.316 103.903L161.65 106.377C161.274 106.577 160.819 106.554 160.453 106.282C160.105 106.091 159.902 105.685 159.931 105.26L160.295 99.9908C160.327 99.5249 160.476 99.0787 160.73 98.6904ZM167.961 84.6835L162.47 93.1388L157.408 89.847C156.323 89.1442 156.014 87.6922 156.719 86.6069L159.655 82.0862C160.36 81.0007 161.812 80.692 162.895 81.3975L164.041 82.1402C164.03 82.1571 164.014 82.176 164.003 82.1948L161.596 85.9017C161.358 86.2618 161.462 86.749 161.825 86.9811C162.186 87.2191 162.673 87.1155 162.905 86.7517L165.312 83.0457C165.323 83.0274 165.296 83.0162 165.345 82.9884L167.961 84.6835ZM179.794 92.3718C179.782 92.3844 179.767 92.4076 179.755 92.425L177.348 96.1314C177.11 96.4915 177.214 96.9787 177.578 97.2108C177.938 97.4488 178.425 97.3452 178.657 96.9814L181.064 93.275C181.066 93.2146 181.048 93.2435 181.097 93.2181L182.244 93.9627C183.327 94.666 183.635 96.1179 182.932 97.2009L179.995 101.724C179.291 102.807 177.84 103.116 176.757 102.412L171.69 99.1262L177.181 90.6709L179.794 92.3718Z" fill="#3B695B" fill-opacity="0.25"/>
</g>
<g clip-path="url(#clip10_249_65)">
<path d="M196.77 53.906L196.283 51.6135C195.475 47.8151 197.901 44.0811 201.698 43.274C205.495 42.467 209.231 44.8913 210.038 48.6898L210.525 50.9823L211.289 50.8199C212.975 50.4615 214.638 51.5409 214.996 53.2268L216.945 62.397C217.303 64.0829 216.224 65.745 214.538 66.1034L199.255 69.352C197.566 69.7109 195.906 68.631 195.548 66.945L193.599 57.7749C193.241 56.0889 194.318 54.4273 196.006 54.0685L196.77 53.906ZM199.827 53.2563L207.469 51.632L206.981 49.3395C206.533 47.2294 204.459 45.882 202.348 46.3307C200.237 46.7795 198.891 48.8537 199.339 50.9638L199.827 53.2563Z" fill="#3B695B" fill-opacity="0.25"/>
</g>
<g clip-path="url(#clip11_249_65)">
<path d="M64.7701 22.7253L64.2828 20.4327C63.4754 16.6343 65.9015 12.9003 69.6985 12.0933C73.4955 11.2862 77.2306 13.7105 78.038 17.509L78.5253 19.8015L79.2894 19.6391C80.9754 19.2807 82.6375 20.3601 82.9959 22.0461L84.945 31.2162C85.3034 32.9022 84.224 34.5643 82.5381 34.9226L67.2545 38.1713C65.5661 38.5301 63.9064 37.4502 63.5481 35.7643L61.5989 26.5941C61.2405 24.9082 62.3175 23.2466 64.0059 22.8877L64.7701 22.7253ZM67.8268 22.0755L75.4686 20.4512L74.9813 18.1587C74.5327 16.0486 72.4593 14.7013 70.3482 15.15C68.2372 15.5987 66.891 17.6729 67.3395 19.783L67.8268 22.0755Z" fill="#3B695B" fill-opacity="0.25"/>
</g>
<g clip-path="url(#clip12_249_65)">
<path d="M359.77 73.7253L359.283 71.4327C358.475 67.6343 360.901 63.9003 364.698 63.0933C368.495 62.2862 372.231 64.7105 373.038 68.509L373.525 70.8015L374.289 70.6391C375.975 70.2807 377.638 71.3601 377.996 73.0461L379.945 82.2162C380.303 83.9022 379.224 85.5643 377.538 85.9226L362.255 89.1713C360.566 89.5301 358.906 88.4502 358.548 86.7643L356.599 77.5941C356.241 75.9082 357.318 74.2466 359.006 73.8877L359.77 73.7253ZM362.827 73.0755L370.469 71.4512L369.981 69.1587C369.533 67.0486 367.459 65.7013 365.348 66.15C363.237 66.5987 361.891 68.6729 362.339 70.783L362.827 73.0755Z" fill="#3B695B" fill-opacity="0.25"/>
</g>
<g clip-path="url(#clip13_249_65)">
<path d="M206.149 133.982L206.636 131.69C207.443 127.891 211.178 125.467 214.975 126.274C218.772 127.081 221.198 130.815 220.391 134.614L219.904 136.906L220.668 137.068C222.354 137.427 223.433 139.089 223.075 140.775L221.126 149.945C220.767 151.631 219.105 152.71 217.419 152.352L202.136 149.103C200.447 148.745 199.37 147.083 199.729 145.397L201.678 136.227C202.036 134.541 203.696 133.461 205.384 133.82L206.149 133.982ZM209.205 134.632L216.847 136.256L217.334 133.964C217.783 131.854 216.437 129.779 214.326 129.331C212.215 128.882 210.141 130.229 209.693 132.339L209.205 134.632Z" fill="#3B695B" fill-opacity="0.25"/>
</g>
<g clip-path="url(#clip14_249_65)">
<path d="M18.0695 68.9823L18.5568 66.6898C19.3641 62.8913 23.0992 60.467 26.8962 61.274C30.6933 62.0811 33.1193 65.8151 32.312 69.6135L31.8247 71.906L32.5888 72.0685C34.2748 72.4268 35.3542 74.0889 34.9958 75.7749L33.0467 84.945C32.6883 86.631 31.0262 87.7104 29.3402 87.352L14.0567 84.1034C12.3683 83.7445 11.2913 82.0829 11.6497 80.397L13.5989 71.2268C13.9572 69.5409 15.6169 68.461 17.3053 68.8199L18.0695 68.9823ZM21.1262 69.632L28.768 71.2563L29.2553 68.9638C29.7038 66.8537 28.3576 64.7795 26.2465 64.3307C24.1355 63.882 22.062 65.2294 21.6135 67.3395L21.1262 69.632Z" fill="#3B695B" fill-opacity="0.25"/>
</g>
<g clip-path="url(#clip15_249_65)">
<path d="M122.234 115.544C122.009 116.605 121.734 117.614 121.427 118.568L112.572 116.685C112.678 115.69 112.795 114.646 113.021 113.586C113.246 112.526 113.564 111.525 113.871 110.572L122.726 112.454C122.619 113.45 122.459 114.484 122.234 115.544ZM130.139 114.03C130.184 115.063 130.1 116.113 129.876 117.169C129.651 118.224 129.3 119.218 128.839 120.143L122.96 118.893C123.269 117.931 123.548 116.877 123.762 115.869C123.986 114.818 124.15 113.785 124.259 112.78L130.139 114.03ZM129.962 112.395L124.388 111.21C124.559 108.058 124.157 105.301 123.286 103.41C126.82 105.192 129.281 108.553 129.962 112.395ZM122.841 110.881L114.406 109.088C115.067 107.412 115.843 105.968 116.657 104.842C117.398 103.821 118.13 103.121 118.78 102.72C119.423 102.326 119.899 102.269 120.248 102.343C120.596 102.417 121.008 102.663 121.435 103.285C121.865 103.915 122.25 104.852 122.512 106.086C122.797 107.446 122.919 109.081 122.841 110.881ZM107.285 107.575C109.469 104.342 113.084 102.272 117.038 102.082C115.474 103.456 113.985 105.811 112.859 108.759L107.285 107.575ZM112.338 110.246C112.029 111.209 111.716 112.21 111.492 113.261C111.278 114.269 111.147 115.354 111.039 116.359L105.157 115.109C105.114 114.077 105.198 113.026 105.422 111.971C105.646 110.915 105.997 109.922 106.457 108.996L112.338 110.246ZM112.786 123.051C112.501 121.692 112.379 120.059 112.457 118.258L120.892 120.051C120.231 121.728 119.455 123.17 118.642 124.295C117.9 125.321 117.167 126.019 116.518 126.42C115.875 126.812 115.399 126.871 115.007 126.787C114.701 126.722 114.29 126.475 113.862 125.855C113.432 125.225 113.047 124.289 112.786 123.051ZM112.012 125.731C108.477 123.947 106.016 120.588 105.336 116.745L110.909 117.929C110.738 121.083 111.141 123.839 112.012 125.731ZM118.259 127.059C119.824 125.685 121.313 123.331 122.439 120.38L128.013 121.565C125.828 124.799 122.213 126.867 118.259 127.059Z" fill="#3B695B" fill-opacity="0.25"/>
</g>
<g clip-path="url(#clip16_249_65)">
<path d="M262.088 84.7829L280.428 80.8845L283.027 93.1114L286.084 92.4616L283.323 79.4706C283.055 78.2111 281.804 77.3974 280.543 77.6654L260.674 81.8886C259.415 82.1563 258.601 83.4089 258.869 84.6684L261.63 97.6594L264.687 97.0097L262.088 84.7829ZM288.701 93.5027L259.662 99.6751C259.245 99.7639 258.972 100.186 259.061 100.602L259.223 101.366C259.581 103.049 261.246 104.131 262.93 103.773L287.383 98.5751C289.067 98.2172 290.148 96.5522 289.79 94.8686L289.628 94.1044C289.54 93.6889 289.122 93.4134 288.701 93.5027ZM275.381 91.4519C275.607 91.5986 275.87 91.6375 276.114 91.5857C276.357 91.534 276.582 91.3893 276.73 91.1631L278.535 88.3833C278.829 87.9308 278.7 87.3248 278.247 87.0311L275.468 85.2259C275.015 84.932 274.411 85.0606 274.117 85.513C273.823 85.9655 273.952 86.5714 274.404 86.8651L276.365 88.1376L275.091 90.0976C274.796 90.553 274.925 91.1595 275.381 91.4519ZM269.735 86.4471C269.282 86.1533 268.678 86.2818 268.384 86.7342L266.579 89.514C266.285 89.9665 266.414 90.5724 266.866 90.8662L269.646 92.6714C269.876 92.8168 270.139 92.8558 270.382 92.804C270.626 92.7522 270.851 92.6076 270.998 92.3813C271.292 91.9289 271.163 91.3229 270.711 91.0292L268.751 89.7562L270.025 87.7962C270.277 87.3552 270.148 86.7486 269.735 86.4471Z" fill="#3B695B" fill-opacity="0.25"/>
</g>
<g clip-path="url(#clip17_249_65)">
<path d="M141.088 138.783L159.428 134.885L162.027 147.111L165.084 146.462L162.323 133.471C162.055 132.211 160.804 131.397 159.543 131.665L139.674 135.889C138.415 136.156 137.601 137.409 137.869 138.668L140.63 151.659L143.687 151.01L141.088 138.783ZM167.701 147.503L138.662 153.675C138.245 153.764 137.972 154.186 138.061 154.602L138.223 155.366C138.581 157.049 140.246 158.131 141.93 157.773L166.383 152.575C168.067 152.217 169.148 150.552 168.79 148.869L168.628 148.104C168.54 147.689 168.122 147.413 167.701 147.503ZM154.381 145.452C154.607 145.599 154.87 145.638 155.114 145.586C155.357 145.534 155.582 145.389 155.73 145.163L157.535 142.383C157.829 141.931 157.7 141.325 157.247 141.031L154.468 139.226C154.015 138.932 153.411 139.061 153.117 139.513C152.823 139.965 152.952 140.571 153.404 140.865L155.365 142.138L154.091 144.098C153.796 144.553 153.925 145.16 154.381 145.452ZM148.735 140.447C148.282 140.153 147.678 140.282 147.384 140.734L145.579 143.514C145.285 143.967 145.414 144.572 145.866 144.866L148.646 146.671C148.876 146.817 149.139 146.856 149.382 146.804C149.626 146.752 149.851 146.608 149.998 146.381C150.292 145.929 150.163 145.323 149.711 145.029L147.751 143.756L149.025 141.796C149.277 141.355 149.148 140.749 148.735 140.447Z" fill="#3B695B" fill-opacity="0.25"/>
</g>
<g clip-path="url(#clip18_249_65)">
<path d="M60.3366 60.8845L78.6769 64.7829L76.078 77.0097L79.1347 77.6594L81.896 64.6684C82.1637 63.4089 81.3517 62.1566 80.0908 61.8886L60.2222 57.6654C58.9627 57.3977 57.71 58.2112 57.4423 59.4706L54.681 72.4616L57.7377 73.1114L60.3366 60.8845ZM81.1024 79.6751L52.0636 73.5027C51.6457 73.4139 51.2253 73.6889 51.137 74.1044L50.9746 74.8686C50.6167 76.5522 51.698 78.2172 53.3816 78.5751L77.8353 83.7729C79.5188 84.1307 81.1838 83.0494 81.5417 81.3659L81.7041 80.6017C81.7924 80.1862 81.5227 79.7644 81.1024 79.6751ZM69.7681 72.3838C69.9148 72.6097 70.1391 72.7522 70.3826 72.804C70.6262 72.8558 70.8909 72.8153 71.1173 72.6684L73.8971 70.8632C74.3496 70.5693 74.4784 69.9634 74.1845 69.5111L72.3793 66.7312C72.0855 66.2788 71.4809 66.1503 71.0286 66.4441C70.5762 66.738 70.4474 67.3439 70.7412 67.7963L72.0149 69.7562L70.0541 71.0287C69.5989 71.3245 69.47 71.9311 69.7681 72.3838ZM66.6455 65.5152C66.3517 65.0627 65.7472 64.9342 65.2948 65.2281L62.515 67.0333C62.0626 67.3272 61.9338 67.9331 62.2276 68.3854L64.0328 71.1653C64.1834 71.3915 64.4077 71.534 64.6513 71.5858C64.8949 71.6375 65.1596 71.597 65.386 71.4502C65.8384 71.1563 65.9672 70.5504 65.6734 70.0981L64.4007 68.138L66.3615 66.8655C66.7717 66.5653 66.9007 65.9588 66.6455 65.5152Z" fill="#3B695B" fill-opacity="0.25"/>
</g>
<path d="M364.012 16.3562L382.352 20.2545L379.753 32.4813L382.81 33.1311L385.571 20.1401C385.839 18.8806 385.027 17.6282 383.766 17.3602L363.897 13.137C362.638 12.8693 361.385 13.6828 361.118 14.9423L358.356 27.9333L361.413 28.583L364.012 16.3562ZM384.778 35.1467L355.739 28.9743C355.321 28.8855 354.901 29.1606 354.812 29.5761L354.65 30.3403C354.292 32.0238 355.373 33.6888 357.057 34.0467L381.51 39.2445C383.194 39.6024 384.859 38.5211 385.217 36.8375L385.379 36.0733C385.468 35.6578 385.198 35.2361 384.778 35.1467ZM373.443 27.8555C373.59 28.0813 373.814 28.2239 374.058 28.2756C374.301 28.3274 374.566 28.2869 374.792 28.1401L377.572 26.3348C378.025 26.041 378.154 25.435 377.86 24.9827L376.054 22.2029C375.761 21.7504 375.156 21.6219 374.704 21.9158C374.251 22.2096 374.123 22.8156 374.416 23.2679L375.69 25.2279L373.729 26.5004C373.274 26.7962 373.145 27.4027 373.443 27.8555ZM370.321 20.9868C370.027 20.5344 369.422 20.4058 368.97 20.6997L366.19 22.505C365.738 22.7988 365.609 23.4048 365.903 23.8571L367.708 26.6369C367.859 26.8631 368.083 27.0056 368.326 27.0574C368.57 27.1092 368.835 27.0687 369.061 26.9218C369.514 26.628 369.642 26.022 369.349 25.5697L368.076 23.6096L370.037 22.3372C370.447 22.037 370.576 21.4304 370.321 20.9868Z" fill="#3B695B" fill-opacity="0.25"/>
<g clip-path="url(#clip19_249_65)">
<path d="M155.337 14.8845L173.677 18.7829L171.078 31.0097L174.135 31.6594L176.896 18.6684C177.164 17.4089 176.352 16.1566 175.091 15.8886L155.222 11.6654C153.963 11.3977 152.71 12.2112 152.442 13.4706L149.681 26.4616L152.738 27.1114L155.337 14.8845ZM176.102 33.6751L147.064 27.5027C146.646 27.4139 146.225 27.6889 146.137 28.1044L145.975 28.8686C145.617 30.5522 146.698 32.2172 148.382 32.5751L172.835 37.7729C174.519 38.1307 176.184 37.0494 176.542 35.3659L176.704 34.6017C176.792 34.1862 176.523 33.7644 176.102 33.6751ZM164.768 26.3838C164.915 26.6097 165.139 26.7522 165.383 26.804C165.626 26.8558 165.891 26.8153 166.117 26.6684L168.897 24.8632C169.35 24.5693 169.478 23.9634 169.185 23.5111L167.379 20.7312C167.086 20.2788 166.481 20.1503 166.029 20.4441C165.576 20.738 165.447 21.3439 165.741 21.7963L167.015 23.7562L165.054 25.0287C164.599 25.3245 164.47 25.9311 164.768 26.3838ZM161.646 19.5152C161.352 19.0627 160.747 18.9342 160.295 19.2281L157.515 21.0333C157.063 21.3272 156.934 21.9331 157.228 22.3854L159.033 25.1653C159.183 25.3915 159.408 25.534 159.651 25.5858C159.895 25.6375 160.16 25.597 160.386 25.4502C160.838 25.1563 160.967 24.5504 160.673 24.0981L159.401 22.138L161.361 20.8655C161.772 20.5653 161.901 19.9588 161.646 19.5152Z" fill="#3B695B" fill-opacity="0.25"/>
</g>
<g clip-path="url(#clip20_249_65)">
<path d="M352.337 134.885L370.677 138.783L368.078 151.01L371.135 151.659L373.896 138.668C374.164 137.409 373.352 136.157 372.091 135.889L352.222 131.665C350.963 131.398 349.71 132.211 349.442 133.471L346.681 146.462L349.738 147.111L352.337 134.885ZM373.102 153.675L344.064 147.503C343.646 147.414 343.225 147.689 343.137 148.104L342.975 148.869C342.617 150.552 343.698 152.217 345.382 152.575L369.835 157.773C371.519 158.131 373.184 157.049 373.542 155.366L373.704 154.602C373.792 154.186 373.523 153.764 373.102 153.675ZM361.768 146.384C361.915 146.61 362.139 146.752 362.383 146.804C362.626 146.856 362.891 146.815 363.117 146.668L365.897 144.863C366.35 144.569 366.478 143.963 366.185 143.511L364.379 140.731C364.086 140.279 363.481 140.15 363.029 140.444C362.576 140.738 362.447 141.344 362.741 141.796L364.015 143.756L362.054 145.029C361.599 145.325 361.47 145.931 361.768 146.384ZM358.646 139.515C358.352 139.063 357.747 138.934 357.295 139.228L354.515 141.033C354.063 141.327 353.934 141.933 354.228 142.385L356.033 145.165C356.183 145.391 356.408 145.534 356.651 145.586C356.895 145.638 357.16 145.597 357.386 145.45C357.838 145.156 357.967 144.55 357.673 144.098L356.401 142.138L358.361 140.866C358.772 140.565 358.901 139.959 358.646 139.515Z" fill="#3B695B" fill-opacity="0.25"/>
</g>
<g clip-path="url(#clip21_249_65)">
<path d="M72.0354 141.239C71.3117 140.769 71.106 139.802 71.5759 139.078C72.046 138.354 73.0137 138.149 73.7375 138.618L84.8557 145.841C85.5796 146.311 85.7847 147.276 85.3145 148L78.095 159.119C77.6249 159.843 76.6573 160.048 75.9334 159.578C75.2097 159.108 75.0046 158.143 75.4746 157.419L81.8421 147.61L72.0354 141.239ZM100.914 151.543C101.759 151.363 102.587 151.901 102.767 152.746C102.946 153.592 102.409 154.42 101.563 154.6L87.8081 157.523C86.9627 157.703 86.1346 157.165 85.9549 156.32C85.7752 155.474 86.313 154.646 87.1584 154.467L100.914 151.543Z" fill="#3B695B" fill-opacity="0.25"/>
</g>
<g clip-path="url(#clip22_249_65)">
<path d="M103.766 13.2327C103.296 12.5088 103.502 11.5412 104.225 11.071C104.949 10.6014 105.917 10.807 106.387 11.5305L113.606 22.6509C114.076 23.3748 113.871 24.3396 113.147 24.8097L102.029 32.031C101.306 32.5011 100.338 32.2954 99.8679 31.5715C99.398 30.8476 99.6031 29.8829 100.327 29.4127L110.134 23.041L103.766 13.2327ZM125.957 34.3913C126.802 34.571 127.34 35.3991 127.16 36.2445C126.98 37.0899 126.152 37.6277 125.307 37.448L111.552 34.5242C110.706 34.3445 110.169 33.5164 110.348 32.671C110.528 31.8256 111.356 31.2878 112.201 31.4675L125.957 34.3913Z" fill="#3B695B" fill-opacity="0.25"/>
</g>
<g clip-path="url(#clip23_249_65)">
<path d="M266.766 42.2327C266.296 41.5088 266.502 40.5412 267.225 40.071C267.949 39.6014 268.917 39.807 269.387 40.5305L276.606 51.6509C277.076 52.3748 276.871 53.3396 276.147 53.8097L265.029 61.031C264.306 61.5011 263.338 61.2954 262.868 60.5715C262.398 59.8476 262.603 58.8829 263.327 58.4127L273.134 52.041L266.766 42.2327ZM288.957 63.3913C289.802 63.571 290.34 64.3991 290.16 65.2445C289.98 66.0899 289.152 66.6277 288.307 66.448L274.552 63.5242C273.706 63.3445 273.169 62.5164 273.348 61.671C273.528 60.8256 274.356 60.2878 275.201 60.4675L288.957 63.3913Z" fill="#3B695B" fill-opacity="0.25"/>
</g>
<g clip-path="url(#clip24_249_65)">
<path d="M304.327 139.89C303.603 139.42 303.398 138.452 303.868 137.728C304.338 137.005 305.305 136.799 306.029 137.269L317.147 144.491C317.871 144.962 318.076 145.926 317.606 146.65L310.387 157.769C309.917 158.493 308.949 158.699 308.225 158.229C307.501 157.759 307.296 156.794 307.766 156.07L314.134 146.26L304.327 139.89ZM333.205 150.193C334.051 150.014 334.879 150.552 335.058 151.397C335.238 152.242 334.7 153.071 333.855 153.25L320.1 156.174C319.254 156.354 318.426 155.816 318.246 154.97C318.067 154.125 318.605 153.297 319.45 153.117L333.205 150.193Z" fill="#3B695B" fill-opacity="0.25"/>
</g>
<defs>
<clipPath id="clip0_249_65">
<rect width="25" height="25" fill="white" transform="translate(11 127.277) rotate(-12)"/>
</clipPath>
<clipPath id="clip1_249_65">
<rect width="25" height="25" fill="white" transform="translate(307 91.2769) rotate(-12)"/>
</clipPath>
<clipPath id="clip2_249_65">
<rect width="25" height="25" fill="white" transform="translate(11 15.2769) rotate(-12)"/>
</clipPath>
<clipPath id="clip3_249_65">
<rect width="25" height="25" fill="white" transform="translate(218.198 86) rotate(12)"/>
</clipPath>
<clipPath id="clip4_249_65">
<rect width="25" height="25" fill="white" transform="translate(113.198 53) rotate(12)"/>
</clipPath>
<clipPath id="clip5_249_65">
<rect width="25" height="25" fill="white" transform="translate(306.277 28) rotate(12)"/>
</clipPath>
<clipPath id="clip6_249_65">
<rect width="25" height="25" fill="white" transform="translate(263.277 132) rotate(12)"/>
</clipPath>
<clipPath id="clip7_249_65">
<rect width="25" height="25" fill="white" transform="translate(225.277 12) rotate(12)"/>
</clipPath>
<clipPath id="clip8_249_65">
<rect width="25" height="25" fill="white" transform="translate(45 97.2769) rotate(-12)"/>
</clipPath>
<clipPath id="clip9_249_65">
<rect width="25" height="25" fill="white" transform="translate(155 82.2769) rotate(-12)"/>
</clipPath>
<clipPath id="clip10_249_65">
<rect width="21.875" height="25" fill="white" transform="translate(191 45.5481) rotate(-12)"/>
</clipPath>
<clipPath id="clip11_249_65">
<rect width="21.875" height="25" fill="white" transform="translate(59 14.3673) rotate(-12)"/>
</clipPath>
<clipPath id="clip12_249_65">
<rect width="21.875" height="25" fill="white" transform="translate(354 65.3673) rotate(-12)"/>
</clipPath>
<clipPath id="clip13_249_65">
<rect width="21.875" height="25" fill="white" transform="translate(204.277 124) rotate(12)"/>
</clipPath>
<clipPath id="clip14_249_65">
<rect width="21.875" height="25" fill="white" transform="translate(16.1978 59) rotate(12)"/>
</clipPath>
<clipPath id="clip15_249_65">
<rect width="25" height="25" fill="white" transform="translate(108.021 99.744) rotate(12)"/>
</clipPath>
<clipPath id="clip16_249_65">
<rect width="31.25" height="25" fill="white" transform="translate(255 81.4972) rotate(-12)"/>
</clipPath>
<clipPath id="clip17_249_65">
<rect width="31.25" height="25" fill="white" transform="translate(134 135.497) rotate(-12)"/>
</clipPath>
<clipPath id="clip18_249_65">
<rect width="31.25" height="25" fill="white" transform="translate(55.1978 55) rotate(12)"/>
</clipPath>
<clipPath id="clip19_249_65">
<rect width="31.25" height="25" fill="white" transform="translate(150.198 9) rotate(12)"/>
</clipPath>
<clipPath id="clip20_249_65">
<rect width="31.25" height="25" fill="white" transform="translate(347.198 129) rotate(12)"/>
</clipPath>
<clipPath id="clip21_249_65">
<rect width="28.125" height="25" fill="white" transform="translate(70.7084 137.197) rotate(-12)"/>
</clipPath>
<clipPath id="clip22_249_65">
<rect width="28.125" height="25" fill="white" transform="translate(104.198 9) rotate(12)"/>
</clipPath>
<clipPath id="clip23_249_65">
<rect width="28.125" height="25" fill="white" transform="translate(267.198 38) rotate(12)"/>
</clipPath>
<clipPath id="clip24_249_65">
<rect width="28.125" height="25" fill="white" transform="translate(303 135.848) rotate(-12)"/>
</clipPath>
</defs>
</svg>
