<svg width="400" height="170" viewBox="0 0 400 170" fill="none" xmlns="http://www.w3.org/2000/svg">
<g clip-path="url(#clip0_249_369)">
<path d="M105.292 40.4144C102.138 41.0846 101.763 41.147 100.521 41.3547C99.5546 41.5271 98.566 41.5334 97.5975 41.3732C96.7692 41.2381 95.9781 40.9322 95.2743 40.475C94.5705 40.0178 93.9695 39.4192 93.5094 38.7173C92.982 37.8916 92.5989 36.9822 92.3765 36.028C92.0436 34.8153 91.9581 34.4128 91.293 31.2838C90.6208 28.1215 90.559 27.7488 90.3539 26.5129C90.1697 25.5519 90.1501 24.5667 90.296 23.5992C90.4302 22.7699 90.7359 21.9777 91.1936 21.2733C91.6513 20.5689 92.2508 19.9676 92.9539 19.5079C93.7776 18.9794 94.6858 18.5961 95.6391 18.3745C96.8485 18.0451 97.251 17.9595 100.377 17.295C103.556 16.6193 103.925 16.5583 105.148 16.3534C106.11 16.1675 107.1 16.1473 108.069 16.295C108.899 16.4293 109.691 16.7349 110.395 17.1923C111.1 17.6496 111.701 18.2488 112.162 18.9515C112.697 19.7888 113.085 20.7112 113.305 21.6786C113.638 22.8913 113.724 23.2926 114.388 26.4203C115.053 29.548 115.122 29.962 115.327 31.1873C115.511 32.1505 115.531 33.138 115.385 34.1077C115.249 34.9368 114.943 35.7286 114.485 36.433C114.027 37.1373 113.428 37.7388 112.725 38.1992C111.899 38.7258 110.991 39.1092 110.037 39.3319C108.828 39.6626 108.427 39.7479 105.292 40.4144V40.4144ZM100.765 19.3334C97.6298 19.9999 97.3075 20.0844 96.095 20.3998C95.3659 20.5647 94.6705 20.8535 94.0391 21.2534C93.5798 21.5514 93.188 21.9422 92.8891 22.4008C92.5901 22.8594 92.3906 23.3756 92.3033 23.9161C92.1941 24.6627 92.2151 25.4233 92.3643 26.1633C92.5604 27.4198 92.6296 27.7454 93.2914 30.859C93.9453 33.9354 94.0361 34.306 94.3549 35.5284C94.5218 36.2566 94.8103 36.9523 95.2086 37.5844C95.8153 38.5098 96.7846 39.1371 97.8783 39.3093C98.6173 39.4196 99.3699 39.4006 100.102 39.2532C101.359 39.0612 101.685 38.9917 104.803 38.3291C107.947 37.6607 108.27 37.5761 109.471 37.2617C110.201 37.0975 110.896 36.8087 111.527 36.408C111.984 36.1092 112.373 35.7187 112.67 35.2613C112.967 34.804 113.166 34.2898 113.254 33.7515C113.363 33.0048 113.342 32.2429 113.192 31.503L113.207 31.5C113.001 30.2628 112.932 29.9359 112.266 26.8044C111.6 23.6728 111.516 23.3464 111.201 22.1339C111.034 21.4063 110.746 20.7121 110.348 20.0806C110.049 19.6236 109.658 19.234 109.201 18.9363C108.743 18.6387 108.228 18.4397 107.689 18.352C106.95 18.2421 106.197 18.2612 105.464 18.4083C104.209 18.6013 103.885 18.6702 100.765 19.3334V19.3334ZM104.088 34.7524C102.916 35.0024 101.696 34.8991 100.583 34.4557C99.4698 34.0123 98.513 33.2487 97.8337 32.2615C97.1544 31.2743 96.7831 30.1078 96.7669 28.9095C96.7506 27.7113 97.0901 26.5352 97.7423 25.5299C98.3945 24.5246 99.3302 23.7353 100.431 23.2618C101.532 22.7884 102.748 22.652 103.927 22.87C105.105 23.088 106.192 23.6506 107.051 24.4865C107.91 25.3225 108.501 26.3943 108.75 27.5664C109.082 29.1373 108.778 30.7757 107.904 32.1227C107.03 33.4696 105.658 34.4152 104.088 34.7524V34.7524ZM102.01 24.9771C101.25 25.1387 100.554 25.5223 100.012 26.0793C99.469 26.6363 99.1038 27.3416 98.9621 28.1062C98.8204 28.8707 98.9086 29.6601 99.2155 30.3745C99.5225 31.089 100.034 31.6963 100.686 32.1198C101.339 32.5433 102.102 32.7639 102.879 32.7537C103.657 32.7436 104.414 32.5031 105.055 32.0626C105.695 31.6222 106.191 31.0017 106.479 30.2795C106.767 29.5572 106.835 28.7658 106.673 28.0052C106.454 26.9866 105.841 26.0961 104.967 25.5286C104.093 24.9611 103.03 24.7628 102.01 24.9771ZM107.969 22.7553C107.787 22.7932 107.6 22.795 107.418 22.7605C107.235 22.726 107.062 22.6559 106.907 22.5543C106.593 22.3491 106.374 22.0277 106.297 21.661C106.221 21.2942 106.293 20.912 106.498 20.5986C106.704 20.2851 107.025 20.066 107.392 19.9895C107.759 19.9129 108.141 19.9852 108.454 20.1904C108.768 20.3957 108.987 20.717 109.063 21.0838C109.14 21.4506 109.067 21.8327 108.862 22.1462C108.657 22.4597 108.336 22.6788 107.969 22.7553Z" fill="#3B695B" fill-opacity="0.25"/>
</g>
<g clip-path="url(#clip1_249_369)">
<path d="M266.292 155.414C263.138 156.085 262.763 156.147 261.521 156.355C260.555 156.527 259.566 156.533 258.598 156.373C257.769 156.238 256.978 155.932 256.274 155.475C255.57 155.018 254.969 154.419 254.509 153.717C253.982 152.892 253.599 151.982 253.376 151.028C253.044 149.815 252.958 149.413 252.293 146.284C251.621 143.121 251.559 142.749 251.354 141.513C251.17 140.552 251.15 139.567 251.296 138.599C251.43 137.77 251.736 136.978 252.194 136.273C252.651 135.569 253.251 134.968 253.954 134.508C254.778 133.979 255.686 133.596 256.639 133.374C257.849 133.045 258.251 132.96 261.377 132.295C264.556 131.619 264.925 131.558 266.148 131.353C267.11 131.167 268.1 131.147 269.069 131.295C269.899 131.429 270.691 131.735 271.395 132.192C272.1 132.65 272.701 133.249 273.162 133.951C273.697 134.789 274.085 135.711 274.305 136.679C274.638 137.891 274.724 138.293 275.388 141.42C276.053 144.548 276.122 144.962 276.327 146.187C276.511 147.15 276.531 148.138 276.385 149.108C276.249 149.937 275.943 150.729 275.485 151.433C275.027 152.137 274.428 152.739 273.725 153.199C272.899 153.726 271.991 154.109 271.037 154.332C269.828 154.663 269.427 154.748 266.292 155.414V155.414ZM261.765 134.333C258.63 135 258.307 135.084 257.095 135.4C256.366 135.565 255.671 135.853 255.039 136.253C254.58 136.551 254.188 136.942 253.889 137.401C253.59 137.859 253.391 138.376 253.303 138.916C253.194 139.663 253.215 140.423 253.364 141.163C253.56 142.42 253.63 142.745 254.291 145.859C254.945 148.935 255.036 149.306 255.355 150.528C255.522 151.257 255.81 151.952 256.209 152.584C256.815 153.51 257.785 154.137 258.878 154.309C259.617 154.42 260.37 154.401 261.102 154.253C262.359 154.061 262.685 153.992 265.803 153.329C268.947 152.661 269.27 152.576 270.471 152.262C271.201 152.097 271.896 151.809 272.527 151.408C272.984 151.109 273.373 150.719 273.67 150.261C273.967 149.804 274.166 149.29 274.254 148.751C274.363 148.005 274.342 147.243 274.192 146.503L274.207 146.5C274.001 145.263 273.932 144.936 273.266 141.804C272.6 138.673 272.516 138.346 272.201 137.134C272.034 136.406 271.746 135.712 271.348 135.081C271.049 134.624 270.658 134.234 270.201 133.936C269.743 133.639 269.228 133.44 268.689 133.352C267.95 133.242 267.197 133.261 266.464 133.408C265.209 133.601 264.885 133.67 261.765 134.333V134.333ZM265.088 149.752C263.916 150.002 262.696 149.899 261.583 149.456C260.47 149.012 259.513 148.249 258.834 147.261C258.154 146.274 257.783 145.108 257.767 143.91C257.751 142.711 258.09 141.535 258.742 140.53C259.395 139.525 260.33 138.735 261.431 138.262C262.532 137.788 263.748 137.652 264.927 137.87C266.105 138.088 267.192 138.651 268.051 139.487C268.91 140.322 269.501 141.394 269.75 142.566C270.082 144.137 269.778 145.776 268.904 147.123C268.03 148.47 266.658 149.415 265.088 149.752V149.752ZM263.01 139.977C262.25 140.139 261.554 140.522 261.012 141.079C260.469 141.636 260.104 142.342 259.962 143.106C259.82 143.871 259.909 144.66 260.216 145.375C260.522 146.089 261.034 146.696 261.686 147.12C262.339 147.543 263.102 147.764 263.879 147.754C264.657 147.744 265.414 147.503 266.055 147.063C266.695 146.622 267.191 146.002 267.479 145.279C267.767 144.557 267.835 143.766 267.673 143.005C267.454 141.987 266.841 141.096 265.967 140.529C265.093 139.961 264.03 139.763 263.01 139.977ZM268.969 137.755C268.787 137.793 268.6 137.795 268.418 137.76C268.235 137.726 268.062 137.656 267.907 137.554C267.593 137.349 267.374 137.028 267.297 136.661C267.221 136.294 267.293 135.912 267.498 135.599C267.704 135.285 268.025 135.066 268.392 134.989C268.759 134.913 269.141 134.985 269.454 135.19C269.768 135.396 269.987 135.717 270.063 136.084C270.14 136.451 270.067 136.833 269.862 137.146C269.657 137.46 269.336 137.679 268.969 137.755Z" fill="#3B695B" fill-opacity="0.25"/>
</g>
<g clip-path="url(#clip2_249_369)">
<path d="M29.2916 106.414C26.1383 107.085 25.763 107.147 24.521 107.355C23.5546 107.527 22.566 107.533 21.5975 107.373C20.7692 107.238 19.9781 106.932 19.2743 106.475C18.5705 106.018 17.9695 105.419 17.5094 104.717C16.982 103.892 16.5989 102.982 16.3765 102.028C16.0436 100.815 15.9581 100.413 15.293 97.2838C14.6208 94.1215 14.559 93.7488 14.3539 92.5129C14.1697 91.5519 14.1501 90.5667 14.296 89.5992C14.4302 88.7699 14.7359 87.9777 15.1936 87.2733C15.6513 86.5689 16.2508 85.9676 16.9539 85.5079C17.7776 84.9794 18.6858 84.5961 19.6391 84.3745C20.8485 84.0451 21.251 83.9595 24.3774 83.295C27.5564 82.6193 27.9253 82.5583 29.1478 82.3534C30.1104 82.1675 31.1003 82.1473 32.0695 82.295C32.8987 82.4293 33.6908 82.7349 34.3953 83.1923C35.0999 83.6496 35.7015 84.2488 36.1617 84.9515C36.6974 85.7888 37.0851 86.7112 37.3054 87.6786C37.6382 88.8913 37.7235 89.2926 38.3883 92.4203C39.0531 95.548 39.1224 95.962 39.3266 97.1873C39.5113 98.1505 39.5309 99.138 39.3846 100.108C39.2492 100.937 38.9428 101.729 38.485 102.433C38.0273 103.137 37.428 103.739 36.7254 104.199C35.8995 104.726 34.9909 105.109 34.0374 105.332C32.8282 105.663 32.427 105.748 29.2916 106.414V106.414ZM24.7652 85.3334C21.6298 85.9999 21.3075 86.0844 20.095 86.3998C19.3659 86.5647 18.6705 86.8535 18.0391 87.2534C17.5798 87.5514 17.188 87.9422 16.8891 88.4008C16.5901 88.8594 16.3906 89.3756 16.3033 89.9161C16.1941 90.6627 16.2151 91.4233 16.3643 92.1633C16.5604 93.4198 16.6296 93.7454 17.2914 96.859C17.9453 99.9354 18.0361 100.306 18.3549 101.528C18.5218 102.257 18.8103 102.952 19.2086 103.584C19.8153 104.51 20.7846 105.137 21.8783 105.309C22.6173 105.42 23.3699 105.401 24.1024 105.253C25.3585 105.061 25.6854 104.992 28.8028 104.329C31.9472 103.661 32.2695 103.576 33.4714 103.262C34.2007 103.097 34.8962 102.809 35.5274 102.408C35.9837 102.109 36.3728 101.719 36.67 101.261C36.9672 100.804 37.166 100.29 37.2537 99.7515C37.3629 99.0048 37.3417 98.2429 37.1924 97.503L37.2065 97.5C37.0012 96.2628 36.9317 95.9359 36.2661 92.8044C35.6004 89.6728 35.5163 89.3464 35.201 88.1339C35.0342 87.4063 34.7458 86.7121 34.3479 86.0806C34.0491 85.6236 33.6584 85.234 33.2007 84.9363C32.743 84.6387 32.2283 84.4397 31.6894 84.352C30.9499 84.2421 30.197 84.2612 29.464 84.4083C28.2095 84.6013 27.8852 84.6702 24.7652 85.3334V85.3334ZM28.0881 100.752C26.9161 101.002 25.6964 100.899 24.5831 100.456C23.4698 100.012 22.513 99.2487 21.8337 98.2615C21.1544 97.2743 20.7831 96.1078 20.7669 94.9095C20.7506 93.7113 21.0901 92.5352 21.7423 91.5299C22.3945 90.5246 23.3302 89.7353 24.4311 89.2618C25.5319 88.7884 26.7485 88.652 27.9268 88.87C29.1052 89.088 30.1924 89.6506 31.051 90.4865C31.9096 91.3225 32.501 92.3943 32.7504 93.5664C33.0822 95.1373 32.7778 96.7757 31.9039 98.1227C31.03 99.4696 29.6579 100.415 28.0881 100.752V100.752ZM26.0103 90.9771C25.2497 91.1387 24.5542 91.5223 24.0116 92.0793C23.469 92.6363 23.1038 93.3416 22.9621 94.1062C22.8204 94.8707 22.9086 95.6601 23.2155 96.3745C23.5225 97.089 24.0344 97.6963 24.6865 98.1198C25.3386 98.5433 26.1017 98.7639 26.8792 98.7537C27.6567 98.7436 28.4137 98.5031 29.0545 98.0626C29.6953 97.6222 30.1912 97.0017 30.4793 96.2795C30.7674 95.5572 30.8349 94.7658 30.6733 94.0052C30.4543 92.9866 29.8407 92.0961 28.9669 91.5286C28.093 90.9611 27.03 90.7628 26.0103 90.9771ZM31.9689 88.7553C31.7873 88.7932 31.6 88.795 31.4177 88.7605C31.2354 88.726 31.0617 88.6559 30.9065 88.5543C30.5931 88.3491 30.3739 88.0277 30.2974 87.661C30.2209 87.2942 30.2932 86.912 30.4984 86.5986C30.7036 86.2851 31.025 86.066 31.3917 85.9895C31.7585 85.9129 32.1407 85.9852 32.4541 86.1904C32.7676 86.3957 32.9867 86.717 33.0633 87.0838C33.1398 87.4506 33.0675 87.8327 32.8623 88.1462C32.657 88.4597 32.3357 88.6788 31.9689 88.7553Z" fill="#3B695B" fill-opacity="0.25"/>
</g>
<g clip-path="url(#clip3_249_369)">
<path d="M122.292 144.414C119.138 145.085 118.763 145.147 117.521 145.355C116.555 145.527 115.566 145.533 114.598 145.373C113.769 145.238 112.978 144.932 112.274 144.475C111.57 144.018 110.969 143.419 110.509 142.717C109.982 141.892 109.599 140.982 109.376 140.028C109.044 138.815 108.958 138.413 108.293 135.284C107.621 132.121 107.559 131.749 107.354 130.513C107.17 129.552 107.15 128.567 107.296 127.599C107.43 126.77 107.736 125.978 108.194 125.273C108.651 124.569 109.251 123.968 109.954 123.508C110.778 122.979 111.686 122.596 112.639 122.374C113.849 122.045 114.251 121.96 117.377 121.295C120.556 120.619 120.925 120.558 122.148 120.353C123.11 120.167 124.1 120.147 125.069 120.295C125.899 120.429 126.691 120.735 127.395 121.192C128.1 121.65 128.701 122.249 129.162 122.951C129.697 123.789 130.085 124.711 130.305 125.679C130.638 126.891 130.724 127.293 131.388 130.42C132.053 133.548 132.122 133.962 132.327 135.187C132.511 136.15 132.531 137.138 132.385 138.108C132.249 138.937 131.943 139.729 131.485 140.433C131.027 141.137 130.428 141.739 129.725 142.199C128.899 142.726 127.991 143.109 127.037 143.332C125.828 143.663 125.427 143.748 122.292 144.414V144.414ZM117.765 123.333C114.63 124 114.307 124.084 113.095 124.4C112.366 124.565 111.671 124.853 111.039 125.253C110.58 125.551 110.188 125.942 109.889 126.401C109.59 126.859 109.391 127.376 109.303 127.916C109.194 128.663 109.215 129.423 109.364 130.163C109.56 131.42 109.63 131.745 110.291 134.859C110.945 137.935 111.036 138.306 111.355 139.528C111.522 140.257 111.81 140.952 112.209 141.584C112.815 142.51 113.785 143.137 114.878 143.309C115.617 143.42 116.37 143.401 117.102 143.253C118.359 143.061 118.685 142.992 121.803 142.329C124.947 141.661 125.27 141.576 126.471 141.262C127.201 141.097 127.896 140.809 128.527 140.408C128.984 140.109 129.373 139.719 129.67 139.261C129.967 138.804 130.166 138.29 130.254 137.751C130.363 137.005 130.342 136.243 130.192 135.503L130.207 135.5C130.001 134.263 129.932 133.936 129.266 130.804C128.6 127.673 128.516 127.346 128.201 126.134C128.034 125.406 127.746 124.712 127.348 124.081C127.049 123.624 126.658 123.234 126.201 122.936C125.743 122.639 125.228 122.44 124.689 122.352C123.95 122.242 123.197 122.261 122.464 122.408C121.209 122.601 120.885 122.67 117.765 123.333V123.333ZM121.088 138.752C119.916 139.002 118.696 138.899 117.583 138.456C116.47 138.012 115.513 137.249 114.834 136.261C114.154 135.274 113.783 134.108 113.767 132.91C113.751 131.711 114.09 130.535 114.742 129.53C115.395 128.525 116.33 127.735 117.431 127.262C118.532 126.788 119.748 126.652 120.927 126.87C122.105 127.088 123.192 127.651 124.051 128.487C124.91 129.322 125.501 130.394 125.75 131.566C126.082 133.137 125.778 134.776 124.904 136.123C124.03 137.47 122.658 138.415 121.088 138.752V138.752ZM119.01 128.977C118.25 129.139 117.554 129.522 117.012 130.079C116.469 130.636 116.104 131.342 115.962 132.106C115.82 132.871 115.909 133.66 116.216 134.375C116.522 135.089 117.034 135.696 117.686 136.12C118.339 136.543 119.102 136.764 119.879 136.754C120.657 136.744 121.414 136.503 122.055 136.063C122.695 135.622 123.191 135.002 123.479 134.279C123.767 133.557 123.835 132.766 123.673 132.005C123.454 130.987 122.841 130.096 121.967 129.529C121.093 128.961 120.03 128.763 119.01 128.977ZM124.969 126.755C124.787 126.793 124.6 126.795 124.418 126.76C124.235 126.726 124.062 126.656 123.907 126.554C123.593 126.349 123.374 126.028 123.297 125.661C123.221 125.294 123.293 124.912 123.498 124.599C123.704 124.285 124.025 124.066 124.392 123.989C124.759 123.913 125.141 123.985 125.454 124.19C125.768 124.396 125.987 124.717 126.063 125.084C126.14 125.451 126.067 125.833 125.862 126.146C125.657 126.46 125.336 126.679 124.969 126.755Z" fill="#3B695B" fill-opacity="0.25"/>
</g>
<g clip-path="url(#clip4_249_369)">
<path d="M284.292 80.4144C281.138 81.0846 280.763 81.147 279.521 81.3547C278.555 81.5271 277.566 81.5334 276.598 81.3732C275.769 81.2381 274.978 80.9322 274.274 80.475C273.57 80.0178 272.969 79.4192 272.509 78.7173C271.982 77.8916 271.599 76.9822 271.376 76.028C271.044 74.8153 270.958 74.4128 270.293 71.2838C269.621 68.1215 269.559 67.7488 269.354 66.5129C269.17 65.5519 269.15 64.5667 269.296 63.5992C269.43 62.7699 269.736 61.9777 270.194 61.2733C270.651 60.5689 271.251 59.9676 271.954 59.5079C272.778 58.9794 273.686 58.5961 274.639 58.3745C275.849 58.0451 276.251 57.9595 279.377 57.295C282.556 56.6193 282.925 56.5583 284.148 56.3534C285.11 56.1675 286.1 56.1473 287.069 56.295C287.899 56.4293 288.691 56.7349 289.395 57.1923C290.1 57.6496 290.701 58.2488 291.162 58.9515C291.697 59.7888 292.085 60.7112 292.305 61.6786C292.638 62.8913 292.724 63.2926 293.388 66.4203C294.053 69.548 294.122 69.962 294.327 71.1873C294.511 72.1505 294.531 73.138 294.385 74.1077C294.249 74.9368 293.943 75.7286 293.485 76.433C293.027 77.1373 292.428 77.7388 291.725 78.1992C290.899 78.7258 289.991 79.1092 289.037 79.3319C287.828 79.6626 287.427 79.7479 284.292 80.4144V80.4144ZM279.765 59.3334C276.63 59.9999 276.307 60.0844 275.095 60.3998C274.366 60.5647 273.671 60.8535 273.039 61.2534C272.58 61.5514 272.188 61.9422 271.889 62.4008C271.59 62.8594 271.391 63.3756 271.303 63.9161C271.194 64.6627 271.215 65.4233 271.364 66.1633C271.56 67.4198 271.63 67.7454 272.291 70.859C272.945 73.9354 273.036 74.306 273.355 75.5284C273.522 76.2566 273.81 76.9523 274.209 77.5844C274.815 78.5098 275.785 79.1371 276.878 79.3093C277.617 79.4196 278.37 79.4006 279.102 79.2532C280.359 79.0612 280.685 78.9917 283.803 78.3291C286.947 77.6607 287.27 77.5761 288.471 77.2617C289.201 77.0975 289.896 76.8087 290.527 76.408C290.984 76.1092 291.373 75.7187 291.67 75.2613C291.967 74.804 292.166 74.2898 292.254 73.7515C292.363 73.0048 292.342 72.2429 292.192 71.503L292.207 71.5C292.001 70.2628 291.932 69.9359 291.266 66.8044C290.6 63.6728 290.516 63.3464 290.201 62.1339C290.034 61.4063 289.746 60.7121 289.348 60.0806C289.049 59.6236 288.658 59.234 288.201 58.9363C287.743 58.6387 287.228 58.4397 286.689 58.352C285.95 58.2421 285.197 58.2612 284.464 58.4083C283.209 58.6013 282.885 58.6702 279.765 59.3334V59.3334ZM283.088 74.7524C281.916 75.0024 280.696 74.8991 279.583 74.4557C278.47 74.0123 277.513 73.2487 276.834 72.2615C276.154 71.2743 275.783 70.1078 275.767 68.9095C275.751 67.7113 276.09 66.5352 276.742 65.5299C277.395 64.5246 278.33 63.7353 279.431 63.2618C280.532 62.7884 281.748 62.652 282.927 62.87C284.105 63.088 285.192 63.6506 286.051 64.4865C286.91 65.3225 287.501 66.3943 287.75 67.5664C288.082 69.1373 287.778 70.7757 286.904 72.1227C286.03 73.4696 284.658 74.4152 283.088 74.7524V74.7524ZM281.01 64.9771C280.25 65.1387 279.554 65.5223 279.012 66.0793C278.469 66.6363 278.104 67.3416 277.962 68.1062C277.82 68.8707 277.909 69.6601 278.216 70.3745C278.522 71.089 279.034 71.6963 279.686 72.1198C280.339 72.5433 281.102 72.7639 281.879 72.7537C282.657 72.7436 283.414 72.5031 284.055 72.0626C284.695 71.6222 285.191 71.0017 285.479 70.2795C285.767 69.5572 285.835 68.7658 285.673 68.0052C285.454 66.9866 284.841 66.0961 283.967 65.5286C283.093 64.9611 282.03 64.7628 281.01 64.9771ZM286.969 62.7553C286.787 62.7932 286.6 62.795 286.418 62.7605C286.235 62.726 286.062 62.6559 285.907 62.5543C285.593 62.3491 285.374 62.0277 285.297 61.661C285.221 61.2942 285.293 60.912 285.498 60.5986C285.704 60.2851 286.025 60.066 286.392 59.9895C286.759 59.9129 287.141 59.9852 287.454 60.1904C287.768 60.3957 287.987 60.717 288.063 61.0838C288.14 61.4506 288.067 61.8327 287.862 62.1462C287.657 62.4597 287.336 62.6788 286.969 62.7553Z" fill="#3B695B" fill-opacity="0.25"/>
</g>
<g clip-path="url(#clip5_249_369)">
<path d="M308.292 158.414C305.138 159.085 304.763 159.147 303.521 159.355C302.555 159.527 301.566 159.533 300.598 159.373C299.769 159.238 298.978 158.932 298.274 158.475C297.57 158.018 296.969 157.419 296.509 156.717C295.982 155.892 295.599 154.982 295.376 154.028C295.044 152.815 294.958 152.413 294.293 149.284C293.621 146.121 293.559 145.749 293.354 144.513C293.17 143.552 293.15 142.567 293.296 141.599C293.43 140.77 293.736 139.978 294.194 139.273C294.651 138.569 295.251 137.968 295.954 137.508C296.778 136.979 297.686 136.596 298.639 136.374C299.849 136.045 300.251 135.96 303.377 135.295C306.556 134.619 306.925 134.558 308.148 134.353C309.11 134.167 310.1 134.147 311.069 134.295C311.899 134.429 312.691 134.735 313.395 135.192C314.1 135.65 314.701 136.249 315.162 136.951C315.697 137.789 316.085 138.711 316.305 139.679C316.638 140.891 316.724 141.293 317.388 144.42C318.053 147.548 318.122 147.962 318.327 149.187C318.511 150.15 318.531 151.138 318.385 152.108C318.249 152.937 317.943 153.729 317.485 154.433C317.027 155.137 316.428 155.739 315.725 156.199C314.899 156.726 313.991 157.109 313.037 157.332C311.828 157.663 311.427 157.748 308.292 158.414V158.414ZM303.765 137.333C300.63 138 300.307 138.084 299.095 138.4C298.366 138.565 297.671 138.853 297.039 139.253C296.58 139.551 296.188 139.942 295.889 140.401C295.59 140.859 295.391 141.376 295.303 141.916C295.194 142.663 295.215 143.423 295.364 144.163C295.56 145.42 295.63 145.745 296.291 148.859C296.945 151.935 297.036 152.306 297.355 153.528C297.522 154.257 297.81 154.952 298.209 155.584C298.815 156.51 299.785 157.137 300.878 157.309C301.617 157.42 302.37 157.401 303.102 157.253C304.359 157.061 304.685 156.992 307.803 156.329C310.947 155.661 311.27 155.576 312.471 155.262C313.201 155.097 313.896 154.809 314.527 154.408C314.984 154.109 315.373 153.719 315.67 153.261C315.967 152.804 316.166 152.29 316.254 151.751C316.363 151.005 316.342 150.243 316.192 149.503L316.207 149.5C316.001 148.263 315.932 147.936 315.266 144.804C314.6 141.673 314.516 141.346 314.201 140.134C314.034 139.406 313.746 138.712 313.348 138.081C313.049 137.624 312.658 137.234 312.201 136.936C311.743 136.639 311.228 136.44 310.689 136.352C309.95 136.242 309.197 136.261 308.464 136.408C307.209 136.601 306.885 136.67 303.765 137.333V137.333ZM307.088 152.752C305.916 153.002 304.696 152.899 303.583 152.456C302.47 152.012 301.513 151.249 300.834 150.261C300.154 149.274 299.783 148.108 299.767 146.91C299.751 145.711 300.09 144.535 300.742 143.53C301.395 142.525 302.33 141.735 303.431 141.262C304.532 140.788 305.748 140.652 306.927 140.87C308.105 141.088 309.192 141.651 310.051 142.487C310.91 143.322 311.501 144.394 311.75 145.566C312.082 147.137 311.778 148.776 310.904 150.123C310.03 151.47 308.658 152.415 307.088 152.752V152.752ZM305.01 142.977C304.25 143.139 303.554 143.522 303.012 144.079C302.469 144.636 302.104 145.342 301.962 146.106C301.82 146.871 301.909 147.66 302.216 148.375C302.522 149.089 303.034 149.696 303.686 150.12C304.339 150.543 305.102 150.764 305.879 150.754C306.657 150.744 307.414 150.503 308.055 150.063C308.695 149.622 309.191 149.002 309.479 148.279C309.767 147.557 309.835 146.766 309.673 146.005C309.454 144.987 308.841 144.096 307.967 143.529C307.093 142.961 306.03 142.763 305.01 142.977ZM310.969 140.755C310.787 140.793 310.6 140.795 310.418 140.76C310.235 140.726 310.062 140.656 309.907 140.554C309.593 140.349 309.374 140.028 309.297 139.661C309.221 139.294 309.293 138.912 309.498 138.599C309.704 138.285 310.025 138.066 310.392 137.989C310.759 137.913 311.141 137.985 311.454 138.19C311.768 138.396 311.987 138.717 312.063 139.084C312.14 139.451 312.067 139.833 311.862 140.146C311.657 140.46 311.336 140.679 310.969 140.755Z" fill="#3B695B" fill-opacity="0.25"/>
</g>
<g clip-path="url(#clip6_249_369)">
<path d="M331.81 112C327.482 111.081 323.228 113.843 322.308 118.171C320.642 126.008 328.389 135.1 333.024 137.817C338.363 137.22 349.138 132.064 350.804 124.228C351.724 119.9 348.961 115.646 344.633 114.726C341.983 114.163 339.36 114.98 337.514 116.693C337.01 115.51 336.229 114.466 335.236 113.649C334.243 112.832 333.068 112.267 331.81 112Z" stroke="#3B695B" stroke-opacity="0.25" stroke-width="1.66667" stroke-linecap="round" stroke-linejoin="round"/>
</g>
<g clip-path="url(#clip7_249_369)">
<path d="M67.81 139C63.4822 138.081 59.2279 140.843 58.308 145.171C56.6423 153.008 64.3892 162.1 69.0237 164.817C74.3627 164.22 85.1381 159.064 86.8038 151.228C87.7237 146.9 84.9609 142.646 80.6331 141.726C77.983 141.163 75.3595 141.98 73.5138 143.693C73.01 142.51 72.2285 141.466 71.2357 140.649C70.2428 139.832 69.0678 139.267 67.81 139Z" stroke="#3B695B" stroke-opacity="0.25" stroke-width="1.66667" stroke-linecap="round" stroke-linejoin="round"/>
</g>
<g clip-path="url(#clip8_249_369)">
<path d="M160.681 114.872C156.354 115.792 153.591 120.046 154.511 124.374C156.176 132.21 166.952 137.366 172.291 137.963C176.925 135.246 184.672 126.153 183.007 118.317C182.087 113.989 177.832 111.226 173.505 112.146C170.854 112.71 168.79 114.523 167.801 116.839C166.859 115.963 165.721 115.327 164.482 114.985C163.242 114.642 161.939 114.604 160.681 114.872Z" stroke="#3B695B" stroke-opacity="0.25" stroke-width="1.66667" stroke-linecap="round" stroke-linejoin="round"/>
</g>
<g clip-path="url(#clip9_249_369)">
<path d="M53.6814 6.87184C49.3536 7.79174 46.5909 12.0461 47.5108 16.3739C49.1764 24.2102 59.9518 29.3656 65.2908 29.9627C69.9253 27.2457 77.6722 18.1532 76.0066 10.3169C75.0867 5.98908 70.8324 3.2263 66.5046 4.1462C63.8544 4.7095 61.7903 6.52348 60.8008 8.83876C59.8594 7.96309 58.7209 7.32714 57.4816 6.98475C56.2424 6.64237 54.9388 6.60364 53.6814 6.87184Z" stroke="#3B695B" stroke-opacity="0.25" stroke-width="1.66667" stroke-linecap="round" stroke-linejoin="round"/>
</g>
<g clip-path="url(#clip10_249_369)">
<path d="M363.681 56.8718C359.354 57.7917 356.591 62.0461 357.511 66.3739C359.176 74.2102 369.952 79.3656 375.291 79.9627C379.925 77.2457 387.672 68.1532 386.007 60.3169C385.087 55.9891 380.832 53.2263 376.505 54.1462C373.854 54.7095 371.79 56.5235 370.801 58.8388C369.859 57.9631 368.721 57.3271 367.482 56.9848C366.242 56.6424 364.939 56.6036 363.681 56.8718Z" stroke="#3B695B" stroke-opacity="0.25" stroke-width="1.66667" stroke-linecap="round" stroke-linejoin="round"/>
</g>
<g clip-path="url(#clip11_249_369)">
<path d="M134.81 8.00048C130.482 7.08058 126.228 9.84336 125.308 14.1712C123.642 22.0075 131.389 31.1 136.024 33.817C141.363 33.2199 152.138 28.0645 153.804 20.2281C154.724 15.9003 151.961 11.646 147.633 10.7261C144.983 10.1628 142.36 10.9804 140.514 12.693C140.01 11.5102 139.229 10.4661 138.236 9.6493C137.243 8.83247 136.068 8.2669 134.81 8.00048Z" stroke="#3B695B" stroke-opacity="0.25" stroke-width="1.66667" stroke-linecap="round" stroke-linejoin="round"/>
</g>
<g clip-path="url(#clip12_249_369)">
<path d="M45.5873 54.2226L38.3644 52.6873L40.7309 48.6611C41.1572 47.9338 41.2103 47.0384 40.8699 46.2666C40.5295 45.4947 39.8321 44.9281 39.0071 44.7528L36.9324 44.3118C36.5501 44.2305 36.1524 44.3236 35.8442 44.5648L28.2522 50.5379L24.9947 49.8455C23.5751 49.5437 22.1752 50.4528 21.8735 51.8724L19.4114 63.4557C19.1096 64.8753 20.0187 66.2752 21.4383 66.5769L38.5649 70.2173C39.0889 70.3269 39.6339 70.2748 40.1277 70.068C40.6216 69.8612 41.041 69.5094 41.3306 69.0591L46.89 60.3523C46.9745 60.2193 47.0345 60.0721 47.0671 59.9178L47.6142 57.3438C47.9159 55.9242 47.0069 54.5243 45.5873 54.2226ZM24.4475 52.4195L27.0216 52.9667L24.5595 64.55L21.9854 64.0029L24.4475 52.4195ZM44.5425 59.1377L39.112 67.6432L27.1336 65.0971L29.7702 52.6927L36.9876 47.0139L38.4625 47.3274L35.171 52.9273C35.0647 53.1069 35.0026 53.3092 34.9901 53.5176C34.9775 53.7259 35.0148 53.9343 35.0989 54.1254C35.1829 54.3164 35.3113 54.4847 35.4734 54.6162C35.6355 54.7477 35.8266 54.8387 36.0309 54.8816L45.0401 56.7966L44.5425 59.1377Z" fill="#3B695B" fill-opacity="0.25"/>
</g>
<path d="M238.768 19.9781H231.383L232.861 15.5478C233.127 14.7478 232.993 13.861 232.499 13.1768C232.006 12.4926 231.206 12.0833 230.362 12.0833H228.241C227.85 12.0833 227.481 12.257 227.229 12.557L221.045 19.9781H217.715C216.264 19.9781 215.083 21.1583 215.083 22.6097V34.4518C215.083 35.9031 216.264 37.0833 217.715 37.0833H235.224C235.76 37.0816 236.282 36.9173 236.722 36.6124C237.162 36.3074 237.499 35.8761 237.689 35.3754L241.316 25.7031C241.371 25.5553 241.399 25.3989 241.399 25.2412V22.6097C241.399 21.1583 240.219 19.9781 238.768 19.9781ZM217.715 22.6097H220.347V34.4518H217.715V22.6097ZM238.768 25.0031L235.224 34.4518H222.978V21.7702L228.857 14.7149H230.365L228.31 20.8768C228.243 21.0745 228.224 21.2854 228.255 21.4918C228.286 21.6982 228.366 21.8943 228.488 22.0637C228.61 22.2331 228.771 22.371 228.957 22.4659C229.142 22.5609 229.348 22.6102 229.557 22.6097H238.768V25.0031Z" fill="#3B695B" fill-opacity="0.25"/>
<g clip-path="url(#clip13_249_369)">
<path d="M216.587 97.2226L209.364 95.6873L211.731 91.6611C212.157 90.9338 212.21 90.0384 211.87 89.2666C211.53 88.4947 210.832 87.9281 210.007 87.7528L207.932 87.3118C207.55 87.2305 207.152 87.3236 206.844 87.5648L199.252 93.5379L195.995 92.8455C194.575 92.5437 193.175 93.4528 192.873 94.8724L190.411 106.456C190.11 107.875 191.019 109.275 192.438 109.577L209.565 113.217C210.089 113.327 210.634 113.275 211.128 113.068C211.622 112.861 212.041 112.509 212.331 112.059L217.89 103.352C217.975 103.219 218.035 103.072 218.067 102.918L218.614 100.344C218.916 98.9242 218.007 97.5243 216.587 97.2226ZM195.448 95.4195L198.022 95.9667L195.56 107.55L192.985 107.003L195.448 95.4195ZM215.543 102.138L210.112 110.643L198.134 108.097L200.77 95.6927L207.988 90.0139L209.463 90.3274L206.171 95.9273C206.065 96.1069 206.003 96.3092 205.99 96.5176C205.978 96.7259 206.015 96.9343 206.099 97.1254C206.183 97.3164 206.311 97.4847 206.473 97.6162C206.635 97.7477 206.827 97.8387 207.031 97.8816L216.04 99.7966L215.543 102.138Z" fill="#3B695B" fill-opacity="0.25"/>
</g>
<g clip-path="url(#clip14_249_369)">
<path d="M230.499 140.953L223.276 142.488L223.8 137.848C223.894 137.01 223.578 136.17 222.954 135.604C222.329 135.037 221.461 134.803 220.636 134.978L218.561 135.419C218.179 135.501 217.854 135.747 217.67 136.093L213.164 144.638L209.907 145.33C208.487 145.632 207.578 147.032 207.88 148.451L210.342 160.035C210.643 161.454 212.043 162.363 213.463 162.062L230.589 158.421C231.113 158.308 231.589 158.039 231.957 157.649C232.324 157.259 232.564 156.767 232.645 156.238L234.182 146.023C234.206 145.867 234.2 145.708 234.167 145.554L233.62 142.98C233.319 141.56 231.919 140.651 230.499 140.953ZM210.454 147.904L213.028 147.357L215.49 158.94L212.916 159.488L210.454 147.904ZM231.544 145.868L230.042 155.847L218.064 158.393L215.427 145.989L219.711 137.865L221.186 137.552L220.457 144.006C220.432 144.214 220.458 144.424 220.531 144.619C220.605 144.815 220.723 144.99 220.878 145.13C221.032 145.271 221.218 145.372 221.42 145.426C221.621 145.481 221.833 145.486 222.037 145.442L231.046 143.527L231.544 145.868Z" fill="#3B695B" fill-opacity="0.25"/>
</g>
<g clip-path="url(#clip15_249_369)">
<path d="M324.499 36.9531L317.276 38.4883L317.8 33.8476C317.894 33.0099 317.578 32.1703 316.954 31.6036C316.329 31.037 315.461 30.803 314.636 30.9784L312.561 31.4194C312.179 31.5006 311.854 31.7474 311.67 32.0931L307.164 40.6377L303.907 41.3301C302.487 41.6319 301.578 43.0317 301.88 44.4514L304.342 56.0347C304.643 57.4543 306.043 58.3634 307.463 58.0616L324.589 54.4212C325.113 54.3082 325.589 54.039 325.957 53.6492C326.324 53.2594 326.564 52.7674 326.645 52.2383L328.182 42.023C328.206 41.8671 328.2 41.7082 328.167 41.5541L327.62 38.98C327.319 37.5604 325.919 36.6513 324.499 36.9531ZM304.454 43.9042L307.028 43.3571L309.49 54.9404L306.916 55.4875L304.454 43.9042ZM325.544 41.8682L324.042 51.8472L312.064 54.3933L309.427 41.9888L313.711 33.8654L315.186 33.5519L314.457 40.0064C314.432 40.2138 314.458 40.4239 314.531 40.6193C314.605 40.8147 314.723 40.9899 314.878 41.1303C315.032 41.2706 315.218 41.3721 315.42 41.4264C315.621 41.4806 315.833 41.486 316.037 41.4421L325.046 39.5271L325.544 41.8682Z" fill="#3B695B" fill-opacity="0.25"/>
</g>
<g clip-path="url(#clip16_249_369)">
<path d="M144.499 49.9531L137.276 51.4883L137.8 46.8476C137.894 46.0099 137.578 45.1703 136.954 44.6036C136.329 44.037 135.461 43.803 134.636 43.9784L132.561 44.4194C132.179 44.5006 131.854 44.7474 131.67 45.0931L127.164 53.6377L123.907 54.3301C122.487 54.6319 121.578 56.0317 121.88 57.4514L124.342 69.0347C124.643 70.4543 126.043 71.3634 127.463 71.0616L144.589 67.4212C145.113 67.3082 145.589 67.039 145.957 66.6492C146.324 66.2594 146.564 65.7674 146.645 65.2383L148.182 55.023C148.206 54.8671 148.2 54.7082 148.167 54.5541L147.62 51.98C147.319 50.5604 145.919 49.6513 144.499 49.9531ZM124.454 56.9042L127.028 56.3571L129.49 67.9404L126.916 68.4875L124.454 56.9042ZM145.544 54.8682L144.042 64.8472L132.064 67.3933L129.427 54.9888L133.711 46.8654L135.186 46.5519L134.457 53.0064C134.432 53.2138 134.458 53.4239 134.531 53.6193C134.605 53.8147 134.723 53.9899 134.878 54.1303C135.032 54.2706 135.218 54.3721 135.42 54.4264C135.621 54.4806 135.833 54.486 136.037 54.4421L145.046 52.5271L145.544 54.8682Z" fill="#3B695B" fill-opacity="0.25"/>
</g>
<path d="M19.348 147.202L19.2588 148.178C22.9098 149.281 27.009 149.489 31.1786 148.603C44.7066 145.727 50.1599 134.53 48.3656 126.088L48.3637 126.079C48.3274 125.909 48.2891 125.728 48.2432 125.545C49.4069 124.38 50.3647 123.059 51.0713 121.66L51.8849 120.049L50.3583 121.012C49.7737 121.38 49.1553 121.721 48.5095 122.024C49.0845 121.187 49.4698 120.252 49.6166 119.272L49.8074 117.999L48.8072 118.81C47.6703 119.732 46.3384 120.521 44.8956 121.109C43.2414 120.212 41.1679 119.899 39.0672 120.345C34.8712 121.237 31.982 124.904 32.7767 128.643C32.8404 128.943 32.9278 129.235 33.0329 129.518C27.3316 130.314 21.8588 129.016 17.775 126.208L17.2643 125.857L17.0291 126.431C16.5635 127.566 16.4152 128.795 16.6815 130.047C17.0395 131.732 18.0837 133.105 19.5024 134.019C19.0416 133.992 18.5943 133.925 18.1685 133.822L17.3978 133.637L17.5626 134.413L17.5789 134.489C18.1092 136.984 20.1158 138.773 22.6262 139.435C22.3733 139.473 22.1204 139.5 21.8635 139.521L21.0368 139.589L21.4829 140.288C22.8064 142.363 25.3426 143.587 28.1216 143.522C26.2046 145.133 23.7954 146.334 21.0585 146.916C20.4658 147.042 19.9201 147.138 19.348 147.202Z" stroke="#3B695B" stroke-opacity="0.25"/>
<path d="M85.2294 84.1484C79.6973 82.5565 75.2256 79.1448 72.6367 74.9191L72.313 74.3907L71.8649 74.8188C70.9778 75.6664 70.3425 76.7288 70.0763 77.9814C69.7182 79.6658 70.1136 81.345 71.0378 82.7572C70.6279 82.5449 70.2466 82.3017 69.8992 82.0351L69.2705 81.5524L69.1057 82.3278L69.0895 82.4042C68.5591 84.8992 69.6644 87.3501 71.6885 88.9759C71.4423 88.907 71.2003 88.8289 70.957 88.7436L70.1741 88.4694L70.2973 89.2898C70.6626 91.7233 72.4815 93.8734 75.0469 94.944C72.6402 95.6362 69.9507 95.7539 67.2137 95.1721C66.621 95.0461 66.0833 94.9122 65.5346 94.7378L65.0564 95.5928C67.943 98.0856 71.6032 99.9429 75.7728 100.829C89.3008 103.705 98.8371 95.6933 100.631 87.2516L100.633 87.2427C100.67 87.0722 100.708 86.892 100.74 86.706C102.278 86.1145 103.69 85.2976 104.904 84.3069L106.303 83.1663L104.517 83.4246C103.833 83.5236 103.129 83.5836 102.416 83.5972C103.282 83.0667 104.014 82.3695 104.547 81.5339L105.239 80.4483L103.995 80.7822C102.582 81.1618 101.044 81.3415 99.4867 81.2915C98.3404 79.7991 96.5736 78.6696 94.4729 78.2231C90.2769 77.3312 86.146 79.5061 85.3512 83.245C85.2875 83.5446 85.2483 83.8475 85.2294 84.1484Z" stroke="#3B695B" stroke-opacity="0.25"/>
<path d="M262.535 27.7378L262.056 28.5927C264.943 31.0856 268.603 32.9429 272.773 33.8291C286.301 36.7046 295.837 28.6933 297.631 20.2516L297.633 20.2427C297.67 20.0722 297.708 19.892 297.74 19.706C299.278 19.1145 300.69 18.2976 301.904 17.3069L303.303 16.1663L301.517 16.4246C300.833 16.5235 300.129 16.5835 299.416 16.5972C300.282 16.0667 301.014 15.3695 301.547 14.5339L302.239 13.4483L300.995 13.7822C299.582 14.1618 298.044 14.3415 296.487 14.2915C295.34 12.7991 293.574 11.6696 291.473 11.2231C287.277 10.3312 283.146 12.506 282.351 16.2449C282.288 16.5446 282.248 16.8474 282.229 17.1484C276.697 15.5565 272.226 12.1447 269.637 7.91906L269.313 7.39067L268.865 7.81876C267.978 8.66633 267.343 9.72872 267.076 10.9814C266.718 12.6658 267.114 14.345 268.038 15.7572C267.628 15.5449 267.247 15.3017 266.899 15.0351L266.27 14.5524L266.106 15.3277L266.089 15.4041C265.559 17.8992 266.664 20.3501 268.689 21.9759C268.442 21.907 268.2 21.8288 267.957 21.7436L267.174 21.4694L267.297 22.2897C267.663 24.7233 269.482 26.8733 272.047 27.9439C269.64 28.6362 266.951 28.7538 264.214 28.1721C263.621 28.0461 263.083 27.9122 262.535 27.7378Z" stroke="#3B695B" stroke-opacity="0.25"/>
<path d="M315.74 93.2071L315.262 94.062C318.149 96.5549 321.809 98.4121 325.978 99.2984C339.506 102.174 349.043 94.1626 350.837 85.7209L350.839 85.712C350.875 85.5415 350.913 85.3612 350.946 85.1753C352.483 84.5837 353.895 83.7668 355.11 82.7762L356.508 81.6355L354.722 81.8939C354.038 81.9928 353.335 82.0528 352.622 82.0664C353.487 81.536 354.219 80.8388 354.752 80.0032L355.444 78.9176L354.201 79.2515C352.787 79.6311 351.249 79.8107 349.692 79.7608C348.546 78.2683 346.779 77.1389 344.678 76.6924C340.482 75.8005 336.352 77.9753 335.557 81.7142C335.493 82.0139 335.454 82.3167 335.435 82.6176C329.903 81.0257 325.431 77.614 322.842 73.3883L322.519 72.8599L322.07 73.288C321.183 74.1356 320.548 75.198 320.282 76.4506C319.924 78.135 320.319 79.8143 321.243 81.2264C320.833 81.0141 320.452 80.771 320.105 80.5043L319.476 80.0217L319.311 80.797L319.295 80.8734C318.765 83.3684 319.87 85.8193 321.894 87.4452C321.648 87.3762 321.406 87.2981 321.163 87.2129L320.38 86.9387L320.503 87.759C320.868 90.1925 322.687 92.3426 325.252 93.4132C322.846 94.1054 320.156 94.2231 317.419 93.6413C316.827 93.5154 316.289 93.3814 315.74 93.2071Z" stroke="#3B695B" stroke-opacity="0.25"/>
<path d="M229.535 122.738L229.056 123.593C231.943 126.086 235.603 127.943 239.773 128.829C253.301 131.705 262.837 123.693 264.631 115.252L264.633 115.243C264.67 115.072 264.708 114.892 264.74 114.706C266.278 114.114 267.69 113.298 268.904 112.307L270.303 111.166L268.517 111.425C267.833 111.524 267.129 111.584 266.416 111.597C267.282 111.067 268.014 110.37 268.547 109.534L269.239 108.448L267.995 108.782C266.582 109.162 265.044 109.341 263.487 109.292C262.34 107.799 260.574 106.67 258.473 106.223C254.277 105.331 250.146 107.506 249.351 111.245C249.288 111.545 249.248 111.847 249.229 112.148C243.697 110.556 239.226 107.145 236.637 102.919L236.313 102.391L235.865 102.819C234.978 103.666 234.343 104.729 234.076 105.981C233.718 107.666 234.114 109.345 235.038 110.757C234.628 110.545 234.247 110.302 233.899 110.035L233.27 109.552L233.106 110.328L233.089 110.404C232.559 112.899 233.664 115.35 235.689 116.976C235.442 116.907 235.2 116.829 234.957 116.744L234.174 116.469L234.297 117.29C234.663 119.723 236.482 121.873 239.047 122.944C236.64 123.636 233.951 123.754 231.214 123.172C230.621 123.046 230.083 122.912 229.535 122.738Z" stroke="#3B695B" stroke-opacity="0.25"/>
<path d="M184.348 79.2022L184.259 80.1778C187.91 81.281 192.009 81.489 196.179 80.6027C209.707 77.7272 215.16 66.5298 213.366 58.0881L213.364 58.0792C213.327 57.9087 213.289 57.7285 213.243 57.5453C214.407 56.3797 215.365 55.0591 216.071 53.6601L216.885 52.0492L215.358 53.0117C214.774 53.3803 214.155 53.7213 213.509 54.0238C214.085 53.187 214.47 52.2524 214.617 51.2723L214.807 49.999L213.807 50.8098C212.67 51.7315 211.338 52.5212 209.896 53.1089C208.241 52.2117 206.168 51.8985 204.067 52.3451C199.871 53.2369 196.982 56.904 197.777 60.6428C197.84 60.9425 197.928 61.2351 198.033 61.5177C192.332 62.3136 186.859 61.0156 182.775 58.2083L182.264 57.8572L182.029 58.4305C181.563 59.5656 181.415 60.7946 181.681 62.0472C182.04 63.7316 183.084 65.1048 184.502 66.019C184.042 65.9918 183.594 65.9248 183.169 65.8225L182.398 65.6373L182.563 66.4126L182.579 66.489C183.109 68.984 185.116 70.7735 187.626 71.4355C187.373 71.4726 187.12 71.4997 186.863 71.5208L186.037 71.5887L186.483 72.288C187.806 74.3626 190.343 75.5869 193.122 75.5216C191.205 77.1329 188.795 78.3343 186.058 78.916C185.466 79.042 184.92 79.1384 184.348 79.2022Z" stroke="#3B695B" stroke-opacity="0.25"/>
<g clip-path="url(#clip17_249_369)">
<path d="M359.066 37.1055L361.505 25.6311L358.439 24.9793L359.317 20.848L362.384 21.4998L363.134 17.9711C363.723 15.1982 366.076 13.0368 370.249 13.924C371.939 14.2832 373.155 14.7091 373.155 14.7091L372.236 18.5461C372.236 18.5461 370.965 18.263 369.574 17.9674C368.069 17.6474 367.682 18.2825 367.44 19.4216L366.798 22.4382L371.329 23.4013L370.254 27.4907L365.92 26.5695L363.481 38.0439L359.066 37.1055Z" fill="#3B695B" fill-opacity="0.25"/>
</g>
<g clip-path="url(#clip18_249_369)">
<path d="M191.264 34.3552L188.825 22.8808L185.759 23.5326L184.881 19.4013L187.947 18.7495L187.197 15.2208C186.608 12.4479 187.878 9.5165 192.052 8.62933C193.742 8.27013 195.025 8.16481 195.025 8.16481L195.747 12.0437C195.747 12.0437 194.47 12.3023 193.079 12.5979C191.574 12.9178 191.479 13.6554 191.721 14.7945L192.362 17.8111L196.893 16.848L197.574 21.0212L193.24 21.9424L195.679 33.4168L191.264 34.3552Z" fill="#3B695B" fill-opacity="0.25"/>
</g>
<g clip-path="url(#clip19_249_369)">
<path d="M26.0664 33.1055L28.5054 21.6311L25.4389 20.9793L26.3171 16.848L29.3835 17.4998L30.1336 13.9711C30.723 11.1982 33.0756 9.03682 37.2494 9.92399C38.9393 10.2832 40.1548 10.7091 40.1548 10.7091L39.2363 14.5461C39.2363 14.5461 37.9646 14.263 36.5739 13.9674C35.0687 13.6474 34.6817 14.2825 34.4396 15.4216L33.7984 18.4382L38.3294 19.4013L37.2541 23.4907L32.9203 22.5695L30.4813 34.0439L26.0664 33.1055Z" fill="#3B695B" fill-opacity="0.25"/>
</g>
<g clip-path="url(#clip20_249_369)">
<path d="M240.066 88.1055L242.505 76.6311L239.439 75.9793L240.317 71.848L243.384 72.4998L244.134 68.9711C244.723 66.1982 247.076 64.0368 251.249 64.924C252.939 65.2832 254.155 65.7091 254.155 65.7091L253.236 69.5461C253.236 69.5461 251.965 69.263 250.574 68.9674C249.069 68.6474 248.682 69.2825 248.44 70.4216L247.798 73.4382L252.329 74.4013L251.254 78.4907L246.92 77.5695L244.481 89.0439L240.066 88.1055Z" fill="#3B695B" fill-opacity="0.25"/>
</g>
<g clip-path="url(#clip21_249_369)">
<path d="M376.264 148.355L373.825 136.881L370.759 137.533L369.881 133.401L372.947 132.749L372.197 129.221C371.608 126.448 372.878 123.516 377.052 122.629C378.742 122.27 380.025 122.165 380.025 122.165L380.747 126.044C380.747 126.044 379.47 126.302 378.079 126.598C376.574 126.918 376.479 127.655 376.721 128.794L377.362 131.811L381.893 130.848L382.574 135.021L378.24 135.942L380.679 147.417L376.264 148.355Z" fill="#3B695B" fill-opacity="0.25"/>
</g>
<g clip-path="url(#clip22_249_369)">
<path d="M140.066 103.105L142.505 91.6311L139.439 90.9793L140.317 86.848L143.384 87.4998L144.134 83.9711C144.723 81.1982 147.076 79.0368 151.249 79.924C152.939 80.2832 154.155 80.7091 154.155 80.7091L153.236 84.5461C153.236 84.5461 151.965 84.263 150.574 83.9674C149.069 83.6474 148.682 84.2825 148.44 85.4216L147.798 88.4382L152.329 89.4013L151.254 93.4907L146.92 92.5695L144.481 104.044L140.066 103.105Z" fill="#3B695B" fill-opacity="0.25"/>
</g>
<defs>
<clipPath id="clip0_249_369">
<rect width="25" height="25" fill="white" transform="translate(88 19.1978) rotate(-12)"/>
</clipPath>
<clipPath id="clip1_249_369">
<rect width="25" height="25" fill="white" transform="translate(249 134.198) rotate(-12)"/>
</clipPath>
<clipPath id="clip2_249_369">
<rect width="25" height="25" fill="white" transform="translate(12 85.1978) rotate(-12)"/>
</clipPath>
<clipPath id="clip3_249_369">
<rect width="25" height="25" fill="white" transform="translate(105 123.198) rotate(-12)"/>
</clipPath>
<clipPath id="clip4_249_369">
<rect width="25" height="25" fill="white" transform="translate(267 59.1978) rotate(-12)"/>
</clipPath>
<clipPath id="clip5_249_369">
<rect width="25" height="25" fill="white" transform="translate(291 137.198) rotate(-12)"/>
</clipPath>
<clipPath id="clip6_249_369">
<rect width="32" height="27" fill="white" transform="translate(323.156 108.968) rotate(12)"/>
</clipPath>
<clipPath id="clip7_249_369">
<rect width="32" height="27" fill="white" transform="translate(59.1565 135.968) rotate(12)"/>
</clipPath>
<clipPath id="clip8_249_369">
<rect width="32" height="27" fill="white" transform="translate(151.543 115.622) rotate(-12)"/>
</clipPath>
<clipPath id="clip9_249_369">
<rect width="32" height="27" fill="white" transform="translate(44.5428 7.62158) rotate(-12)"/>
</clipPath>
<clipPath id="clip10_249_369">
<rect width="32" height="27" fill="white" transform="translate(354.543 57.6216) rotate(-12)"/>
</clipPath>
<clipPath id="clip11_249_369">
<rect width="32" height="27" fill="white" transform="translate(126.156 4.96841) rotate(12)"/>
</clipPath>
<clipPath id="clip12_249_369">
<rect width="27" height="26" fill="white" transform="translate(23.9978 41.4773) rotate(12)"/>
</clipPath>
<clipPath id="clip13_249_369">
<rect width="27" height="26" fill="white" transform="translate(194.998 84.4773) rotate(12)"/>
</clipPath>
<clipPath id="clip14_249_369">
<rect width="27" height="26" fill="white" transform="translate(205.592 138.091) rotate(-12)"/>
</clipPath>
<clipPath id="clip15_249_369">
<rect width="27" height="26" fill="white" transform="translate(299.592 34.0909) rotate(-12)"/>
</clipPath>
<clipPath id="clip16_249_369">
<rect width="27" height="26" fill="white" transform="translate(119.592 47.0909) rotate(-12)"/>
</clipPath>
<clipPath id="clip17_249_369">
<rect width="12.2807" height="25" fill="white" transform="translate(361.198 12) rotate(12)"/>
</clipPath>
<clipPath id="clip18_249_369">
<rect width="12.2807" height="25" fill="white" transform="translate(183 10.5533) rotate(-12)"/>
</clipPath>
<clipPath id="clip19_249_369">
<rect width="12.2807" height="25" fill="white" transform="translate(28.1978 8) rotate(12)"/>
</clipPath>
<clipPath id="clip20_249_369">
<rect width="12.2807" height="25" fill="white" transform="translate(242.198 63) rotate(12)"/>
</clipPath>
<clipPath id="clip21_249_369">
<rect width="12.2807" height="25" fill="white" transform="translate(368 124.553) rotate(-12)"/>
</clipPath>
<clipPath id="clip22_249_369">
<rect width="12.2807" height="25" fill="white" transform="translate(142.198 78) rotate(12)"/>
</clipPath>
</defs>
</svg>
