<svg width="200" height="179" viewBox="0 0 200 179" fill="none" xmlns="http://www.w3.org/2000/svg">
<g clip-path="url(#clip0_3_26)">
<path d="M28.4054 47.2954C21.9723 53.5969 22.8075 65.0115 28.7238 71.8006C34.6401 78.5897 44.2492 81.2072 53.2416 80.7253C62.2339 80.2435 70.8351 77.07 78.8219 75.1874L77.2551 49.8575C59.9333 50.0316 42.6115 50.2056 28.4054 47.2954Z" fill="#E7816D"/>
<path d="M198.126 98.5898C196.856 92.3245 195.989 85.9873 194.722 79.7212C192.978 70.8079 192.801 59.8213 191.396 49.2789C190.19 41.2693 188.484 33.3085 185.597 25.723C183.897 20.9196 181.834 16.1948 178.769 12.092C174.721 6.85439 169.421 1.94876 162.81 0.419675C157.712 -0.593423 152.548 0.459082 147.478 1.14881C137.777 2.67226 127.607 3.90192 116.438 4.17018C106.559 4.59866 96.6706 4.46447 86.7866 4.56354C74.7287 4.86048 62.6617 4.85706 50.6092 5.34283C45.1837 5.56709 39.7842 6.49102 35.1751 6.98674C29.8461 7.51214 24.4854 7.42302 19.1431 7.6961C18.0412 7.79017 16.9406 7.90559 15.8449 8.05478C17.1031 8.08018 18.3628 8.12027 19.6175 8.22064C7.91338 9.80998 3.10695 11.5274 1.47227 25.2763C1.02698 30.2206 1.29287 35.1911 1.43337 40.144C1.58342 44.3383 1.52956 48.5376 1.72266 52.7304C2.36231 63.355 3.25197 73.9926 2.46552 84.6362C2.28701 88.7033 2.22774 92.7787 1.7567 96.8267C1.22892 102.025 0.389868 107.193 0.17389 112.419C0.113007 115.061 -0.265089 117.754 0.332406 120.357C1.79615 125.005 7.01669 126.207 11.1561 127.448C16.1432 128.984 21.1409 130.579 26.2977 131.443C30.2483 132.009 34.2456 132.181 38.2303 131.955C47.6282 131.516 57.0692 131.634 66.387 130.162C71.948 129.36 79.2487 128.933 83.9975 129.486C82.9758 137.102 83.6277 144.787 84.3489 152.405C84.6751 154.491 84.6897 156.675 84.9655 158.791C83.7858 162.132 82.694 165.506 81.5061 168.844C80.981 170.399 80.4554 171.953 79.944 173.511C79.4931 174.711 79.213 176.183 80.1979 177.198C81.4045 178.469 83.36 178.313 84.975 178.452C87.5771 178.54 90.1822 178.476 92.7768 178.261C96.3328 177.987 101.432 176.97 103.055 176.806C102.849 176.833 102.644 176.861 102.439 176.889C106.162 176.412 109.923 176.353 113.653 175.939C118.588 175.328 123.549 174.966 128.491 174.414C130.587 174.049 134.325 174.445 134.103 171.366C133.817 165.923 129.109 162.324 125.51 158.803C124.337 157.659 123.107 156.571 121.977 155.386C122.503 152.86 122.762 150.286 122.751 147.706C122.783 142.085 122.273 136.479 121.796 130.883C121.789 130.815 121.777 130.748 121.77 130.681C123.518 130.418 125.264 130.152 127.01 129.905C134.161 128.594 144.468 128.9 153.433 128.575C165.529 127.843 185.529 130.525 194.546 121.694C197.518 119.127 199.868 115.669 199.964 111.629C200.254 107.218 198.727 102.928 198.126 98.5898ZM84.1288 129.504C84.7533 129.58 85.3368 129.672 85.8597 129.784C92.1578 130.957 98.4504 132.355 104.893 132.318C110.491 132.317 116.04 131.539 121.573 130.71C120.874 138.297 120.659 145.783 119.239 152.347C118.392 156.214 117.228 158.714 114.942 160.432C114.234 160.969 112.296 160.955 109.398 161.024C104.942 161.112 100.495 161.455 96.0779 162.053C92.4332 162.491 90.6465 162.534 89.8433 161.704C88.9433 160.221 89.2996 160.833 88.8115 159.445C88.201 156.846 87.8735 154.185 87.2584 151.583C85.7075 143.761 84.2724 137.124 84.1288 129.504ZM122.02 155.845C125.224 160.849 130.944 166.19 131.141 170.943C127.745 171.104 124.339 171.076 120.941 171.193C117.92 171.222 114.91 171.494 111.894 171.64C108.665 171.803 105.42 171.806 102.217 172.289C94.9662 173.547 89.0417 175.107 82.6694 174.928C82.722 174.764 82.7568 174.595 82.7731 174.423C83.7703 169.896 84.5535 165.329 85.3238 160.76C85.5505 161.743 85.9071 162.691 86.3842 163.579C88.4143 167.107 93.0166 166.664 96.5048 166.331C100.685 165.877 104.875 165.55 109.069 165.255C112.099 164.967 115.625 165.225 117.928 162.88C119.897 160.89 121.275 158.393 121.912 155.667C121.948 155.726 121.983 155.786 122.02 155.845V155.845ZM195.806 109.796C195.806 110.273 195.796 110.75 195.764 111.225C195.753 111.538 195.726 111.85 195.682 112.16C195.027 115.237 194.719 115.508 192.365 117.998C190.384 119.813 190.566 119.894 188.405 121.087C181.969 124.35 172.656 124.227 163.326 124.294C156.614 124.311 149.906 124.558 143.195 124.648C137.978 124.688 132.747 124.769 127.577 125.549C118.291 126.765 111.174 128.507 101.246 127.928C96.0138 127.755 91.4511 126.323 85.2272 125.433C76.9063 124.242 68.554 125.745 60.2932 126.728C53.8863 127.44 47.4283 127.3 40.9999 127.684C32.7188 128.135 27.0027 127.906 19.4882 125.649C16.1839 124.725 12.9167 123.673 9.62661 122.7C6.14955 121.534 5.38507 121.307 4.23332 119.284C3.57585 116.341 4.93744 103.809 5.7792 97.1235C6.35345 92.1994 6.34985 87.2382 6.62059 82.2938C7.1563 73.6576 6.57213 65.018 6.01535 56.3986C5.60267 50.1935 5.683 43.9656 5.13397 37.7678C4.70382 29.8462 2.95403 20.1099 7.74821 13.6584C11.2019 10.4271 15.9667 9.60741 20.3966 8.29044C20.4404 8.29494 20.4842 8.2975 20.5279 8.30218C25.3997 8.80961 30.2723 9.39715 35.1751 9.47983C39.529 9.52207 43.8772 9.13947 48.2315 9.16924C55.3101 9.23026 62.3867 9.5142 69.4667 9.40062C77.7293 9.28376 85.9874 8.93007 94.2518 8.9289C107.175 8.85563 120.134 8.84727 133.004 7.56357C142.539 6.68908 153.693 4.11829 160.346 4.6231C168.3 5.64359 175.654 13.9172 179.351 22.746C179.911 24.2038 183.075 32.3087 184.106 36.1222C185.43 41.1195 186.466 46.1889 187.209 51.3051C188.36 60.5568 188.875 74.1528 191.426 84.7742C192.657 91.3939 193.857 98.0198 195.025 104.652C195.317 107.239 195.885 108.132 195.806 109.796Z" fill="black"/>
<path d="M14.9725 15.3994C11.0824 15.4958 11.0927 21.195 14.9727 21.3019C18.8628 21.2055 18.8527 15.5064 14.9725 15.3994Z" fill="black"/>
<path d="M163.107 23.0175C155.409 21.0621 147.377 21.8389 139.516 21.7499C125.311 21.8399 111.162 23.0665 97.0912 24.9644C88.0603 26.0408 78.9677 26.7874 69.8675 26.4515C62.6046 26.265 55.336 25.7541 48.0713 26.1274C35.9648 26.8315 23.8267 27.9343 11.9339 30.3704C25.1031 29.4935 38.3277 30.0801 51.5091 30.4C61.2881 30.9725 71.0774 31.8293 80.8814 31.4429C90.114 31.036 99.2698 29.7878 108.445 28.756C118.234 27.6673 128.06 26.9665 137.851 25.892C146.439 25.2795 155.416 23.1706 163.842 24.2153C165.773 24.5092 167.664 25.0213 169.595 25.3173C167.421 24.5828 165.333 23.5945 163.107 23.0175Z" fill="black"/>
<path d="M24.2572 15.2744C20.3671 15.3708 20.3771 21.07 24.2573 21.1769C28.1475 21.0805 28.1374 15.3814 24.2572 15.2744Z" fill="black"/>
<path d="M33.9015 14.2029C30.0114 14.2993 30.0215 19.9985 33.9015 20.1054C37.7918 20.009 37.7817 14.3099 33.9015 14.2029Z" fill="black"/>
<path d="M74.4295 54.3677C74.0249 51.6687 73.5879 48.9713 72.9346 46.3196C72.4289 44.1958 71.5261 41.7913 69.2538 41.0656C66.4524 40.2565 63.5269 40.7389 60.7078 41.1996C56.2323 41.8863 54.1936 42.3165 49.9767 42.5841C40.7205 43.2681 27.3365 43.0953 20.1676 44.4996C25.9718 44.4867 31.7731 44.9555 37.5625 45.3394C43.2254 45.6846 48.9161 46.0635 54.5881 45.7351C58.0945 45.5089 61.571 44.928 65.0785 44.7374C66.9054 44.792 66.2654 44.6526 67.9122 45.0607C69.0576 46.2085 70.603 56.8353 71.014 61.3837C71.3226 64.8564 70.5606 67.6331 70.1136 68.262C69.7769 68.3429 69.3592 68.4088 69.1697 68.4364C69.2381 68.4273 69.3426 68.4137 69.4939 68.3947C69.2358 68.4241 68.9786 68.4597 68.7215 68.4967C68.8386 68.4787 68.9263 68.4661 68.9974 68.4564C68.9182 68.4653 68.8152 68.4764 68.6756 68.4899C64.713 68.8507 60.7284 68.9037 56.7576 68.6487C55.0683 68.5539 53.3915 68.3118 51.7031 68.2107C49.6274 68.2005 47.5533 68.3264 45.494 68.5877C38.0789 69.3193 25.947 73.0627 20.4847 70.0979C20.4593 70.0802 20.4339 70.0628 20.4087 70.0454C20.1502 69.7597 20.1387 69.8589 20.0104 69.5879C19.9875 69.5323 19.9746 69.4993 19.9638 69.4705C19.2285 66.5797 19.1969 63.2278 18.8124 59.6033C18.5753 56.0669 17.7215 52.6239 17.0139 49.1627C16.6168 47.081 16.4899 44.9541 16.1673 42.7253C16.2107 44.9106 16.0924 47.1 16.2452 49.2819C16.5489 52.7891 17.0253 56.2905 16.8897 59.8191C16.8562 62.4788 16.7848 65.1415 16.8988 67.8001C16.9806 69.3629 17.1145 71.0934 18.3514 72.2091C24.1309 77.2044 39.5128 73.2929 44.521 72.8299C48.2361 72.2715 52.0117 72.2444 55.7345 72.7493C59.779 73.07 63.8417 73.0911 67.8893 72.8124C69.6414 72.6143 71.6699 72.7512 73.0416 71.4664C76.9942 66.7869 75.1165 59.881 74.4295 54.3677Z" fill="black"/>
<path d="M69.1696 68.4363C69.0216 68.456 69.0491 68.4538 69.1696 68.4363V68.4363Z" fill="black"/>
<path d="M68.9974 68.4563C69.2143 68.4318 69.2078 68.4275 68.9974 68.4563V68.4563Z" fill="black"/>
<path d="M144.113 41.929C136.481 42.16 128.831 41.9546 121.212 42.4904C115.38 42.9151 109.629 44.0222 103.925 45.2662C115.772 44.6583 127.752 45.1911 139.471 43.0869C141.374 42.7281 143.269 42.325 145.165 41.9333C144.814 41.9307 144.463 41.9278 144.113 41.929Z" fill="black"/>
<path d="M145.282 54.2593C140.729 52.5878 135.756 53.4686 131.014 53.4059C126.772 53.4806 122.543 53.8363 118.308 54.0606C114.548 54.211 110.779 54.2813 107.052 54.8434C114.053 55.3414 121.032 56.5287 128.07 55.8807C131.484 55.6638 134.88 55.2316 138.259 54.7016C140.589 54.3531 142.227 54.0083 144.887 54.271C145.087 54.2709 145.79 54.4315 145.282 54.2593Z" fill="black"/>
<path d="M108.811 67.5477C113.74 67.721 118.671 68.1277 123.604 67.9037C131.253 67.396 138.83 66.1166 146.221 64.085C132.504 64.2474 121.957 65.6635 108.811 67.5477Z" fill="black"/>
<path d="M150.96 82.6191C140.4 82.3631 129.921 80.4637 119.335 80.9325C108.333 80.9782 100.033 83.3444 90.0211 83.6067C81.2891 84.0554 72.5392 83.285 63.8126 83.8676C57.6323 84.3557 51.4928 85.2636 45.333 85.9544C37.8351 86.7581 30.4273 88.2514 23.2036 90.4153C29.5687 89.3662 35.9982 88.7546 42.447 88.5847C49.3968 88.507 56.3388 88.1676 63.2852 87.9803C72.6545 88.0059 82.0207 88.8133 91.3911 88.293C102.758 87.7695 110.97 85.6471 121.698 85.0636C131.585 84.0937 141.568 84.7643 151.43 83.4869C153.293 83.2505 155.154 82.999 157.012 82.7325C154.995 82.7012 152.977 82.6634 150.96 82.6191Z" fill="black"/>
<path d="M146.827 92.9217C137.838 92.9443 127.376 94.9975 120.075 95.8522C112.117 96.8123 104.097 97.041 96.0887 97.1461C83.0213 97.355 69.9925 98.3893 56.9512 99.1465C51.8049 99.3692 46.6542 99.4822 41.5092 99.7365C37.4076 99.9718 33.3159 100.462 29.4581 101.947C33.5667 100.927 37.7873 100.948 41.9869 101.206C47.4093 101.535 52.8246 102.011 58.2552 102.188C72.1288 102.646 86.0034 101.94 99.8769 101.823C107.558 101.693 115.21 100.832 122.729 99.2534C131.289 97.3435 139.706 94.7761 148.404 93.5198C149.734 93.3005 151.065 93.0829 152.4 92.8985C150.542 92.8761 148.685 92.8838 146.827 92.9217Z" fill="black"/>
<path d="M147.259 107.262C138.649 107.789 130.018 107.847 121.415 108.451C110.359 109.588 99.2509 109.723 88.1598 110.281C79.567 110.675 70.9746 111.072 62.3751 111.288C54.752 111.792 46.9959 112.123 39.6214 114.26C43.6733 113.671 47.773 113.478 51.8624 113.684C56.8999 113.754 61.9282 114.012 66.9472 114.457C74.0624 115.043 81.2078 115.187 88.3446 115.157C99.8353 115.052 111.32 114.307 122.619 112.134C130.86 110.854 139.125 109.758 147.256 107.859C148.393 107.638 149.541 107.487 150.696 107.405C149.555 107.287 148.407 107.239 147.259 107.262V107.262Z" fill="black"/>
</g>
<defs>
<clipPath id="clip0_3_26">
<rect width="200" height="178.487" fill="white"/>
</clipPath>
</defs>
</svg>
