<svg width="544" height="470" viewBox="0 0 544 470" fill="none" xmlns="http://www.w3.org/2000/svg">
<path d="M272.726 197.6C281.526 179.4 296.926 165.2 324.926 159.4C388.826 146.1 450.026 159.4 464.026 178.2C478.026 197 448.726 225.4 461.626 282.7C474.526 340 472.626 401.1 421.026 406.7" stroke="#1E0400" stroke-width="1.5" stroke-miterlimit="10" stroke-linecap="round" stroke-linejoin="round"/>
<path d="M465.826 205.6C465.826 205.6 470.226 171 417.126 163.2C357.726 154.4 299.526 161.2 281.226 192.7" stroke="#1E0400" stroke-width="1.5" stroke-miterlimit="10" stroke-linecap="round" stroke-linejoin="round"/>
<path d="M464.126 178.2C464.126 178.2 477.426 192.2 480.326 227.3C484.726 280.3 536.226 381.7 459.226 406.7" stroke="#1E0400" stroke-width="1.5" stroke-miterlimit="10" stroke-linecap="round" stroke-linejoin="round"/>
<path d="M114.826 147L113.326 135.5L114.026 133.2C116.426 125.1 111.826 116.5 103.726 114.1C95.6262 111.7 87.0262 116.3 84.6262 124.4L83.9262 126.7L76.3262 135.5C73.0262 139.3 74.8262 145.2 79.6262 146.7L84.6262 148.2C83.3262 152.7 85.8262 157.4 90.3262 158.7C94.8262 160 99.5262 157.5 100.826 153L105.826 154.5C110.726 156 115.426 152 114.826 147Z" fill="#E7816D"/>
<path d="M103.126 153.7L76.8262 145.8C72.0262 144.4 70.3262 138.4 73.5262 134.6L81.1262 125.8L81.8262 123.5C84.2262 115.4 92.8262 110.7 100.926 113.2C109.026 115.6 113.726 124.2 111.226 132.3L110.526 134.6L112.026 146.1C112.626 151.2 107.926 155.1 103.126 153.7Z" stroke="#1E0400" stroke-width="1.5" stroke-miterlimit="10" stroke-linecap="round" stroke-linejoin="round"/>
<path d="M81.8262 147.3C80.5262 151.8 83.0262 156.5 87.5262 157.8C92.0262 159.1 96.7262 156.6 98.0262 152.1" stroke="#1E0400" stroke-width="1.5" stroke-miterlimit="10" stroke-linecap="round" stroke-linejoin="round"/>
<path d="M406.826 116.8L417.526 108.6H498.226C505.426 108.6 511.226 102.8 511.226 95.6001V49.1001C511.226 41.9001 505.426 36.1001 498.226 36.1001H412.126C404.926 36.1001 399.126 41.9001 399.126 49.1001V112.9C399.026 116.9 403.626 119.2 406.826 116.8Z" fill="#E7816D"/>
<path d="M404.026 116.8L414.726 108.6H495.326C502.526 108.6 508.326 102.8 508.326 95.6001V49.1001C508.326 41.9001 502.526 36.1001 495.326 36.1001H409.226C402.026 36.1001 396.226 41.9001 396.226 49.1001V112.9C396.226 116.9 400.826 119.2 404.026 116.8Z" stroke="#1E0400" stroke-width="1.5" stroke-miterlimit="10" stroke-linecap="round" stroke-linejoin="round"/>
<path d="M424.226 71.5C428.147 71.5 431.326 68.3213 431.326 64.4C431.326 60.4788 428.147 57.3 424.226 57.3C420.305 57.3 417.126 60.4788 417.126 64.4C417.126 68.3213 420.305 71.5 424.226 71.5Z" fill="#FAFAFA"/>
<path d="M436.226 83.5C436.226 76.9 430.826 71.5 424.226 71.5C417.626 71.5 412.226 76.9 412.226 83.5C412.226 86.2 414.426 88.4 417.126 88.4H431.326C434.026 88.4 436.226 86.2 436.226 83.5Z" fill="#FAFAFA"/>
<path d="M424.226 71.5C428.147 71.5 431.326 68.3213 431.326 64.4C431.326 60.4788 428.147 57.3 424.226 57.3C420.305 57.3 417.126 60.4788 417.126 64.4C417.126 68.3213 420.305 71.5 424.226 71.5Z" stroke="#1E0400" stroke-width="1.5" stroke-miterlimit="10" stroke-linecap="round" stroke-linejoin="round"/>
<path d="M436.226 83.5C436.226 76.9 430.826 71.5 424.226 71.5C417.626 71.5 412.226 76.9 412.226 83.5C412.226 86.2 414.426 88.4 417.126 88.4H431.326C434.026 88.4 436.226 86.2 436.226 83.5Z" stroke="#1E0400" stroke-width="1.5" stroke-miterlimit="10" stroke-linecap="round" stroke-linejoin="round"/>
<path d="M487.726 64.4001H450.826C448.826 64.4001 447.326 62.8001 447.326 60.9001C447.326 58.9001 448.926 57.4001 450.826 57.4001H487.726C489.726 57.4001 491.226 59.0001 491.226 60.9001C491.326 62.8001 489.726 64.4001 487.726 64.4001Z" fill="#FAFAFA" stroke="#1E0400" stroke-width="1.5" stroke-miterlimit="10" stroke-linecap="round" stroke-linejoin="round"/>
<path d="M447.326 76.4001H491.326" stroke="#1E0400" stroke-width="1.5" stroke-miterlimit="10" stroke-linecap="round" stroke-linejoin="round"/>
<path d="M447.326 83.5H478.426" stroke="#1E0400" stroke-width="1.5" stroke-miterlimit="10" stroke-linecap="round" stroke-linejoin="round"/>
<path d="M198.426 182.4H40.8262C37.8262 182.4 35.1263 184 33.6263 186.5L27.0262 197.9C25.5262 200.5 25.5262 203.6 27.0262 206.2L33.6263 217.6C35.1263 220.2 37.8262 221.7 40.8262 221.7H198.426C201.426 221.7 204.126 220.1 205.626 217.6L212.226 206.2C213.726 203.6 213.726 200.5 212.226 197.9L205.626 186.5C204.126 183.9 201.426 182.4 198.426 182.4Z" fill="#E7816D"/>
<path d="M195.426 182.4H37.8262C34.8262 182.4 32.1263 184 30.6263 186.5L24.0262 197.9C22.5262 200.5 22.5262 203.6 24.0262 206.2L30.6263 217.6C32.1263 220.2 34.8262 221.7 37.8262 221.7H195.426C198.426 221.7 201.126 220.1 202.626 217.6L209.226 206.2C210.726 203.6 210.726 200.5 209.226 197.9L202.626 186.5C201.126 183.9 198.426 182.4 195.426 182.4Z" stroke="#1E0400" stroke-width="1.5" stroke-miterlimit="10" stroke-linecap="round" stroke-linejoin="round"/>
<path d="M68.1263 195.2C68.8263 195.6 69.0262 196.5 68.5262 197.1L65.3262 201.3V201.4L70.4263 200.7C71.2263 200.6 71.9263 201.2 71.9263 202C71.9263 202.8 71.2262 203.4 70.5262 203.3L65.4263 202.7V202.8L68.6263 206.8C69.1263 207.4 68.9262 208.3 68.2262 208.7L68.0262 208.8C67.3262 209.2 66.5262 208.9 66.2262 208.2L64.2262 203.5H64.1263L61.9263 208.3C61.6263 209 60.7262 209.3 60.0262 208.9C59.4262 208.5 59.2262 207.6 59.7262 207L62.9263 202.9V202.8L58.0262 203.4C57.2262 203.5 56.5262 202.9 56.5262 202.1C56.5262 201.3 57.2262 200.7 58.0262 200.8L62.9263 201.4V201.3L59.7262 197.2C59.2262 196.6 59.4263 195.7 60.1263 195.3L60.2262 195.2C60.9262 194.8 61.7262 195.1 62.0262 195.8L64.1263 200.5H64.2262L66.3262 195.8C66.5262 195.1 67.4263 194.8 68.1263 195.2Z" fill="#1E0400"/>
<path d="M94.4262 195.2C95.1262 195.6 95.3262 196.5 94.8262 197.1L91.6262 201.3V201.4L96.7262 200.7C97.5262 200.6 98.2262 201.2 98.2262 202C98.2262 202.8 97.5262 203.4 96.8262 203.3L91.7262 202.7V202.8L94.9262 206.8C95.4262 207.4 95.2262 208.3 94.5262 208.7L94.3262 208.8C93.6262 209.2 92.8262 208.9 92.5262 208.2L90.5262 203.5H90.3262L88.1262 208.3C87.8262 209 86.9262 209.3 86.2262 208.9C85.6262 208.5 85.4262 207.6 85.9262 207L89.1262 202.9V202.8L84.2262 203.4C83.4262 203.5 82.7262 202.9 82.7262 202.1C82.7262 201.3 83.4262 200.7 84.2262 200.8L89.1262 201.4V201.3L85.9262 197.2C85.4262 196.6 85.6262 195.7 86.3262 195.3L86.4262 195.2C87.1262 194.8 87.9262 195.1 88.2262 195.8L90.3262 200.5H90.4262L92.5262 195.8C92.8262 195.1 93.6262 194.8 94.4262 195.2Z" fill="#1E0400"/>
<path d="M120.626 195.2C121.326 195.6 121.526 196.5 121.026 197.1L117.826 201.3V201.4L122.926 200.7C123.726 200.6 124.426 201.2 124.426 202C124.426 202.8 123.726 203.4 123.026 203.3L117.926 202.7V202.8L121.126 206.8C121.626 207.4 121.426 208.3 120.726 208.7L120.526 208.8C119.826 209.2 119.026 208.9 118.726 208.2L116.726 203.5H116.626L114.426 208.3C114.126 209 113.226 209.3 112.526 208.9C111.926 208.5 111.726 207.6 112.226 207L115.426 202.9V202.8L110.526 203.4C109.726 203.5 109.026 202.9 109.026 202.1C109.026 201.3 109.726 200.7 110.526 200.8L115.426 201.4V201.3L112.226 197.2C111.726 196.6 111.926 195.7 112.626 195.3L112.726 195.2C113.426 194.8 114.226 195.1 114.526 195.8L116.626 200.5H116.726L118.826 195.8C119.026 195.1 119.926 194.8 120.626 195.2Z" fill="#1E0400"/>
<path d="M146.826 195.2C147.526 195.6 147.726 196.5 147.226 197.1L144.026 201.3V201.4L149.126 200.7C149.926 200.6 150.626 201.2 150.626 202C150.626 202.8 149.926 203.4 149.226 203.3L144.126 202.7V202.8L147.326 206.8C147.826 207.4 147.626 208.3 146.926 208.7L146.726 208.8C146.026 209.2 145.226 208.9 144.926 208.2L142.926 203.5H142.826L140.626 208.3C140.326 209 139.426 209.3 138.726 208.9C138.126 208.5 137.926 207.6 138.426 207L141.626 202.9V202.8L136.726 203.4C135.926 203.5 135.226 202.9 135.226 202.1C135.226 201.3 135.926 200.7 136.726 200.8L141.626 201.4V201.3L138.426 197.2C137.926 196.6 138.126 195.7 138.826 195.3L138.926 195.2C139.626 194.8 140.426 195.1 140.726 195.8L142.826 200.5H142.926L145.026 195.8C145.326 195.1 146.126 194.8 146.826 195.2Z" fill="#1E0400"/>
<path d="M173.126 195.2C173.826 195.6 174.026 196.5 173.526 197.1L170.326 201.3V201.4L175.426 200.7C176.226 200.6 176.926 201.2 176.926 202C176.926 202.8 176.226 203.4 175.526 203.3L170.426 202.7V202.8L173.626 206.8C174.126 207.4 173.926 208.3 173.226 208.7L173.026 208.8C172.326 209.2 171.526 208.9 171.226 208.2L169.226 203.5H169.126L166.926 208.3C166.626 209 165.726 209.3 165.026 208.9C164.426 208.5 164.226 207.6 164.726 207L167.926 202.9V202.8L163.026 203.4C162.226 203.5 161.526 202.9 161.526 202.1C161.526 201.3 162.226 200.7 163.026 200.8L167.926 201.4V201.3L164.726 197.2C164.226 196.6 164.426 195.7 165.126 195.3L165.226 195.2C165.926 194.8 166.726 195.1 167.026 195.8L169.126 200.5H169.226L171.326 195.8C171.526 195.1 172.426 194.8 173.126 195.2Z" fill="#1E0400"/>
<path d="M410.226 371.1C410.226 371.1 422.226 391.6 416.426 406.7H276.326L289.126 394C289.226 394 387.926 386.5 410.226 371.1Z" fill="#1E0400"/>
<path d="M410.226 371.1C410.226 371.1 422.226 391.6 416.426 406.7H276.326L289.126 394C289.226 394 387.926 386.5 410.226 371.1Z" stroke="#1E0400" stroke-width="1.5" stroke-miterlimit="10" stroke-linecap="round" stroke-linejoin="round"/>
<path d="M281.226 336.2C281.226 336.9 281.226 337.6 281.226 338.2C280.326 342 277.626 350.1 268.926 357C265.726 359.6 255.426 363.1 241.726 366.8L231.126 319.3C232.726 316.1 234.326 311.9 235.726 308.2C242.926 312.9 257.826 320 280.926 318.1C281.226 322.6 281.326 328.3 281.226 336.2Z" fill="#FAFAFA"/>
<path d="M235.726 308.2C235.626 308.6 235.426 308.9 235.326 309.3C247.926 321.4 264.426 325 281.226 326.1C281.226 323 281.026 320.4 280.926 318.2C257.826 320 242.926 312.9 235.726 308.2Z" fill="#1E0400"/>
<path d="M291.426 147.7C291.426 147.7 262.526 145.7 267.426 111.3C268.426 104.3 274.026 99.4 273.726 94.4C272.426 75.5 290.926 74.2 307.226 75.5C323.326 76.8 348.626 66.3 357.926 88.1C365.526 106 368.026 118.7 381.426 131.1C390.426 139.4 403.726 148.5 390.926 162.3C378.126 176 420.926 187.1 403.926 203.4C386.826 219.8 296.526 204 294.926 188.4C293.326 172.8 299.926 170.9 294.926 158.5C289.926 146.1 291.426 147.7 291.426 147.7Z" fill="#1E0400"/>
<path d="M455.926 305.5C445.426 293.4 439.326 248.5 426.826 219.4C422.726 209.8 414.226 202.7 403.626 197.4C392.026 191.6 378.026 188 364.626 186C367.426 191.4 361.826 225.8 354.826 228.2C347.526 230.7 337.626 221.1 332.626 215.5C334.026 218.3 334.326 221.1 333.926 223.5C333.026 229.1 329.526 230.1 329.526 230.1C328.126 230.7 326.526 230.6 324.826 229.7C324.326 229.4 323.926 229.1 323.426 228.7C317.526 223.3 324.526 213.9 324.826 213.5C319.226 218 305.426 228.4 303.126 223.6C299.526 216 303.726 189.6 307.026 186.1C294.826 188 287.926 190.5 287.926 190.5C287.326 190.8 286.726 191.2 286.226 191.7C285.626 191.7 266.226 193.3 258.426 221.6C250.526 250.3 237.826 296.8 230.726 304.5C230.726 304.5 247.026 321 280.926 318.3C281.326 322.8 281.326 328.5 281.226 336.4C280.826 363.5 269.526 369.6 281.226 378.1C292.926 386.6 381.926 379.3 389.626 378.1C397.326 376.9 403.826 376.1 400.526 360.3C397.326 344.5 397.326 320.7 397.326 320.7C427.226 325.7 455.926 305.5 455.926 305.5Z" fill="#E7816D"/>
<path d="M355.126 228.1C344.926 231.6 329.726 211.6 329.726 211.6C342.126 212 354.326 200.8 355.126 186.1C355.126 186.1 354.426 182.9 353.426 178.2C353.426 178.2 362.126 180.5 364.926 185.9C367.626 191.2 362.026 225.7 355.126 228.1Z" fill="#FAFAFA"/>
<path d="M381.426 224.6C381.526 222.8 375.326 244.4 381.426 270.5C387.526 296.6 356.726 304.5 343.826 305.3C330.926 306.1 354.726 317.1 365.626 317.8C376.426 318.5 351.626 355 351.626 355C351.626 355 394.226 337.1 395.426 334C396.626 330.9 395.426 319.6 395.426 319.6C395.426 319.6 392.326 319.1 391.426 312.2C390.526 305.3 389.626 270.1 386.526 260.2C383.526 250.3 380.426 242.4 381.426 224.6Z" fill="#1E0400"/>
<path d="M270.426 287.5C270.426 287.5 273.826 299.7 270.426 306.4C267.026 313.2 257.526 316.3 243.026 312.2C243.026 312.2 262.026 320.3 281.226 317.9C281.226 317.9 280.826 309.5 276.926 301.5C273.026 293.5 270.126 289.4 270.426 287.5Z" fill="#1E0400"/>
<path d="M288.226 190.2C288.226 190.2 305.426 184 333.326 183.6C361.226 183.2 414.626 190.1 427.126 219.2C439.626 248.3 445.726 293.2 456.226 305.3C456.226 305.3 427.526 325.5 397.626 320.3C397.626 320.3 397.626 344.2 400.826 359.9C404.026 375.7 397.626 376.5 389.926 377.7C382.226 378.9 293.326 386.2 281.526 377.7C269.826 369.2 281.126 363.1 281.526 336.1C281.926 309.1 280.126 308.2 272.326 292C264.526 275.8 266.726 260.1 274.426 237.6C278.526 226 276.826 196.3 288.226 190.2Z" stroke="#1E0400" stroke-width="1.5" stroke-miterlimit="10" stroke-linecap="round" stroke-linejoin="round"/>
<path d="M286.426 191.4C286.426 191.4 266.526 192.5 258.626 221.3C250.726 250 238.026 296.5 230.926 304.2C230.926 304.2 247.226 320.7 281.126 318" stroke="#1E0400" stroke-width="1.5" stroke-miterlimit="10" stroke-linecap="round" stroke-linejoin="round"/>
<path d="M447.026 310.7C436.226 316.3 417.126 323.7 397.626 320.3C397.626 320.3 396.526 320 395.426 319.6C395.426 319.6 396.026 332 395.426 334.1C394.826 336.1 361.626 349 339.826 361.4C318.026 373.8 318.626 375.7 309.526 375.7C302.226 375.7 285.626 373.5 277.026 372.7C274.926 372.5 273.326 372.4 272.426 372.4C270.026 372.4 263.826 376.5 258.826 379.7C256.926 380.9 252.726 384.7 253.226 387.2C253.626 389 257.626 387.1 259.026 386.3C256.926 387.6 254.826 388.9 253.626 389.8C251.326 391.4 249.926 394.1 249.226 395.6C248.626 396.9 249.526 398.5 250.926 398.6C251.526 398.6 252.326 398.5 253.326 398C257.226 396.2 255.726 399.8 261.526 398.6C267.326 397.4 266.726 400.9 272.426 398.8C278.226 396.8 290.926 400.3 301.526 399.5C312.126 398.6 319.026 395.9 319.026 395.9C319.026 395.9 378.226 386.5 411.026 376.8C443.826 367.1 450.526 356.8 450.726 349.2C451.526 327.4 447.026 310.7 447.026 310.7ZM259.826 385.6C261.826 384.4 263.826 383.3 265.026 382.6C263.826 383.3 261.926 384.4 259.826 385.6Z" fill="#FAFAFA"/>
<path d="M397.626 320.3C397.626 320.3 396.526 320 395.426 319.6C395.426 319.6 395.526 320.9 395.526 322.6C412.126 325.9 432.226 326.3 448.926 320C447.926 314.2 447.026 310.7 447.026 310.7C436.126 316.3 417.126 323.7 397.626 320.3Z" fill="#1E0400"/>
<path d="M395.426 319.6C395.426 319.6 396.026 332 395.426 334C394.826 336 361.626 348.9 339.826 361.3C318.026 373.7 318.626 375.6 309.526 375.6C300.426 375.6 276.926 372.3 272.426 372.3C270.026 372.3 263.826 376.4 258.826 379.6C256.926 380.8 252.726 384.6 253.226 387.1C253.626 388.9 258.026 386.8 259.226 386.1C262.826 384 266.426 381.9 266.426 381.9C266.426 381.9 257.026 387.2 253.726 389.7C251.426 391.4 250.026 394 249.326 395.5C248.726 396.8 249.626 398.4 251.026 398.5C251.626 398.5 252.426 398.4 253.426 397.9C257.326 396.1 255.826 399.7 261.626 398.5C267.426 397.3 266.826 400.8 272.526 398.7C278.326 396.7 291.026 400.2 301.626 399.4C312.226 398.5 319.126 395.8 319.126 395.8C319.126 395.8 378.326 386.4 411.126 376.7C443.926 367 450.626 356.7 450.826 349.1C451.626 327.6 447.026 310.9 447.026 310.9" stroke="#1E0400" stroke-width="1.5" stroke-miterlimit="10" stroke-linecap="round" stroke-linejoin="round"/>
<path d="M255.026 397.2C255.026 397.2 255.526 394.7 258.526 392.4C261.526 390.1 272.326 385.1 273.526 383.2" stroke="#1E0400" stroke-width="1.5" stroke-miterlimit="10" stroke-linecap="round" stroke-linejoin="round"/>
<path d="M265.026 398.2C265.026 398.2 262.926 396.7 267.526 394.4C272.126 392.1 279.726 389.9 280.826 389.7" stroke="#1E0400" stroke-width="1.5" stroke-miterlimit="10" stroke-linecap="round" stroke-linejoin="round"/>
<path d="M266.326 381.8C266.326 381.8 270.326 379.4 271.326 378.3" stroke="#1E0400" stroke-width="1.5" stroke-miterlimit="10" stroke-linecap="round" stroke-linejoin="round"/>
<path d="M395.426 334.1C395.426 334.1 402.326 330.4 410.326 332.5" stroke="#1E0400" stroke-width="1.5" stroke-miterlimit="10" stroke-linecap="round" stroke-linejoin="round"/>
<path d="M241.726 366.9C255.326 363.2 265.726 359.7 268.926 357.1C280.726 347.6 281.626 336.1 281.626 336.1" stroke="#1E0400" stroke-width="1.5" stroke-miterlimit="10" stroke-linecap="round" stroke-linejoin="round"/>
<path d="M235.826 307.9C234.426 311.7 232.626 316 231.026 319.3" stroke="#1E0400" stroke-width="1.5" stroke-miterlimit="10" stroke-linecap="round" stroke-linejoin="round"/>
<path d="M355.126 186.1C354.326 200.8 342.126 212 329.726 211.6C328.926 211.6 328.226 211.5 327.426 211.4C314.326 209.4 315.726 191.5 315.726 191.5V167C310.526 146.8 343.426 132 344.826 138.5C345.826 143.2 350.726 166 353.426 178.3C354.426 182.9 355.126 186.1 355.126 186.1Z" fill="#FAFAFA" stroke="#1E0400" stroke-width="1.5" stroke-miterlimit="10" stroke-linecap="round" stroke-linejoin="round"/>
<path d="M391.326 307.5C395.726 308.3 394.326 312.1 399.826 312.3C402.426 312.4 405.426 308.4 408.826 308.2C411.626 308.1 415.026 311.8 418.126 311.3C420.926 310.9 423.126 306.4 426.226 305.7C429.026 305 433.126 307.9 436.026 306.9C438.826 305.9 439.926 301 442.626 299.6C445.226 298.2 449.926 300.1 452.426 298.3" stroke="#1E0400" stroke-width="1.5" stroke-miterlimit="10" stroke-linecap="round" stroke-linejoin="round"/>
<path d="M236.826 293.9C240.026 296 237.226 299 241.526 301C243.526 301.9 247.426 299.3 250.126 300.3C252.326 301.1 253.526 305.7 256.126 306.5C258.426 307.1 261.826 303.8 264.426 304.3C266.826 304.7 268.826 309 271.526 309.3C274.026 309.5 276.626 305.6 279.326 305.5" stroke="#1E0400" stroke-width="1.5" stroke-miterlimit="10" stroke-linecap="round" stroke-linejoin="round"/>
<path d="M325.026 229.5C316.026 240.6 310.926 280.4 310.926 280.4C302.726 273.7 296.826 272.3 296.826 272.3C296.126 259.3 321.226 223.2 321.226 223.2C321.226 225.1 321.926 227 323.626 228.6C324.126 228.9 324.626 229.2 325.026 229.5Z" fill="#FAFAFA"/>
<path d="M357.926 272.2C351.826 273.4 342.026 277.1 342.026 277.1C337.926 253.1 329.726 230 329.726 230C331.926 229.1 333.626 226.6 334.126 223.4C345.226 240 357.926 272.2 357.926 272.2Z" fill="#FAFAFA"/>
<path d="M321.326 223.1C321.326 223.1 296.226 259.2 296.926 272.2C296.926 272.2 302.826 273.6 311.026 280.3C311.026 280.3 316.126 240.6 325.126 229.4" stroke="#1E0400" stroke-width="1.5" stroke-miterlimit="10" stroke-linecap="round" stroke-linejoin="round"/>
<path d="M329.726 229.9C329.726 229.9 337.926 253.1 342.026 277C342.026 277 351.926 273.4 357.926 272.1C357.926 272.1 345.226 240 334.126 223.3" stroke="#1E0400" stroke-width="1.5" stroke-miterlimit="10" stroke-linecap="round" stroke-linejoin="round"/>
<path d="M456.226 305.4C456.226 305.4 427.526 325.6 397.626 320.4" stroke="#1E0400" stroke-width="1.5" stroke-miterlimit="10" stroke-linecap="round" stroke-linejoin="round"/>
<path d="M397.526 320.3C397.526 320.3 393.126 319.2 392.626 317.9C388.126 303.9 390.726 271.6 385.926 258.5C375.426 230 383.626 193.9 403.826 197.2" stroke="#1E0400" stroke-width="1.5" stroke-miterlimit="10" stroke-linecap="round" stroke-linejoin="round"/>
<path d="M327.426 211.3C327.426 211.3 306.326 229.5 303.326 223.3C299.726 215.7 303.926 189.3 307.226 185.8C310.526 182.2 315.726 180.3 315.726 180V191.4C315.726 191.4 314.326 209.3 327.426 211.3Z" fill="#FAFAFA"/>
<path d="M327.426 211.3C327.426 211.3 306.326 229.5 303.326 223.3C299.726 215.7 303.926 189.3 307.226 185.8C310.526 182.2 315.726 180.3 315.726 180V191.4C315.726 191.4 314.326 209.3 327.426 211.3Z" stroke="#1E0400" stroke-width="1.5" stroke-miterlimit="10" stroke-linecap="round" stroke-linejoin="round"/>
<path d="M355.126 228.1C344.926 231.6 329.726 211.6 329.726 211.6C342.126 212 354.326 200.8 355.126 186.1C355.126 186.1 354.426 182.9 353.426 178.2C353.426 178.2 362.126 180.5 364.926 185.9C367.626 191.2 362.026 225.7 355.126 228.1Z" fill="#FAFAFA"/>
<path d="M355.126 228.1C344.926 231.6 329.726 211.6 329.726 211.6C342.126 212 354.326 200.8 355.126 186.1C355.126 186.1 354.426 182.9 353.426 178.2C353.426 178.2 362.126 180.5 364.926 185.9C367.626 191.2 362.026 225.7 355.126 228.1Z" stroke="#1E0400" stroke-width="1.5" stroke-miterlimit="10" stroke-linecap="round" stroke-linejoin="round"/>
<path d="M280.026 111.5C280.026 111.5 283.026 131.5 284.926 144C286.726 156.4 291.626 167.4 305.226 170.4C318.826 173.4 337.326 165.9 344.026 148.9C350.726 131.9 358.326 86.7 321.026 88.2C283.626 89.6 280.626 98.1 280.026 111.5Z" fill="#FAFAFA"/>
<path d="M345.326 145.1C351.526 126.1 355.826 86.7001 320.926 88.1001C283.626 89.6001 280.626 98.1001 280.026 111.5C280.026 111.5 283.026 131.5 284.926 144C286.726 156.4 291.626 167.4 305.226 170.4C313.526 172.2 323.526 170.2 331.626 164.5" stroke="#1E0400" stroke-width="1.5" stroke-miterlimit="10" stroke-linecap="round" stroke-linejoin="round"/>
<path d="M321.026 106C321.726 105.1 322.126 104.5 322.126 104.5C322.126 104.5 321.526 105 321.026 106Z" fill="#1E0400"/>
<path d="M343.026 140.7C343.026 140.7 342.526 101.2 331.426 88.1001C320.326 75.0001 283.226 91.2001 283.226 91.2001L276.126 126.4C276.126 126.4 279.926 130.6 282.426 127.4C284.526 124.7 286.026 114.1 286.726 115.7C297.426 142.2 318.426 138.3 323.626 130.1C325.426 127.3 329.826 128.6 329.926 131.9C330.026 136.1 332.426 139.6 343.026 140.7Z" fill="#1E0400"/>
<path d="M348.926 147.7C357.707 147.7 364.826 140.223 364.826 131C364.826 121.777 357.707 114.3 348.926 114.3C340.145 114.3 333.026 121.777 333.026 131C333.026 140.223 340.145 147.7 348.926 147.7Z" fill="#FAFAFA"/>
<path d="M355.126 115.7C353.226 114.9 351.126 114.4 349.026 114.4C345.026 114.4 341.326 116 338.526 118.6C338.526 118.6 333.226 80.2 311.126 75.5C311.126 75.5 310.426 72.7 318.526 72.5C326.626 72.3 330.426 72.3 331.726 72.7C332.926 73 349.426 80.5 355.126 115.7Z" fill="#FAFAFA"/>
<path d="M348.926 147.7C357.707 147.7 364.826 140.223 364.826 131C364.826 121.777 357.707 114.3 348.926 114.3C340.145 114.3 333.026 121.777 333.026 131C333.026 140.223 340.145 147.7 348.926 147.7Z" stroke="#1E0400" stroke-width="1.5" stroke-miterlimit="10" stroke-linecap="round" stroke-linejoin="round"/>
<path d="M353.426 138.5C358.231 138.5 362.126 134.471 362.126 129.5C362.126 124.529 358.231 120.5 353.426 120.5C348.621 120.5 344.726 124.529 344.726 129.5C344.726 134.471 348.621 138.5 353.426 138.5Z" fill="#E7816D"/>
<path d="M351.626 138.5C356.431 138.5 360.326 134.471 360.326 129.5C360.326 124.529 356.431 120.5 351.626 120.5C346.821 120.5 342.926 124.529 342.926 129.5C342.926 134.471 346.821 138.5 351.626 138.5Z" stroke="#1E0400" stroke-width="1.5" stroke-miterlimit="10" stroke-linecap="round" stroke-linejoin="round"/>
<path d="M342.026 143.6C342.026 143.6 339.426 150.6 335.126 153.3" stroke="#1E0400" stroke-width="1.5" stroke-miterlimit="10" stroke-linecap="round" stroke-linejoin="round"/>
<path d="M334.626 153.2L335.226 153.8C336.126 154.7 336.126 156.2 335.126 157.1C332.526 159.7 327.326 164.5 323.626 164.4C318.626 164.2 321.326 157.4 322.426 155.3C323.426 153.4 326.726 156 331.426 152.8C332.426 152.1 333.826 152.3 334.626 153.2Z" stroke="#1E0400" stroke-width="1.5" stroke-miterlimit="10" stroke-linecap="round" stroke-linejoin="round"/>
<path d="M338.426 118.6C338.426 118.6 333.126 80.2 311.026 75.5C311.026 75.5 310.326 72.7 318.426 72.5C326.526 72.3 330.326 72.3 331.626 72.7C332.926 73.1 349.526 80.6 355.226 115.9" stroke="#1E0400" stroke-width="1.5" stroke-miterlimit="10" stroke-linecap="round" stroke-linejoin="round"/>
<path d="M301.926 148.5C301.926 148.5 300.526 149.5 298.326 150.2C296.226 150.8 292.326 150 292.726 145.7" stroke="#1E0400" stroke-width="1.5" stroke-miterlimit="10" stroke-linecap="round" stroke-linejoin="round"/>
<path d="M330.326 165.2C330.326 165.2 326.326 178.1 315.626 184.7V170.6C315.726 170.7 324.826 169.5 330.326 165.2Z" fill="#1E0400"/>
<path d="M325.026 213.3C325.026 213.3 317.526 222.9 323.626 228.5C330.226 234.5 337.426 224.7 332.826 215.4" stroke="#1E0400" stroke-width="1.5" stroke-miterlimit="10" stroke-linecap="round" stroke-linejoin="round"/>
<path d="M282.526 129.5C282.526 129.5 292.826 122 292.826 143.6" stroke="#1E0400" stroke-width="1.5" stroke-miterlimit="10" stroke-linecap="round" stroke-linejoin="round"/>
<path d="M298.626 156C298.626 156 306.626 158.3 313.826 150.6C313.826 150.6 316.126 155.8 312.226 159.1C308.726 162.3 302.726 160.2 302.526 156.3" stroke="#1E0400" stroke-width="1.5" stroke-miterlimit="10" stroke-linecap="round" stroke-linejoin="round"/>
<path d="M306.426 160.5C306.426 160.5 307.926 156.4 314.226 156" stroke="#1E0400" stroke-width="1.5" stroke-miterlimit="10" stroke-linecap="round" stroke-linejoin="round"/>
<path d="M223.126 148.8L166.826 155.7C162.026 156.3 157.626 152.9 157.026 148L150.126 91.7C149.526 86.9 152.926 82.5 157.826 81.9L214.126 75C218.926 74.4 223.326 77.8 223.926 82.7L230.826 139C231.326 143.8 227.926 148.2 223.126 148.8Z" stroke="#1E0400" stroke-width="1.5" stroke-miterlimit="10" stroke-linecap="round" stroke-linejoin="round"/>
<path d="M165.526 76.7L166.926 88.8" stroke="#1E0400" stroke-width="1.5" stroke-miterlimit="10" stroke-linecap="round" stroke-linejoin="round"/>
<path d="M205.326 71.8L206.826 83.9" stroke="#1E0400" stroke-width="1.5" stroke-miterlimit="10" stroke-linecap="round" stroke-linejoin="round"/>
<path d="M150.826 97.6L224.626 88.7" stroke="#1E0400" stroke-width="1.5" stroke-miterlimit="10" stroke-linecap="round" stroke-linejoin="round"/>
<path d="M196.12 108.078L185.101 109.419L186.442 120.438L197.461 119.097L196.12 108.078Z" fill="#E7816D"/>
<path d="M176.201 108.572L163.296 110.143L164.866 123.048L177.771 121.477L176.201 108.572Z" stroke="#1E0400" stroke-width="1.5" stroke-miterlimit="10" stroke-linecap="round" stroke-linejoin="round"/>
<path d="M195.8 106.176L182.895 107.747L184.466 120.652L197.371 119.082L195.8 106.176Z" stroke="#1E0400" stroke-width="1.5" stroke-miterlimit="10" stroke-linecap="round" stroke-linejoin="round"/>
<path d="M215.499 103.769L202.594 105.339L204.164 118.244L217.069 116.674L215.499 103.769Z" stroke="#1E0400" stroke-width="1.5" stroke-miterlimit="10" stroke-linecap="round" stroke-linejoin="round"/>
<path d="M178.599 127.968L165.694 129.539L167.265 142.444L180.17 140.873L178.599 127.968Z" stroke="#1E0400" stroke-width="1.5" stroke-miterlimit="10" stroke-linecap="round" stroke-linejoin="round"/>
<path d="M198.199 125.572L185.294 127.143L186.864 140.048L199.769 138.478L198.199 125.572Z" stroke="#1E0400" stroke-width="1.5" stroke-miterlimit="10" stroke-linecap="round" stroke-linejoin="round"/>
<path d="M217.798 123.177L204.893 124.747L206.464 137.652L219.369 136.082L217.798 123.177Z" stroke="#1E0400" stroke-width="1.5" stroke-miterlimit="10" stroke-linecap="round" stroke-linejoin="round"/>
<path d="M121.626 93.5L66.4262 84.9C63.0262 84.4 60.6262 81.1 61.1262 77.7L65.9262 47C66.4262 43.6 69.7262 41.2 73.1262 41.7L128.326 50.3C131.726 50.8 134.126 54.1 133.626 57.5L128.826 88.2C128.226 91.6 125.026 94 121.626 93.5Z" stroke="#1E0400" stroke-width="1.5" stroke-miterlimit="10" stroke-linecap="round" stroke-linejoin="round"/>
<path d="M68.5262 42.7L94.3262 65C96.1262 66.6 98.7263 67 100.926 66L132.226 52.6" stroke="#1E0400" stroke-width="1.5" stroke-miterlimit="10" stroke-linecap="round" stroke-linejoin="round"/>
<path d="M10.4263 406.7H542.326V427.4" stroke="#1E0400" stroke-width="1.5" stroke-miterlimit="10" stroke-linecap="round" stroke-linejoin="round"/>
<path d="M378.126 468.7V427.4H10.4263V468.7" stroke="#1E0400" stroke-width="1.5" stroke-miterlimit="10" stroke-linecap="round" stroke-linejoin="round"/>
<path d="M378.126 457H250.126C243.626 457 238.426 462.3 238.426 468.7H378.226V457H378.126Z" fill="#1E0400"/>
<path d="M378.126 427.4H406.426V406.7" stroke="#1E0400" stroke-width="1.5" stroke-miterlimit="10" stroke-linecap="round" stroke-linejoin="round"/>
<path d="M406.426 427.4H542.326" stroke="#1E0400" stroke-width="1.5" stroke-miterlimit="10" stroke-linecap="round" stroke-linejoin="round"/>
<path d="M516.626 427.4V468.7" stroke="#1E0400" stroke-width="1.5" stroke-miterlimit="10" stroke-linecap="round" stroke-linejoin="round"/>
<path d="M512.026 392.8C509.826 392.5 508.426 390.5 508.726 388.3L516.626 337.4C516.926 335.2 518.926 333.8 521.126 334.1C523.326 334.4 524.726 336.4 524.426 338.6L516.526 389.5C516.226 391.7 514.226 393.2 512.026 392.8Z" stroke="#1E0400" stroke-width="1.5" stroke-miterlimit="10" stroke-linecap="round" stroke-linejoin="round"/>
<path d="M523.826 342.3L527.226 342.8L524.426 361" stroke="#1E0400" stroke-width="1.5" stroke-miterlimit="10" stroke-linecap="round" stroke-linejoin="round"/>
<path d="M487.726 395.5L480.726 396.5L473.326 345.2L475.526 335.9L480.326 344.2L487.726 395.5Z" fill="#FAFAFA" stroke="#1E0400" stroke-width="1.5" stroke-miterlimit="10" stroke-linecap="round" stroke-linejoin="round"/>
<path d="M473.326 345.2C473.326 345.2 476.726 347.7 480.326 344.2Z" fill="#FAFAFA"/>
<path d="M473.326 345.2C473.326 345.2 476.726 347.7 480.326 344.2" stroke="#1E0400" stroke-width="1.5" stroke-miterlimit="10" stroke-linecap="round" stroke-linejoin="round"/>
<path d="M508.907 309.027L494.017 308.458L490.882 390.601L505.771 391.169L508.907 309.027Z" fill="#E7816D" stroke="#1E0400" stroke-width="1.5" stroke-miterlimit="10" stroke-linecap="round" stroke-linejoin="round"/>
<path d="M508.526 318L504.926 317.9" stroke="#1E0400" stroke-width="1.5" stroke-miterlimit="10" stroke-linecap="round" stroke-linejoin="round"/>
<path d="M507.926 334.1L504.226 333.9" stroke="#1E0400" stroke-width="1.5" stroke-miterlimit="10" stroke-linecap="round" stroke-linejoin="round"/>
<path d="M508.226 326H506.426" stroke="#1E0400" stroke-width="1.5" stroke-miterlimit="10" stroke-linecap="round" stroke-linejoin="round"/>
<path d="M507.326 350.1L503.626 350" stroke="#1E0400" stroke-width="1.5" stroke-miterlimit="10" stroke-linecap="round" stroke-linejoin="round"/>
<path d="M507.626 342.1L505.826 342" stroke="#1E0400" stroke-width="1.5" stroke-miterlimit="10" stroke-linecap="round" stroke-linejoin="round"/>
<path d="M506.726 366.2L503.026 366" stroke="#1E0400" stroke-width="1.5" stroke-miterlimit="10" stroke-linecap="round" stroke-linejoin="round"/>
<path d="M507.026 358.2L505.126 358.1" stroke="#1E0400" stroke-width="1.5" stroke-miterlimit="10" stroke-linecap="round" stroke-linejoin="round"/>
<path d="M506.026 382.2L502.426 382.1" stroke="#1E0400" stroke-width="1.5" stroke-miterlimit="10" stroke-linecap="round" stroke-linejoin="round"/>
<path d="M506.326 374.2L504.526 374.1" stroke="#1E0400" stroke-width="1.5" stroke-miterlimit="10" stroke-linecap="round" stroke-linejoin="round"/>
<path d="M511.726 406.7H483.226C479.526 406.7 476.326 403.9 475.926 400.2L472.426 368.1H522.526L519.026 400.2C518.526 403.9 515.426 406.7 511.726 406.7Z" fill="#FAFAFA" stroke="#1E0400" stroke-width="1.5" stroke-miterlimit="10" stroke-linecap="round" stroke-linejoin="round"/>
<path d="M370.826 399.4H251.926C247.926 399.4 244.626 402.7 244.626 406.7H378.226C378.126 402.7 374.926 399.4 370.826 399.4Z" fill="#FAFAFA" stroke="#1E0400" stroke-width="1.5" stroke-miterlimit="10" stroke-linecap="round" stroke-linejoin="round"/>
<path d="M368.226 403H325.026" stroke="#1E0400" stroke-width="1.5" stroke-miterlimit="10" stroke-linecap="round" stroke-linejoin="round"/>
<path d="M306.826 403H302.726" stroke="#1E0400" stroke-width="1.5" stroke-miterlimit="10" stroke-linecap="round" stroke-linejoin="round"/>
<path d="M244.626 406.7H40.2262C35.9262 406.7 32.2262 403.7 31.2262 399.5L1.12624 264.5C0.426239 261.5 2.72624 258.7 5.82624 258.7H210.226C214.526 258.7 218.226 261.7 219.226 265.9L249.326 400.9C249.926 403.9 247.626 406.7 244.626 406.7Z" fill="#FAFAFA"/>
<path d="M32.0262 401.7C33.5262 404.7 36.7262 406.7 40.2262 406.7H244.626C247.426 406.7 249.526 404.4 249.426 401.7H32.0262Z" fill="#1E0400"/>
<path d="M244.626 406.7H40.2262C35.9262 406.7 32.2262 403.7 31.2262 399.5L1.12624 264.5C0.426239 261.5 2.72624 258.7 5.82624 258.7H210.226C214.526 258.7 218.226 261.7 219.226 265.9L249.326 400.9C249.926 403.9 247.626 406.7 244.626 406.7Z" stroke="#1E0400" stroke-width="1.5" stroke-miterlimit="10" stroke-linecap="round" stroke-linejoin="round"/>
<path d="M129.786 347.122C135.576 340.892 134.4 330.385 127.159 323.655C119.917 316.925 109.353 316.519 103.562 322.749C97.7721 328.979 98.9485 339.486 106.19 346.216C113.431 352.946 123.996 353.352 129.786 347.122Z" stroke="#1E0400" stroke-width="1.5" stroke-miterlimit="10" stroke-linecap="round" stroke-linejoin="round"/>
<path d="M392.726 18.9L386.526 25C385.626 25.9 384.326 26.1 383.226 25.6C379.326 23.8 374.526 24.5 371.226 27.7L366.526 32.3C363.226 35.5 362.426 40.3 364.126 44.3C364.626 45.4 364.426 46.8 363.526 47.6L357.326 53.7C355.926 55.1 353.626 54.7 352.626 53C351.226 50.6 350.526 47.9 350.526 45.2C350.526 41.3 352.126 37.4 355.126 34.5L373.626 16.4C378.726 11.4 386.426 10.7 392.226 14.3C393.826 15.2 394.126 17.5 392.726 18.9Z" stroke="#1E0400" stroke-width="1.5" stroke-miterlimit="10" stroke-linecap="round" stroke-linejoin="round"/>
<path d="M371.526 9.5C370.026 8 368.526 6.5 367.126 5" stroke="#1E0400" stroke-width="1.5" stroke-miterlimit="10" stroke-linecap="round" stroke-linejoin="round"/>
<path d="M384.826 6.3C384.826 5.1 384.826 2.2 384.826 1" stroke="#1E0400" stroke-width="1.5" stroke-miterlimit="10" stroke-linecap="round" stroke-linejoin="round"/>
<path d="M397.926 11.5C399.926 9.79995 400.426 9.39995 402.426 7.69995" stroke="#1E0400" stroke-width="1.5" stroke-miterlimit="10" stroke-linecap="round" stroke-linejoin="round"/>
</svg>
