<svg width="591" height="164" viewBox="0 0 591 164" fill="none" xmlns="http://www.w3.org/2000/svg">
<rect width="591" height="164" fill="white"/>
<g filter="url(#filter0_d_10_4202)">
<rect x="4" y="83" width="519.004" height="73" rx="20" fill="white"/>
<rect x="4.5" y="83.5" width="518.004" height="72" rx="19.5" stroke="#78B5A3"/>
</g>
<g filter="url(#filter1_d_10_4202)">
<rect x="4" width="519.004" height="73" rx="20" fill="white"/>
<rect x="4.5" y="0.5" width="518.004" height="72" rx="19.5" stroke="black"/>
</g>
<path d="M47.968 111.452C47.464 111.452 47.044 111.272 46.708 110.912C46.396 110.528 46.264 110.108 46.312 109.652L46.456 108.104C46.48 107.672 46.66 107.324 46.996 107.06C47.356 106.796 47.752 106.664 48.184 106.664C48.712 106.664 49.132 106.856 49.444 107.24C49.78 107.624 49.924 108.044 49.876 108.5L49.732 110.048C49.708 110.48 49.504 110.828 49.12 111.092C48.76 111.332 48.376 111.452 47.968 111.452ZM45.124 137.12C44.14 137.12 43.216 136.808 42.352 136.184C41.488 135.56 40.828 134.84 40.372 134.024C40.108 133.568 39.976 133.22 39.976 132.98C39.976 132.524 40.144 132.128 40.48 131.792C40.816 131.456 41.236 131.288 41.74 131.288C42.508 131.288 43.06 131.696 43.396 132.512C43.564 132.944 43.78 133.268 44.044 133.484C44.332 133.724 44.644 133.844 44.98 133.844C45.412 133.844 45.748 133.616 45.988 133.16C46.228 132.728 46.348 132.08 46.348 131.216C46.348 130.064 46.336 128.732 46.312 127.22C46.288 125.684 46.264 124.16 46.24 122.648C46.168 119.408 46.132 116.84 46.132 114.944C46.132 114.44 46.288 114.02 46.6 113.684C46.936 113.348 47.356 113.18 47.86 113.18C48.316 113.18 48.712 113.36 49.048 113.72C49.408 114.056 49.588 114.452 49.588 114.908L49.66 122.252C49.732 125.588 49.768 128.324 49.768 130.46C49.768 132.644 49.348 134.3 48.508 135.428C47.668 136.556 46.54 137.12 45.124 137.12ZM61.1707 131.216C59.8027 131.216 58.5427 130.844 57.3907 130.1C56.2627 129.356 55.3747 128.348 54.7267 127.076C54.0787 125.78 53.7547 124.376 53.7547 122.864C53.7547 121.16 54.1387 119.576 54.9067 118.112C55.6747 116.624 56.7067 115.448 58.0027 114.584C59.2987 113.696 60.6907 113.252 62.1787 113.252C63.5467 113.252 64.7947 113.636 65.9227 114.404C67.0747 115.172 67.9747 116.192 68.6227 117.464C69.2947 118.736 69.6307 120.104 69.6307 121.568C69.6307 123.296 69.2467 124.904 68.4787 126.392C67.7107 127.856 66.6667 129.032 65.3467 129.92C64.0507 130.784 62.6587 131.216 61.1707 131.216ZM61.1707 127.976C62.0107 127.976 62.8147 127.688 63.5827 127.112C64.3507 126.536 64.9627 125.768 65.4187 124.808C65.8747 123.848 66.1027 122.828 66.1027 121.748C66.1027 120.836 65.9227 119.984 65.5627 119.192C65.2027 118.376 64.7107 117.728 64.0867 117.248C63.4627 116.744 62.7787 116.492 62.0347 116.492C61.1947 116.492 60.4027 116.792 59.6587 117.392C58.9387 117.968 58.3627 118.748 57.9307 119.732C57.4987 120.692 57.2827 121.724 57.2827 122.828C57.2827 123.908 57.4627 124.832 57.8227 125.6C58.2067 126.368 58.6867 126.956 59.2627 127.364C59.8627 127.772 60.4987 127.976 61.1707 127.976ZM75.2324 131.252C74.7764 131.252 74.3684 131.084 74.0084 130.748C73.6724 130.388 73.5044 129.98 73.5044 129.524V108.788C73.5044 108.308 73.6724 107.9 74.0084 107.564C74.3684 107.204 74.8004 107.024 75.3044 107.024C75.7844 107.024 76.1804 107.204 76.4924 107.564C76.8044 107.9 76.9604 108.308 76.9604 108.788V116.528C77.7524 115.52 78.6524 114.716 79.6604 114.116C80.6684 113.492 81.6764 113.18 82.6844 113.18C84.5804 113.18 85.9124 114.14 86.6804 116.06C87.4484 117.956 87.8324 120.968 87.8324 125.096C87.8324 127.424 87.7964 128.924 87.7244 129.596C87.7004 130.052 87.5204 130.436 87.1844 130.748C86.8724 131.06 86.4884 131.216 86.0324 131.216C85.5284 131.216 85.1204 131.06 84.8084 130.748C84.4964 130.412 84.3404 130.004 84.3404 129.524C84.3404 129.044 84.3524 128.648 84.3764 128.336L84.4124 125.348C84.4124 121.868 84.2204 119.54 83.8364 118.364C83.4764 117.188 83.0204 116.6 82.4684 116.6C81.7724 116.6 81.0644 116.924 80.3444 117.572C79.6244 118.196 79.0004 118.904 78.4724 119.696C77.9684 120.464 77.6084 121.076 77.3924 121.532C77.1044 122.18 76.9604 123.032 76.9604 124.088V129.452C76.9604 130.004 76.7924 130.448 76.4564 130.784C76.1204 131.096 75.7124 131.252 75.2324 131.252ZM94.2519 131.216C93.7959 131.216 93.3879 131.048 93.0279 130.712C92.6919 130.376 92.5239 129.992 92.5239 129.56V114.944C92.5239 114.464 92.7039 114.056 93.0639 113.72C93.4239 113.384 93.8439 113.216 94.3239 113.216C94.7799 113.216 95.1639 113.384 95.4759 113.72C95.8119 114.056 95.9799 114.464 95.9799 114.944V117.68C96.6519 116.24 97.5039 115.148 98.5359 114.404C99.5679 113.636 100.696 113.252 101.92 113.252C103.264 113.252 104.332 113.564 105.124 114.188C105.916 114.812 106.492 115.844 106.852 117.284C107.212 118.7 107.392 120.668 107.392 123.188L107.356 129.488C107.356 129.944 107.2 130.352 106.888 130.712C106.576 131.048 106.18 131.216 105.7 131.216C105.244 131.216 104.836 131.048 104.476 130.712C104.14 130.352 103.972 129.956 103.972 129.524V123.548C103.972 121.676 103.888 120.236 103.72 119.228C103.552 118.22 103.3 117.536 102.964 117.176C102.628 116.792 102.172 116.6 101.596 116.6C100.876 116.6 100.156 116.912 99.4359 117.536C98.7159 118.136 98.0439 119 97.4199 120.128C96.8679 121.112 96.4839 122.072 96.2679 123.008C96.0519 123.944 95.9439 125.072 95.9439 126.392V129.416C95.9439 129.944 95.7879 130.376 95.4759 130.712C95.1879 131.048 94.7799 131.216 94.2519 131.216ZM112.503 131.216C111.951 131.216 111.495 131.024 111.135 130.64C110.799 130.232 110.631 129.74 110.631 129.164C110.631 128.564 110.847 128.036 111.279 127.58C111.711 127.1 112.203 126.86 112.755 126.86C113.283 126.86 113.727 127.064 114.087 127.472C114.447 127.856 114.627 128.324 114.627 128.876C114.627 129.524 114.411 130.076 113.979 130.532C113.547 130.988 113.055 131.216 112.503 131.216ZM123.867 131.18C122.643 131.18 121.539 130.868 120.555 130.244C119.595 129.596 118.827 128.66 118.251 127.436C117.699 126.212 117.423 124.748 117.423 123.044C117.423 120.98 117.747 119.216 118.395 117.752C119.043 116.288 119.943 115.184 121.095 114.44C122.247 113.672 123.579 113.288 125.091 113.288C126.291 113.288 127.575 113.564 128.943 114.116L129.123 108.536C129.147 108.056 129.327 107.648 129.663 107.312C130.023 106.952 130.443 106.772 130.923 106.772C131.379 106.772 131.775 106.952 132.111 107.312C132.471 107.648 132.639 108.08 132.615 108.608L132.111 129.56C132.087 130.04 131.907 130.436 131.571 130.748C131.235 131.06 130.827 131.216 130.347 131.216C129.891 131.216 129.495 131.084 129.159 130.82C128.847 130.556 128.691 130.208 128.691 129.776V129.128C128.067 129.704 127.335 130.196 126.495 130.604C125.655 130.988 124.779 131.18 123.867 131.18ZM124.155 127.94C124.971 127.94 125.727 127.772 126.423 127.436C127.143 127.076 127.707 126.644 128.115 126.14C128.523 125.636 128.739 125.168 128.763 124.736L128.907 117.644C128.475 117.356 127.923 117.104 127.251 116.888C126.579 116.648 125.931 116.528 125.307 116.528C123.843 116.528 122.739 117.08 121.995 118.184C121.251 119.264 120.879 120.848 120.879 122.936C120.879 124.664 121.167 125.936 121.743 126.752C122.343 127.544 123.147 127.94 124.155 127.94ZM143.647 131.216C142.279 131.216 141.019 130.844 139.867 130.1C138.739 129.356 137.851 128.348 137.203 127.076C136.555 125.78 136.231 124.376 136.231 122.864C136.231 121.16 136.615 119.576 137.383 118.112C138.151 116.624 139.183 115.448 140.479 114.584C141.775 113.696 143.167 113.252 144.655 113.252C146.023 113.252 147.271 113.636 148.399 114.404C149.551 115.172 150.451 116.192 151.099 117.464C151.771 118.736 152.107 120.104 152.107 121.568C152.107 123.296 151.723 124.904 150.955 126.392C150.187 127.856 149.143 129.032 147.823 129.92C146.527 130.784 145.135 131.216 143.647 131.216ZM143.647 127.976C144.487 127.976 145.291 127.688 146.059 127.112C146.827 126.536 147.439 125.768 147.895 124.808C148.351 123.848 148.579 122.828 148.579 121.748C148.579 120.836 148.399 119.984 148.039 119.192C147.679 118.376 147.187 117.728 146.563 117.248C145.939 116.744 145.255 116.492 144.511 116.492C143.671 116.492 142.879 116.792 142.135 117.392C141.415 117.968 140.839 118.748 140.407 119.732C139.975 120.692 139.759 121.724 139.759 122.828C139.759 123.908 139.939 124.832 140.299 125.6C140.683 126.368 141.163 126.956 141.739 127.364C142.339 127.772 142.975 127.976 143.647 127.976ZM163.757 131.216C162.053 131.216 160.517 130.856 159.149 130.136C157.805 129.392 156.749 128.348 155.981 127.004C155.213 125.636 154.829 124.028 154.829 122.18C154.829 120.668 155.165 119.228 155.837 117.86C156.533 116.468 157.493 115.352 158.717 114.512C159.965 113.672 161.381 113.252 162.965 113.252C164.429 113.252 165.677 113.552 166.709 114.152C167.765 114.728 168.557 115.424 169.085 116.24C169.613 117.056 169.877 117.788 169.877 118.436C169.877 118.748 169.781 119.048 169.589 119.336C169.397 119.624 169.121 119.876 168.761 120.092L159.113 125.636C159.449 126.38 160.037 126.956 160.877 127.364C161.741 127.772 162.701 127.976 163.757 127.976C165.149 127.976 166.337 127.46 167.321 126.428C167.705 126.044 168.101 125.852 168.509 125.852C168.989 125.852 169.385 126.008 169.697 126.32C170.033 126.632 170.201 127.016 170.201 127.472C170.201 127.856 170.057 128.216 169.769 128.552C169.097 129.296 168.197 129.932 167.069 130.46C165.965 130.964 164.861 131.216 163.757 131.216ZM166.313 118.004C166.025 117.5 165.617 117.128 165.089 116.888C164.561 116.624 163.937 116.492 163.217 116.492C161.849 116.492 160.697 116.96 159.761 117.896C158.849 118.832 158.321 119.984 158.177 121.352C158.129 121.712 158.105 122.144 158.105 122.648L166.313 118.004ZM191.053 118.328C191.053 118.64 190.981 118.928 190.837 119.192C190.693 119.432 190.489 119.612 190.225 119.732C190.489 119.9 190.705 120.128 190.873 120.416C191.041 120.68 191.125 120.968 191.125 121.28C191.125 121.448 191.113 121.592 191.089 121.712C191.065 121.832 191.041 121.94 191.017 122.036C190.921 122.42 190.873 122.72 190.873 122.936C190.873 123.512 191.041 123.992 191.377 124.376C191.713 124.736 192.133 124.916 192.637 124.916C193.477 124.916 194.125 124.568 194.581 123.872C195.061 123.176 195.301 122.108 195.301 120.668C195.301 119.3 194.977 117.992 194.329 116.744C193.681 115.472 192.721 114.44 191.449 113.648C190.177 112.832 188.665 112.424 186.913 112.424C185.257 112.424 183.685 112.808 182.197 113.576C180.733 114.32 179.545 115.436 178.633 116.924C177.721 118.388 177.265 120.152 177.265 122.216C177.265 124.256 177.721 125.972 178.633 127.364C179.545 128.732 180.757 129.752 182.269 130.424C183.781 131.072 185.449 131.396 187.273 131.396C188.881 131.396 190.321 130.988 191.593 130.172C192.049 129.884 192.433 129.74 192.745 129.74C193.201 129.74 193.597 129.908 193.933 130.244C194.269 130.556 194.437 130.916 194.437 131.324C194.437 131.66 194.341 131.972 194.149 132.26C193.957 132.548 193.633 132.86 193.177 133.196C191.881 134.156 189.769 134.636 186.841 134.636C184.369 134.636 182.149 134.132 180.181 133.124C178.213 132.14 176.665 130.712 175.537 128.84C174.409 126.944 173.845 124.736 173.845 122.216C173.845 119.72 174.409 117.464 175.537 115.448C176.665 113.432 178.225 111.86 180.217 110.732C182.209 109.58 184.441 109.004 186.913 109.004C189.073 109.004 191.053 109.532 192.853 110.588C194.653 111.62 196.081 113.024 197.137 114.8C198.193 116.576 198.721 118.532 198.721 120.668C198.721 122.156 198.445 123.476 197.893 124.628C197.341 125.756 196.621 126.62 195.733 127.22C194.845 127.82 193.909 128.12 192.925 128.12C191.965 128.12 191.101 127.904 190.333 127.472C189.565 127.04 188.941 126.476 188.461 125.78C187.285 127.028 186.049 127.652 184.753 127.652C183.409 127.652 182.305 127.244 181.441 126.428C180.577 125.612 180.145 124.34 180.145 122.612C180.145 121.388 180.421 120.236 180.973 119.156C181.549 118.076 182.317 117.212 183.277 116.564C184.261 115.892 185.341 115.556 186.517 115.556C187.717 115.556 188.869 115.904 189.973 116.6C190.381 116.864 190.657 117.128 190.801 117.392C190.969 117.656 191.053 117.968 191.053 118.328ZM187.813 120.776C188.053 120.272 188.341 119.924 188.677 119.732C188.629 119.708 188.461 119.612 188.173 119.444C187.861 119.276 187.585 119.144 187.345 119.048C187.129 118.952 186.865 118.904 186.553 118.904C185.713 118.904 184.993 119.276 184.393 120.02C183.817 120.764 183.529 121.628 183.529 122.612C183.529 123.716 183.937 124.268 184.753 124.268C185.329 124.268 185.893 123.884 186.445 123.116C187.021 122.324 187.477 121.544 187.813 120.776ZM206.699 137.66C206.267 137.66 205.895 137.48 205.583 137.12C205.271 136.784 205.115 136.376 205.115 135.896C205.115 135.68 205.175 135.428 205.295 135.14L208.427 128.408L201.983 115.844C201.839 115.556 201.767 115.268 201.767 114.98C201.767 114.5 201.935 114.092 202.271 113.756C202.631 113.396 203.063 113.216 203.567 113.216C203.951 113.216 204.287 113.324 204.575 113.54C204.863 113.756 205.079 114.008 205.223 114.296L210.299 124.34L214.835 114.296C214.979 113.984 215.195 113.72 215.483 113.504C215.795 113.288 216.131 113.18 216.491 113.18C216.923 113.18 217.295 113.348 217.607 113.684C217.919 114.02 218.075 114.44 218.075 114.944C218.075 115.232 218.027 115.472 217.931 115.664L208.319 136.544C208.175 136.88 207.959 137.144 207.671 137.336C207.383 137.552 207.059 137.66 206.699 137.66ZM226.37 131.216C225.002 131.216 223.742 130.844 222.59 130.1C221.462 129.356 220.574 128.348 219.926 127.076C219.278 125.78 218.954 124.376 218.954 122.864C218.954 121.16 219.338 119.576 220.106 118.112C220.874 116.624 221.906 115.448 223.202 114.584C224.498 113.696 225.89 113.252 227.378 113.252C228.746 113.252 229.994 113.636 231.122 114.404C232.274 115.172 233.174 116.192 233.822 117.464C234.494 118.736 234.83 120.104 234.83 121.568C234.83 123.296 234.446 124.904 233.678 126.392C232.91 127.856 231.866 129.032 230.546 129.92C229.25 130.784 227.858 131.216 226.37 131.216ZM226.37 127.976C227.21 127.976 228.014 127.688 228.782 127.112C229.55 126.536 230.162 125.768 230.618 124.808C231.074 123.848 231.302 122.828 231.302 121.748C231.302 120.836 231.122 119.984 230.762 119.192C230.402 118.376 229.91 117.728 229.286 117.248C228.662 116.744 227.978 116.492 227.234 116.492C226.394 116.492 225.602 116.792 224.858 117.392C224.138 117.968 223.562 118.748 223.13 119.732C222.698 120.692 222.482 121.724 222.482 122.828C222.482 123.908 222.662 124.832 223.022 125.6C223.406 126.368 223.886 126.956 224.462 127.364C225.062 127.772 225.698 127.976 226.37 127.976ZM243.636 131.324C242.34 131.324 241.308 131.048 240.54 130.496C239.772 129.92 239.196 128.888 238.812 127.4C238.428 125.912 238.236 123.776 238.236 120.992C238.236 120.056 238.272 119.024 238.344 117.896C238.416 116.768 238.512 115.82 238.632 115.052C238.728 114.452 238.908 113.996 239.172 113.684C239.436 113.372 239.82 113.216 240.324 113.216C240.804 113.216 241.212 113.36 241.548 113.648C241.884 113.936 242.052 114.356 242.052 114.908L241.98 115.916C241.74 117.956 241.62 119.912 241.62 121.784C241.62 124.232 241.824 125.9 242.232 126.788C242.664 127.652 243.252 128.084 243.996 128.084C244.86 128.084 245.748 127.856 246.66 127.4C247.572 126.92 248.22 126.464 248.604 126.032C248.748 125.888 248.82 125.588 248.82 125.132L248.892 114.872C248.892 114.392 249.06 113.996 249.396 113.684C249.756 113.372 250.152 113.216 250.584 113.216C251.04 113.216 251.436 113.372 251.772 113.684C252.132 113.996 252.312 114.392 252.312 114.872V129.488C252.312 129.944 252.132 130.352 251.772 130.712C251.436 131.048 251.04 131.216 250.584 131.216C250.104 131.216 249.672 131.072 249.288 130.784C248.928 130.472 248.748 130.088 248.748 129.632V129.236C247.836 129.884 246.984 130.4 246.192 130.784C245.424 131.144 244.572 131.324 243.636 131.324ZM259.1 131.216C258.644 131.216 258.236 131.048 257.876 130.712C257.516 130.376 257.336 129.992 257.336 129.56V114.98C257.336 114.5 257.504 114.092 257.84 113.756C258.2 113.42 258.62 113.252 259.1 113.252C259.58 113.252 259.988 113.42 260.324 113.756C260.684 114.092 260.864 114.5 260.864 114.98V116.06C262.04 114.14 263.648 113.18 265.688 113.18C266.912 113.18 267.788 113.516 268.316 114.188C268.868 114.86 269.144 115.664 269.144 116.6V117.68C269.144 118.16 268.976 118.568 268.64 118.904C268.328 119.216 267.932 119.372 267.452 119.372C266.876 119.372 266.444 119.204 266.156 118.868C265.892 118.532 265.76 118.124 265.76 117.644V117.176C265.76 116.792 265.496 116.6 264.968 116.6C264.536 116.6 264.032 116.816 263.456 117.248C262.904 117.68 262.448 118.136 262.088 118.616C261.584 119.24 261.248 119.864 261.08 120.488C260.936 121.112 260.864 121.856 260.864 122.72L260.828 129.56C260.828 129.992 260.648 130.376 260.288 130.712C259.928 131.048 259.532 131.216 259.1 131.216ZM273.512 131.18C273.032 131.18 272.636 131.024 272.324 130.712C272.012 130.4 271.856 130.016 271.856 129.56V108.644C271.856 108.164 272.024 107.78 272.36 107.492C272.696 107.18 273.104 107.024 273.584 107.024C274.04 107.024 274.436 107.18 274.772 107.492C275.108 107.78 275.276 108.164 275.276 108.644V115.7C275.972 114.932 276.74 114.38 277.58 114.044C278.42 113.708 279.344 113.54 280.352 113.54C281.552 113.54 282.644 113.852 283.628 114.476C284.612 115.076 285.392 115.976 285.968 117.176C286.568 118.376 286.868 119.828 286.868 121.532C286.868 124.604 286.16 126.956 284.744 128.588C283.328 130.196 281.396 131 278.948 131C278.276 131 277.556 130.892 276.788 130.676C276.044 130.436 275.468 130.172 275.06 129.884V130.1C275.06 130.34 274.904 130.58 274.592 130.82C274.304 131.06 273.944 131.18 273.512 131.18ZM278.696 127.616C280.376 127.616 281.588 127.088 282.332 126.032C283.1 124.976 283.484 123.476 283.484 121.532C283.484 120.044 283.196 118.916 282.62 118.148C282.044 117.38 281.264 116.996 280.28 116.996C279.368 116.996 278.528 117.164 277.76 117.5C276.992 117.836 276.38 118.292 275.924 118.868C275.492 119.444 275.276 120.08 275.276 120.776V127.004C276.5 127.412 277.64 127.616 278.696 127.616ZM295.702 131.324C294.406 131.324 293.374 131.048 292.606 130.496C291.838 129.92 291.262 128.888 290.878 127.4C290.494 125.912 290.302 123.776 290.302 120.992C290.302 120.056 290.338 119.024 290.41 117.896C290.482 116.768 290.578 115.82 290.698 115.052C290.794 114.452 290.974 113.996 291.238 113.684C291.502 113.372 291.886 113.216 292.39 113.216C292.87 113.216 293.278 113.36 293.614 113.648C293.95 113.936 294.118 114.356 294.118 114.908L294.046 115.916C293.806 117.956 293.686 119.912 293.686 121.784C293.686 124.232 293.89 125.9 294.298 126.788C294.73 127.652 295.318 128.084 296.062 128.084C296.926 128.084 297.814 127.856 298.726 127.4C299.638 126.92 300.286 126.464 300.67 126.032C300.814 125.888 300.886 125.588 300.886 125.132L300.958 114.872C300.958 114.392 301.126 113.996 301.462 113.684C301.822 113.372 302.218 113.216 302.65 113.216C303.106 113.216 303.502 113.372 303.838 113.684C304.198 113.996 304.378 114.392 304.378 114.872V129.488C304.378 129.944 304.198 130.352 303.838 130.712C303.502 131.048 303.106 131.216 302.65 131.216C302.17 131.216 301.738 131.072 301.354 130.784C300.994 130.472 300.814 130.088 300.814 129.632V129.236C299.902 129.884 299.05 130.4 298.258 130.784C297.49 131.144 296.638 131.324 295.702 131.324ZM314.587 131.216C313.195 131.216 311.983 130.916 310.951 130.316C309.943 129.692 309.163 128.984 308.611 128.192C308.083 127.376 307.819 126.716 307.819 126.212C307.819 125.732 307.987 125.336 308.323 125.024C308.659 124.688 309.055 124.52 309.511 124.52C309.919 124.52 310.255 124.628 310.519 124.844C310.807 125.06 311.011 125.348 311.131 125.708C311.395 126.452 311.827 127.04 312.427 127.472C313.027 127.904 313.771 128.12 314.659 128.12C315.595 128.12 316.327 127.892 316.855 127.436C317.383 126.98 317.647 126.464 317.647 125.888C317.647 125.336 317.419 124.904 316.963 124.592C316.531 124.256 315.643 123.884 314.299 123.476C312.331 122.876 310.915 122.168 310.051 121.352C309.187 120.512 308.755 119.42 308.755 118.076C308.755 116.66 309.319 115.508 310.447 114.62C311.575 113.708 313.147 113.252 315.163 113.252C317.035 113.252 318.487 113.66 319.519 114.476C320.575 115.292 321.103 116.384 321.103 117.752C321.103 118.496 320.947 119.072 320.635 119.48C320.323 119.864 319.879 120.056 319.303 120.056C318.799 120.056 318.391 119.9 318.079 119.588C317.767 119.276 317.611 118.94 317.611 118.58C317.611 118.46 317.635 118.316 317.683 118.148C317.755 117.956 317.791 117.812 317.791 117.716C317.791 117.284 317.575 116.936 317.143 116.672C316.735 116.408 316.099 116.276 315.235 116.276C314.155 116.276 313.351 116.432 312.823 116.744C312.319 117.056 312.067 117.476 312.067 118.004C312.067 118.556 312.331 119.012 312.859 119.372C313.387 119.708 314.335 120.092 315.703 120.524C317.695 121.148 319.075 121.832 319.843 122.576C320.635 123.32 321.031 124.364 321.031 125.708C321.031 126.62 320.755 127.508 320.203 128.372C319.675 129.212 318.919 129.896 317.935 130.424C316.975 130.952 315.859 131.216 314.587 131.216ZM326.64 111.74C326.184 111.74 325.776 111.56 325.416 111.2C325.08 110.84 324.924 110.432 324.948 109.976L324.984 108.644C325.008 108.188 325.188 107.792 325.524 107.456C325.86 107.12 326.256 106.952 326.712 106.952C327.168 106.952 327.564 107.132 327.9 107.492C328.26 107.852 328.428 108.248 328.404 108.68L328.368 110.048C328.344 110.528 328.164 110.936 327.828 111.272C327.516 111.584 327.12 111.74 326.64 111.74ZM326.46 131.216C325.98 131.216 325.56 131.048 325.2 130.712C324.864 130.352 324.696 129.932 324.696 129.452L324.876 115.124C324.876 114.644 325.044 114.236 325.38 113.9C325.74 113.54 326.16 113.36 326.64 113.36C327.144 113.36 327.564 113.54 327.9 113.9C328.236 114.236 328.404 114.644 328.404 115.124L328.224 129.452C328.224 129.932 328.044 130.352 327.684 130.712C327.348 131.048 326.94 131.216 326.46 131.216ZM335.178 131.216C334.722 131.216 334.314 131.048 333.954 130.712C333.618 130.376 333.45 129.992 333.45 129.56V114.944C333.45 114.464 333.63 114.056 333.99 113.72C334.35 113.384 334.77 113.216 335.25 113.216C335.706 113.216 336.09 113.384 336.402 113.72C336.738 114.056 336.906 114.464 336.906 114.944V117.68C337.578 116.24 338.43 115.148 339.462 114.404C340.494 113.636 341.622 113.252 342.846 113.252C344.19 113.252 345.258 113.564 346.05 114.188C346.842 114.812 347.418 115.844 347.778 117.284C348.138 118.7 348.318 120.668 348.318 123.188L348.282 129.488C348.282 129.944 348.126 130.352 347.814 130.712C347.502 131.048 347.106 131.216 346.626 131.216C346.17 131.216 345.762 131.048 345.402 130.712C345.066 130.352 344.898 129.956 344.898 129.524V123.548C344.898 121.676 344.814 120.236 344.646 119.228C344.478 118.22 344.226 117.536 343.89 117.176C343.554 116.792 343.098 116.6 342.522 116.6C341.802 116.6 341.082 116.912 340.362 117.536C339.642 118.136 338.97 119 338.346 120.128C337.794 121.112 337.41 122.072 337.194 123.008C336.978 123.944 336.87 125.072 336.87 126.392V129.416C336.87 129.944 336.714 130.376 336.402 130.712C336.114 131.048 335.706 131.216 335.178 131.216ZM360.773 131.216C359.069 131.216 357.533 130.856 356.165 130.136C354.821 129.392 353.765 128.348 352.997 127.004C352.229 125.636 351.845 124.028 351.845 122.18C351.845 120.668 352.181 119.228 352.853 117.86C353.549 116.468 354.509 115.352 355.733 114.512C356.981 113.672 358.397 113.252 359.981 113.252C361.445 113.252 362.693 113.552 363.725 114.152C364.781 114.728 365.573 115.424 366.101 116.24C366.629 117.056 366.893 117.788 366.893 118.436C366.893 118.748 366.797 119.048 366.605 119.336C366.413 119.624 366.137 119.876 365.777 120.092L356.129 125.636C356.465 126.38 357.053 126.956 357.893 127.364C358.757 127.772 359.717 127.976 360.773 127.976C362.165 127.976 363.353 127.46 364.337 126.428C364.721 126.044 365.117 125.852 365.525 125.852C366.005 125.852 366.401 126.008 366.713 126.32C367.049 126.632 367.217 127.016 367.217 127.472C367.217 127.856 367.073 128.216 366.785 128.552C366.113 129.296 365.213 129.932 364.085 130.46C362.981 130.964 361.877 131.216 360.773 131.216ZM363.329 118.004C363.041 117.5 362.633 117.128 362.105 116.888C361.577 116.624 360.953 116.492 360.233 116.492C358.865 116.492 357.713 116.96 356.777 117.896C355.865 118.832 355.337 119.984 355.193 121.352C355.145 121.712 355.121 122.144 355.121 122.648L363.329 118.004ZM375.864 131.216C374.472 131.216 373.26 130.916 372.228 130.316C371.22 129.692 370.44 128.984 369.888 128.192C369.36 127.376 369.096 126.716 369.096 126.212C369.096 125.732 369.264 125.336 369.6 125.024C369.936 124.688 370.332 124.52 370.788 124.52C371.196 124.52 371.532 124.628 371.796 124.844C372.084 125.06 372.288 125.348 372.408 125.708C372.672 126.452 373.104 127.04 373.704 127.472C374.304 127.904 375.048 128.12 375.936 128.12C376.872 128.12 377.604 127.892 378.132 127.436C378.66 126.98 378.924 126.464 378.924 125.888C378.924 125.336 378.696 124.904 378.24 124.592C377.808 124.256 376.92 123.884 375.576 123.476C373.608 122.876 372.192 122.168 371.328 121.352C370.464 120.512 370.032 119.42 370.032 118.076C370.032 116.66 370.596 115.508 371.724 114.62C372.852 113.708 374.424 113.252 376.44 113.252C378.312 113.252 379.764 113.66 380.796 114.476C381.852 115.292 382.38 116.384 382.38 117.752C382.38 118.496 382.224 119.072 381.912 119.48C381.6 119.864 381.156 120.056 380.58 120.056C380.076 120.056 379.668 119.9 379.356 119.588C379.044 119.276 378.888 118.94 378.888 118.58C378.888 118.46 378.912 118.316 378.96 118.148C379.032 117.956 379.068 117.812 379.068 117.716C379.068 117.284 378.852 116.936 378.42 116.672C378.012 116.408 377.376 116.276 376.512 116.276C375.432 116.276 374.628 116.432 374.1 116.744C373.596 117.056 373.344 117.476 373.344 118.004C373.344 118.556 373.608 119.012 374.136 119.372C374.664 119.708 375.612 120.092 376.98 120.524C378.972 121.148 380.352 121.832 381.12 122.576C381.912 123.32 382.308 124.364 382.308 125.708C382.308 126.62 382.032 127.508 381.48 128.372C380.952 129.212 380.196 129.896 379.212 130.424C378.252 130.952 377.136 131.216 375.864 131.216ZM391.157 131.216C389.765 131.216 388.553 130.916 387.521 130.316C386.513 129.692 385.733 128.984 385.181 128.192C384.653 127.376 384.389 126.716 384.389 126.212C384.389 125.732 384.557 125.336 384.893 125.024C385.229 124.688 385.625 124.52 386.081 124.52C386.489 124.52 386.825 124.628 387.089 124.844C387.377 125.06 387.581 125.348 387.701 125.708C387.965 126.452 388.397 127.04 388.997 127.472C389.597 127.904 390.341 128.12 391.229 128.12C392.165 128.12 392.897 127.892 393.425 127.436C393.953 126.98 394.217 126.464 394.217 125.888C394.217 125.336 393.989 124.904 393.533 124.592C393.101 124.256 392.213 123.884 390.869 123.476C388.901 122.876 387.485 122.168 386.621 121.352C385.757 120.512 385.325 119.42 385.325 118.076C385.325 116.66 385.889 115.508 387.017 114.62C388.145 113.708 389.717 113.252 391.733 113.252C393.605 113.252 395.057 113.66 396.089 114.476C397.145 115.292 397.673 116.384 397.673 117.752C397.673 118.496 397.517 119.072 397.205 119.48C396.893 119.864 396.449 120.056 395.873 120.056C395.369 120.056 394.961 119.9 394.649 119.588C394.337 119.276 394.181 118.94 394.181 118.58C394.181 118.46 394.205 118.316 394.253 118.148C394.325 117.956 394.361 117.812 394.361 117.716C394.361 117.284 394.145 116.936 393.713 116.672C393.305 116.408 392.669 116.276 391.805 116.276C390.725 116.276 389.921 116.432 389.393 116.744C388.889 117.056 388.637 117.476 388.637 118.004C388.637 118.556 388.901 119.012 389.429 119.372C389.957 119.708 390.905 120.092 392.273 120.524C394.265 121.148 395.645 121.832 396.413 122.576C397.205 123.32 397.601 124.364 397.601 125.708C397.601 126.62 397.325 127.508 396.773 128.372C396.245 129.212 395.489 129.896 394.505 130.424C393.545 130.952 392.429 131.216 391.157 131.216ZM401.698 131.216C401.146 131.216 400.69 131.024 400.33 130.64C399.994 130.232 399.826 129.74 399.826 129.164C399.826 128.564 400.042 128.036 400.474 127.58C400.906 127.1 401.398 126.86 401.95 126.86C402.478 126.86 402.922 127.064 403.282 127.472C403.642 127.856 403.822 128.324 403.822 128.876C403.822 129.524 403.606 130.076 403.174 130.532C402.742 130.988 402.25 131.216 401.698 131.216ZM414.466 131.216C413.026 131.216 411.706 130.868 410.506 130.172C409.306 129.476 408.358 128.528 407.662 127.328C406.966 126.104 406.618 124.772 406.618 123.332C406.618 121.7 407.002 120.104 407.77 118.544C408.538 116.984 409.546 115.712 410.794 114.728C412.042 113.744 413.362 113.252 414.754 113.252C416.026 113.252 417.046 113.456 417.814 113.864C418.606 114.248 419.374 114.872 420.118 115.736C420.478 116.12 420.658 116.54 420.658 116.996C420.658 117.452 420.49 117.848 420.154 118.184C419.818 118.496 419.41 118.652 418.93 118.652C418.618 118.652 418.366 118.604 418.174 118.508C418.006 118.412 417.802 118.22 417.562 117.932C417.154 117.476 416.746 117.128 416.338 116.888C415.954 116.648 415.438 116.528 414.79 116.528C414.046 116.528 413.29 116.852 412.522 117.5C411.778 118.148 411.166 119 410.686 120.056C410.23 121.088 410.002 122.156 410.002 123.26C410.002 124.22 410.206 125.06 410.614 125.78C411.046 126.476 411.598 127.016 412.27 127.4C412.942 127.76 413.65 127.94 414.394 127.94C415.354 127.94 416.134 127.76 416.734 127.4C417.358 127.04 417.91 126.548 418.39 125.924C418.846 125.324 419.362 125.024 419.938 125.024C420.394 125.024 420.79 125.192 421.126 125.528C421.462 125.84 421.63 126.2 421.63 126.608C421.63 127.088 421.498 127.496 421.234 127.832C420.538 128.768 419.59 129.572 418.39 130.244C417.19 130.892 415.882 131.216 414.466 131.216ZM430.944 131.216C429.576 131.216 428.316 130.844 427.164 130.1C426.036 129.356 425.148 128.348 424.5 127.076C423.852 125.78 423.528 124.376 423.528 122.864C423.528 121.16 423.912 119.576 424.68 118.112C425.448 116.624 426.48 115.448 427.776 114.584C429.072 113.696 430.464 113.252 431.952 113.252C433.32 113.252 434.568 113.636 435.696 114.404C436.848 115.172 437.748 116.192 438.396 117.464C439.068 118.736 439.404 120.104 439.404 121.568C439.404 123.296 439.02 124.904 438.252 126.392C437.484 127.856 436.44 129.032 435.12 129.92C433.824 130.784 432.432 131.216 430.944 131.216ZM430.944 127.976C431.784 127.976 432.588 127.688 433.356 127.112C434.124 126.536 434.736 125.768 435.192 124.808C435.648 123.848 435.876 122.828 435.876 121.748C435.876 120.836 435.696 119.984 435.336 119.192C434.976 118.376 434.484 117.728 433.86 117.248C433.236 116.744 432.552 116.492 431.808 116.492C430.968 116.492 430.176 116.792 429.432 117.392C428.712 117.968 428.136 118.748 427.704 119.732C427.272 120.692 427.056 121.724 427.056 122.828C427.056 123.908 427.236 124.832 427.596 125.6C427.98 126.368 428.46 126.956 429.036 127.364C429.636 127.772 430.272 127.976 430.944 127.976ZM443.71 131.216C443.158 131.216 442.702 131.024 442.342 130.64C442.006 130.232 441.838 129.74 441.838 129.164C441.838 128.564 442.054 128.036 442.486 127.58C442.918 127.1 443.41 126.86 443.962 126.86C444.49 126.86 444.934 127.064 445.294 127.472C445.654 127.856 445.834 128.324 445.834 128.876C445.834 129.524 445.618 130.076 445.186 130.532C444.754 130.988 444.262 131.216 443.71 131.216ZM454.714 131.324C453.418 131.324 452.386 131.048 451.618 130.496C450.85 129.92 450.274 128.888 449.89 127.4C449.506 125.912 449.314 123.776 449.314 120.992C449.314 120.056 449.35 119.024 449.422 117.896C449.494 116.768 449.59 115.82 449.71 115.052C449.806 114.452 449.986 113.996 450.25 113.684C450.514 113.372 450.898 113.216 451.402 113.216C451.882 113.216 452.29 113.36 452.626 113.648C452.962 113.936 453.13 114.356 453.13 114.908L453.058 115.916C452.818 117.956 452.698 119.912 452.698 121.784C452.698 124.232 452.902 125.9 453.31 126.788C453.742 127.652 454.33 128.084 455.074 128.084C455.938 128.084 456.826 127.856 457.738 127.4C458.65 126.92 459.298 126.464 459.682 126.032C459.826 125.888 459.898 125.588 459.898 125.132L459.97 114.872C459.97 114.392 460.138 113.996 460.474 113.684C460.834 113.372 461.23 113.216 461.662 113.216C462.118 113.216 462.514 113.372 462.85 113.684C463.21 113.996 463.39 114.392 463.39 114.872V129.488C463.39 129.944 463.21 130.352 462.85 130.712C462.514 131.048 462.118 131.216 461.662 131.216C461.182 131.216 460.75 131.072 460.366 130.784C460.006 130.472 459.826 130.088 459.826 129.632V129.236C458.914 129.884 458.062 130.4 457.27 130.784C456.502 131.144 455.65 131.324 454.714 131.324ZM470.215 131.216C469.783 131.216 469.387 131.048 469.027 130.712C468.667 130.352 468.487 129.944 468.487 129.488L468.415 108.716C468.415 108.26 468.583 107.864 468.919 107.528C469.279 107.192 469.699 107.024 470.179 107.024C470.683 107.024 471.091 107.204 471.403 107.564C471.739 107.9 471.907 108.308 471.907 108.788L471.943 120.452C472.951 119.588 474.127 118.472 475.471 117.104C476.815 115.736 477.955 114.488 478.891 113.36C479.275 112.88 479.743 112.64 480.295 112.64C480.775 112.64 481.171 112.796 481.483 113.108C481.819 113.42 481.987 113.816 481.987 114.296C481.987 114.704 481.867 115.052 481.627 115.34C481.003 116.18 480.211 117.104 479.251 118.112C478.315 119.12 477.451 119.996 476.659 120.74L482.599 128.192C482.911 128.552 483.067 128.924 483.067 129.308C483.067 129.812 482.899 130.244 482.563 130.604C482.251 130.94 481.843 131.108 481.339 131.108C480.763 131.108 480.307 130.904 479.971 130.496C478.099 127.976 476.323 125.672 474.643 123.584L474.067 122.828C473.563 123.212 472.867 123.692 471.979 124.268V129.488C471.979 129.944 471.811 130.352 471.475 130.712C471.139 131.048 470.719 131.216 470.215 131.216Z" fill="#78B5A3"/>
<path d="M47.968 28.452C47.464 28.452 47.044 28.272 46.708 27.912C46.396 27.528 46.264 27.108 46.312 26.652L46.456 25.104C46.48 24.672 46.66 24.324 46.996 24.06C47.356 23.796 47.752 23.664 48.184 23.664C48.712 23.664 49.132 23.856 49.444 24.24C49.78 24.624 49.924 25.044 49.876 25.5L49.732 27.048C49.708 27.48 49.504 27.828 49.12 28.092C48.76 28.332 48.376 28.452 47.968 28.452ZM45.124 54.12C44.14 54.12 43.216 53.808 42.352 53.184C41.488 52.56 40.828 51.84 40.372 51.024C40.108 50.568 39.976 50.22 39.976 49.98C39.976 49.524 40.144 49.128 40.48 48.792C40.816 48.456 41.236 48.288 41.74 48.288C42.508 48.288 43.06 48.696 43.396 49.512C43.564 49.944 43.78 50.268 44.044 50.484C44.332 50.724 44.644 50.844 44.98 50.844C45.412 50.844 45.748 50.616 45.988 50.16C46.228 49.728 46.348 49.08 46.348 48.216C46.348 47.064 46.336 45.732 46.312 44.22C46.288 42.684 46.264 41.16 46.24 39.648C46.168 36.408 46.132 33.84 46.132 31.944C46.132 31.44 46.288 31.02 46.6 30.684C46.936 30.348 47.356 30.18 47.86 30.18C48.316 30.18 48.712 30.36 49.048 30.72C49.408 31.056 49.588 31.452 49.588 31.908L49.66 39.252C49.732 42.588 49.768 45.324 49.768 47.46C49.768 49.644 49.348 51.3 48.508 52.428C47.668 53.556 46.54 54.12 45.124 54.12ZM61.1707 48.216C59.8027 48.216 58.5427 47.844 57.3907 47.1C56.2627 46.356 55.3747 45.348 54.7267 44.076C54.0787 42.78 53.7547 41.376 53.7547 39.864C53.7547 38.16 54.1387 36.576 54.9067 35.112C55.6747 33.624 56.7067 32.448 58.0027 31.584C59.2987 30.696 60.6907 30.252 62.1787 30.252C63.5467 30.252 64.7947 30.636 65.9227 31.404C67.0747 32.172 67.9747 33.192 68.6227 34.464C69.2947 35.736 69.6307 37.104 69.6307 38.568C69.6307 40.296 69.2467 41.904 68.4787 43.392C67.7107 44.856 66.6667 46.032 65.3467 46.92C64.0507 47.784 62.6587 48.216 61.1707 48.216ZM61.1707 44.976C62.0107 44.976 62.8147 44.688 63.5827 44.112C64.3507 43.536 64.9627 42.768 65.4187 41.808C65.8747 40.848 66.1027 39.828 66.1027 38.748C66.1027 37.836 65.9227 36.984 65.5627 36.192C65.2027 35.376 64.7107 34.728 64.0867 34.248C63.4627 33.744 62.7787 33.492 62.0347 33.492C61.1947 33.492 60.4027 33.792 59.6587 34.392C58.9387 34.968 58.3627 35.748 57.9307 36.732C57.4987 37.692 57.2827 38.724 57.2827 39.828C57.2827 40.908 57.4627 41.832 57.8227 42.6C58.2067 43.368 58.6867 43.956 59.2627 44.364C59.8627 44.772 60.4987 44.976 61.1707 44.976ZM75.2324 48.252C74.7764 48.252 74.3684 48.084 74.0084 47.748C73.6724 47.388 73.5044 46.98 73.5044 46.524V25.788C73.5044 25.308 73.6724 24.9 74.0084 24.564C74.3684 24.204 74.8004 24.024 75.3044 24.024C75.7844 24.024 76.1804 24.204 76.4924 24.564C76.8044 24.9 76.9604 25.308 76.9604 25.788V33.528C77.7524 32.52 78.6524 31.716 79.6604 31.116C80.6684 30.492 81.6764 30.18 82.6844 30.18C84.5804 30.18 85.9124 31.14 86.6804 33.06C87.4484 34.956 87.8324 37.968 87.8324 42.096C87.8324 44.424 87.7964 45.924 87.7244 46.596C87.7004 47.052 87.5204 47.436 87.1844 47.748C86.8724 48.06 86.4884 48.216 86.0324 48.216C85.5284 48.216 85.1204 48.06 84.8084 47.748C84.4964 47.412 84.3404 47.004 84.3404 46.524C84.3404 46.044 84.3524 45.648 84.3764 45.336L84.4124 42.348C84.4124 38.868 84.2204 36.54 83.8364 35.364C83.4764 34.188 83.0204 33.6 82.4684 33.6C81.7724 33.6 81.0644 33.924 80.3444 34.572C79.6244 35.196 79.0004 35.904 78.4724 36.696C77.9684 37.464 77.6084 38.076 77.3924 38.532C77.1044 39.18 76.9604 40.032 76.9604 41.088V46.452C76.9604 47.004 76.7924 47.448 76.4564 47.784C76.1204 48.096 75.7124 48.252 75.2324 48.252ZM94.2519 48.216C93.7959 48.216 93.3879 48.048 93.0279 47.712C92.6919 47.376 92.5239 46.992 92.5239 46.56V31.944C92.5239 31.464 92.7039 31.056 93.0639 30.72C93.4239 30.384 93.8439 30.216 94.3239 30.216C94.7799 30.216 95.1639 30.384 95.4759 30.72C95.8119 31.056 95.9799 31.464 95.9799 31.944V34.68C96.6519 33.24 97.5039 32.148 98.5359 31.404C99.5679 30.636 100.696 30.252 101.92 30.252C103.264 30.252 104.332 30.564 105.124 31.188C105.916 31.812 106.492 32.844 106.852 34.284C107.212 35.7 107.392 37.668 107.392 40.188L107.356 46.488C107.356 46.944 107.2 47.352 106.888 47.712C106.576 48.048 106.18 48.216 105.7 48.216C105.244 48.216 104.836 48.048 104.476 47.712C104.14 47.352 103.972 46.956 103.972 46.524V40.548C103.972 38.676 103.888 37.236 103.72 36.228C103.552 35.22 103.3 34.536 102.964 34.176C102.628 33.792 102.172 33.6 101.596 33.6C100.876 33.6 100.156 33.912 99.4359 34.536C98.7159 35.136 98.0439 36 97.4199 37.128C96.8679 38.112 96.4839 39.072 96.2679 40.008C96.0519 40.944 95.9439 42.072 95.9439 43.392V46.416C95.9439 46.944 95.7879 47.376 95.4759 47.712C95.1879 48.048 94.7799 48.216 94.2519 48.216ZM112.503 48.216C111.951 48.216 111.495 48.024 111.135 47.64C110.799 47.232 110.631 46.74 110.631 46.164C110.631 45.564 110.847 45.036 111.279 44.58C111.711 44.1 112.203 43.86 112.755 43.86C113.283 43.86 113.727 44.064 114.087 44.472C114.447 44.856 114.627 45.324 114.627 45.876C114.627 46.524 114.411 47.076 113.979 47.532C113.547 47.988 113.055 48.216 112.503 48.216ZM123.867 48.18C122.643 48.18 121.539 47.868 120.555 47.244C119.595 46.596 118.827 45.66 118.251 44.436C117.699 43.212 117.423 41.748 117.423 40.044C117.423 37.98 117.747 36.216 118.395 34.752C119.043 33.288 119.943 32.184 121.095 31.44C122.247 30.672 123.579 30.288 125.091 30.288C126.291 30.288 127.575 30.564 128.943 31.116L129.123 25.536C129.147 25.056 129.327 24.648 129.663 24.312C130.023 23.952 130.443 23.772 130.923 23.772C131.379 23.772 131.775 23.952 132.111 24.312C132.471 24.648 132.639 25.08 132.615 25.608L132.111 46.56C132.087 47.04 131.907 47.436 131.571 47.748C131.235 48.06 130.827 48.216 130.347 48.216C129.891 48.216 129.495 48.084 129.159 47.82C128.847 47.556 128.691 47.208 128.691 46.776V46.128C128.067 46.704 127.335 47.196 126.495 47.604C125.655 47.988 124.779 48.18 123.867 48.18ZM124.155 44.94C124.971 44.94 125.727 44.772 126.423 44.436C127.143 44.076 127.707 43.644 128.115 43.14C128.523 42.636 128.739 42.168 128.763 41.736L128.907 34.644C128.475 34.356 127.923 34.104 127.251 33.888C126.579 33.648 125.931 33.528 125.307 33.528C123.843 33.528 122.739 34.08 121.995 35.184C121.251 36.264 120.879 37.848 120.879 39.936C120.879 41.664 121.167 42.936 121.743 43.752C122.343 44.544 123.147 44.94 124.155 44.94ZM143.647 48.216C142.279 48.216 141.019 47.844 139.867 47.1C138.739 46.356 137.851 45.348 137.203 44.076C136.555 42.78 136.231 41.376 136.231 39.864C136.231 38.16 136.615 36.576 137.383 35.112C138.151 33.624 139.183 32.448 140.479 31.584C141.775 30.696 143.167 30.252 144.655 30.252C146.023 30.252 147.271 30.636 148.399 31.404C149.551 32.172 150.451 33.192 151.099 34.464C151.771 35.736 152.107 37.104 152.107 38.568C152.107 40.296 151.723 41.904 150.955 43.392C150.187 44.856 149.143 46.032 147.823 46.92C146.527 47.784 145.135 48.216 143.647 48.216ZM143.647 44.976C144.487 44.976 145.291 44.688 146.059 44.112C146.827 43.536 147.439 42.768 147.895 41.808C148.351 40.848 148.579 39.828 148.579 38.748C148.579 37.836 148.399 36.984 148.039 36.192C147.679 35.376 147.187 34.728 146.563 34.248C145.939 33.744 145.255 33.492 144.511 33.492C143.671 33.492 142.879 33.792 142.135 34.392C141.415 34.968 140.839 35.748 140.407 36.732C139.975 37.692 139.759 38.724 139.759 39.828C139.759 40.908 139.939 41.832 140.299 42.6C140.683 43.368 141.163 43.956 141.739 44.364C142.339 44.772 142.975 44.976 143.647 44.976ZM163.757 48.216C162.053 48.216 160.517 47.856 159.149 47.136C157.805 46.392 156.749 45.348 155.981 44.004C155.213 42.636 154.829 41.028 154.829 39.18C154.829 37.668 155.165 36.228 155.837 34.86C156.533 33.468 157.493 32.352 158.717 31.512C159.965 30.672 161.381 30.252 162.965 30.252C164.429 30.252 165.677 30.552 166.709 31.152C167.765 31.728 168.557 32.424 169.085 33.24C169.613 34.056 169.877 34.788 169.877 35.436C169.877 35.748 169.781 36.048 169.589 36.336C169.397 36.624 169.121 36.876 168.761 37.092L159.113 42.636C159.449 43.38 160.037 43.956 160.877 44.364C161.741 44.772 162.701 44.976 163.757 44.976C165.149 44.976 166.337 44.46 167.321 43.428C167.705 43.044 168.101 42.852 168.509 42.852C168.989 42.852 169.385 43.008 169.697 43.32C170.033 43.632 170.201 44.016 170.201 44.472C170.201 44.856 170.057 45.216 169.769 45.552C169.097 46.296 168.197 46.932 167.069 47.46C165.965 47.964 164.861 48.216 163.757 48.216ZM166.313 35.004C166.025 34.5 165.617 34.128 165.089 33.888C164.561 33.624 163.937 33.492 163.217 33.492C161.849 33.492 160.697 33.96 159.761 34.896C158.849 35.832 158.321 36.984 158.177 38.352C158.129 38.712 158.105 39.144 158.105 39.648L166.313 35.004ZM174.997 48C174.493 48 174.073 47.832 173.737 47.496C173.425 47.16 173.269 46.752 173.269 46.272C173.269 45.792 173.425 45.384 173.737 45.048C174.073 44.712 174.493 44.544 174.997 44.544H177.085L177.337 30.468L176.149 31.728C175.813 32.064 175.393 32.232 174.889 32.232C174.409 32.232 174.001 32.064 173.665 31.728C173.329 31.392 173.161 30.984 173.161 30.504C173.161 30.096 173.317 29.712 173.629 29.352L177.841 24.78C177.985 24.636 178.177 24.516 178.417 24.42C178.657 24.3 178.873 24.24 179.065 24.24C179.593 24.24 180.013 24.42 180.325 24.78C180.661 25.116 180.829 25.512 180.829 25.968L180.577 44.544H182.053C182.605 44.544 183.037 44.712 183.349 45.048C183.685 45.384 183.853 45.792 183.853 46.272C183.853 46.752 183.673 47.16 183.313 47.496C182.977 47.832 182.581 48 182.125 48H174.997ZM187.077 46.308C187.077 44.364 187.377 42.732 187.977 41.412C188.577 40.068 189.321 38.988 190.209 38.172C191.097 37.332 192.189 36.504 193.485 35.688C194.637 34.92 195.489 34.32 196.041 33.888C196.617 33.456 197.085 32.976 197.445 32.448C197.829 31.896 198.021 31.272 198.021 30.576C198.021 29.736 197.685 29.052 197.013 28.524C196.341 27.972 195.501 27.696 194.493 27.696C193.509 27.696 192.633 27.948 191.865 28.452C191.121 28.956 190.557 29.436 190.173 29.892C189.933 30.156 189.705 30.36 189.489 30.504C189.297 30.624 189.021 30.684 188.661 30.684C188.157 30.684 187.737 30.504 187.401 30.144C187.089 29.784 186.933 29.376 186.933 28.92C186.933 28.632 187.005 28.356 187.149 28.092C187.317 27.828 187.629 27.48 188.085 27.048C188.877 26.28 189.813 25.62 190.893 25.068C191.973 24.516 193.173 24.24 194.493 24.24C195.837 24.24 197.037 24.528 198.093 25.104C199.149 25.656 199.977 26.424 200.577 27.408C201.177 28.368 201.477 29.424 201.477 30.576C201.477 31.824 201.201 32.928 200.649 33.888C200.097 34.824 199.425 35.628 198.633 36.3C197.865 36.948 196.869 37.656 195.645 38.424C194.205 39.36 193.065 40.272 192.225 41.16C191.385 42.048 190.857 43.188 190.641 44.58H200.037C200.493 44.58 200.889 44.748 201.225 45.084C201.585 45.42 201.765 45.828 201.765 46.308C201.765 46.764 201.585 47.16 201.225 47.496C200.889 47.832 200.493 48 200.037 48H187.077V46.308ZM211.451 48.216C209.891 48.216 208.451 47.856 207.131 47.136C205.835 46.392 204.923 45.444 204.395 44.292C204.203 43.86 204.107 43.5 204.107 43.212C204.107 42.756 204.275 42.372 204.611 42.06C204.947 41.724 205.355 41.556 205.835 41.556C206.483 41.556 206.987 41.868 207.347 42.492C207.635 43.02 208.115 43.536 208.787 44.04C209.459 44.52 210.323 44.76 211.379 44.76C212.459 44.76 213.419 44.412 214.259 43.716C215.123 43.02 215.555 42.024 215.555 40.728C215.555 39.72 215.279 38.916 214.727 38.316C214.175 37.716 213.527 37.296 212.783 37.056C212.063 36.816 211.415 36.696 210.839 36.696C210.359 36.696 209.951 36.528 209.615 36.192C209.279 35.856 209.111 35.448 209.111 34.968C209.111 34.488 209.279 34.08 209.615 33.744C209.951 33.408 210.371 33.24 210.875 33.24C211.523 33.24 212.171 33.096 212.819 32.808C213.467 32.496 213.995 32.1 214.403 31.62C214.835 31.116 215.051 30.588 215.051 30.036C215.051 29.436 214.715 28.908 214.043 28.452C213.395 27.972 212.519 27.732 211.415 27.732C210.623 27.732 209.963 27.84 209.435 28.056C208.931 28.272 208.427 28.536 207.923 28.848C207.731 28.992 207.551 29.112 207.383 29.208C207.215 29.28 207.023 29.316 206.807 29.316C206.255 29.316 205.823 29.148 205.511 28.812C205.223 28.452 205.079 28.044 205.079 27.588C205.079 26.868 205.571 26.208 206.555 25.608C207.155 25.224 207.875 24.9 208.715 24.636C209.579 24.372 210.479 24.24 211.415 24.24C212.735 24.24 213.935 24.492 215.015 24.996C216.095 25.5 216.947 26.196 217.571 27.084C218.195 27.972 218.507 28.956 218.507 30.036C218.507 30.996 218.291 31.884 217.859 32.7C217.427 33.516 216.815 34.236 216.023 34.86C217.007 35.508 217.751 36.336 218.255 37.344C218.783 38.352 219.047 39.48 219.047 40.728C219.047 42.408 218.663 43.812 217.895 44.94C217.127 46.068 216.155 46.896 214.979 47.424C213.827 47.952 212.651 48.216 211.451 48.216ZM232.913 48.252C232.433 48.252 232.025 48.084 231.689 47.748C231.353 47.388 231.185 46.98 231.185 46.524V42.78L223.805 42.672C223.277 42.672 222.857 42.516 222.545 42.204C222.233 41.892 222.077 41.484 222.077 40.98C222.077 40.668 222.173 40.344 222.365 40.008L231.473 25.032C231.809 24.48 232.289 24.204 232.913 24.204C233.417 24.204 233.837 24.372 234.173 24.708C234.509 25.044 234.677 25.452 234.677 25.932V39.396H235.037C235.517 39.396 235.913 39.564 236.225 39.9C236.537 40.236 236.693 40.644 236.693 41.124C236.693 41.604 236.513 42.012 236.153 42.348C235.793 42.684 235.373 42.852 234.893 42.852H234.677V46.524C234.677 46.98 234.497 47.388 234.137 47.748C233.777 48.084 233.369 48.252 232.913 48.252ZM231.185 32.124L226.865 39.216L231.185 39.324V32.124ZM257.744 35.328C257.744 35.64 257.672 35.928 257.528 36.192C257.384 36.432 257.18 36.612 256.916 36.732C257.18 36.9 257.396 37.128 257.564 37.416C257.732 37.68 257.816 37.968 257.816 38.28C257.816 38.448 257.804 38.592 257.78 38.712C257.756 38.832 257.732 38.94 257.708 39.036C257.612 39.42 257.564 39.72 257.564 39.936C257.564 40.512 257.732 40.992 258.068 41.376C258.404 41.736 258.824 41.916 259.328 41.916C260.168 41.916 260.816 41.568 261.272 40.872C261.752 40.176 261.992 39.108 261.992 37.668C261.992 36.3 261.668 34.992 261.02 33.744C260.372 32.472 259.412 31.44 258.14 30.648C256.868 29.832 255.356 29.424 253.604 29.424C251.948 29.424 250.376 29.808 248.888 30.576C247.424 31.32 246.236 32.436 245.324 33.924C244.412 35.388 243.956 37.152 243.956 39.216C243.956 41.256 244.412 42.972 245.324 44.364C246.236 45.732 247.448 46.752 248.96 47.424C250.472 48.072 252.14 48.396 253.964 48.396C255.572 48.396 257.012 47.988 258.284 47.172C258.74 46.884 259.124 46.74 259.436 46.74C259.892 46.74 260.288 46.908 260.624 47.244C260.96 47.556 261.128 47.916 261.128 48.324C261.128 48.66 261.032 48.972 260.84 49.26C260.648 49.548 260.324 49.86 259.868 50.196C258.572 51.156 256.46 51.636 253.532 51.636C251.06 51.636 248.84 51.132 246.872 50.124C244.904 49.14 243.356 47.712 242.228 45.84C241.1 43.944 240.536 41.736 240.536 39.216C240.536 36.72 241.1 34.464 242.228 32.448C243.356 30.432 244.916 28.86 246.908 27.732C248.9 26.58 251.132 26.004 253.604 26.004C255.764 26.004 257.744 26.532 259.544 27.588C261.344 28.62 262.772 30.024 263.828 31.8C264.884 33.576 265.412 35.532 265.412 37.668C265.412 39.156 265.136 40.476 264.584 41.628C264.032 42.756 263.312 43.62 262.424 44.22C261.536 44.82 260.6 45.12 259.616 45.12C258.656 45.12 257.792 44.904 257.024 44.472C256.256 44.04 255.632 43.476 255.152 42.78C253.976 44.028 252.74 44.652 251.444 44.652C250.1 44.652 248.996 44.244 248.132 43.428C247.268 42.612 246.836 41.34 246.836 39.612C246.836 38.388 247.112 37.236 247.664 36.156C248.24 35.076 249.008 34.212 249.968 33.564C250.952 32.892 252.032 32.556 253.208 32.556C254.408 32.556 255.56 32.904 256.664 33.6C257.072 33.864 257.348 34.128 257.492 34.392C257.66 34.656 257.744 34.968 257.744 35.328ZM254.504 37.776C254.744 37.272 255.032 36.924 255.368 36.732C255.32 36.708 255.152 36.612 254.864 36.444C254.552 36.276 254.276 36.144 254.036 36.048C253.82 35.952 253.556 35.904 253.244 35.904C252.404 35.904 251.684 36.276 251.084 37.02C250.508 37.764 250.22 38.628 250.22 39.612C250.22 40.716 250.628 41.268 251.444 41.268C252.02 41.268 252.584 40.884 253.136 40.116C253.712 39.324 254.168 38.544 254.504 37.776ZM272.635 48.252C272.179 48.252 271.771 48.084 271.411 47.748C271.075 47.388 270.907 46.98 270.907 46.524V25.788C270.907 25.308 271.075 24.9 271.411 24.564C271.771 24.204 272.203 24.024 272.707 24.024C273.187 24.024 273.583 24.204 273.895 24.564C274.207 24.9 274.363 25.308 274.363 25.788V33.528C275.155 32.52 276.055 31.716 277.063 31.116C278.071 30.492 279.079 30.18 280.087 30.18C281.983 30.18 283.315 31.14 284.083 33.06C284.851 34.956 285.235 37.968 285.235 42.096C285.235 44.424 285.199 45.924 285.127 46.596C285.103 47.052 284.923 47.436 284.587 47.748C284.275 48.06 283.891 48.216 283.435 48.216C282.931 48.216 282.523 48.06 282.211 47.748C281.899 47.412 281.743 47.004 281.743 46.524C281.743 46.044 281.755 45.648 281.779 45.336L281.815 42.348C281.815 38.868 281.623 36.54 281.239 35.364C280.879 34.188 280.423 33.6 279.871 33.6C279.175 33.6 278.467 33.924 277.747 34.572C277.027 35.196 276.403 35.904 275.875 36.696C275.371 37.464 275.011 38.076 274.795 38.532C274.507 39.18 274.363 40.032 274.363 41.088V46.452C274.363 47.004 274.195 47.448 273.859 47.784C273.523 48.096 273.115 48.252 272.635 48.252ZM296.19 48.216C294.822 48.216 293.562 47.844 292.41 47.1C291.282 46.356 290.394 45.348 289.746 44.076C289.098 42.78 288.774 41.376 288.774 39.864C288.774 38.16 289.158 36.576 289.926 35.112C290.694 33.624 291.726 32.448 293.022 31.584C294.318 30.696 295.71 30.252 297.198 30.252C298.566 30.252 299.814 30.636 300.942 31.404C302.094 32.172 302.994 33.192 303.642 34.464C304.314 35.736 304.65 37.104 304.65 38.568C304.65 40.296 304.266 41.904 303.498 43.392C302.73 44.856 301.686 46.032 300.366 46.92C299.07 47.784 297.678 48.216 296.19 48.216ZM296.19 44.976C297.03 44.976 297.834 44.688 298.602 44.112C299.37 43.536 299.982 42.768 300.438 41.808C300.894 40.848 301.122 39.828 301.122 38.748C301.122 37.836 300.942 36.984 300.582 36.192C300.222 35.376 299.73 34.728 299.106 34.248C298.482 33.744 297.798 33.492 297.054 33.492C296.214 33.492 295.422 33.792 294.678 34.392C293.958 34.968 293.382 35.748 292.95 36.732C292.518 37.692 292.302 38.724 292.302 39.828C292.302 40.908 292.482 41.832 292.842 42.6C293.226 43.368 293.706 43.956 294.282 44.364C294.882 44.772 295.518 44.976 296.19 44.976ZM313.708 48.216C312.316 48.216 311.104 47.916 310.072 47.316C309.064 46.692 308.284 45.984 307.732 45.192C307.204 44.376 306.94 43.716 306.94 43.212C306.94 42.732 307.108 42.336 307.444 42.024C307.78 41.688 308.176 41.52 308.632 41.52C309.04 41.52 309.376 41.628 309.64 41.844C309.928 42.06 310.132 42.348 310.252 42.708C310.516 43.452 310.948 44.04 311.548 44.472C312.148 44.904 312.892 45.12 313.78 45.12C314.716 45.12 315.448 44.892 315.976 44.436C316.504 43.98 316.768 43.464 316.768 42.888C316.768 42.336 316.54 41.904 316.084 41.592C315.652 41.256 314.764 40.884 313.42 40.476C311.452 39.876 310.036 39.168 309.172 38.352C308.308 37.512 307.876 36.42 307.876 35.076C307.876 33.66 308.44 32.508 309.568 31.62C310.696 30.708 312.268 30.252 314.284 30.252C316.156 30.252 317.608 30.66 318.64 31.476C319.696 32.292 320.224 33.384 320.224 34.752C320.224 35.496 320.068 36.072 319.756 36.48C319.444 36.864 319 37.056 318.424 37.056C317.92 37.056 317.512 36.9 317.2 36.588C316.888 36.276 316.732 35.94 316.732 35.58C316.732 35.46 316.756 35.316 316.804 35.148C316.876 34.956 316.912 34.812 316.912 34.716C316.912 34.284 316.696 33.936 316.264 33.672C315.856 33.408 315.22 33.276 314.356 33.276C313.276 33.276 312.472 33.432 311.944 33.744C311.44 34.056 311.188 34.476 311.188 35.004C311.188 35.556 311.452 36.012 311.98 36.372C312.508 36.708 313.456 37.092 314.824 37.524C316.816 38.148 318.196 38.832 318.964 39.576C319.756 40.32 320.152 41.364 320.152 42.708C320.152 43.62 319.876 44.508 319.324 45.372C318.796 46.212 318.04 46.896 317.056 47.424C316.096 47.952 314.98 48.216 313.708 48.216ZM326.949 48.252C326.493 48.252 326.085 48.084 325.725 47.748C325.389 47.412 325.221 47.016 325.221 46.56V33.708H322.377C321.897 33.708 321.489 33.54 321.153 33.204C320.817 32.844 320.649 32.436 320.649 31.98C320.649 31.452 320.829 31.032 321.189 30.72C321.549 30.384 321.969 30.216 322.449 30.216H325.221V26.364C325.221 25.908 325.389 25.5 325.725 25.14C326.061 24.78 326.469 24.6 326.949 24.6C327.453 24.6 327.861 24.78 328.173 25.14C328.509 25.476 328.677 25.884 328.677 26.364V30.216H331.737C332.217 30.216 332.625 30.384 332.961 30.72C333.297 31.056 333.465 31.476 333.465 31.98C333.465 32.436 333.297 32.844 332.961 33.204C332.625 33.54 332.217 33.708 331.737 33.708H328.677V46.56C328.677 47.016 328.509 47.412 328.173 47.748C327.837 48.084 327.429 48.252 326.949 48.252ZM342.526 48.216C340.822 48.216 339.286 47.856 337.918 47.136C336.574 46.392 335.518 45.348 334.75 44.004C333.982 42.636 333.598 41.028 333.598 39.18C333.598 37.668 333.934 36.228 334.606 34.86C335.302 33.468 336.262 32.352 337.486 31.512C338.734 30.672 340.15 30.252 341.734 30.252C343.198 30.252 344.446 30.552 345.478 31.152C346.534 31.728 347.326 32.424 347.854 33.24C348.382 34.056 348.646 34.788 348.646 35.436C348.646 35.748 348.55 36.048 348.358 36.336C348.166 36.624 347.89 36.876 347.53 37.092L337.882 42.636C338.218 43.38 338.806 43.956 339.646 44.364C340.51 44.772 341.47 44.976 342.526 44.976C343.918 44.976 345.106 44.46 346.09 43.428C346.474 43.044 346.87 42.852 347.278 42.852C347.758 42.852 348.154 43.008 348.466 43.32C348.802 43.632 348.97 44.016 348.97 44.472C348.97 44.856 348.826 45.216 348.538 45.552C347.866 46.296 346.966 46.932 345.838 47.46C344.734 47.964 343.63 48.216 342.526 48.216ZM345.082 35.004C344.794 34.5 344.386 34.128 343.858 33.888C343.33 33.624 342.706 33.492 341.986 33.492C340.618 33.492 339.466 33.96 338.53 34.896C337.618 35.832 337.09 36.984 336.946 38.352C336.898 38.712 336.874 39.144 336.874 39.648L345.082 35.004ZM357.726 48.18C356.502 48.18 355.398 47.868 354.414 47.244C353.454 46.596 352.686 45.66 352.11 44.436C351.558 43.212 351.282 41.748 351.282 40.044C351.282 37.98 351.606 36.216 352.254 34.752C352.902 33.288 353.802 32.184 354.954 31.44C356.106 30.672 357.438 30.288 358.95 30.288C360.15 30.288 361.434 30.564 362.802 31.116L362.982 25.536C363.006 25.056 363.186 24.648 363.522 24.312C363.882 23.952 364.302 23.772 364.782 23.772C365.238 23.772 365.634 23.952 365.97 24.312C366.33 24.648 366.498 25.08 366.474 25.608L365.97 46.56C365.946 47.04 365.766 47.436 365.43 47.748C365.094 48.06 364.686 48.216 364.206 48.216C363.75 48.216 363.354 48.084 363.018 47.82C362.706 47.556 362.55 47.208 362.55 46.776V46.128C361.926 46.704 361.194 47.196 360.354 47.604C359.514 47.988 358.638 48.18 357.726 48.18ZM358.014 44.94C358.83 44.94 359.586 44.772 360.282 44.436C361.002 44.076 361.566 43.644 361.974 43.14C362.382 42.636 362.598 42.168 362.622 41.736L362.766 34.644C362.334 34.356 361.782 34.104 361.11 33.888C360.438 33.648 359.79 33.528 359.166 33.528C357.702 33.528 356.598 34.08 355.854 35.184C355.11 36.264 354.738 37.848 354.738 39.936C354.738 41.664 355.026 42.936 355.602 43.752C356.202 44.544 357.006 44.94 358.014 44.94ZM372.971 48.216C372.515 48.216 372.107 48.048 371.747 47.712C371.411 47.376 371.243 46.98 371.243 46.524V31.98C371.243 31.524 371.411 31.128 371.747 30.792C372.107 30.432 372.515 30.252 372.971 30.252C373.451 30.252 373.859 30.432 374.195 30.792C374.531 31.128 374.699 31.524 374.699 31.98V34.5C376.187 31.668 378.167 30.252 380.639 30.252C381.623 30.252 382.475 30.54 383.195 31.116C383.939 31.692 384.467 32.556 384.779 33.708C386.315 31.404 388.187 30.252 390.395 30.252C391.883 30.252 393.059 30.828 393.923 31.98C394.787 33.108 395.219 34.812 395.219 37.092V46.524C395.219 46.98 395.039 47.376 394.679 47.712C394.343 48.048 393.947 48.216 393.491 48.216C393.011 48.216 392.603 48.048 392.267 47.712C391.931 47.376 391.763 46.98 391.763 46.524V36.876C391.763 35.772 391.607 34.944 391.295 34.392C390.983 33.84 390.491 33.564 389.819 33.564C389.123 33.564 388.427 33.84 387.731 34.392C387.035 34.944 386.459 35.7 386.003 36.66C385.571 37.62 385.355 38.676 385.355 39.828V46.524C385.355 47.004 385.187 47.412 384.851 47.748C384.515 48.06 384.107 48.216 383.627 48.216C383.171 48.216 382.763 48.048 382.403 47.712C382.067 47.376 381.899 46.98 381.899 46.524V36.876C381.899 35.724 381.755 34.884 381.467 34.356C381.203 33.828 380.759 33.564 380.135 33.564C379.367 33.564 378.611 33.876 377.867 34.5C377.123 35.1 376.475 35.832 375.923 36.696C375.491 37.416 375.167 38.136 374.951 38.856C374.759 39.576 374.663 40.368 374.663 41.232L374.699 46.524C374.699 46.98 374.531 47.376 374.195 47.712C373.859 48.048 373.451 48.216 372.971 48.216ZM411.415 48.576C410.935 48.576 410.539 48.444 410.227 48.18C409.939 47.916 409.795 47.568 409.795 47.136V46.632C408.811 47.688 407.443 48.216 405.691 48.216C404.371 48.216 403.183 47.892 402.127 47.244C401.071 46.596 400.243 45.684 399.643 44.508C399.043 43.308 398.743 41.952 398.743 40.44C398.743 38.76 399.103 37.14 399.823 35.58C400.543 33.996 401.551 32.712 402.847 31.728C404.167 30.744 405.679 30.252 407.383 30.252C408.487 30.252 409.483 30.408 410.371 30.72C411.259 31.008 412.183 31.368 413.143 31.8V46.776C413.143 47.256 412.975 47.676 412.639 48.036C412.303 48.396 411.895 48.576 411.415 48.576ZM405.943 44.868C406.639 44.868 407.311 44.724 407.959 44.436C408.631 44.148 409.183 43.8 409.615 43.392L409.723 33.996C409.027 33.708 408.271 33.564 407.455 33.564C406.423 33.564 405.511 33.888 404.719 34.536C403.927 35.16 403.315 36 402.883 37.056C402.451 38.088 402.235 39.192 402.235 40.368C402.235 41.832 402.559 42.948 403.207 43.716C403.855 44.484 404.767 44.868 405.943 44.868ZM420.12 28.74C419.664 28.74 419.256 28.56 418.896 28.2C418.56 27.84 418.404 27.432 418.428 26.976L418.464 25.644C418.488 25.188 418.668 24.792 419.004 24.456C419.34 24.12 419.736 23.952 420.192 23.952C420.648 23.952 421.044 24.132 421.38 24.492C421.74 24.852 421.908 25.248 421.884 25.68L421.848 27.048C421.824 27.528 421.644 27.936 421.308 28.272C420.996 28.584 420.6 28.74 420.12 28.74ZM419.94 48.216C419.46 48.216 419.04 48.048 418.68 47.712C418.344 47.352 418.176 46.932 418.176 46.452L418.356 32.124C418.356 31.644 418.524 31.236 418.86 30.9C419.22 30.54 419.64 30.36 420.12 30.36C420.624 30.36 421.044 30.54 421.38 30.9C421.716 31.236 421.884 31.644 421.884 32.124L421.704 46.452C421.704 46.932 421.524 47.352 421.164 47.712C420.828 48.048 420.42 48.216 419.94 48.216ZM428.658 48.216C428.202 48.216 427.794 48.06 427.434 47.748C427.098 47.412 426.93 47.028 426.93 46.596V25.716C426.93 25.236 427.086 24.84 427.398 24.528C427.734 24.192 428.154 24.024 428.658 24.024C429.114 24.024 429.51 24.192 429.846 24.528C430.206 24.864 430.386 25.26 430.386 25.716V46.596C430.386 47.028 430.206 47.412 429.846 47.748C429.486 48.06 429.09 48.216 428.658 48.216ZM435.87 48.216C435.318 48.216 434.862 48.024 434.502 47.64C434.166 47.232 433.998 46.74 433.998 46.164C433.998 45.564 434.214 45.036 434.646 44.58C435.078 44.1 435.57 43.86 436.122 43.86C436.65 43.86 437.094 44.064 437.454 44.472C437.814 44.856 437.994 45.324 437.994 45.876C437.994 46.524 437.778 47.076 437.346 47.532C436.914 47.988 436.422 48.216 435.87 48.216ZM448.638 48.216C447.198 48.216 445.878 47.868 444.678 47.172C443.478 46.476 442.53 45.528 441.834 44.328C441.138 43.104 440.79 41.772 440.79 40.332C440.79 38.7 441.174 37.104 441.942 35.544C442.71 33.984 443.718 32.712 444.966 31.728C446.214 30.744 447.534 30.252 448.926 30.252C450.198 30.252 451.218 30.456 451.986 30.864C452.778 31.248 453.546 31.872 454.29 32.736C454.65 33.12 454.83 33.54 454.83 33.996C454.83 34.452 454.662 34.848 454.326 35.184C453.99 35.496 453.582 35.652 453.102 35.652C452.79 35.652 452.538 35.604 452.346 35.508C452.178 35.412 451.974 35.22 451.734 34.932C451.326 34.476 450.918 34.128 450.51 33.888C450.126 33.648 449.61 33.528 448.962 33.528C448.218 33.528 447.462 33.852 446.694 34.5C445.95 35.148 445.338 36 444.858 37.056C444.402 38.088 444.174 39.156 444.174 40.26C444.174 41.22 444.378 42.06 444.786 42.78C445.218 43.476 445.77 44.016 446.442 44.4C447.114 44.76 447.822 44.94 448.566 44.94C449.526 44.94 450.306 44.76 450.906 44.4C451.53 44.04 452.082 43.548 452.562 42.924C453.018 42.324 453.534 42.024 454.11 42.024C454.566 42.024 454.962 42.192 455.298 42.528C455.634 42.84 455.802 43.2 455.802 43.608C455.802 44.088 455.67 44.496 455.406 44.832C454.71 45.768 453.762 46.572 452.562 47.244C451.362 47.892 450.054 48.216 448.638 48.216ZM465.116 48.216C463.748 48.216 462.488 47.844 461.336 47.1C460.208 46.356 459.32 45.348 458.672 44.076C458.024 42.78 457.7 41.376 457.7 39.864C457.7 38.16 458.084 36.576 458.852 35.112C459.62 33.624 460.652 32.448 461.948 31.584C463.244 30.696 464.636 30.252 466.124 30.252C467.492 30.252 468.74 30.636 469.868 31.404C471.02 32.172 471.92 33.192 472.568 34.464C473.24 35.736 473.576 37.104 473.576 38.568C473.576 40.296 473.192 41.904 472.424 43.392C471.656 44.856 470.612 46.032 469.292 46.92C467.996 47.784 466.604 48.216 465.116 48.216ZM465.116 44.976C465.956 44.976 466.76 44.688 467.528 44.112C468.296 43.536 468.908 42.768 469.364 41.808C469.82 40.848 470.048 39.828 470.048 38.748C470.048 37.836 469.868 36.984 469.508 36.192C469.148 35.376 468.656 34.728 468.032 34.248C467.408 33.744 466.724 33.492 465.98 33.492C465.14 33.492 464.348 33.792 463.604 34.392C462.884 34.968 462.308 35.748 461.876 36.732C461.444 37.692 461.228 38.724 461.228 39.828C461.228 40.908 461.408 41.832 461.768 42.6C462.152 43.368 462.632 43.956 463.208 44.364C463.808 44.772 464.444 44.976 465.116 44.976ZM479.178 48.216C478.722 48.216 478.314 48.048 477.954 47.712C477.618 47.376 477.45 46.98 477.45 46.524V31.98C477.45 31.524 477.618 31.128 477.954 30.792C478.314 30.432 478.722 30.252 479.178 30.252C479.658 30.252 480.066 30.432 480.402 30.792C480.738 31.128 480.906 31.524 480.906 31.98V34.5C482.394 31.668 484.374 30.252 486.846 30.252C487.83 30.252 488.682 30.54 489.402 31.116C490.146 31.692 490.674 32.556 490.986 33.708C492.522 31.404 494.394 30.252 496.602 30.252C498.09 30.252 499.266 30.828 500.13 31.98C500.994 33.108 501.426 34.812 501.426 37.092V46.524C501.426 46.98 501.246 47.376 500.886 47.712C500.55 48.048 500.154 48.216 499.698 48.216C499.218 48.216 498.81 48.048 498.474 47.712C498.138 47.376 497.97 46.98 497.97 46.524V36.876C497.97 35.772 497.814 34.944 497.502 34.392C497.19 33.84 496.698 33.564 496.026 33.564C495.33 33.564 494.634 33.84 493.938 34.392C493.242 34.944 492.666 35.7 492.21 36.66C491.778 37.62 491.562 38.676 491.562 39.828V46.524C491.562 47.004 491.394 47.412 491.058 47.748C490.722 48.06 490.314 48.216 489.834 48.216C489.378 48.216 488.97 48.048 488.61 47.712C488.274 47.376 488.106 46.98 488.106 46.524V36.876C488.106 35.724 487.962 34.884 487.674 34.356C487.41 33.828 486.966 33.564 486.342 33.564C485.574 33.564 484.818 33.876 484.074 34.5C483.33 35.1 482.682 35.832 482.13 36.696C481.698 37.416 481.374 38.136 481.158 38.856C480.966 39.576 480.87 40.368 480.87 41.232L480.906 46.524C480.906 46.98 480.738 47.376 480.402 47.712C480.066 48.048 479.658 48.216 479.178 48.216Z" fill="black"/>
<g clip-path="url(#clip0_10_4202)">
<g filter="url(#filter2_d_10_4202)">
<path d="M588.965 98.4103C590.674 100.119 590.674 102.881 588.965 104.59L553.965 139.59C552.256 141.299 549.494 141.299 547.785 139.59L530.281 122.09C528.573 120.381 528.573 117.619 530.281 115.91C531.99 114.201 534.76 114.201 536.469 115.91L550.752 130.307L582.785 98.4103C584.494 96.6985 587.256 96.6985 588.965 98.4103Z" fill="#78B5A3"/>
</g>
</g>
<g clip-path="url(#clip1_10_4202)">
<path d="M580.465 50.4102C582.174 52.1191 582.174 54.8877 580.465 56.5967C579.617 57.4512 578.496 57.875 577.375 57.875C576.254 57.875 575.136 57.4478 574.282 56.5933L559.875 42.1934L545.469 56.5898C544.614 57.4512 543.495 57.875 542.375 57.875C541.255 57.875 540.137 57.4512 539.282 56.5898C537.573 54.8809 537.573 52.1123 539.282 50.4033L553.692 35.9932L539.282 21.5898C537.573 19.8809 537.573 17.1123 539.282 15.4033C540.991 13.6943 543.759 13.6943 545.468 15.4033L559.875 29.8203L574.285 15.4102C575.994 13.7012 578.763 13.7012 580.472 15.4102C582.181 17.1191 582.181 19.8877 580.472 21.5967L566.062 36.0068L580.465 50.4102Z" fill="#9E9E9E"/>
</g>
<defs>
<filter id="filter0_d_10_4202" x="0" y="83" width="527.004" height="81" filterUnits="userSpaceOnUse" color-interpolation-filters="sRGB">
<feFlood flood-opacity="0" result="BackgroundImageFix"/>
<feColorMatrix in="SourceAlpha" type="matrix" values="0 0 0 0 0 0 0 0 0 0 0 0 0 0 0 0 0 0 127 0" result="hardAlpha"/>
<feOffset dy="4"/>
<feGaussianBlur stdDeviation="2"/>
<feComposite in2="hardAlpha" operator="out"/>
<feColorMatrix type="matrix" values="0 0 0 0 0 0 0 0 0 0 0 0 0 0 0 0 0 0 0.25 0"/>
<feBlend mode="normal" in2="BackgroundImageFix" result="effect1_dropShadow_10_4202"/>
<feBlend mode="normal" in="SourceGraphic" in2="effect1_dropShadow_10_4202" result="shape"/>
</filter>
<filter id="filter1_d_10_4202" x="0" y="0" width="527.004" height="81" filterUnits="userSpaceOnUse" color-interpolation-filters="sRGB">
<feFlood flood-opacity="0" result="BackgroundImageFix"/>
<feColorMatrix in="SourceAlpha" type="matrix" values="0 0 0 0 0 0 0 0 0 0 0 0 0 0 0 0 0 0 127 0" result="hardAlpha"/>
<feOffset dy="4"/>
<feGaussianBlur stdDeviation="2"/>
<feComposite in2="hardAlpha" operator="out"/>
<feColorMatrix type="matrix" values="0 0 0 0 0 0 0 0 0 0 0 0 0 0 0 0 0 0 0.25 0"/>
<feBlend mode="normal" in2="BackgroundImageFix" result="effect1_dropShadow_10_4202"/>
<feBlend mode="normal" in="SourceGraphic" in2="effect1_dropShadow_10_4202" result="shape"/>
</filter>
<filter id="filter2_d_10_4202" x="525" y="97.1265" width="69.2466" height="51.7451" filterUnits="userSpaceOnUse" color-interpolation-filters="sRGB">
<feFlood flood-opacity="0" result="BackgroundImageFix"/>
<feColorMatrix in="SourceAlpha" type="matrix" values="0 0 0 0 0 0 0 0 0 0 0 0 0 0 0 0 0 0 127 0" result="hardAlpha"/>
<feOffset dy="4"/>
<feGaussianBlur stdDeviation="2"/>
<feComposite in2="hardAlpha" operator="out"/>
<feColorMatrix type="matrix" values="0 0 0 0 0 0 0 0 0 0 0 0 0 0 0 0 0 0 0.25 0"/>
<feBlend mode="normal" in2="BackgroundImageFix" result="effect1_dropShadow_10_4202"/>
<feBlend mode="normal" in="SourceGraphic" in2="effect1_dropShadow_10_4202" result="shape"/>
</filter>
<clipPath id="clip0_10_4202">
<rect width="61.25" height="70" fill="white" transform="translate(529 84)"/>
</clipPath>
<clipPath id="clip1_10_4202">
<rect width="43.75" height="70" fill="white" transform="translate(538 1)"/>
</clipPath>
</defs>
</svg>
