<svg width="902" height="870" viewBox="0 0 902 870" fill="none" xmlns="http://www.w3.org/2000/svg">
<path d="M291.114 131.891L279.682 123.11H193.195C185.573 123.11 179.277 116.814 179.277 109.192V59.3211C179.277 51.6995 185.573 45.4035 193.195 45.4035H285.647C293.268 45.4035 299.564 51.6995 299.564 59.3211V127.749C299.399 132.057 294.594 134.542 291.114 131.891Z" stroke="#1E0400" stroke-width="1.5" stroke-miterlimit="10" stroke-linecap="round" stroke-linejoin="round"/>
<path d="M261.954 91.6296L257.48 81.6885V79.5346C257.48 71.5818 251.019 65.12 243.066 65.12C235.113 65.12 228.651 71.5818 228.651 79.5346V81.6885L224.178 91.6296C222.355 95.9374 225.337 100.742 230.142 100.742H235.113C235.113 105.05 238.592 108.695 243.066 108.695C247.539 108.695 251.018 105.216 251.018 100.742H255.989C260.628 100.742 263.776 95.9374 261.954 91.6296Z" fill="#E7816D"/>
<path d="M253.172 100.742H227.491C222.852 100.742 219.704 95.9374 221.527 91.6296L226 81.6885V79.5346C226 71.5818 232.462 65.12 240.415 65.12C248.368 65.12 254.829 71.5818 254.829 79.5346V81.6885L259.303 91.6296C261.125 95.9374 257.977 100.742 253.172 100.742Z" stroke="#1E0400" stroke-width="1.5" stroke-miterlimit="10" stroke-linecap="round" stroke-linejoin="round"/>
<path d="M232.462 100.742C232.462 105.05 235.941 108.695 240.415 108.695C244.722 108.695 248.367 105.216 248.367 100.742" stroke="#1E0400" stroke-width="1.5" stroke-miterlimit="10" stroke-linecap="round" stroke-linejoin="round"/>
<path d="M788.831 868.526H699.361C691.408 868.526 685.278 861.567 686.438 853.614L699.693 754.369C700.521 747.907 706.154 742.937 712.616 742.937H775.576C782.204 742.937 787.671 747.742 788.5 754.369L801.754 853.614C802.914 861.567 796.784 868.526 788.831 868.526Z" stroke="#1E0400" stroke-width="1.5" stroke-miterlimit="10" stroke-linecap="round" stroke-linejoin="round"/>
<path d="M686.77 859.082C688.261 864.549 693.231 868.691 699.362 868.691H788.831C794.962 868.691 799.932 864.549 801.423 859.082H686.77Z" fill="#1E0400"/>
<path d="M749.564 687.101C749.564 687.101 802.086 667.219 817.163 622.484C817.163 622.484 758.014 620.164 749.564 687.101Z" fill="#E7816D"/>
<path d="M737.966 693.894C737.966 693.894 715.93 653.798 664.899 666.39C664.899 666.39 685.609 701.681 737.966 693.894Z" fill="#E7816D"/>
<path d="M744.096 743.102C744.096 743.102 742.936 658.272 703.503 622.484" stroke="#1E0400" stroke-width="1.5" stroke-miterlimit="10" stroke-linecap="round" stroke-linejoin="round"/>
<path d="M742.439 721.895C742.439 721.895 741.942 674.509 780.381 644.851" stroke="#1E0400" stroke-width="1.5" stroke-miterlimit="10" stroke-linecap="round" stroke-linejoin="round"/>
<path d="M749.564 687.101C749.564 687.101 802.086 667.219 817.163 622.484C817.163 622.484 758.014 620.164 749.564 687.101Z" stroke="#1E0400" stroke-width="1.5" stroke-miterlimit="10" stroke-linecap="round" stroke-linejoin="round"/>
<path d="M737.966 693.894C737.966 693.894 715.93 653.798 664.899 666.39C664.899 666.39 685.609 701.681 737.966 693.894Z" stroke="#1E0400" stroke-width="1.5" stroke-miterlimit="10" stroke-linecap="round" stroke-linejoin="round"/>
<path d="M737.966 693.894C737.966 693.894 715.433 673.515 686.107 672.686" stroke="#1E0400" stroke-width="1.5" stroke-miterlimit="10" stroke-linecap="round" stroke-linejoin="round"/>
<path d="M733.658 676.663C733.658 676.663 742.274 610.555 683.621 606.909C683.787 606.909 683.952 634.082 733.658 676.663Z" stroke="#1E0400" stroke-width="1.5" stroke-miterlimit="10" stroke-linecap="round" stroke-linejoin="round"/>
<path d="M1 868.526H901" stroke="#1E0400" stroke-width="1.5" stroke-miterlimit="10" stroke-linecap="round" stroke-linejoin="round"/>
<path d="M99.5822 535.831H236.438C240.414 535.831 243.728 532.517 243.728 528.54C243.728 524.564 240.414 521.25 236.438 521.25H99.5822C95.6058 521.25 92.2921 524.564 92.2921 528.54C92.1264 532.517 95.4401 535.831 99.5822 535.831Z" stroke="#1E0400" stroke-width="1.5" stroke-miterlimit="10" stroke-linecap="round" stroke-linejoin="round"/>
<path d="M110.517 535.831V557.37C110.517 570.624 121.287 581.394 134.542 581.394H165.028C178.282 581.394 189.052 592.163 189.052 605.418V868.857" stroke="#1E0400" stroke-width="1.5" stroke-miterlimit="10" stroke-linecap="round" stroke-linejoin="round"/>
<path d="M188.886 622.484V868.526H175.632V635.573C175.632 628.448 181.596 622.484 188.886 622.484Z" fill="#1E0400"/>
<path d="M90.1384 287.303H70.0906V364.844H90.1384V287.303Z" stroke="#1E0400" stroke-width="1.5" stroke-miterlimit="10" stroke-linecap="round" stroke-linejoin="round"/>
<path d="M110.021 308.18H89.9727V364.678H110.021V308.18Z" stroke="#1E0400" stroke-width="1.5" stroke-miterlimit="10" stroke-linecap="round" stroke-linejoin="round"/>
<path d="M123.24 277.682L103.798 282.568L124.471 364.837L143.913 359.951L123.24 277.682Z" stroke="#1E0400" stroke-width="1.5" stroke-miterlimit="10" stroke-linecap="round" stroke-linejoin="round"/>
<path d="M259.8 383.235H38.7761V837.046" stroke="#1E0400" stroke-width="1.5" stroke-miterlimit="10" stroke-linecap="round" stroke-linejoin="round"/>
<path d="M168.01 383.235V497.889" stroke="#1E0400" stroke-width="1.5" stroke-miterlimit="10" stroke-linecap="round" stroke-linejoin="round"/>
<path d="M270.901 364.678H10.6096V383.235H270.901" stroke="#1E0400" stroke-width="1.5" stroke-miterlimit="10" stroke-linecap="round" stroke-linejoin="round"/>
<path d="M634.413 485.131H558.861C558.861 479.829 563.169 475.356 568.636 475.356H634.579V485.131H634.413Z" fill="#FAFAFA"/>
<path d="M634.413 485.131H558.861C558.861 479.829 563.169 475.356 568.636 475.356H634.579V485.131H634.413Z" stroke="#1E0400" stroke-width="1.5" stroke-miterlimit="10" stroke-linecap="round" stroke-linejoin="round"/>
<path d="M624.969 485.131H767.127C771.766 485.131 776.074 481.32 776.736 476.681L789.163 395.993C789.826 391.353 786.678 387.543 782.038 387.543H639.881C635.242 387.543 630.934 391.353 630.271 395.993L617.845 476.681C617.182 481.32 620.33 485.131 624.969 485.131Z" fill="#FAFAFA"/>
<path d="M714.323 443.864C719.09 439.45 719.878 432.552 716.086 428.457C712.293 424.362 705.354 424.621 700.588 429.036C695.822 433.45 695.033 440.349 698.826 444.444C702.619 448.538 709.557 448.279 714.323 443.864Z" fill="#E7816D"/>
<path d="M624.969 485.131H767.127C771.766 485.131 776.074 481.32 776.736 476.681L789.163 395.993C789.826 391.353 786.678 387.543 782.038 387.543H639.881C635.242 387.543 630.934 391.353 630.271 395.993L617.845 476.681C617.182 481.32 620.33 485.131 624.969 485.131Z" stroke="#1E0400" stroke-width="1.5" stroke-miterlimit="10" stroke-linecap="round" stroke-linejoin="round"/>
<path d="M710.322 443.801C715.088 439.387 715.877 432.488 712.084 428.393C708.291 424.299 701.353 424.558 696.587 428.972C691.821 433.387 691.032 440.285 694.825 444.38C698.618 448.475 705.556 448.216 710.322 443.801Z" stroke="#1E0400" stroke-width="1.5" stroke-miterlimit="10" stroke-linecap="round" stroke-linejoin="round"/>
<path d="M487.143 499.673L812.051 499.673L812.051 485.093L487.143 485.093L487.143 499.673Z" fill="#1E0400"/>
<path d="M482.247 499.673L807.155 499.673L807.155 485.093L482.247 485.093L482.247 499.673Z" stroke="#1E0400" stroke-width="1.5" stroke-miterlimit="10" stroke-linecap="round" stroke-linejoin="round"/>
<path d="M558.861 499.711V717.918" stroke="#1E0400" stroke-width="1.5" stroke-miterlimit="10" stroke-linecap="round" stroke-linejoin="round"/>
<path d="M793.305 499.711V606.909" stroke="#1E0400" stroke-width="1.5" stroke-miterlimit="10" stroke-linecap="round" stroke-linejoin="round"/>
<path d="M793.305 683.29V727.362" stroke="#1E0400" stroke-width="1.5" stroke-miterlimit="10" stroke-linecap="round" stroke-linejoin="round"/>
<path d="M558.861 733.99V868.526" stroke="#1E0400" stroke-width="1.5" stroke-miterlimit="10" stroke-linecap="round" stroke-linejoin="round"/>
<path d="M493.416 499.711V868.526" stroke="#1E0400" stroke-width="1.5" stroke-miterlimit="10" stroke-linecap="round" stroke-linejoin="round"/>
<path d="M843.011 141.666L858.585 292.937L825.117 334.192L703.007 346.784C699.196 347.116 695.717 344.299 695.386 340.488L676.498 158.898C676.166 155.087 678.983 151.608 682.794 151.276L835.389 135.536C839.2 135.039 842.68 137.856 843.011 141.666Z" fill="#1E0400"/>
<path d="M843.011 141.666L858.585 292.937L825.117 334.192L698.534 347.281C694.723 347.613 691.244 344.796 690.912 340.985L672.19 159.229C671.858 155.418 674.509 151.939 678.486 151.608L835.555 135.536C839.2 135.039 842.68 137.856 843.011 141.666Z" stroke="#1E0400" stroke-width="1.5" stroke-miterlimit="10" stroke-linecap="round" stroke-linejoin="round"/>
<path d="M858.585 293.102L828.099 296.25C824.289 296.582 821.472 300.061 821.803 303.872L824.951 334.358L858.585 293.102Z" fill="#FAFAFA" stroke="#1E0400" stroke-width="1.5" stroke-miterlimit="10" stroke-linecap="round" stroke-linejoin="round"/>
<path d="M673.847 176.792L844.833 159.229" stroke="#FAFAFA" stroke-width="1.5" stroke-miterlimit="10" stroke-linecap="round" stroke-linejoin="round"/>
<path d="M774.749 204.792L704.996 211.917C703.67 212.082 702.676 211.088 702.511 209.929L701.848 203.798C701.682 202.473 702.676 201.479 703.836 201.313L773.589 194.189C774.915 194.023 775.909 195.017 776.074 196.177L776.737 202.307C776.903 203.633 775.909 204.792 774.749 204.792Z" fill="#FAFAFA"/>
<path d="M704.83 232.462L823.46 220.201" stroke="#FAFAFA" stroke-width="1.5" stroke-miterlimit="10" stroke-linecap="round" stroke-linejoin="round"/>
<path d="M706.321 247.373L824.951 235.113" stroke="#FAFAFA" stroke-width="1.5" stroke-miterlimit="10" stroke-linecap="round" stroke-linejoin="round"/>
<path d="M707.812 262.119L791.814 253.504" stroke="#FAFAFA" stroke-width="1.5" stroke-miterlimit="10" stroke-linecap="round" stroke-linejoin="round"/>
<path d="M724.878 303.706L716.759 304.535C714.771 304.7 713.28 302.712 714.108 300.724L717.422 293.268L720.735 285.812C721.564 283.99 724.215 283.658 725.375 285.315L730.179 291.943L734.984 298.57C736.144 300.227 735.15 302.546 733.162 302.878L724.878 303.706Z" fill="#E7816D"/>
<path d="M754.038 278.356L762.157 277.528C764.145 277.362 765.636 279.35 764.808 281.339L761.494 288.795L758.18 296.25C757.352 298.073 754.701 298.404 753.541 296.747L748.736 290.12L743.931 283.493C742.772 281.836 743.766 279.516 745.754 279.185L754.038 278.356Z" fill="#E7816D"/>
<path d="M673.184 122.778L552.4 108.861C548.423 108.364 545.772 104.884 546.104 100.908L553.891 33.3085C554.388 29.3321 557.867 26.6811 561.844 27.0125L682.628 40.93C686.604 41.4271 689.255 44.9065 688.924 48.8829L681.137 116.482C680.64 120.459 677.16 123.275 673.184 122.778Z" fill="#E7816D"/>
<path d="M669.539 122.281L549.086 108.364C545.109 107.867 542.293 104.222 542.624 100.245L550.908 29.1664C551.405 25.19 555.05 22.3734 559.027 22.7047L679.48 36.6222C683.456 37.1193 686.273 40.7644 685.942 44.7408L677.657 115.82C677.16 119.962 673.515 122.778 669.539 122.281Z" stroke="#1E0400" stroke-width="1.5" stroke-miterlimit="10" stroke-linecap="round" stroke-linejoin="round"/>
<path d="M553.891 24.1959L608.732 67.9367C612.212 70.7533 616.851 71.2504 620.827 69.2621L684.285 39.1075" stroke="#1E0400" stroke-width="1.5" stroke-miterlimit="10" stroke-linecap="round" stroke-linejoin="round"/>
<path d="M560.849 99.2511C564.418 99.2511 567.311 96.3581 567.311 92.7894C567.311 89.2207 564.418 86.3277 560.849 86.3277C557.281 86.3277 554.388 89.2207 554.388 92.7894C554.388 96.3581 557.281 99.2511 560.849 99.2511Z" fill="#FAFAFA" stroke="#1E0400" stroke-width="1.5" stroke-miterlimit="10" stroke-linecap="round" stroke-linejoin="round"/>
<path d="M545.109 14.5862L536.991 4.3137" stroke="#1E0400" stroke-width="1.5" stroke-miterlimit="10" stroke-linecap="round" stroke-linejoin="round"/>
<path d="M564.826 11.6038L566.151 1" stroke="#1E0400" stroke-width="1.5" stroke-miterlimit="10" stroke-linecap="round" stroke-linejoin="round"/>
<path d="M538.151 33.4742L526.718 32.1488" stroke="#1E0400" stroke-width="1.5" stroke-miterlimit="10" stroke-linecap="round" stroke-linejoin="round"/>
<path d="M725.54 52.1966C725.54 52.1966 752.381 37.285 761.825 61.1436C771.269 85.1679 732.665 96.1031 738.961 78.7062C745.257 61.3093 783.861 75.5582 778.725 122.613" stroke="#1E0400" stroke-width="1.5" stroke-miterlimit="10" stroke-linecap="round" stroke-linejoin="round"/>
<path d="M605.087 429.295C597.3 434.929 585.205 430.124 580.732 421.508C576.258 412.893 578.246 402.289 582.72 393.673C587.193 385.057 593.986 377.933 599.785 370.312C605.75 362.69 610.886 353.909 611.549 344.299C611.88 338.666 610.223 332.204 605.584 329.056C600.945 325.742 592.992 327.399 591.501 333.032C589.679 339.66 598.46 345.127 605.087 343.139C611.715 341.151 615.857 335.021 619.502 329.222C632.591 308.677 644.686 287.635 665.728 277.528" stroke="#1E0400" stroke-width="1.5" stroke-miterlimit="10" stroke-linecap="round" stroke-linejoin="round"/>
<path d="M460.278 839.199C445.201 831.412 431.781 823.128 431.781 823.128L432.775 805.4L392.016 806.228C391.685 813.518 391.188 826.11 391.188 826.11L387.211 857.259C386.383 863.224 391.188 868.526 397.152 868.526H469.888C475.356 868.526 479.498 863.058 477.841 857.922C475.687 851.295 469.888 844.17 460.278 839.199Z" fill="#FAFAFA"/>
<path d="M352.914 850.963C339.494 841.519 328.227 827.602 328.227 827.602L331.21 814.512L287.138 810.039L282.167 829.59L271.894 853.117C268.746 860.407 274.048 868.691 282.167 868.691H356.394C360.039 868.691 362.69 865.378 361.696 861.898C360.867 858.75 358.548 854.94 352.914 850.963Z" fill="#FAFAFA"/>
<path d="M299.398 387.543C297.244 387.377 295.919 386.714 295.919 386.714C295.919 386.714 231.467 292.937 253.006 265.764C272.392 241.243 301.055 217.053 315.967 205.289C328.89 195.017 344.63 188.887 361.199 187.727C384.892 186.07 418.857 184.91 430.952 189.715C450.171 197.502 494.078 246.379 501.699 248.533C509.321 250.853 519.925 237.929 597.631 212.911C597.631 212.911 605.749 202.307 607.572 197.502C609.395 192.697 610.886 189.881 612.045 189.218C613.205 188.555 616.022 191.04 615.691 201.313C615.691 201.313 629.111 192.863 635.407 189.052C641.703 185.242 647.999 200.485 647.502 205.786C647.005 211.088 639.052 219.87 632.259 225.172C626.957 229.314 607.406 235.278 607.406 235.278C607.406 235.278 538.647 297.244 505.013 297.244C478.172 297.244 459.284 282.001 459.284 282.001C459.284 282.001 450.503 294.759 448.515 307.683C446.692 320.606 450.171 338.5 451.497 351.755C452.988 365.01 453.651 371.968 453.651 371.968C453.651 371.968 446.692 388.868 396.324 388.868C348.938 388.868 328.062 373.46 328.062 373.46C328.062 373.46 331.375 359.211 333.861 350.264C336.346 341.317 339.825 329.884 338.997 319.943C338.168 310.002 332.535 285.481 331.707 282.167C330.878 278.853 328.724 269.409 328.724 269.409C328.724 269.409 310.002 281.504 304.534 285.978C299.067 290.451 299.067 290.948 302.049 303.043C304.866 315.304 314.641 351.092 315.304 353.909C316.132 356.725 320.109 370.311 319.943 371.637C319.777 372.962 318.949 379.756 310.665 383.898C302.381 388.04 299.398 387.543 299.398 387.543Z" fill="#FAFAFA"/>
<path d="M426.313 188.721C411.733 185.407 382.406 186.567 361.033 188.058C345.624 189.052 331.044 194.354 318.618 203.467C318.618 188.721 331.375 173.644 339.991 162.708C361.033 135.867 355.897 108.861 355.897 108.861C355.897 108.861 396.655 95.7717 420.182 108.861C442.053 120.956 429.129 146.306 426.313 188.721Z" fill="#1E0400"/>
<path d="M432.277 814.015C432.277 814.015 415.212 820.311 391.519 818.323L392.016 806.725C392.016 806.725 412.23 810.039 432.277 806.063V814.015Z" fill="#1E0400"/>
<path d="M286.144 813.353C286.144 813.353 303.706 824.619 328.228 827.602L331.541 814.513C331.541 814.513 298.901 813.518 286.972 810.37L286.144 813.353Z" fill="#1E0400"/>
<path d="M470.054 868.526H397.318C391.188 868.526 386.549 863.224 387.377 857.259L390.691 831.744H407.59C410.738 831.744 413.721 833.235 415.543 835.886L418.36 839.697C421.011 843.507 425.319 845.661 429.792 845.661H469.888C474.03 849.472 476.847 853.78 478.172 857.922C479.663 863.224 475.521 868.526 470.054 868.526Z" fill="#1E0400"/>
<path d="M356.228 868.526H282.001C274.048 868.526 268.581 860.242 271.729 852.951L281.007 831.578H288.463C290.451 831.578 292.108 832.407 293.433 833.566C294.759 834.892 295.422 836.549 295.422 838.537C295.422 842.348 298.57 845.496 302.38 845.496H345.956C348.109 847.318 350.429 849.141 352.749 850.797C358.382 854.774 360.701 858.585 361.53 861.567C362.524 865.212 359.873 868.526 356.228 868.526Z" fill="#1E0400"/>
<path d="M461.77 272.557C461.77 272.557 472.042 290.286 491.427 296.416C491.427 296.416 467.569 291.28 458.29 282.001C458.29 282.001 460.941 275.208 461.77 272.557Z" fill="#1E0400"/>
<path d="M464.752 511.309C458.456 581.725 455.97 608.069 455.97 608.069L454.148 799.932C454.148 799.932 419.685 817.661 371.14 800.761L369.649 808.879C321.931 826.773 253.503 796.95 253.503 796.95L305.528 620.164C305.528 620.164 305.86 567.642 305.528 489.605C305.363 453.651 311.825 424.325 318.452 404.94C318.452 404.94 326.073 381.081 334.358 372.134C337.506 375.116 343.967 378.596 347.281 379.921C361.199 385.554 382.738 391.353 416.206 388.537C448.68 385.886 454.148 372.3 454.148 372.3C454.148 372.3 471.048 440.893 464.752 511.309Z" fill="#E7816D"/>
<path d="M378.596 803.743L398.312 626.46L367.826 792.808L366.335 800.926C366.335 800.926 376.607 804.074 378.596 803.743Z" fill="#1E0400"/>
<path d="M402.785 181.099H374.122C358.216 181.099 346.95 165.691 351.754 150.613C351.754 150.448 351.92 150.282 351.92 150.116C358.548 130.4 358.548 113.666 358.548 113.666L402.62 119.133V181.099H402.785Z" fill="#1E0400"/>
<path d="M341.648 205.455C359.045 217.716 359.045 241.243 350.263 253.172C342.476 263.942 300.889 283.99 299.895 292.108C299.067 300.227 319.612 370.477 319.612 370.477C319.612 370.477 319.943 371.637 319.446 373.459" stroke="#1E0400" stroke-width="1.5" stroke-miterlimit="10" stroke-linecap="round" stroke-linejoin="round"/>
<path d="M299.398 387.543C297.244 387.377 295.919 386.714 295.919 386.714C295.919 386.714 231.467 292.937 253.006 265.764C272.392 241.243 301.055 217.053 315.967 205.289C328.89 195.017 344.63 188.887 361.199 187.727C384.892 186.07 418.857 184.91 430.952 189.715C450.171 197.502 494.078 246.379 501.699 248.533C509.321 250.853 519.925 237.929 597.631 212.911C597.631 212.911 605.749 202.307 607.572 197.502C609.395 192.697 610.886 189.881 612.045 189.218C613.205 188.555 616.022 191.04 615.691 201.313C615.691 201.313 629.111 192.863 635.407 189.052C641.703 185.242 647.999 200.485 647.502 205.786C647.005 211.088 639.052 219.87 632.259 225.172C626.957 229.314 607.406 235.278 607.406 235.278C607.406 235.278 538.647 297.244 505.013 297.244C478.172 297.244 459.284 282.001 459.284 282.001" stroke="#1E0400" stroke-width="1.5" stroke-miterlimit="10" stroke-linecap="round" stroke-linejoin="round"/>
<path d="M438.408 207.94L444.372 223.846C449.343 228.485 464.752 239.255 464.752 255.989C464.752 267.918 458.953 281.67 453.816 291.446C449.012 300.724 447.023 311.162 448.183 321.6L453.651 372.3C453.651 372.3 448.018 385.886 413.886 388.537C378.761 391.353 356.062 385.554 341.482 379.921C338.168 378.596 331.21 375.116 327.896 372.134L336.18 341.814C339.494 329.884 339.66 317.292 336.843 305.363L328.559 270.238" stroke="#1E0400" stroke-width="1.5" stroke-miterlimit="10" stroke-linecap="round" stroke-linejoin="round"/>
<path d="M453.651 372.3C453.651 372.3 471.379 440.893 464.752 511.309C458.124 581.725 455.639 608.069 455.639 608.069L453.651 799.767C453.651 799.767 417.531 817.495 366.5 800.429" stroke="#1E0400" stroke-width="1.5" stroke-miterlimit="10" stroke-linecap="round" stroke-linejoin="round"/>
<path d="M327.896 372.134C319.281 380.915 311.328 404.94 311.328 404.94C304.369 424.49 297.576 453.651 297.742 489.605C298.073 567.642 297.742 620.164 297.742 620.164L243.231 796.95C243.231 796.95 314.973 826.773 365.01 808.879L399.803 618.673C400.963 612.543 401.626 606.247 401.792 600.116L406.762 472.042C406.762 472.042 414.052 463.095 417.532 454.645C421.011 446.361 417.532 418.194 417.532 418.194" stroke="#1E0400" stroke-width="1.5" stroke-miterlimit="10" stroke-linecap="round" stroke-linejoin="round"/>
<path d="M392.016 806.228C391.685 813.518 391.188 826.11 391.188 826.11L387.211 857.259C386.383 863.224 391.188 868.526 397.152 868.526H469.888C475.356 868.526 479.498 863.058 477.841 857.922C475.687 851.295 469.722 844.17 460.278 839.365C445.201 831.578 431.781 823.294 431.781 823.294L432.775 805.565" stroke="#1E0400" stroke-width="1.5" stroke-miterlimit="10" stroke-linecap="round" stroke-linejoin="round"/>
<path d="M300.227 295.422C300.227 295.422 296.913 282.996 290.286 278.853" stroke="#1E0400" stroke-width="1.5" stroke-miterlimit="10" stroke-linecap="round" stroke-linejoin="round"/>
<path d="M299.398 456.302C299.398 456.302 318.286 466.077 333.032 445.864C345.459 428.964 346.453 412.23 346.453 412.23" stroke="#1E0400" stroke-width="1.5" stroke-miterlimit="10" stroke-linecap="round" stroke-linejoin="round"/>
<path d="M360.868 122.281C371.482 122.281 380.087 113.676 380.087 103.062C380.087 92.4473 371.482 83.8424 360.868 83.8424C350.253 83.8424 341.648 92.4473 341.648 103.062C341.648 113.676 350.253 122.281 360.868 122.281Z" fill="#1E0400"/>
<path d="M415.709 171.987L414.384 191.869C414.384 191.869 424.325 204.461 418.526 214.071C413.224 222.852 388.868 219.704 381.247 201.313C379.921 198.165 379.755 194.52 380.418 191.041L384.726 170.33C384.892 170.496 401.626 164.2 415.709 171.987Z" fill="#FAFAFA" stroke="#1E0400" stroke-width="1.5" stroke-miterlimit="10" stroke-linecap="round" stroke-linejoin="round"/>
<path d="M345.293 398.644C344.464 404.774 337.671 421.508 327.896 412.561C318.12 403.614 317.789 407.259 309.505 404.277C301.718 401.626 299.729 389.2 299.564 387.543C302.546 387.874 307.02 387.377 311.824 383.732C317.292 379.59 319.115 375.945 319.612 373.46C319.612 373.46 324.748 373.294 329.056 372.797C333.198 372.134 344.464 372.3 342.476 376.773C340.654 381.081 330.381 379.093 332.369 380.915C334.358 382.904 346.121 392.679 345.293 398.644Z" fill="#FAFAFA" stroke="#1E0400" stroke-width="1.5" stroke-miterlimit="10" stroke-linecap="round" stroke-linejoin="round"/>
<path d="M299.398 387.543C299.398 387.377 299.398 387.377 299.398 387.377" stroke="#1E0400" stroke-width="1.5" stroke-miterlimit="10" stroke-linecap="round" stroke-linejoin="round"/>
<path d="M585.867 216.887C585.867 216.887 600.282 219.87 600.613 241.409" stroke="#1E0400" stroke-width="1.5" stroke-miterlimit="10" stroke-linecap="round" stroke-linejoin="round"/>
<path d="M331.044 814.513L328.062 827.602C328.062 827.602 339.328 841.519 352.749 850.963C358.382 854.94 360.701 858.75 361.53 861.733C362.358 865.212 359.707 868.526 356.228 868.526H282.001C274.048 868.526 268.581 860.242 271.729 852.951L282.001 829.424L286.972 809.873" stroke="#1E0400" stroke-width="1.5" stroke-miterlimit="10" stroke-linecap="round" stroke-linejoin="round"/>
<path d="M345.956 845.661H302.381C298.57 845.661 295.422 842.513 295.422 838.702C295.422 834.892 292.274 831.744 288.463 831.744H281.007" stroke="#1E0400" stroke-width="1.5" stroke-miterlimit="10" stroke-linecap="round" stroke-linejoin="round"/>
<path d="M469.557 845.661H429.461C424.822 845.661 420.68 843.507 418.029 839.697L415.212 835.886C413.39 833.235 410.407 831.744 407.259 831.744H390.359" stroke="#1E0400" stroke-width="1.5" stroke-miterlimit="10" stroke-linecap="round" stroke-linejoin="round"/>
<path d="M246.876 784.689C246.876 784.689 317.789 810.867 367.163 796.95" stroke="#1E0400" stroke-width="1.5" stroke-miterlimit="10" stroke-linecap="round" stroke-linejoin="round"/>
<path d="M368.655 788.5C368.655 788.5 408.088 803.08 453.651 788.5" stroke="#1E0400" stroke-width="1.5" stroke-miterlimit="10" stroke-linecap="round" stroke-linejoin="round"/>
<path d="M406.762 471.876C406.762 471.876 405.768 460.278 398.478 455.805" stroke="#1E0400" stroke-width="1.5" stroke-miterlimit="10" stroke-linecap="round" stroke-linejoin="round"/>
<path d="M436.42 126.92V147.631C436.42 166.188 421.342 181.099 402.951 181.099C388.702 181.099 376.607 172.152 371.803 159.726C366.335 159.063 362.193 154.59 362.193 148.957C362.193 144.152 365.341 140.175 369.483 138.684V126.92C369.483 112.672 380.915 101.239 395.164 101.239H410.739C424.822 101.239 436.42 112.672 436.42 126.92Z" fill="#FAFAFA"/>
<path d="M384.395 175.632C378.596 171.821 374.122 166.353 371.637 159.726C366.169 159.063 362.027 154.59 362.027 148.957C362.027 144.152 365.175 140.175 369.317 138.684V126.92C369.317 112.672 380.749 101.239 394.998 101.239H410.573C424.822 101.239 436.254 112.672 436.254 126.92V147.631C436.254 166.188 421.177 181.099 402.786 181.099C402.786 181.099 400.963 181.596 395.164 180.271C389.365 178.945 385.389 176.295 385.389 176.295L384.395 175.632Z" fill="#FAFAFA"/>
<path d="M384.395 175.632C378.596 171.821 374.122 166.353 371.637 159.726C366.169 159.063 362.027 154.59 362.027 148.957C362.027 144.152 365.175 140.175 369.317 138.684V126.92C369.317 112.672 380.749 101.239 394.998 101.239H410.573C424.822 101.239 436.254 112.672 436.254 126.92V147.631C436.254 166.188 421.177 181.099 402.786 181.099" stroke="#1E0400" stroke-width="1.5" stroke-miterlimit="10" stroke-linecap="round" stroke-linejoin="round"/>
<path d="M430.455 138.187H383.235C369.649 138.187 358.713 127.252 358.713 113.666C358.713 100.08 369.649 89.1443 383.235 89.1443H410.904C429.792 89.1443 445.201 104.553 445.201 123.441C445.201 131.56 438.573 138.187 430.455 138.187Z" fill="#1E0400"/>
<path d="M370.146 150.779V129.571H391.353C391.353 141.169 381.909 150.779 370.146 150.779Z" fill="#1E0400"/>
<path d="M501.534 248.864C500.871 249.03 499.049 252.178 500.871 258.143" stroke="#1E0400" stroke-width="1.5" stroke-miterlimit="10" stroke-linecap="round" stroke-linejoin="round"/>
<path d="M331.044 414.715C331.044 414.715 317.458 412.892 306.523 419.52L311.162 404.774C311.162 404.774 317.292 406.431 318.784 406.265C320.275 406.265 328.228 412.561 331.044 414.715Z" fill="#1E0400"/>
<path d="M417.531 454.645C417.531 454.645 412.395 470.551 412.395 474.196C412.395 477.841 402.454 581.228 402.454 581.228L406.928 471.545C407.093 471.545 414.218 462.929 417.531 454.645Z" fill="#1E0400"/>
<path d="M270.901 806.062L321.269 628.448C322.097 625.632 322.097 622.649 321.103 619.998C320.606 618.839 320.44 617.182 321.435 615.194C322.429 613.205 322.926 610.886 322.76 608.732C322.097 586.364 319.446 483.806 325.411 453.651" stroke="#1E0400" stroke-width="1.5" stroke-miterlimit="10" stroke-linecap="round" stroke-linejoin="round"/>
<path d="M368.654 165.028C365.838 165.028 363.684 162.708 363.684 160.057C363.684 157.241 366.003 155.087 368.654 155.087C371.471 155.087 373.625 157.406 373.625 160.057C373.625 162.708 371.471 165.028 368.654 165.028Z" fill="#E7816D"/>
<path d="M403.283 181.099C403.283 181.099 407.756 186.401 414.715 187.064L415.212 178.614C415.378 178.78 410.407 180.768 403.283 181.099Z" fill="#1E0400"/>
<path d="M352.915 248.864C352.915 248.864 339.825 278.688 335.683 300.392C335.683 300.392 327.73 270.569 329.222 269.575C330.547 268.581 350.595 255.989 352.915 248.864Z" fill="#1E0400"/>
<path d="M409.413 218.876L402.454 226.994C397.318 232.959 388.04 232.959 382.903 226.994C378.596 222.024 374.288 215.396 372.631 207.94C368.655 190.709 378.43 187.064 378.43 187.064" stroke="#1E0400" stroke-width="1.5" stroke-miterlimit="10" stroke-linecap="round" stroke-linejoin="round"/>
<path d="M409.413 218.876L419.851 226.828C424.159 230.142 430.455 227.326 430.952 221.858C431.449 216.722 430.952 210.26 428.301 203.467C422.833 189.715 414.715 187.064 414.715 187.064" stroke="#1E0400" stroke-width="1.5" stroke-miterlimit="10" stroke-linecap="round" stroke-linejoin="round"/>
<path d="M412.229 230.805C413.327 230.805 414.218 229.915 414.218 228.817C414.218 227.719 413.327 226.828 412.229 226.828C411.131 226.828 410.241 227.719 410.241 228.817C410.241 229.915 411.131 230.805 412.229 230.805Z" fill="#1E0400"/>
<path d="M407.922 220.367C406.431 222.189 405.768 224.509 406.099 226.828L407.922 240.083" stroke="#1E0400" stroke-width="1.5" stroke-miterlimit="10" stroke-linecap="round" stroke-linejoin="round"/>
<path d="M422.005 133.382L423.828 146.471C424.325 149.951 421.674 153.099 418.029 153.099" stroke="#1E0400" stroke-width="1.5" stroke-miterlimit="10" stroke-linecap="round" stroke-linejoin="round"/>
<path d="M290.286 378.264C290.286 378.264 310.996 382.241 316.961 361.033" stroke="#1E0400" stroke-width="1.5" stroke-miterlimit="10" stroke-linecap="round" stroke-linejoin="round"/>
<path d="M576.258 220.201C576.258 220.201 593.158 223.846 591.666 248.699" stroke="#1E0400" stroke-width="1.5" stroke-miterlimit="10" stroke-linecap="round" stroke-linejoin="round"/>
<path d="M407.756 143.158C406.596 143.158 405.602 142.163 405.602 141.004V138.518C405.602 137.359 406.596 136.365 407.756 136.365C408.916 136.365 409.91 137.359 409.91 138.518V141.004C409.91 142.163 408.916 143.158 407.756 143.158Z" fill="#1E0400"/>
<path d="M429.461 143.158C428.301 143.158 427.307 142.163 427.307 141.004V138.518C427.307 137.359 428.301 136.365 429.461 136.365C430.621 136.365 431.615 137.359 431.615 138.518V141.004C431.615 142.163 430.621 143.158 429.461 143.158Z" fill="#1E0400"/>
<path d="M398.644 159.063C398.644 159.063 401.129 164.697 409.413 163.537" stroke="#1E0400" stroke-width="1.5" stroke-miterlimit="10" stroke-linecap="round" stroke-linejoin="round"/>
</svg>
