<svg width="96" height="178" viewBox="0 0 96 178" fill="none" xmlns="http://www.w3.org/2000/svg">
<g clip-path="url(#clip0_9_303)">
<path d="M93.5545 22.2976C92.7234 17.0548 92.1787 11.644 90.07 6.72564C88.4075 3.33899 84.9814 1.13783 81.3322 0.442799C77.2672 -0.319968 73.0931 0.0539261 69.0053 0.441595C63.1286 1.04009 57.2829 1.89903 51.4359 2.73217C43.0973 4.07052 28.5466 4.71903 17.7059 6.07696C16.4099 6.23397 15.1118 6.38108 13.8212 6.57656C14.8568 6.61851 15.891 6.68707 16.9252 6.75346C25.8379 7.25502 34.7309 8.16455 43.6634 8.25698C51.459 8.39579 59.2303 7.64031 66.9995 7.11012C76.6087 6.30394 82.1045 6.24145 83.8314 9.13289C84.7233 10.1622 86.1841 16.9763 86.7249 21.0149C88.0796 29.584 88.8051 38.2407 88.8956 46.9158C89.2128 71.0848 88.4568 95.2482 87.0715 119.373C85.9198 129.716 85.4387 140.104 85.2825 150.505C85.1619 158.604 83.6771 166.455 80.555 169.99C80.0117 170.543 80.0726 170.57 78.9294 171.126C78.7135 171.189 78.3581 171.293 78.0325 171.365C76.9485 171.41 75.8627 171.387 74.7818 171.294C56.9181 169.745 36.1396 171.144 21.233 168.291C17.1467 167.513 12.9249 167.219 11.1232 166.849C8.40609 166.239 8.5634 166.422 7.3126 165.631C7.22355 165.542 7.1148 165.432 7.00435 165.314C6.98083 165.276 6.95335 165.241 6.93114 165.202C6.88045 165.016 6.80029 164.727 6.73567 164.434C6.74597 164.631 6.73506 164.7 6.71345 164.33C6.67432 164.155 6.64924 163.976 6.63844 163.796C6.66603 163.874 6.68542 163.955 6.6963 164.037C6.60084 162.578 6.59214 161.115 6.67024 159.654C7.36178 148.363 7.68315 137.055 8.25019 125.757C9.3772 101.24 10.7882 76.7254 10.8431 52.1751C10.4036 36.0188 8.77805 19.9099 7.97212 3.76808C5.83996 19.2162 5.08655 34.8025 4.71872 50.379C4.07636 59.8635 4.02062 69.3703 3.72983 78.8688C3.33101 90.8548 2.67167 102.829 2.15855 114.81C1.54849 126.738 1.05546 138.671 0.558388 150.605C0.380077 154.303 0.0568741 157.996 3.05176e-05 161.699C0.00386497 164.587 0.155219 167.792 2.29788 169.968C4.17035 171.998 6.95234 172.841 9.6055 173.271C14.0322 173.84 14.1742 173.902 17.6811 174.382C24.4929 175.517 31.3492 176.489 38.2614 176.68C49.208 176.932 60.1635 176.995 71.0972 177.649C74.9695 177.857 79.1405 178.708 82.6782 176.647C93.443 169.647 91.5644 150.179 92.2032 138.822C92.3871 131.748 93.254 124.718 93.8216 117.67C94.2954 107.326 94.7468 96.9806 95.1758 86.6337C95.5988 76.6676 95.5103 66.6892 95.5456 56.7165C95.682 45.2094 95.314 33.6864 93.5545 22.2976Z" fill="black"/>
<path d="M6.71341 164.33C6.72048 164.365 6.72806 164.399 6.73563 164.434C6.72988 164.323 6.71746 164.173 6.69626 164.037C6.7005 164.091 6.7015 164.146 6.70615 164.2C6.70867 164.25 6.71099 164.291 6.71341 164.33Z" fill="black"/>
<path d="M50.5561 16.8375C43.6557 15.4123 36.6034 15.8524 29.6093 15.5771C36.2518 18.0594 43.4304 17.9618 50.3805 17.1627C51.2863 17.0324 51.9604 17.0668 50.5561 16.8375Z" fill="black"/>
<path d="M59.8323 12.2686C55.4713 12.3766 55.4827 18.7657 59.8325 18.8856C64.1936 18.7776 64.1822 12.3885 59.8323 12.2686Z" fill="black"/>
<path d="M31.8689 105.84C27.8428 104.246 23.5599 106.38 19.6662 107.475C22.2643 107.371 26.5778 106.904 28.3048 107.144C31.6226 107.412 33.1963 109.396 32.0051 112.221C30.5712 115.281 26.6652 115.764 24.0354 114.226C22.9242 113.553 21.8181 112.457 21.9002 111.061C22.078 110.166 21.6909 111.211 21.6792 111.56C21.7089 116.087 27.7951 118.117 31.3731 116.179C35.4333 114.241 36.4638 107.794 31.8689 105.84Z" fill="black"/>
<path d="M57.9107 108.877C55.5753 105.698 49.7427 107.22 46.3382 107.475C48.7745 107.799 50.2695 107.967 52.2283 108.277C54.0029 108.635 56.7299 109.065 56.2317 111.283C55.8194 112.718 55.4455 113.988 53.7419 114.974C52.2269 115.597 50.1195 115.388 48.963 114.165C48.5623 113.528 48.375 112.779 48.4283 112.028C48.3253 112.354 48.253 112.689 48.2124 113.028C47.9075 116.951 54.2867 118.184 56.5188 115.494C58.075 113.782 59.1814 111.04 57.9107 108.877Z" fill="black"/>
<path d="M74.3109 109.458C70.9497 107.684 67.0217 109.1 63.5569 109.838C67.4052 110.06 75.1823 109.078 74.4241 114.648C74.1989 115.559 73.8071 116.42 73.2684 117.189C72.4677 118.01 71.4278 118.869 70.2175 118.847C68.6995 118.752 67.5118 117.671 66.4782 116.694C68.1499 120.075 71.0911 121.303 74.2648 118.888C77.1935 116.599 77.933 111.463 74.3109 109.458Z" fill="black"/>
<path d="M35.1321 128.578C32.2712 126.549 28.5054 128.123 25.4058 128.745C27.6457 128.938 30.3323 129.002 31.5457 129.263C32.2099 129.353 32.8484 129.579 33.4206 129.928C34.0625 130.529 34.4719 131.337 34.5768 132.21C34.6973 133.407 34.8383 135.275 34.1156 136.482C33.2853 137.148 32.242 137.491 31.1786 137.447C30.017 137.153 28.924 136.635 27.9607 135.922C28.8363 137.005 29.8418 138.172 31.2118 138.601C32.705 138.955 34.5109 138.722 35.6719 137.661C37.6161 135.131 37.623 130.759 35.1321 128.578Z" fill="black"/>
<path d="M56.7764 125.841C53.0018 124.386 48.9596 125.842 45.3254 127.057C48.7939 126.894 52.5561 126.318 55.7618 127.899C57.3751 128.721 58.1118 129.989 57.3374 131.505C57.0122 132.379 55.7029 133.467 55.3299 133.703C54.3237 134.546 53.0392 134.982 51.7282 134.927C51.1795 134.945 50.6328 134.85 50.1226 134.647C49.6123 134.444 49.1494 134.138 48.7628 133.748C48.2879 133.27 47.8663 132.741 47.5052 132.172C47.6012 132.515 47.7215 132.851 47.8651 133.177C49.3015 137.113 54.3363 137.281 57.3233 135.017C61.1683 132.564 61.3275 127.572 56.7764 125.841Z" fill="black"/>
<path d="M72.9646 126.341C70.1981 125.259 67.2645 126.704 64.5698 127.394C67.211 127.489 70.2374 126.659 72.5529 128.28C74.8387 130.146 75.2513 133.525 73.9209 136.138C72.6797 138.729 70.3385 138.246 68.6382 136.708C68.1581 136.332 67.7007 135.927 67.2684 135.497C67.4616 135.848 67.6661 136.194 67.891 136.526C69.767 139.716 73.2672 140.54 75.5561 137.265C78.123 133.81 77.1735 128.003 72.9646 126.341Z" fill="black"/>
<path d="M24.3929 147.314C26.3177 147.319 28.2437 147.171 30.1675 147.267C31.0204 147.373 32.2262 147.329 33.248 148.183C33.8945 148.796 34.3593 149.575 34.5912 150.435C34.823 151.294 34.8129 152.202 34.5619 153.056C33.8539 154.644 31.5636 155.021 29.9937 154.924C29.4483 154.892 28.904 154.846 28.3608 154.787C29.008 155.079 29.6702 155.336 30.3445 155.557C32.0816 156.071 34.2291 155.833 35.5881 154.56C36.4721 153.613 36.7225 152.206 36.7409 150.95C35.7814 143.698 29.3431 145.75 24.3929 147.314Z" fill="black"/>
<path d="M53.3444 144.231C50.6837 143.258 47.8796 144.517 45.3254 145.288C47.7548 145.297 50.3572 144.657 52.6655 145.649C53.1898 145.936 53.638 146.343 53.9728 146.838C54.3077 147.333 54.5194 147.901 54.5905 148.494C54.5583 149.611 54.113 150.676 53.3409 151.483C52.6856 151.974 51.9417 152.333 51.15 152.542C52.4323 152.595 53.832 152.418 54.7155 151.386C55.2344 150.883 55.62 150.259 55.8376 149.569C56.0552 148.88 56.0979 148.148 55.9619 147.438C55.8259 146.728 55.5154 146.064 55.0585 145.504C54.6016 144.944 54.0125 144.506 53.3444 144.231Z" fill="black"/>
<path d="M73.2676 145.917C70.5093 143.449 66.6118 144.093 63.2193 144.275C65.4496 144.85 67.8492 145.056 69.9169 146.115C72.1512 147.404 72.8906 149.467 72.1786 151.601C71.5636 154.007 69.4734 156.309 66.4132 156.089C64.8015 155.838 63.324 155.043 62.2255 153.838C62.0893 153.67 61.9643 153.493 61.8446 153.314C61.8862 153.463 61.9286 153.611 61.9787 153.757C63.4478 157.7 68.5833 159.535 72.0285 156.921C75.5291 154.578 76.6571 148.83 73.2676 145.917Z" fill="black"/>
<path d="M77.105 41.7337C73.4688 38.8271 68.4807 38.6487 64.0284 38.2004C64.1816 38.2208 64.3833 38.2476 64.5683 38.2722C59.5476 37.8263 54.5095 37.6114 49.4719 37.425C44.2455 37.3739 38.936 37.0729 33.7577 37.8796C28.3748 39.3215 25.4532 43.7773 24.5913 49.069C23.6154 53.9026 23.5833 58.8383 23.4712 63.7485C23.364 67.345 23.1828 70.9432 23.2376 74.5418C23.2523 75.4457 23.3165 76.3482 23.43 77.2451C23.4127 77.0998 23.385 76.8699 23.341 76.5157C23.3468 76.8139 23.3774 77.1112 23.4322 77.4044C23.529 78.4373 23.777 79.4503 24.1684 80.411C24.0561 82.0319 23.7339 83.6759 24.0696 85.2732C24.8611 88.1021 27.8803 88.212 30.3023 87.7341C31.9582 87.5348 33.6147 87.341 35.2718 87.1525C39.7114 86.5904 44.2001 86.2886 48.6519 86.8504C54.5952 87.7363 60.4064 89.3259 66.2718 90.6067C69.9962 91.6792 73.0275 89.6167 74.7288 86.3582C77.2318 82.2207 77.5827 77.2972 78.2869 72.6203C79.2056 66.2557 79.4806 59.8269 79.6656 53.4056C79.6928 49.4255 80.6282 44.5653 77.105 41.7337ZM71.2312 56.3535C71.1587 62.9828 70.6191 69.5987 69.6166 76.1522C69.3829 78.0563 68.7196 81.1327 67.6874 82.7764C63.1241 81.7589 58.5888 80.601 53.9951 79.7186C50.6025 79.0357 47.1548 78.6621 43.6947 78.6026C40.5187 78.7554 37.3591 79.1523 34.244 79.7897C35.9675 77.3409 37.1023 74.1678 37.7375 71.7643C38.9194 66.424 39.2745 60.9265 39.656 55.4806C39.6997 53.3552 40.0111 51.1889 39.6177 49.0853C39.4456 48.4387 39.0786 47.8609 38.5664 47.4303C38.0543 46.9998 37.422 46.7374 36.7555 46.679C38.1908 46.5829 39.6339 46.5867 41.0709 46.5353C44.7659 46.4308 48.4627 46.4938 52.1558 46.6353C59.658 46.9794 68.2506 46.8158 71.3252 48.1167C71.3974 50.8595 71.2628 53.6103 71.2312 56.3535V56.3535Z" fill="#E7816D"/>
</g>
<defs>
<clipPath id="clip0_9_303">
<rect width="95.5714" height="178" fill="white"/>
</clipPath>
</defs>
</svg>
