<svg width="900" height="642" viewBox="0 0 900 642" fill="none" xmlns="http://www.w3.org/2000/svg">
<path d="M59.6514 641.468H840.304C840.7 641.468 841.079 641.311 841.359 641.031C841.639 640.752 841.796 640.372 841.796 639.977C841.796 639.581 841.639 639.201 841.359 638.922C841.079 638.642 840.7 638.485 840.304 638.485H59.6514C59.2558 638.485 58.8764 638.642 58.5966 638.922C58.3168 639.201 58.1597 639.581 58.1597 639.977C58.1597 640.372 58.3168 640.752 58.5966 641.031C58.8764 641.311 59.2558 641.468 59.6514 641.468V641.468Z" fill="#CCCCCC"/>
<path d="M209.637 280.07C163.982 235.126 144.699 188.237 155.34 148.044C168.995 96.4634 229.658 60.8 321.776 50.198L322.116 53.1567C231.281 63.6104 171.543 98.4734 158.218 148.805C147.863 187.922 166.866 233.786 211.726 277.949L209.637 280.07Z" fill="#F0F0F0"/>
<path d="M650.136 439.61C593.155 439.61 531.235 431.142 469.731 414.86C393.673 394.724 323.936 364.332 268.06 326.967L269.714 324.493C325.322 361.676 394.75 391.93 470.493 411.981C538.941 430.102 607.902 438.499 669.896 436.283L670.003 439.258C663.456 439.493 656.834 439.611 650.136 439.61Z" fill="#F0F0F0"/>
<path d="M780.857 420.885L779.903 418.064C830.864 400.833 862.739 373.077 872.08 337.793C883.955 292.939 858.158 240.888 799.441 191.23C740.424 141.318 655.322 99.9048 559.806 74.6189L560.568 71.7401C656.501 97.1373 742.018 138.765 801.363 188.956C861.007 239.399 887.145 292.528 874.959 338.555C865.35 374.851 832.81 403.32 780.857 420.885Z" fill="#F0F0F0"/>
<path d="M312.91 440.854C200.946 391.197 114.67 326.773 69.9746 259.448L72.455 257.801C116.841 324.659 202.665 388.702 314.117 438.132L312.91 440.854Z" fill="#F0F0F0"/>
<path d="M706.567 526.882C695.018 526.882 683.272 526.624 671.329 526.108L671.457 523.133C760.584 526.992 839.223 516.326 898.886 492.282L900 495.045C847.954 516.016 781.617 526.882 706.567 526.882Z" fill="#F0F0F0"/>
<path d="M641.604 52.8682C623.098 46.8431 604.064 41.2331 585.029 36.1938C475.491 7.19522 367.814 -3.10078 273.634 6.42467L273.334 3.46156C367.865 -6.0951 475.911 4.22556 585.791 33.315C604.879 38.3689 623.968 43.9948 642.526 50.0374L641.604 52.8682Z" fill="#F0F0F0"/>
<path d="M139.663 284.537C94.0071 239.592 74.7243 192.704 85.3649 152.51C99.0202 100.93 159.684 65.2666 251.801 54.6646L252.141 57.6233C161.306 68.077 101.568 102.94 88.2437 153.272C77.8881 192.388 96.891 238.253 141.752 282.416L139.663 284.537Z" fill="#F0F0F0"/>
<path d="M580.161 444.076C523.18 444.076 461.26 435.608 399.756 419.326C323.698 399.191 253.962 368.798 198.085 331.434L199.74 328.959C255.347 366.143 324.775 396.396 400.518 416.447C468.966 434.569 537.927 442.965 599.921 440.75L600.029 443.724C593.482 443.96 586.859 444.077 580.161 444.076Z" fill="#F0F0F0"/>
<path d="M710.882 425.351L709.928 422.53C760.89 405.3 792.764 377.544 802.106 342.26C813.98 297.406 788.183 245.355 729.466 195.696C670.45 145.785 585.347 104.371 489.832 79.0854L490.593 76.2067C586.526 101.604 672.043 143.232 731.388 193.423C791.033 243.865 817.17 296.994 804.985 343.022C795.376 379.317 762.835 407.786 710.882 425.351Z" fill="#F0F0F0"/>
<path d="M242.936 445.321C130.972 395.663 44.6951 331.239 0 263.914L2.48043 262.267C46.8666 329.126 132.69 393.168 244.143 442.599L242.936 445.321Z" fill="#F0F0F0"/>
<path d="M636.592 531.348C625.044 531.348 613.298 531.09 601.355 530.575L601.483 527.6C690.61 531.459 769.249 520.793 828.912 496.749L830.026 499.511C777.979 520.483 711.643 531.348 636.592 531.348Z" fill="#F0F0F0"/>
<path d="M571.629 57.3346C553.124 51.3095 534.089 45.6996 515.054 40.6602C405.516 11.6617 297.839 1.3657 203.659 10.8911L203.36 7.92799C297.891 -1.62867 405.936 8.69197 515.816 37.7815C534.905 42.8353 553.993 48.4613 572.551 54.5038L571.629 57.3346Z" fill="#F0F0F0"/>
<path d="M50.7524 204.783C72.1501 180.792 106.283 166.17 137.215 174.923C108.679 195.117 88.2057 224.754 79.4174 258.59C76.0754 271.652 73.7183 286.528 62.8557 294.514C56.0967 299.483 47.141 300.67 38.829 299.538C30.5165 298.406 22.6568 295.174 14.9032 291.971L12.8169 292.151C18.8153 260.569 29.3546 228.774 50.7524 204.783Z" fill="#F2F2F2"/>
<path d="M137.121 175.591C111.259 181.852 88.0283 196.103 70.7275 216.32C66.9258 220.606 63.8234 225.464 61.5346 230.716C59.4703 235.904 58.833 241.551 59.6889 247.069C60.3836 252.23 61.6918 257.428 61.1199 262.668C60.7874 265.346 59.8925 267.923 58.494 270.231C57.0955 272.538 55.225 274.524 53.0051 276.059C47.5732 280.025 41.0401 281.803 34.5909 283.32C27.4302 285.004 19.9659 286.64 14.1288 291.399C13.4215 291.975 12.5682 290.844 13.2744 290.269C23.4299 281.989 37.5438 283.052 48.78 277.038C54.023 274.232 58.452 269.829 59.5289 263.787C60.4705 258.504 59.1261 253.142 58.3775 247.922C57.4636 242.552 57.8787 237.039 59.5864 231.866C61.6005 226.514 64.5105 221.544 68.192 217.169C76.323 207.187 85.9731 198.545 96.7886 191.56C109.088 183.52 122.672 177.643 136.953 174.183C137.837 173.97 137.999 175.378 137.121 175.591H137.121Z" fill="white"/>
<path d="M75.9151 209.482C72.9173 206.119 71.2127 201.8 71.1055 197.296C70.9983 192.792 72.4956 188.396 75.33 184.894C75.906 184.188 77.0311 185.049 76.4544 185.757C73.8089 189.013 72.4145 193.108 72.5229 197.302C72.6313 201.496 74.2353 205.513 77.0454 208.628C77.6552 209.305 76.5215 210.156 75.9151 209.482Z" fill="white"/>
<path d="M58.9922 244.498C68.1817 245.109 77.2636 242.233 84.427 236.445C85.1363 235.871 85.9898 237.001 85.2814 237.575C77.8157 243.584 68.3585 246.558 58.7971 245.902C57.8859 245.838 58.0859 244.435 58.9922 244.498Z" fill="white"/>
<path d="M109.407 185.371C110.295 186.914 111.553 188.212 113.068 189.149C114.582 190.085 116.306 190.631 118.083 190.737C118.995 190.789 118.794 192.192 117.888 192.141C115.925 192.014 114.022 191.409 112.347 190.378C110.671 189.347 109.274 187.921 108.276 186.226C108.169 186.074 108.123 185.886 108.149 185.702C108.175 185.518 108.27 185.35 108.414 185.233C108.565 185.121 108.753 185.072 108.939 185.098C109.125 185.124 109.293 185.222 109.407 185.371L109.407 185.371Z" fill="white"/>
<path d="M181.124 274.517C180.554 274.501 179.984 274.484 179.406 274.478C171.74 274.302 164.072 274.75 156.477 275.816C155.889 275.889 155.294 275.972 154.709 276.062C136.44 278.825 118.843 284.956 102.813 294.144C96.4375 297.805 90.3498 301.947 84.6027 306.532C76.666 312.865 68.5645 320.363 59.2728 323.609C58.3072 323.958 57.3208 324.247 56.3194 324.475L13.199 294.683C13.1349 294.566 13.0637 294.458 12.9992 294.341L11.2231 293.23C11.503 292.973 11.7988 292.712 12.0788 292.455C12.2405 292.305 12.4119 292.162 12.5735 292.012C12.6844 291.915 12.7958 291.817 12.8902 291.722C12.927 291.69 12.9643 291.657 12.9943 291.634C13.0888 291.54 13.1866 291.462 13.2742 291.377C14.9237 289.915 16.5864 288.462 18.2622 287.018C18.269 287.009 18.269 287.009 18.2854 287.005C30.9494 275.881 44.8883 266.299 59.81 258.459C60.2585 258.231 60.7132 257.993 61.1814 257.779C67.9178 254.399 74.9193 251.575 82.1158 249.336C86.0603 248.123 90.0637 247.11 94.1106 246.301C104.571 244.232 115.292 243.821 125.881 245.084C146.988 247.603 167.055 256.846 180.137 273.253C180.471 273.673 180.796 274.087 181.124 274.517Z" fill="#F2F2F2"/>
<path d="M180.649 274.997C156.23 264.426 129.102 261.818 103.116 267.543C97.5002 268.677 92.098 270.688 87.1084 273.503C82.3365 276.403 78.4282 280.528 75.7895 285.449C73.2369 289.988 71.1516 294.926 67.5402 298.766C65.6624 300.703 63.3962 302.222 60.8902 303.223C58.3841 304.224 55.6949 304.683 52.9988 304.572C46.2737 304.468 39.9868 301.955 33.9242 299.283C27.1928 296.316 20.248 293.128 12.7223 293.414C11.8104 293.448 11.8102 292.031 12.7206 291.997C25.814 291.501 36.4432 300.847 49.0353 302.81C54.911 303.726 61.0984 302.877 65.5959 298.701C69.5288 295.05 71.6836 289.959 74.2284 285.341C76.7322 280.503 80.3826 276.351 84.8607 273.249C89.6909 270.188 95.0066 267.972 100.58 266.695C113.083 263.62 125.991 262.53 138.832 263.465C153.493 264.45 167.877 267.937 181.363 273.773C182.197 274.134 181.478 275.356 180.649 274.997H180.649Z" fill="white"/>
<path d="M111.375 265.207C111.006 260.717 112.245 256.242 114.872 252.581C117.498 248.921 121.34 246.313 125.711 245.223C126.596 245.006 126.976 246.371 126.089 246.589C122.017 247.596 118.438 250.026 116 253.44C113.561 256.853 112.423 261.027 112.792 265.206C112.871 266.114 111.453 266.11 111.375 265.207Z" fill="white"/>
<path d="M76.7802 282.977C83.75 288.997 92.7327 292.169 101.937 291.86C102.849 291.829 102.85 293.245 101.939 293.277C92.3599 293.58 83.0186 290.26 75.7795 283.98C75.0899 283.381 76.0943 282.381 76.7802 282.977V282.977Z" fill="white"/>
<path d="M152.632 266.12C152.413 267.887 152.636 269.681 153.281 271.341C153.926 273 154.973 274.474 156.329 275.628C157.026 276.219 156.02 277.218 155.328 276.632C153.837 275.349 152.682 273.72 151.965 271.888C151.248 270.056 150.99 268.076 151.215 266.122C151.221 265.936 151.297 265.759 151.428 265.627C151.56 265.496 151.737 265.419 151.923 265.413C152.11 265.413 152.29 265.488 152.423 265.621C152.555 265.753 152.631 265.933 152.632 266.12H152.632Z" fill="white"/>
<path d="M889.192 401.45C877.102 371.663 849.869 346.419 817.795 344.267C837.884 372.877 847.205 407.672 844.11 442.493C842.867 455.918 840.088 470.721 847.634 481.893C852.33 488.845 860.366 492.973 868.574 494.701C876.784 496.429 885.273 496.026 893.652 495.615L895.556 496.486C900.521 464.725 901.281 431.237 889.192 401.45Z" fill="#F2F2F2"/>
<path d="M817.659 344.928C839.911 359.517 857.001 380.747 866.501 405.602C868.641 410.917 869.93 416.535 870.32 422.251C870.521 427.831 869.223 433.363 866.563 438.273C864.174 442.9 861.194 447.356 859.972 452.483C859.385 455.117 859.362 457.845 859.903 460.489C860.445 463.132 861.539 465.632 863.114 467.823C866.897 473.384 872.452 477.254 878.016 480.851C884.194 484.843 890.675 488.893 894.573 495.337C895.045 496.118 896.229 495.339 895.757 494.559C888.975 483.348 875.325 479.606 866.764 470.165C862.769 465.76 860.078 460.125 861.094 454.072C861.983 448.78 865.052 444.182 867.511 439.517C870.177 434.766 871.638 429.435 871.769 423.989C871.671 418.271 870.6 412.613 868.603 407.254C864.301 395.12 858.116 383.737 850.278 373.524C841.396 361.817 830.577 351.717 818.289 343.659C817.529 343.16 816.903 344.433 817.659 344.928V344.928Z" fill="white"/>
<path d="M863.913 397.419C867.867 395.259 870.924 391.764 872.539 387.558C874.154 383.352 874.221 378.709 872.728 374.458C872.423 373.599 871.074 374.033 871.38 374.893C872.777 378.849 872.714 383.174 871.202 387.087C869.69 391.001 866.83 394.245 863.136 396.234C862.334 396.668 863.116 397.85 863.913 397.419Z" fill="white"/>
<path d="M868.083 436.086C859.223 433.572 851.636 427.811 846.835 419.952C846.36 419.173 845.176 419.951 845.65 420.729C850.662 428.899 858.569 434.878 867.795 437.473C868.675 437.72 868.958 436.331 868.083 436.086V436.086Z" fill="white"/>
<path d="M840.474 363.454C839.118 364.609 837.497 365.408 835.756 365.781C834.015 366.155 832.208 366.089 830.499 365.592C829.623 365.334 829.34 366.723 830.211 366.979C832.102 367.52 834.097 367.59 836.022 367.182C837.947 366.774 839.742 365.901 841.251 364.639C841.404 364.532 841.509 364.371 841.547 364.188C841.585 364.006 841.552 363.816 841.455 363.658C841.351 363.501 841.19 363.392 841.006 363.354C840.823 363.316 840.631 363.352 840.474 363.454H840.474Z" fill="white"/>
<path d="M742.967 423.309C743.509 423.486 744.052 423.662 744.598 423.85C751.877 426.261 758.949 429.26 765.743 432.817C766.273 433.083 766.805 433.361 767.326 433.643C783.603 442.386 798.115 454.074 810.125 468.115C814.899 473.706 819.241 479.653 823.112 485.903C828.459 494.535 833.569 504.32 841.23 510.499C842.021 511.153 842.853 511.757 843.72 512.308L894.345 498.742C894.445 498.653 894.548 498.576 894.648 498.487L896.694 498.038C896.517 497.702 896.326 497.357 896.149 497.02C896.047 496.825 895.934 496.632 895.832 496.437C895.76 496.308 895.688 496.178 895.631 496.057C895.607 496.014 895.583 495.971 895.562 495.94C895.505 495.819 895.439 495.713 895.385 495.603C894.323 493.672 893.246 491.745 892.152 489.822C892.149 489.81 892.149 489.81 892.135 489.802C883.946 475.068 874.039 461.358 862.62 448.959C862.275 448.594 861.926 448.217 861.558 447.858C856.349 442.41 850.704 437.398 844.678 432.87C841.371 430.402 837.941 428.102 834.401 425.98C825.245 420.516 815.285 416.525 804.889 414.156C784.162 409.435 762.157 411.395 744.321 422.451C743.865 422.734 743.42 423.014 742.967 423.309Z" fill="#F2F2F2"/>
<path d="M743.253 423.921C769.804 422.173 796.231 428.834 818.78 442.96C823.689 445.915 828.101 449.625 831.854 453.954C835.373 458.289 837.668 463.487 838.499 469.009C839.378 474.141 839.682 479.493 841.793 484.323C842.91 486.779 844.534 488.972 846.558 490.756C848.582 492.541 850.96 493.878 853.537 494.679C859.906 496.842 866.672 496.587 873.279 496.109C880.616 495.577 888.228 494.909 895.221 497.707C896.068 498.046 896.544 496.712 895.698 496.373C883.533 491.505 870.381 496.735 857.862 494.352C852.02 493.24 846.478 490.361 843.646 484.916C841.169 480.155 840.851 474.636 840.006 469.431C839.274 464.033 837.231 458.896 834.056 454.469C830.536 449.963 826.274 446.089 821.454 443.014C810.712 435.915 798.922 430.55 786.514 427.115C772.374 423.115 757.655 421.564 742.992 422.528C742.084 422.588 742.351 423.981 743.253 423.921V423.921Z" fill="white"/>
<path d="M811.787 437.984C813.644 433.879 813.981 429.248 812.738 424.918C811.495 420.587 808.753 416.84 805.002 414.344C804.241 413.842 803.425 415 804.186 415.503C807.684 417.821 810.237 421.312 811.387 425.347C812.536 429.382 812.205 433.694 810.454 437.507C810.074 438.336 811.41 438.809 811.787 437.984L811.787 437.984Z" fill="white"/>
<path d="M838.397 466.347C829.809 469.675 820.283 469.643 811.718 466.258C810.869 465.922 810.393 467.257 811.24 467.592C820.16 471.098 830.073 471.111 839.002 467.629C839.853 467.296 839.243 466.017 838.397 466.348V466.347Z" fill="white"/>
<path d="M772.623 424.977C772.236 426.716 771.423 428.33 770.257 429.676C769.092 431.023 767.61 432.058 765.945 432.69C765.091 433.012 765.702 434.291 766.551 433.971C768.387 433.264 770.022 432.119 771.313 430.634C772.604 429.15 773.512 427.372 773.957 425.455C774.014 425.278 774.002 425.086 773.922 424.918C773.843 424.75 773.702 424.618 773.529 424.55C773.352 424.487 773.158 424.497 772.988 424.577C772.818 424.657 772.687 424.801 772.623 424.978V424.977Z" fill="white"/>
<path d="M252.688 172.504C259.266 172.504 264.599 167.171 264.599 160.593C264.599 154.015 259.266 148.682 252.688 148.682C246.11 148.682 240.778 154.015 240.778 160.593C240.778 167.171 246.11 172.504 252.688 172.504Z" fill="#E7816D"/>
<path d="M708.592 290.013C709.646 283.52 705.236 277.402 698.743 276.349C692.25 275.295 686.132 279.705 685.079 286.198C684.025 292.691 688.435 298.809 694.928 299.862C701.421 300.916 707.539 296.507 708.592 290.013Z" fill="#E6E6E6"/>
<path d="M252.205 38.4684C258.783 38.4684 264.115 33.1358 264.115 26.5578C264.115 19.9798 258.783 14.6472 252.205 14.6472C245.626 14.6472 240.294 19.9798 240.294 26.5578C240.294 33.1358 245.626 38.4684 252.205 38.4684Z" fill="#E6E6E6"/>
<path d="M607.592 166.714H604.193V73.582C604.193 59.2862 598.514 45.5759 588.405 35.4672C578.296 25.3585 564.586 19.6795 550.29 19.6794H352.976C345.898 19.6794 338.889 21.0736 332.349 23.7825C325.809 26.4913 319.867 30.4617 314.862 35.467C309.856 40.4723 305.886 46.4145 303.177 52.9542C300.468 59.494 299.074 66.5032 299.074 73.5818V73.5818V584.514C299.074 598.81 304.753 612.52 314.861 622.629C324.97 632.737 338.68 638.416 352.976 638.416H550.29C564.586 638.416 578.296 632.737 588.405 622.629C598.513 612.52 604.193 598.81 604.193 584.514V233.008H607.592V166.714Z" fill="#3F3D56"/>
<path d="M592.716 73.9558V584.139C592.716 589.424 591.676 594.658 589.654 599.541C587.632 604.424 584.668 608.861 580.932 612.599C577.195 616.336 572.759 619.301 567.876 621.325C562.994 623.348 557.761 624.389 552.476 624.39H354.198C343.523 624.391 333.286 620.151 325.737 612.603C318.189 605.055 313.948 594.818 313.947 584.144V73.9558C313.947 68.6703 314.988 63.4365 317.01 58.5532C319.033 53.6699 321.997 49.2328 325.734 45.4951C329.471 41.7575 333.908 38.7925 338.791 36.7696C343.674 34.7466 348.908 33.7053 354.194 33.705H378.26C377.075 36.6086 376.622 39.759 376.942 42.8788C377.262 45.9985 378.344 48.9918 380.093 51.5949C381.842 54.1979 384.204 56.3309 386.972 57.8057C389.739 59.2806 392.827 60.0522 395.963 60.0525H509.006C512.142 60.0502 515.228 59.2773 517.995 57.8018C520.761 56.3264 523.123 54.1936 524.871 51.5912C526.62 48.9887 527.702 45.9964 528.023 42.8775C528.343 39.7585 527.892 36.6086 526.709 33.705H552.465C557.751 33.7047 562.984 34.7455 567.868 36.768C572.751 38.7904 577.188 41.7549 580.926 45.4921C584.663 49.2294 587.628 53.6662 589.651 58.5493C591.674 63.4324 592.715 68.6661 592.715 73.9517V73.9517L592.716 73.9558Z" fill="#F2F2F2"/>
<path d="M390.479 82.4059H328.972V85.159H390.479V82.4059Z" fill="white"/>
<path d="M484.085 82.4059H422.578V85.159H484.085V82.4059Z" fill="white"/>
<path d="M549.757 412.058H349.258C348.582 412.058 347.914 411.925 347.289 411.666C346.665 411.408 346.098 411.029 345.621 410.551C345.143 410.074 344.764 409.507 344.505 408.882C344.247 408.258 344.114 407.589 344.114 406.914C344.114 406.238 344.247 405.569 344.505 404.945C344.764 404.321 345.143 403.754 345.621 403.276C346.098 402.798 346.665 402.42 347.289 402.161C347.914 401.902 348.582 401.769 349.258 401.769H549.757C550.433 401.769 551.102 401.902 551.726 402.161C552.35 402.42 552.917 402.798 553.395 403.276C553.872 403.754 554.251 404.321 554.51 404.945C554.768 405.569 554.901 406.238 554.901 406.914C554.901 407.589 554.768 408.258 554.51 408.882C554.251 409.507 553.872 410.074 553.395 410.551C552.917 411.029 552.35 411.408 551.726 411.666C551.102 411.925 550.433 412.058 549.757 412.058V412.058Z" fill="#CCCCCC"/>
<path d="M549.757 447.849H349.258C347.894 447.849 346.585 447.307 345.621 446.342C344.656 445.377 344.114 444.069 344.114 442.704C344.114 441.34 344.656 440.032 345.621 439.067C346.585 438.102 347.894 437.56 349.258 437.56H549.757C551.121 437.56 552.43 438.102 553.395 439.067C554.359 440.032 554.901 441.34 554.901 442.704C554.901 444.069 554.359 445.377 553.395 446.342C552.43 447.307 551.121 447.849 549.757 447.849V447.849Z" fill="#CCCCCC"/>
<path d="M549.757 483.64H349.258C347.894 483.64 346.585 483.098 345.621 482.133C344.656 481.168 344.114 479.86 344.114 478.495C344.114 477.131 344.656 475.822 345.621 474.858C346.585 473.893 347.894 473.351 349.258 473.351H549.757C551.121 473.351 552.43 473.893 553.395 474.858C554.359 475.822 554.901 477.131 554.901 478.495C554.901 479.86 554.359 481.168 553.395 482.133C552.43 483.098 551.121 483.64 549.757 483.64V483.64Z" fill="#CCCCCC"/>
<path d="M577.692 82.4059H516.185V85.159H577.692V82.4059Z" fill="white"/>
<path d="M390.479 576.594H328.972V579.347H390.479V576.594Z" fill="white"/>
<path d="M484.085 576.594H422.578V579.347H484.085V576.594Z" fill="white"/>
<path d="M577.692 576.594H516.185V579.347H577.692V576.594Z" fill="white"/>
<path d="M453.332 341.586C504.823 341.586 546.565 299.844 546.565 248.353C546.565 196.862 504.823 155.12 453.332 155.12C401.84 155.12 360.098 196.862 360.098 248.353C360.098 299.844 401.84 341.586 453.332 341.586Z" fill="#D1D3D4"/>
<path d="M453.332 337.541C500.307 337.541 538.389 299.46 538.389 252.485C538.389 205.509 500.307 167.428 453.332 167.428C406.356 167.428 368.275 205.509 368.275 252.485C368.275 299.46 406.356 337.541 453.332 337.541Z" fill="#E7816D"/>
<path d="M445.906 285.822C445.722 285.822 445.536 285.817 445.35 285.808C443.719 285.729 442.124 285.298 440.675 284.545C439.226 283.792 437.957 282.734 436.955 281.445L423.549 264.211C421.706 261.836 420.88 258.827 421.252 255.844C421.625 252.861 423.165 250.148 425.536 248.3L426.016 247.926C428.392 246.082 431.401 245.256 434.384 245.628C437.368 246.001 440.082 247.541 441.932 249.911C442.533 250.685 443.295 251.32 444.165 251.772C445.035 252.225 445.993 252.483 446.972 252.531C447.953 252.588 448.934 252.428 449.846 252.063C450.757 251.697 451.577 251.134 452.246 250.415L479.465 221.683C481.534 219.503 484.384 218.234 487.389 218.152C490.394 218.071 493.308 219.185 495.493 221.249L495.935 221.667C498.116 223.737 499.387 226.587 499.468 229.592C499.55 232.598 498.436 235.513 496.371 237.698L454.133 282.281C453.075 283.4 451.799 284.291 450.385 284.9C448.97 285.509 447.446 285.822 445.906 285.822V285.822Z" fill="white"/>
<path d="M304.366 117.871H293.353V177.064H304.366V117.871Z" fill="#3F3D56"/>
<path d="M304.366 183.946H293.353V218.361H304.366V183.946Z" fill="#3F3D56"/>
<path d="M304.366 225.243H293.353V259.658H304.366V225.243Z" fill="#3F3D56"/>
<path d="M399.349 47.6662C402.39 47.6662 404.855 45.201 404.855 42.16C404.855 39.1189 402.39 36.6537 399.349 36.6537C396.308 36.6537 393.843 39.1189 393.843 42.16C393.843 45.201 396.308 47.6662 399.349 47.6662Z" fill="white"/>
<path opacity="0.16" d="M453.332 325.759C431.813 325.756 411.095 317.595 395.354 302.922C379.613 288.249 370.02 268.155 368.508 246.689C368.37 248.669 368.275 250.661 368.275 252.676C368.275 275.235 377.236 296.869 393.188 312.821C409.139 328.772 430.773 337.733 453.332 337.733C475.89 337.733 497.525 328.772 513.476 312.821C529.427 296.869 538.389 275.235 538.389 252.676C538.389 250.661 538.293 248.669 538.156 246.689C536.644 268.155 527.05 288.249 511.31 302.922C495.569 317.595 474.851 325.756 453.332 325.759V325.759Z" fill="#231F20"/>
<path d="M573.248 321.119L640.699 323.872L648.959 278.445L591.142 260.55L573.248 321.119Z" fill="#FFB8B8"/>
<path d="M598.742 222.729L599.394 201.268L566.704 193.072L507.847 175.902C507.068 173.539 505.59 171.468 503.608 169.963C501.627 168.458 499.235 167.591 496.75 167.475C494.265 167.359 491.803 168 489.69 169.314C487.577 170.628 485.913 172.552 484.917 174.832C483.922 177.112 483.642 179.641 484.115 182.084C484.587 184.526 485.791 186.768 487.565 188.512C489.34 190.256 491.602 191.42 494.053 191.85C496.503 192.28 499.027 191.957 501.289 190.922L558.508 214.442L598.742 222.729Z" fill="#FFB8B8"/>
<path d="M577.676 222.579L596.066 196.35L596.525 196.411C596.814 196.449 625.653 200.307 644.56 205.937C646.685 206.5 648.661 207.52 650.352 208.925C652.042 210.331 653.405 212.088 654.347 214.074C655.698 216.85 656.209 219.96 655.817 223.023C655.426 226.085 654.148 228.966 652.142 231.313C650.1 233.85 647.371 235.745 644.281 236.771C641.19 237.798 637.87 237.913 634.716 237.103L577.676 222.579Z" fill="#E7816D"/>
<path d="M589.325 620.235L570.618 620.234L561.719 548.081L589.327 548.082L589.325 620.235Z" fill="#FFB8B8"/>
<path d="M734.979 612.137L716.482 614.933L696.896 544.92L721.144 540.794L734.979 612.137Z" fill="#FFB8B8"/>
<path d="M643.452 310.106L578.754 299.094L576.453 303.837C564.07 329.391 556.759 357.103 554.923 385.44C553.361 409.361 552.442 434.626 552.412 461.111C552.365 502.145 554.459 540.221 557.769 574.867L593.278 574.644C592.252 537.86 593.649 501.048 597.459 464.448C600.176 438.348 603.955 413.969 608.324 391.473C616.43 424.498 627.871 456.614 642.47 487.326C654.879 513.568 680.403 543.901 692.812 570.143C705.527 568.617 718.242 567.091 730.957 565.565C720.937 539.066 703.061 500.369 693.04 473.869C678.713 435.98 672.241 410.289 657.914 372.4C658.731 365.278 658.89 358.095 658.39 350.943C657.723 339.023 655.243 324.718 647.996 315.182L643.452 310.106Z" fill="#2F2E41"/>
<path d="M653.448 290.356C656.679 296.396 649.005 308.907 643.452 310.106L579.472 289.425L611.687 196.074L627.896 199.02L653.818 203.387L663.013 211.745C665.328 213.852 666.982 216.586 667.773 219.615C668.565 222.644 668.46 225.837 667.471 228.808L653.448 290.356Z" fill="#E7816D"/>
<path d="M609.404 254.28L591.304 242.729L567.524 266.611L522.636 308.373C520.208 307.832 517.672 308.041 515.365 308.972C513.058 309.904 511.088 311.513 509.716 313.589C508.343 315.664 507.633 318.107 507.68 320.595C507.726 323.083 508.527 325.497 509.976 327.52C511.424 329.543 513.453 331.078 515.793 331.923C518.134 332.768 520.675 332.882 523.082 332.251C525.488 331.619 527.647 330.272 529.271 328.388C530.896 326.503 531.91 324.17 532.179 321.697L581.683 284.594L609.404 254.28Z" fill="#FFB8B8"/>
<path d="M598.488 272.296L585.375 243.069L585.663 242.706C585.843 242.478 603.926 219.681 618.443 206.325C620.015 204.789 621.903 203.613 623.975 202.881C626.048 202.149 628.255 201.878 630.444 202.086C633.52 202.348 636.452 203.502 638.882 205.406C641.311 207.311 643.132 209.883 644.122 212.807C645.255 215.86 645.485 219.174 644.785 222.354C644.084 225.534 642.483 228.445 640.172 230.739L598.488 272.296Z" fill="#E7816D"/>
<path d="M639.272 189.836C654.987 189.836 667.727 177.096 667.727 161.381C667.727 145.666 654.987 132.926 639.272 132.926C623.557 132.926 610.817 145.666 610.817 161.381C610.817 177.096 623.557 189.836 639.272 189.836Z" fill="#FFB8B8"/>
<path d="M662.252 202.613L662.143 202.586L620.792 192.243C619.359 191.885 618.03 191.196 616.912 190.231C615.794 189.267 614.917 188.053 614.352 186.689C613.787 185.324 613.55 183.846 613.659 182.373C613.769 180.9 614.222 179.473 614.982 178.207L616.348 175.934C617.682 173.715 618.439 171.197 618.55 168.611C618.66 166.024 618.122 163.451 616.983 161.125C615.024 157.328 611.655 154.45 607.598 153.109L607.461 153.044L606.592 152.503C605.739 152.1 604.979 151.523 604.361 150.81C603.744 150.096 603.282 149.261 603.006 148.359C602.719 147.423 602.632 146.438 602.75 145.467C602.868 144.496 603.188 143.561 603.69 142.721C607.34 136.615 612.804 131.799 619.319 128.943C627.551 125.399 636.822 125.121 645.252 128.164C645.813 127.648 646.494 127.279 647.233 127.092C647.973 126.904 648.747 126.902 649.486 127.088C670.901 132.274 672.664 146.648 668.433 169.722L673.441 189.918C673.795 191.344 673.834 192.83 673.555 194.272C673.277 195.715 672.688 197.08 671.829 198.272C670.97 199.464 669.862 200.454 668.581 201.175C667.3 201.895 665.878 202.328 664.414 202.443L662.252 202.613ZM645.023 128.391L645.021 128.394L645.023 128.391ZM645.539 128.265L645.543 128.266L645.539 128.265Z" fill="#2F2E41"/>
<path d="M593.883 638.94H583.207L581.302 628.86L576.421 638.94H548.105C546.748 638.94 545.426 638.506 544.333 637.702C543.24 636.897 542.432 635.764 542.028 634.469C541.624 633.173 541.645 631.782 542.088 630.499C542.53 629.216 543.371 628.108 544.488 627.337L567.1 611.72V601.53L590.884 602.949L593.883 638.94Z" fill="#2F2E41"/>
<path d="M737.956 638.94H727.28L725.374 628.86L720.494 638.94H692.178C690.821 638.94 689.499 638.506 688.406 637.702C687.312 636.897 686.505 635.764 686.101 634.469C685.697 633.173 685.718 631.782 686.16 630.499C686.603 629.216 687.444 628.108 688.561 627.337L711.173 611.72V601.53L734.957 602.949L737.956 638.94Z" fill="#2F2E41"/>
</svg>
