<svg width="900" height="431" viewBox="0 0 900 431" fill="none" xmlns="http://www.w3.org/2000/svg">
<g clip-path="url(#clip0_30:50)">
<path d="M703.029 64.6636H482.338V60.1152H382.268V64.6636H160.668C156.709 64.6636 152.911 66.2365 150.112 69.0363C147.312 71.8361 145.739 75.6334 145.739 79.5929V79.5929V381.784C145.739 385.744 147.312 389.541 150.112 392.341C152.911 395.141 156.709 396.714 160.668 396.714H703.029C706.988 396.714 710.786 395.141 713.586 392.341C716.385 389.541 717.958 385.744 717.958 381.784V79.5912C717.958 75.632 716.385 71.8351 713.585 69.0357C710.785 66.2363 706.988 64.6636 703.029 64.6636V64.6636Z" fill="#3F3D56"/>
<path d="M697.943 91.0452H165.754V391.254H697.943V91.0452Z" fill="#E6E6E6"/>
<path d="M675.555 106.921H188.324V366.414H675.555V106.921Z" fill="white"/>
<path d="M431.393 82.8587C434.408 82.8587 436.852 80.4148 436.852 77.4002C436.852 74.3855 434.408 71.9417 431.393 71.9417C428.379 71.9417 425.935 74.3855 425.935 77.4002C425.935 80.4148 428.379 82.8587 431.393 82.8587Z" fill="#E7816D"/>
<path d="M732.899 385.796H680.962V382.053C680.962 381.856 680.883 381.668 680.744 381.528C680.605 381.389 680.416 381.311 680.219 381.311H662.412C662.215 381.311 662.026 381.389 661.887 381.528C661.748 381.668 661.67 381.856 661.67 382.053V382.053V385.796H650.541V382.053C650.541 381.856 650.462 381.668 650.323 381.528C650.184 381.389 649.995 381.311 649.798 381.311H631.991C631.794 381.311 631.605 381.389 631.466 381.528C631.327 381.668 631.249 381.856 631.249 382.053V382.053V385.796H620.12V382.053C620.12 381.856 620.041 381.668 619.902 381.528C619.763 381.389 619.574 381.311 619.377 381.311H601.57C601.373 381.311 601.184 381.389 601.045 381.528C600.906 381.668 600.828 381.856 600.828 382.053V382.053V385.796H589.699V382.053C589.699 381.856 589.62 381.668 589.481 381.528C589.342 381.389 589.153 381.311 588.956 381.311H571.15C570.953 381.311 570.764 381.389 570.625 381.528C570.486 381.668 570.407 381.856 570.407 382.053V382.053V385.796H559.277V382.053C559.277 381.856 559.199 381.668 559.06 381.528C558.921 381.389 558.732 381.311 558.535 381.311H540.729C540.532 381.311 540.343 381.389 540.204 381.528C540.065 381.668 539.986 381.856 539.986 382.053V382.053V385.796H528.856V382.053C528.856 381.856 528.778 381.668 528.639 381.528C528.5 381.389 528.311 381.311 528.114 381.311H510.311C510.114 381.311 509.925 381.389 509.786 381.528C509.647 381.668 509.569 381.856 509.569 382.053V382.053V385.796H498.435V382.053C498.435 381.856 498.357 381.668 498.218 381.528C498.079 381.389 497.89 381.311 497.693 381.311H358.203C358.006 381.311 357.817 381.389 357.678 381.528C357.539 381.668 357.46 381.856 357.46 382.053V382.053V385.796H346.331V382.053C346.331 381.856 346.253 381.668 346.114 381.528C345.975 381.389 345.786 381.311 345.589 381.311H327.782C327.585 381.311 327.396 381.389 327.257 381.528C327.118 381.668 327.039 381.856 327.039 382.053V382.053V385.796H315.91V382.053C315.91 381.856 315.832 381.668 315.693 381.528C315.554 381.389 315.365 381.311 315.168 381.311H297.361C297.165 381.311 296.976 381.389 296.837 381.528C296.697 381.668 296.619 381.856 296.619 382.053V382.053V385.796H285.489V382.053C285.489 381.856 285.411 381.668 285.272 381.528C285.133 381.389 284.944 381.311 284.747 381.311H266.94C266.743 381.311 266.555 381.389 266.416 381.528C266.276 381.668 266.198 381.856 266.198 382.053V382.053V385.796H255.071V382.053C255.071 381.856 254.992 381.668 254.853 381.528C254.714 381.389 254.525 381.311 254.328 381.311H236.519C236.322 381.311 236.134 381.389 235.994 381.528C235.855 381.668 235.777 381.856 235.777 382.053V382.053V385.796H224.648V382.053C224.648 381.856 224.57 381.668 224.431 381.528C224.291 381.389 224.103 381.311 223.906 381.311H206.098C205.901 381.311 205.713 381.389 205.573 381.528C205.434 381.668 205.356 381.856 205.356 382.053V382.053V385.796H194.227V382.053C194.227 381.856 194.149 381.668 194.01 381.528C193.87 381.389 193.682 381.311 193.485 381.311H175.674C175.477 381.311 175.288 381.389 175.149 381.528C175.01 381.668 174.932 381.856 174.932 382.053V382.053V385.796H140.805C136.082 385.796 131.552 387.672 128.213 391.011C124.873 394.351 122.997 398.88 122.997 403.603V411.655C122.997 416.378 124.873 420.907 128.213 424.247C131.552 427.586 136.082 429.462 140.805 429.462H732.899C737.622 429.462 742.151 427.586 745.491 424.247C748.83 420.907 750.707 416.378 750.707 411.656V403.604C750.707 398.881 748.831 394.352 745.491 391.012C742.152 387.673 737.622 385.797 732.899 385.797V385.796Z" fill="#3F3D56"/>
<path d="M539.668 125.121H324.211V351.606H539.668V125.121Z" fill="#E6E6E6"/>
<path d="M900 428.706H0V430.403H900V428.706Z" fill="#E6E6E6"/>
<path d="M812.593 369.443C824.788 382.528 825.418 401.762 825.418 401.762C825.418 401.762 806.277 399.778 794.082 386.693C781.888 373.608 781.258 354.375 781.258 354.375C781.258 354.375 800.399 356.358 812.593 369.443Z" fill="#E7816D"/>
<path d="M850.983 389.868C837.897 402.063 818.664 402.693 818.664 402.693C818.664 402.693 820.647 383.552 833.733 371.358C846.818 359.163 866.051 358.533 866.051 358.533C866.051 358.533 864.069 377.674 850.983 389.868Z" fill="#E7816D"/>
<path d="M847.73 428.706H799.601C798.678 428.706 797.773 428.446 796.99 427.957C796.207 427.467 795.578 426.767 795.174 425.936L784.696 404.396C784.33 403.646 784.161 402.815 784.205 401.981C784.249 401.147 784.504 400.338 784.947 399.631C785.39 398.923 786.005 398.339 786.736 397.935C787.466 397.531 788.288 397.319 789.123 397.32H858.21C859.045 397.319 859.866 397.531 860.597 397.935C861.327 398.339 861.943 398.923 862.385 399.631C862.828 400.338 863.084 401.147 863.128 401.981C863.172 402.815 863.003 403.646 862.637 404.396L852.158 425.937C851.755 426.767 851.125 427.468 850.343 427.957C849.56 428.447 848.655 428.707 847.731 428.706L847.73 428.706Z" fill="#E5E5E5"/>
<path d="M51.7072 369.443C63.9017 382.528 64.532 401.762 64.532 401.762C64.532 401.762 45.3911 399.778 33.1965 386.693C21.002 373.608 20.3717 354.375 20.3717 354.375C20.3717 354.375 39.5126 356.358 51.7072 369.443Z" fill="#E5E5E5"/>
<path d="M79.2102 428.706H31.081C30.1575 428.706 29.2526 428.446 28.4697 427.957C27.6868 427.467 27.0575 426.767 26.6539 425.936L16.1754 404.396C15.8095 403.646 15.6406 402.815 15.6845 401.981C15.7285 401.147 15.9839 400.338 16.4267 399.631C16.8695 398.923 17.4852 398.339 18.2157 397.935C18.9462 397.531 19.7676 397.319 20.6025 397.32H89.6895C90.5244 397.319 91.3458 397.531 92.0763 397.935C92.8068 398.339 93.4225 398.923 93.8653 399.631C94.3081 400.338 94.5635 401.147 94.6075 401.981C94.6514 402.815 94.4825 403.646 94.1166 404.396L83.6381 425.937C83.2345 426.767 82.6052 427.468 81.8223 427.957C81.0394 428.447 80.1345 428.707 79.211 428.706L79.2102 428.706Z" fill="#E5E5E5"/>
<path d="M457.936 189.235C473.751 189.235 486.571 176.415 486.571 160.601C486.571 144.786 473.751 131.966 457.936 131.966C442.122 131.966 429.302 144.786 429.302 160.601C429.302 176.415 442.122 189.235 457.936 189.235Z" fill="#A0616A"/>
<path d="M392.052 352.072L410.544 235.66C411.527 229.471 413.817 223.562 417.262 218.326C420.706 213.091 425.226 208.649 430.521 205.296C435.816 201.943 441.764 199.756 447.969 198.881C454.175 198.006 460.496 198.462 466.511 200.219V200.219C477.029 203.261 486.035 210.115 491.77 219.442C497.504 228.768 499.556 239.898 497.524 250.657L478.184 354.618L392.052 352.072Z" fill="#E7816D"/>
<path d="M465.842 372.901C467.272 371.957 468.478 370.71 469.374 369.249C470.27 367.789 470.835 366.149 471.03 364.446C471.224 362.743 471.042 361.019 470.498 359.393C469.953 357.768 469.059 356.282 467.878 355.04L486.993 318.023L465.466 320.32L450.614 355.121C448.667 357.245 447.565 360.008 447.517 362.889C447.468 365.77 448.476 368.569 450.35 370.758C452.224 372.946 454.835 374.373 457.689 374.768C460.543 375.163 463.443 374.499 465.841 372.902L465.842 372.901Z" fill="#A0616A"/>
<path d="M469.936 348.511C468.878 348.362 467.891 347.894 467.107 347.169L459.793 340.411C459.003 339.678 458.458 338.719 458.23 337.666C458.002 336.612 458.104 335.514 458.521 334.519L473.138 299.872L471.064 231.414C471.67 226.973 474.015 222.954 477.584 220.242C481.153 217.53 485.653 216.346 490.094 216.952C494.535 217.558 498.554 219.903 501.266 223.472C503.978 227.041 505.161 231.541 504.556 235.982V235.982L508.101 279.017C509.179 292.078 505.476 305.086 497.681 315.621L474.886 346.437C474.448 347.03 473.889 347.523 473.248 347.885C472.606 348.247 471.895 348.471 471.162 348.54C470.753 348.579 470.342 348.569 469.936 348.511V348.511Z" fill="#E7816D"/>
<path d="M293.038 144.999C293.35 146.685 294.028 148.281 295.023 149.676C296.019 151.071 297.308 152.231 298.801 153.073C300.293 153.916 301.952 154.422 303.661 154.554C305.369 154.686 307.086 154.442 308.691 153.839L335.326 185.874L341.603 165.155L315.348 137.91C314.15 135.29 312.035 133.2 309.402 132.033C306.768 130.866 303.799 130.704 301.054 131.576C298.309 132.448 295.978 134.295 294.501 136.768C293.025 139.241 292.505 142.169 293.039 144.999H293.038Z" fill="#A0616A"/>
<path d="M313.902 158.278C314.452 157.363 315.268 156.636 316.241 156.196L325.317 152.097C326.301 151.655 327.396 151.526 328.456 151.728C329.515 151.929 330.487 152.451 331.24 153.222L357.446 180.191L421.296 204.973C423.205 206.106 424.873 207.604 426.204 209.381C427.534 211.159 428.501 213.181 429.05 215.333C429.598 217.485 429.717 219.723 429.401 221.921C429.084 224.119 428.337 226.232 427.203 228.141C426.068 230.05 424.569 231.717 422.791 233.046C421.012 234.375 418.989 235.341 416.837 235.888C414.685 236.435 412.447 236.553 410.249 236.235C408.052 235.916 405.939 235.168 404.03 234.032V234.032L363.02 220.518C350.572 216.418 340.037 207.936 333.375 196.651L313.885 163.645C313.511 163.01 313.274 162.304 313.191 161.572C313.108 160.839 313.179 160.098 313.401 159.395C313.524 159.005 313.694 158.63 313.905 158.279L313.902 158.278Z" fill="#E7816D"/>
<path opacity="0.1" d="M481.162 259.891L479.997 297.199L458.52 334.522L476.453 292.932L481.162 259.891Z" fill="black"/>
<path d="M438.544 146.248C441.498 149.744 446.496 150.729 451.107 151.134C460.471 151.955 474.087 150.625 483.238 148.51C483.891 154.841 482.111 161.666 485.839 166.873C487.587 160.569 488.603 154.084 488.868 147.548C488.981 144.748 488.937 141.844 487.798 139.27C486.658 136.697 484.174 134.512 481.313 134.49C483.438 132.877 485.928 131.812 488.563 131.39L479.503 126.837L481.83 124.449L465.428 123.445L470.178 120.427C463.029 119.446 455.795 119.218 448.598 119.749C445.256 119.995 441.761 120.465 439.053 122.402C436.346 124.338 434.781 128.187 436.462 131.03C434.357 131.376 432.375 132.253 430.704 133.579C429.034 134.905 427.729 136.635 426.914 138.606C425.707 141.667 425.817 145.066 426.189 148.328C426.807 153.544 428.02 158.673 429.803 163.614" fill="#2F2E41"/>
<path d="M560.956 74.5142L300.034 134.753C298.753 135.047 297.407 134.821 296.292 134.124C295.177 133.428 294.384 132.317 294.087 131.036L279.144 66.3129C278.85 65.0316 279.076 63.6858 279.773 62.5709C280.47 61.456 281.58 60.6629 282.861 60.3656L543.783 0.127033C545.064 -0.167181 546.41 0.0588499 547.525 0.755537C548.64 1.45222 549.433 2.56268 549.73 3.84333L564.673 68.567C564.967 69.8483 564.741 71.194 564.044 72.309C563.347 73.4239 562.237 74.2169 560.956 74.5142Z" fill="white"/>
<path d="M560.956 74.5142L300.034 134.753C298.753 135.047 297.407 134.821 296.292 134.124C295.177 133.428 294.384 132.317 294.087 131.036L279.144 66.3129C278.85 65.0316 279.076 63.6858 279.773 62.5709C280.47 61.456 281.58 60.6629 282.861 60.3656L543.783 0.127033C545.064 -0.167181 546.41 0.0588499 547.525 0.755537C548.64 1.45222 549.433 2.56268 549.73 3.84333L564.673 68.567C564.967 69.8483 564.741 71.194 564.044 72.309C563.347 73.4239 562.237 74.2169 560.956 74.5142ZM283.307 62.2988C282.538 62.4771 281.872 62.953 281.454 63.622C281.036 64.2911 280.9 65.0987 281.077 65.8676L296.02 130.591C296.198 131.36 296.674 132.026 297.343 132.444C298.012 132.863 298.819 132.998 299.588 132.821L560.51 72.5826C561.279 72.4045 561.945 71.9286 562.364 71.2595C562.782 70.5904 562.917 69.7828 562.74 69.0139L547.798 4.28942C547.619 3.5208 547.144 2.85426 546.474 2.43616C545.805 2.01805 544.998 1.88253 544.229 2.05936L283.307 62.2988Z" fill="#E6E6E6"/>
<path d="M373.844 62.0987C373.413 62.1972 373.006 62.3798 372.645 62.6359C372.285 62.892 371.978 63.2165 371.743 63.5911C371.508 63.9657 371.349 64.3829 371.275 64.8189C371.202 65.255 371.214 65.7013 371.313 66.1323C371.412 66.5634 371.595 66.9708 371.851 67.3312C372.107 67.6917 372.432 67.9981 372.806 68.233C373.181 68.468 373.598 68.6268 374.034 68.7004C374.47 68.774 374.917 68.761 375.348 68.6622L375.359 68.6595L530.007 32.9563C530.876 32.7543 531.629 32.2157 532.101 31.4589C532.573 30.7021 532.725 29.7888 532.525 28.9197C532.324 28.0506 531.787 27.2966 531.031 26.8233C530.275 26.35 529.361 26.1961 528.492 26.3954L373.844 62.0987Z" fill="#E6E6E6"/>
<path d="M378.389 81.7822C377.958 81.8808 377.55 82.0633 377.19 82.3194C376.829 82.5755 376.523 82.9001 376.288 83.2747C376.052 83.6492 375.893 84.0664 375.82 84.5025C375.746 84.9385 375.759 85.3848 375.857 85.8159C375.956 86.2469 376.139 86.6543 376.395 87.0147C376.651 87.3752 376.976 87.6816 377.351 87.9166C377.725 88.1515 378.143 88.3103 378.579 88.3839C379.015 88.4575 379.461 88.4446 379.892 88.3457L379.903 88.3431L446.449 72.9799C447.319 72.7803 448.074 72.2433 448.548 71.487C449.022 70.7306 449.177 69.8169 448.978 68.9467C448.778 68.0766 448.242 67.3212 447.485 66.8467C446.729 66.3722 445.816 66.2174 444.945 66.4164L444.934 66.419L378.389 81.7822Z" fill="#E6E6E6"/>
<path d="M331.567 105.724C342.723 105.724 351.767 96.68 351.767 85.5236C351.767 74.3673 342.723 65.3232 331.567 65.3232C320.411 65.3232 311.367 74.3673 311.367 85.5236C311.367 96.68 320.411 105.724 331.567 105.724Z" fill="#E7816D"/>
<path d="M330.999 97.1768C330.338 97.3304 329.645 97.2649 329.024 96.9902L328.985 96.9731L320.857 93.2831C320.48 93.1121 320.14 92.8684 319.857 92.5659C319.573 92.2634 319.353 91.908 319.207 91.5202C319.061 91.1323 318.994 90.7195 319.008 90.3054C319.022 89.8913 319.117 89.484 319.289 89.1069C319.46 88.7297 319.704 88.3901 320.007 88.1073C320.31 87.8246 320.666 87.6044 321.054 87.4593C321.442 87.3142 321.855 87.247 322.269 87.2615C322.683 87.2761 323.09 87.3722 323.467 87.5442L328.734 89.942L336.123 73.7064C336.469 72.9463 337.103 72.3547 337.885 72.0618C338.667 71.769 339.533 71.7987 340.294 72.1446V72.1446L340.249 72.2506L340.296 72.144C341.056 72.4909 341.647 73.1249 341.939 73.907C342.232 74.6891 342.203 75.5554 341.857 76.3157L333.167 95.4148C332.966 95.8548 332.666 96.2424 332.29 96.5477C331.915 96.853 331.474 97.0678 331.002 97.1752L330.999 97.1768Z" fill="white"/>
</g>
<defs>
<clipPath id="clip0_30:50">
<rect width="900" height="430.403" fill="white"/>
</clipPath>
</defs>
</svg>
