<svg width="902" height="1010" viewBox="0 0 902 1010" fill="none" xmlns="http://www.w3.org/2000/svg">
<path d="M286.898 454.13C284.707 431.309 281.055 388.589 282.516 352.989C284.524 301.688 141.941 332.541 141.941 332.541C141.941 332.541 121.676 401.551 111.27 453.582C161.293 472.204 235.414 471.838 286.898 454.13Z" fill="#1E0400"/>
<path d="M220.078 425.101C263.837 425.101 299.311 389.628 299.311 345.868C299.311 302.109 263.837 266.635 220.078 266.635C176.319 266.635 140.845 302.109 140.845 345.868C140.845 389.628 176.319 425.101 220.078 425.101Z" fill="#1E0400"/>
<path d="M427.838 570.423L439.339 577.544C439.339 577.544 445.911 469.282 449.563 442.628C453.214 415.973 490.822 442.811 497.03 466.361C503.237 490.095 526.423 673.025 486.441 674.668C446.459 676.494 359.376 630.487 359.376 630.487C359.376 630.487 378.18 551.254 427.838 570.423Z" fill="#FAFAFA"/>
<path d="M427.838 570.423L439.339 577.544C439.339 577.544 445.911 469.282 449.563 442.628C453.214 415.973 490.822 442.811 497.03 466.361C503.237 490.095 526.423 673.025 486.441 674.668C446.459 676.494 359.376 630.487 359.376 630.487C359.376 630.487 378.18 551.254 427.838 570.423Z" stroke="#1E0400" stroke-width="1.57063" stroke-miterlimit="10" stroke-linecap="round" stroke-linejoin="round"/>
<path d="M439.522 577.543C439.522 577.543 436.053 617.343 439.522 646.371" stroke="#1E0400" stroke-width="1.57063" stroke-miterlimit="10" stroke-linecap="round" stroke-linejoin="round"/>
<path d="M457.231 403.377C457.961 401.186 463.986 388.771 473.296 368.324C482.607 347.877 484.798 354.449 498.856 349.337" stroke="#1E0400" stroke-width="1.57063" stroke-miterlimit="10" stroke-linecap="round" stroke-linejoin="round"/>
<path d="M325.783 498.31C325.783 498.31 386.212 533.363 430.576 564.764C430.576 564.764 437.696 607.301 398.627 653.49C398.627 653.49 340.023 627.384 318.116 603.102C296.208 578.821 287.262 491.555 325.783 498.31Z" fill="#FAFAFA"/>
<path d="M325.783 498.31C325.783 498.31 386.212 533.363 430.576 564.764C430.576 564.764 437.696 607.301 398.627 653.49C398.627 653.49 340.023 627.384 318.116 603.102C296.208 578.821 287.262 491.555 325.783 498.31Z" stroke="#1E0400" stroke-width="1.57063" stroke-miterlimit="10" stroke-linecap="round" stroke-linejoin="round"/>
<path d="M176.262 477.861C176.262 477.861 133.725 489.91 108.166 506.341C82.789 522.772 122.406 577.907 116.381 616.976C110.539 656.045 113.277 688.359 140.662 706.432L114.008 801.731H340.753C340.753 801.731 333.633 744.223 336.554 704.059C336.554 704.059 361.748 684.89 352.255 633.041C342.762 581.193 341.666 579.367 341.666 554.538C341.666 529.71 339.841 508.897 325.6 498.308C311.36 487.72 288.905 478.226 273.387 474.757C257.869 471.289 189.955 473.479 176.262 477.861Z" fill="#E7816D"/>
<path d="M354.629 657.324C354.446 651.482 353.899 645.275 352.438 638.338C342.945 588.132 341.849 586.489 341.849 562.391C341.849 538.292 340.024 518.21 325.784 507.804C311.544 497.58 289.088 488.269 273.57 484.983C258.052 481.697 189.955 483.888 176.263 488.087C176.263 488.087 133.725 499.771 108.166 515.654C103.054 518.94 100.498 523.687 99.7682 529.346C98.8554 519.123 100.681 511.09 108.166 506.161C133.543 489.73 176.263 477.68 176.263 477.68C189.955 473.299 258.235 471.108 273.57 474.394C289.088 477.863 311.544 487.356 325.784 497.945C340.024 508.534 341.849 529.346 341.849 554.175C341.849 579.004 343.127 580.83 352.438 632.678C354.081 642.172 354.629 650.204 354.629 657.324Z" fill="#FAFAFA"/>
<path d="M221.174 701.87C216.427 705.522 187.217 729.803 178.271 745.686C168.96 762.482 160.015 801.551 160.015 801.551H114.008L140.663 706.252C113.278 688.178 110.54 655.864 116.382 616.795C118.39 603.103 114.921 587.22 110.54 571.884L146.505 570.424L164.761 572.797C164.761 572.797 169.873 588.68 164.761 627.384C159.65 666.088 171.334 697.124 195.98 701.323C212.046 704.061 218.801 702.783 221.174 701.87Z" fill="#1E0400"/>
<path d="M176.262 477.861C176.262 477.861 133.725 489.91 108.166 506.341C82.789 522.772 122.406 577.907 116.381 616.976C110.539 656.045 113.277 688.359 140.662 706.432L114.008 801.731H340.753C340.753 801.731 333.633 744.223 336.554 704.059C336.554 704.059 361.748 684.89 352.255 633.041C342.762 581.193 341.666 579.367 341.666 554.538C341.666 529.71 339.841 508.897 325.6 498.308C311.36 487.72 288.905 478.226 273.387 474.757C257.869 471.289 189.955 473.479 176.262 477.861Z" stroke="#1E0400" stroke-width="1.57063" stroke-miterlimit="10" stroke-linecap="round" stroke-linejoin="round"/>
<path d="M336.737 703.879C336.737 703.879 328.887 711.181 309.718 708.26" stroke="#1E0400" stroke-width="1.57063" stroke-miterlimit="10" stroke-linecap="round" stroke-linejoin="round"/>
<path d="M61.9771 668.461C61.9771 668.461 56.135 723.231 56.6827 769.602C57.2304 808.306 52.4837 832.587 82.2418 832.77C112 832.952 122.406 830.396 124.049 824.737C125.692 819.077 137.376 700.592 139.932 680.145C142.488 659.698 72.7484 649.839 61.9771 668.461Z" fill="#FAFAFA"/>
<path d="M61.9771 668.461C61.9771 668.461 56.135 723.231 56.6827 769.602C57.2304 808.306 52.4837 832.587 82.2418 832.77C112 832.952 122.406 830.396 124.049 824.737C125.692 819.077 137.376 700.592 139.932 680.145C142.488 659.698 72.7484 649.839 61.9771 668.461Z" stroke="#1E0400" stroke-width="1.57063" stroke-miterlimit="10" stroke-linecap="round" stroke-linejoin="round"/>
<path d="M108.166 506.343C108.166 506.343 78.5904 518.027 68.0016 567.867C57.4128 617.525 56.1349 676.859 56.1349 676.859C56.1349 676.859 80.9637 698.767 143.766 685.804C143.766 685.804 149.06 648.013 161.292 597.808C176.445 535.919 138.472 498.675 108.166 506.343Z" fill="#FAFAFA"/>
<path d="M108.166 506.343C108.166 506.343 78.5904 518.027 68.0016 567.867C57.4128 617.525 56.1349 676.859 56.1349 676.859C56.1349 676.859 80.9637 698.767 143.766 685.804C143.766 685.804 149.06 648.013 161.292 597.808C176.445 535.919 138.472 498.675 108.166 506.343Z" stroke="#1E0400" stroke-width="1.57063" stroke-miterlimit="10" stroke-linecap="round" stroke-linejoin="round"/>
<path d="M192.876 449.383C192.876 449.383 182.47 450.843 179.001 457.051C175.532 463.258 172.794 486.078 172.794 486.078C172.794 486.078 178.453 504.335 227.563 506.161C274.848 507.986 282.698 488.087 282.698 488.087C282.698 488.087 279.777 461.98 277.403 458.511C275.03 455.042 271.196 452.304 261.703 449.383" fill="#FAFAFA"/>
<path d="M192.876 449.383C192.876 449.383 182.47 450.843 179.001 457.051C175.532 463.258 172.794 486.078 172.794 486.078C172.794 486.078 178.453 504.335 227.563 506.161C274.848 507.986 282.698 488.087 282.698 488.087C282.698 488.087 279.777 461.98 277.403 458.511C275.03 455.042 271.196 452.304 261.703 449.383" stroke="#1E0400" stroke-width="1.57063" stroke-miterlimit="10" stroke-linecap="round" stroke-linejoin="round"/>
<path d="M56.8649 658.602C56.8649 658.602 87.7184 680.51 146.504 668.096" stroke="#1E0400" stroke-width="1.57063" stroke-miterlimit="10" stroke-linecap="round" stroke-linejoin="round"/>
<path d="M413.78 553.08C413.78 553.08 422.725 596.165 383.656 646.37" stroke="#1E0400" stroke-width="1.57063" stroke-miterlimit="10" stroke-linecap="round" stroke-linejoin="round"/>
<path d="M260.425 427.475C260.425 427.475 260.973 464.17 268.093 486.078C275.213 507.986 195.797 495.024 191.05 486.078C191.05 486.078 195.797 397.352 193.971 380.191C192.328 363.029 257.686 393.335 260.425 427.475Z" fill="#FAFAFA"/>
<path d="M260.425 427.475C260.425 427.475 260.973 464.17 268.093 486.078C275.213 507.986 195.797 495.024 191.05 486.078C191.05 486.078 195.797 397.352 193.971 380.191C192.328 363.029 257.686 393.335 260.425 427.475Z" stroke="#1E0400" stroke-width="1.57063" stroke-miterlimit="10" stroke-linecap="round" stroke-linejoin="round"/>
<path d="M290.366 321.587C290.366 321.587 287.81 330.898 290.914 375.261C294.017 419.625 277.221 458.693 216.427 428.57C178.636 409.949 182.835 354.631 182.835 354.631C182.835 354.631 165.126 319.944 203.1 298.401C241.256 276.494 288.358 289.273 290.366 321.587Z" fill="#FAFAFA"/>
<path d="M182.835 354.449C182.835 354.449 165.126 319.762 203.1 298.219C241.074 276.494 288.175 289.274 290.366 321.405C290.366 321.405 287.81 330.716 290.914 375.079C294.017 419.442 277.221 458.511 216.427 428.388" stroke="#1E0400" stroke-width="1.57063" stroke-miterlimit="10" stroke-linecap="round" stroke-linejoin="round"/>
<path d="M207.116 287.447C161.475 302.783 153.625 356.822 167.317 403.559C168.23 406.845 172.977 411.592 192.876 449.383C192.876 449.383 200.179 431.491 200.179 412.505C200.179 380.373 202.187 374.531 202.187 374.531C202.917 380.373 207.299 335.279 267.363 317.206C280.325 313.372 282.698 330.533 282.698 330.533C284.706 325.238 285.072 261.341 207.116 287.447Z" fill="#1E0400"/>
<path d="M194.885 401.551C203.758 401.551 210.95 393.867 210.95 384.389C210.95 374.912 203.758 367.228 194.885 367.228C186.012 367.228 178.819 374.912 178.819 384.389C178.819 393.867 186.012 401.551 194.885 401.551Z" fill="#FAFAFA"/>
<path d="M203.647 369.967C203.647 369.967 208.394 374.349 211.132 384.39C216.609 382.747 220.808 378 221.539 372.34L224.825 351.163L228.293 368.872C229.206 373.253 233.405 375.992 237.787 375.079C249.471 372.706 272.292 369.237 295.112 372.34C299.676 372.888 303.693 369.785 304.058 365.22C305.336 352.076 306.431 326.334 299.311 304.609C291.096 279.05 250.201 263.714 220.078 266.635C189.955 269.556 203.647 332.541 203.647 332.541" fill="#1E0400"/>
<path d="M276.673 367.046C276.673 367.046 281.42 384.207 282.15 387.128C282.698 389.502 284.158 397.352 275.943 397.352" stroke="#1E0400" stroke-width="1.57063" stroke-miterlimit="10" stroke-linecap="round" stroke-linejoin="round"/>
<path d="M271.562 463.806C271.562 463.806 264.807 473.116 239.248 474.394C213.506 475.672 195.25 471.108 186.486 462.528L185.026 491.19C185.026 491.19 213.506 505.978 252.758 501.962C252.758 501.962 273.022 497.58 275.213 488.634C277.404 479.871 271.562 463.806 271.562 463.806Z" fill="#FAFAFA"/>
<path d="M184.843 460.885C184.843 460.885 193.789 474.394 229.754 474.577C268.458 474.942 273.57 460.885 273.57 460.885" stroke="#1E0400" stroke-width="1.57063" stroke-miterlimit="10" stroke-linecap="round" stroke-linejoin="round"/>
<path d="M314.282 708.808L336.007 728.342V704.426C336.007 704.426 329.07 710.268 314.282 708.808Z" fill="#1E0400"/>
<path d="M450.658 439.524C450.658 439.524 453.214 410.496 459.969 395.891C466.541 381.286 505.245 343.86 512.73 333.819C520.215 323.595 522.589 343.13 509.444 358.648C496.299 374.166 488.814 390.597 488.814 396.439C488.814 402.281 493.196 415.608 497.76 415.973C502.324 416.338 534.638 407.028 547.053 415.061C559.467 423.093 548.33 428.753 532.812 430.761C517.294 432.769 508.896 453.399 497.212 466.361C485.528 479.323 457.778 482.062 450.658 439.524Z" fill="#FAFAFA"/>
<path d="M449.745 442.445C449.745 442.445 453.214 410.496 459.969 395.891C466.541 381.286 505.245 343.86 512.73 333.819C520.215 323.595 522.589 343.13 509.444 358.648C496.299 374.166 488.814 390.597 488.814 396.439C488.814 402.281 493.196 415.608 497.76 415.973C502.324 416.338 534.638 407.028 547.053 415.061C559.467 423.093 548.33 428.753 532.812 430.761C517.294 432.769 508.896 453.399 497.212 466.361" stroke="#1E0400" stroke-width="1.57063" stroke-miterlimit="10" stroke-linecap="round" stroke-linejoin="round"/>
<path d="M500.681 483.157C509.81 488.817 515.287 494.294 513.826 497.763C511.635 503.239 493.561 501.414 473.297 493.746C453.032 485.896 438.244 475.124 440.435 469.648C441.165 467.822 443.539 466.727 447.19 466.544" stroke="#1E0400" stroke-width="1.57063" stroke-miterlimit="10" stroke-linecap="round" stroke-linejoin="round"/>
<path d="M503.054 502.327C509.991 507.073 513.643 511.455 512.547 514.193C510.539 519.123 492.465 516.019 472.2 507.438C451.936 498.858 437.33 488.087 439.339 483.157C440.069 481.514 442.625 480.784 446.459 480.784" stroke="#1E0400" stroke-width="1.57063" stroke-miterlimit="10" stroke-linecap="round" stroke-linejoin="round"/>
<path d="M271.744 410.314C271.744 410.314 260.243 414.148 248.924 408.306Z" fill="#FAFAFA"/>
<path d="M271.744 410.314C271.744 410.314 260.243 414.148 248.924 408.306" stroke="#1E0400" stroke-width="1.57063" stroke-miterlimit="10" stroke-linecap="round" stroke-linejoin="round"/>
<path d="M204.377 388.589C204.377 388.589 204.377 378.183 196.162 378.183C189.59 378.183 189.772 384.938 194.336 385.668C197.623 386.215 199.448 390.232 196.892 392.24" fill="#FAFAFA"/>
<path d="M204.377 388.589C204.377 388.589 204.377 378.183 196.162 378.183C189.59 378.183 189.772 384.938 194.336 385.668C197.623 386.215 199.448 390.232 196.892 392.24" stroke="#1E0400" stroke-width="1.57063" stroke-miterlimit="10" stroke-linecap="round" stroke-linejoin="round"/>
<path d="M220.626 430.579C220.626 430.579 231.398 447.375 260.973 451.574L260.608 438.612C260.791 438.429 240.161 441.898 220.626 430.579Z" fill="#1E0400"/>
<path d="M185.756 461.98C185.756 461.98 187.764 458.146 193.059 456.321L191.963 467.092C191.963 467.092 185.756 463.623 185.756 461.98Z" fill="#1E0400"/>
<path d="M262.799 455.042C262.799 455.042 271.38 457.598 272.84 461.797C272.84 461.797 267.546 468.187 264.259 468.187L262.799 455.042Z" fill="#1E0400"/>
<path d="M172.794 483.705C172.794 483.705 166.952 502.509 198.901 530.625C230.849 558.74 272.839 592.332 272.839 592.332C272.839 592.332 282.515 555.088 285.254 530.442C287.992 505.796 287.992 494.112 282.333 485.531" stroke="#1E0400" stroke-width="1.57063" stroke-miterlimit="10" stroke-linecap="round" stroke-linejoin="round"/>
<path d="M276.673 588.863L265.537 590.506C264.076 590.688 262.981 591.601 262.433 592.879L258.234 603.285C257.687 604.563 257.869 606.024 258.782 607.119L265.719 616.065C266.632 617.16 267.91 617.708 269.371 617.525L280.507 615.882C281.968 615.7 283.063 614.787 283.611 613.509L287.81 603.103C288.357 601.825 288.175 600.364 287.262 599.269L280.325 590.323C279.412 589.228 277.951 588.68 276.673 588.863Z" fill="#FAFAFA"/>
<path d="M276.673 588.863L265.537 590.506C264.076 590.688 262.981 591.601 262.433 592.879L258.234 603.285C257.687 604.563 257.869 606.024 258.782 607.119L265.719 616.065C266.632 617.16 267.91 617.708 269.371 617.525L280.507 615.882C281.968 615.7 283.063 614.787 283.611 613.509L287.81 603.103C288.357 601.825 288.175 600.364 287.262 599.269L280.325 590.323C279.412 589.228 277.951 588.68 276.673 588.863Z" stroke="#1E0400" stroke-width="1.57063" stroke-miterlimit="10" stroke-linecap="round" stroke-linejoin="round"/>
<path d="M57.2297 388.589C100.68 337.106 165.856 304.609 238.334 304.609C327.974 304.609 406.112 354.449 446.458 427.841" stroke="#1E0400" stroke-width="1.57063" stroke-miterlimit="10" stroke-linecap="round" stroke-linejoin="round"/>
<path d="M442.26 678.685C400.817 748.06 325.053 794.431 238.335 794.431C142.305 794.431 59.4208 737.288 22.1775 655.134C8.66772 625.193 1 591.966 1 557.097V541.761C1 522.044 3.37332 502.875 7.93745 484.436C10.8585 472.569 14.6924 460.885 19.4391 449.931" stroke="#1E0400" stroke-width="1.57063" stroke-miterlimit="10" stroke-linecap="round" stroke-linejoin="round"/>
<path d="M602.187 335.828V375.079H562.753V414.513H523.501V335.828H602.187Z" fill="#E7816D"/>
<path d="M598.536 332.541V371.975H559.284V411.227H519.85V332.541H598.536Z" stroke="#1E0400" stroke-width="1.57063" stroke-miterlimit="10" stroke-linecap="round" stroke-linejoin="round"/>
<path d="M148.696 256.229V258.055C148.696 269.556 139.203 279.05 127.701 279.05H55.04C43.5384 279.05 34.045 269.556 34.045 258.055V256.229C34.045 246.553 40.8 238.338 49.7456 235.964C49.7456 235.782 49.7456 235.416 49.7456 235.234C49.7456 221.542 60.8821 210.588 74.3919 210.588C82.7899 210.588 90.2751 214.787 94.8392 221.359C96.6649 220.811 98.4905 220.446 100.499 220.446C109.079 220.446 116.199 227.019 117.295 235.234H127.701C139.203 235.234 148.696 244.727 148.696 256.229Z" fill="#FAFAFA" stroke="#1E0400" stroke-width="1.57063" stroke-miterlimit="10" stroke-linecap="round" stroke-linejoin="round"/>
<path d="M78.7734 422.363V423.641C78.7734 431.491 72.3836 437.881 64.5333 437.881H15.4233C7.57301 437.881 1.18323 431.491 1.18323 423.641V422.363C1.18323 415.791 5.74736 410.131 11.772 408.671C11.772 408.488 11.772 408.306 11.772 408.123C11.772 398.812 19.2572 391.327 28.568 391.327C34.2275 391.327 39.3393 394.248 42.4429 398.63C43.5383 398.265 44.9988 397.9 46.2768 397.9C52.1189 397.9 57.0481 402.281 57.5958 407.941H64.7159C72.3836 408.306 78.7734 414.695 78.7734 422.363Z" fill="#FAFAFA" stroke="#1E0400" stroke-width="1.57063" stroke-miterlimit="10" stroke-linecap="round" stroke-linejoin="round"/>
<path d="M430.759 351.346V352.989C430.759 362.665 422.908 370.515 413.232 370.515H352.438C342.762 370.515 334.912 362.665 334.912 352.989V351.346C334.912 343.13 340.571 336.375 348.057 334.367C348.057 334.184 348.057 334.002 348.057 333.819C348.057 322.318 357.367 313.189 368.686 313.189C375.806 313.189 382.014 316.841 385.848 322.135C387.308 321.587 388.951 321.405 390.594 321.405C397.897 321.405 403.739 326.882 404.652 333.819H413.415C422.908 333.819 430.759 341.67 430.759 351.346Z" fill="#FAFAFA" stroke="#1E0400" stroke-width="1.57063" stroke-miterlimit="10" stroke-linecap="round" stroke-linejoin="round"/>
<path d="M764.304 201.642V197.991" stroke="#1E0400" stroke-width="1.57063" stroke-linecap="round" stroke-linejoin="round"/>
<path d="M764.304 187.037V55.225C764.304 38.0639 750.429 24.189 733.268 24.189H554.354C537.193 24.189 523.318 38.0639 523.318 55.225V61.2497" stroke="#1E0400" stroke-width="1.57063" stroke-linecap="round" stroke-linejoin="round" stroke-dasharray="4.18 4.18"/>
<path d="M523.501 66.7266V70.3779" stroke="#1E0400" stroke-width="1.57063" stroke-linecap="round" stroke-linejoin="round"/>
<path d="M627.746 887.173H631.397" stroke="#1E0400" stroke-width="1.57063" stroke-linecap="round" stroke-linejoin="round"/>
<path d="M641.986 887.174H725.053C746.778 887.174 764.487 869.465 764.487 847.74V821.998" stroke="#1E0400" stroke-width="1.57063" stroke-linecap="round" stroke-linejoin="round" stroke-dasharray="4.04 4.04"/>
<path d="M764.304 816.704V813.052" stroke="#1E0400" stroke-width="1.57063" stroke-linecap="round" stroke-linejoin="round"/>
<path d="M764.304 449.383V453.034" stroke="#1E0400" stroke-width="1.57063" stroke-linecap="round" stroke-linejoin="round"/>
<path d="M764.304 464.719V556.732" stroke="#1E0400" stroke-width="1.57063" stroke-linecap="round" stroke-linejoin="round" stroke-dasharray="4.49 4.49"/>
<path d="M764.304 562.756V566.407" stroke="#1E0400" stroke-width="1.57063" stroke-linecap="round" stroke-linejoin="round"/>
<path d="M580.644 70.3779H481.694C468.184 70.3779 455.77 77.498 449.015 89.1821L399.54 174.988C392.785 186.672 392.785 201.095 399.54 212.596L449.015 298.219C455.77 309.903 468.184 317.023 481.694 317.023H580.644C594.154 317.023 606.569 309.903 613.324 298.219L662.799 212.596C669.554 200.912 669.554 186.489 662.799 174.988L613.141 89.1821C606.386 77.498 593.972 70.3779 580.644 70.3779Z" fill="#E7816D"/>
<path d="M572.976 70.3779H474.026C460.516 70.3779 448.101 77.498 441.346 89.1821L391.871 174.988C385.116 186.672 385.116 201.095 391.871 212.596L441.346 298.219C448.101 309.903 460.516 317.023 474.026 317.023H572.976C586.486 317.023 598.9 309.903 605.655 298.219L655.13 212.596C661.885 200.912 661.885 186.489 655.13 174.988L605.655 89.1821C598.9 77.498 586.486 70.3779 572.976 70.3779Z" stroke="#1E0400" stroke-width="1.57063" stroke-miterlimit="10" stroke-linecap="round" stroke-linejoin="round"/>
<path d="M498.308 184.115H591.781" stroke="#1E0400" stroke-width="1.57063" stroke-miterlimit="10" stroke-linecap="round" stroke-linejoin="round"/>
<path d="M471.653 195.617C476.695 195.617 480.782 191.53 480.782 186.489C480.782 181.447 476.695 177.361 471.653 177.361C466.612 177.361 462.525 181.447 462.525 186.489C462.525 191.53 466.612 195.617 471.653 195.617Z" fill="#1E0400" stroke="#1E0400" stroke-width="1.57063" stroke-miterlimit="10" stroke-linecap="round" stroke-linejoin="round"/>
<path d="M498.308 217.89H591.781" stroke="#1E0400" stroke-width="1.57063" stroke-miterlimit="10" stroke-linecap="round" stroke-linejoin="round"/>
<path d="M471.653 229.392C476.695 229.392 480.782 225.305 480.782 220.264C480.782 215.222 476.695 211.135 471.653 211.135C466.612 211.135 462.525 215.222 462.525 220.264C462.525 225.305 466.612 229.392 471.653 229.392Z" fill="#FAFAFA" stroke="#1E0400" stroke-width="1.57063" stroke-miterlimit="10" stroke-linecap="round" stroke-linejoin="round"/>
<path d="M498.308 251.665H591.781" stroke="#1E0400" stroke-width="1.57063" stroke-miterlimit="10" stroke-linecap="round" stroke-linejoin="round"/>
<path d="M471.653 263.166C476.695 263.166 480.782 259.079 480.782 254.038C480.782 248.997 476.695 244.91 471.653 244.91C466.612 244.91 462.525 248.997 462.525 254.038C462.525 259.079 466.612 263.166 471.653 263.166Z" fill="#1E0400" stroke="#1E0400" stroke-width="1.57063" stroke-miterlimit="10" stroke-linecap="round" stroke-linejoin="round"/>
<path d="M584.296 151.254H462.707C458.143 151.254 454.492 147.603 454.492 143.038C454.492 138.474 458.143 134.823 462.707 134.823H584.296C588.86 134.823 592.511 138.474 592.511 143.038C592.511 147.603 588.86 151.254 584.296 151.254Z" fill="#FAFAFA" stroke="#1E0400" stroke-width="1.57063" stroke-miterlimit="10" stroke-linecap="round" stroke-linejoin="round"/>
<path d="M813.779 201.642H714.829C701.319 201.642 688.905 208.762 682.15 220.447L632.675 306.069C625.92 317.754 625.92 332.176 632.675 343.678L682.15 429.301C688.905 440.985 701.319 448.105 714.829 448.105H813.779C827.289 448.105 839.703 440.985 846.458 429.301L895.933 343.678C902.688 331.994 902.688 317.571 895.933 306.069L846.458 220.447C839.703 208.762 827.289 201.642 813.779 201.642Z" fill="#FAFAFA" stroke="#1E0400" stroke-width="1.57063" stroke-miterlimit="10" stroke-linecap="round" stroke-linejoin="round"/>
<path d="M784.021 265.905V305.339H744.587V344.773H705.336V265.905H784.021Z" stroke="#1E0400" stroke-width="1.57063" stroke-miterlimit="10" stroke-linecap="round" stroke-linejoin="round" stroke-dasharray="4.19 4.19"/>
<path d="M823.455 305.339V384.025H744.587V344.773H784.021V305.339H823.455Z" fill="#1E0400" stroke="#1E0400" stroke-width="1.57063" stroke-miterlimit="10" stroke-linecap="round" stroke-linejoin="round"/>
<path d="M784.021 305.339H744.587V344.773H784.021V305.339Z" fill="#E7816D" stroke="#1E0400" stroke-width="1.57063" stroke-miterlimit="10" stroke-linecap="round" stroke-linejoin="round"/>
<path d="M622.999 24.1888V7.39282C622.999 2.46356 628.293 -0.640046 632.492 1.91586L647.097 10.3139L661.703 18.7119C665.902 21.0852 665.902 27.2924 661.703 29.6658L647.097 38.0637L632.492 46.4617C628.293 48.8351 622.999 45.914 622.999 40.9848V24.1888Z" fill="#E7816D" stroke="#1E0400" stroke-width="1.57063" stroke-miterlimit="10" stroke-linecap="round" stroke-linejoin="round"/>
<path d="M764.304 484.618H781.1C786.029 484.618 789.133 489.912 786.577 494.111L778.179 508.716L769.781 523.321C767.408 527.52 761.2 527.52 758.827 523.321L750.429 508.716L742.031 494.111C739.658 489.912 742.579 484.618 747.508 484.618H764.304Z" fill="#E7816D" stroke="#1E0400" stroke-width="1.57063" stroke-miterlimit="10" stroke-linecap="round" stroke-linejoin="round"/>
<path d="M704.24 887.174V903.97C704.24 908.899 698.946 912.003 694.747 909.447L680.142 901.049L665.537 892.651C661.338 890.278 661.338 884.07 665.537 881.697L680.142 873.299L694.747 864.901C698.946 862.528 704.24 865.449 704.24 870.378V887.174Z" fill="#E7816D" stroke="#1E0400" stroke-width="1.57063" stroke-miterlimit="10" stroke-linecap="round" stroke-linejoin="round"/>
<path d="M813.779 566.407H714.829C701.319 566.407 688.905 573.527 682.15 585.211L632.675 670.834C625.92 682.518 625.92 696.941 632.675 708.443L682.15 794.066C688.905 805.75 701.319 812.87 714.829 812.87H813.779C827.289 812.87 839.703 805.75 846.458 794.066L895.933 708.443C902.688 696.758 902.688 682.336 895.933 670.834L846.458 585.211C839.703 573.527 827.289 566.407 813.779 566.407Z" stroke="#1E0400" stroke-width="1.57063" stroke-miterlimit="10" stroke-linecap="round" stroke-linejoin="round"/>
<path d="M832.766 682.336H705.335V768.141H832.766V682.336Z" stroke="#1E0400" stroke-width="1.57063" stroke-miterlimit="10" stroke-linecap="round" stroke-linejoin="round"/>
<path d="M832.766 682.336H705.335V768.141H832.766V682.336Z" fill="#E7816D" stroke="#1E0400" stroke-width="1.57063" stroke-miterlimit="10" stroke-linecap="round" stroke-linejoin="round"/>
<path d="M705.335 682.336L677.768 649.474" stroke="#1E0400" stroke-width="1.57063" stroke-miterlimit="10" stroke-linecap="round" stroke-linejoin="round"/>
<path d="M832.583 682.336L862.523 717.388" stroke="#1E0400" stroke-width="1.57063" stroke-miterlimit="10" stroke-linecap="round" stroke-linejoin="round"/>
<path d="M754.762 601.832L711.862 623.8L733.83 666.7L776.73 644.732L754.762 601.832Z" fill="#E7816D" stroke="#1E0400" stroke-width="1.57063" stroke-miterlimit="10" stroke-linecap="round" stroke-linejoin="round"/>
<path d="M809.943 650.657L792.175 641.697L783.214 659.465L800.982 668.426L809.943 650.657Z" fill="#FAFAFA" stroke="#1E0400" stroke-width="1.57063" stroke-miterlimit="10" stroke-linecap="round" stroke-linejoin="round"/>
<path d="M782.195 722.135L770.511 719.396L758.644 722.135V682.336H782.195V722.135Z" fill="#1E0400" stroke="#1E0400" stroke-width="1.57063" stroke-miterlimit="10" stroke-linecap="round" stroke-linejoin="round"/>
<path d="M813.597 755.909C817.126 755.909 819.986 753.049 819.986 749.52C819.986 745.991 817.126 743.13 813.597 743.13C810.068 743.13 807.207 745.991 807.207 749.52C807.207 753.049 810.068 755.909 813.597 755.909Z" stroke="#1E0400" stroke-width="1.57063" stroke-miterlimit="10" stroke-linecap="round" stroke-linejoin="round"/>
<path d="M525.692 762.664H426.742C413.232 762.664 400.817 769.784 394.062 781.468L344.587 867.091C337.832 878.776 337.832 893.198 344.587 904.7L394.062 990.323C400.817 1002.01 413.232 1009.13 426.742 1009.13H525.692C539.202 1009.13 551.616 1002.01 558.371 990.323L607.846 904.7C614.601 893.016 614.601 878.593 607.846 867.091L558.371 781.468C551.434 769.784 539.019 762.664 525.692 762.664Z" stroke="#1E0400" stroke-width="1.57063" stroke-miterlimit="10" stroke-linecap="round" stroke-linejoin="round"/>
<path d="M415.057 824.188L511.086 871.29L514.92 911.089L415.057 824.188Z" fill="#FAFAFA" stroke="#1E0400" stroke-width="1.57063" stroke-miterlimit="10" stroke-linecap="round" stroke-linejoin="round"/>
<path d="M557.093 847.009L415.057 824.188L501.045 926.79L511.086 871.29L557.093 847.009Z" fill="#E7816D" stroke="#1E0400" stroke-width="1.57063" stroke-miterlimit="10" stroke-linecap="round" stroke-linejoin="round"/>
<path d="M511.086 871.29L415.057 824.188" stroke="#1E0400" stroke-width="1.57063" stroke-miterlimit="10" stroke-linecap="round" stroke-linejoin="round"/>
<path d="M395.158 905.795H449.38C455.039 905.795 459.421 910.359 459.421 915.836C459.421 921.496 454.857 925.877 449.38 925.877H439.521C433.861 925.877 429.48 930.441 429.48 935.918V937.744C429.48 943.404 434.044 947.785 439.521 947.785H530.986" stroke="#1E0400" stroke-width="1.57063" stroke-miterlimit="10" stroke-linecap="round" stroke-linejoin="round"/>
<path d="M272.474 150.889C273.935 165.129 268.823 178.091 259.877 187.219C252.027 195.252 247.463 206.024 247.463 217.343C247.463 221.724 243.812 225.376 239.43 225.376H217.157C212.776 225.376 209.124 221.724 209.124 217.343C209.124 206.024 204.56 195.252 196.527 187.037C188.677 179.004 183.748 168.05 183.748 156.001C183.748 129.894 206.386 109.082 233.04 112.003C253.67 114.011 270.284 130.442 272.474 150.889Z" fill="#E7816D"/>
<path d="M268.641 150.889C270.101 165.129 264.989 178.091 256.044 187.219C248.193 195.252 243.629 206.024 243.629 217.343C243.629 221.724 239.978 225.376 235.597 225.376H213.324C208.942 225.376 205.291 221.724 205.291 217.343C205.291 206.024 200.727 195.252 192.694 187.037C184.843 179.004 179.914 168.05 179.914 156.001C179.914 129.894 202.552 109.082 229.207 112.003C250.019 114.011 266.45 130.442 268.641 150.889Z" stroke="#1E0400" stroke-width="1.57063" stroke-miterlimit="10" stroke-linecap="round" stroke-linejoin="round"/>
<path d="M224.094 239.068C218.252 239.068 213.505 234.321 213.505 228.479V225.193H234.683V228.479C234.683 234.321 229.936 239.068 224.094 239.068Z" stroke="#1E0400" stroke-width="1.57063" stroke-miterlimit="10" stroke-linecap="round" stroke-linejoin="round"/>
<path d="M219.348 225.193V158.922C219.348 155.453 216.427 152.532 212.958 152.532C209.49 152.532 206.568 155.453 206.568 158.922V161.113" stroke="#1E0400" stroke-width="1.57063" stroke-miterlimit="10" stroke-linecap="round" stroke-linejoin="round"/>
<path d="M228.294 225.193V158.922C228.294 155.453 231.215 152.532 234.683 152.532C238.152 152.532 241.073 155.453 241.073 158.922V161.113" stroke="#1E0400" stroke-width="1.57063" stroke-miterlimit="10" stroke-linecap="round" stroke-linejoin="round"/>
<path d="M224.095 88.0865V63.4402" stroke="#1E0400" stroke-width="1.57063" stroke-miterlimit="10" stroke-linecap="round" stroke-linejoin="round"/>
<path d="M263.712 104.517L277.769 90.46" stroke="#1E0400" stroke-width="1.57063" stroke-miterlimit="10" stroke-linecap="round" stroke-linejoin="round"/>
<path d="M183.931 104.517L169.873 90.46" stroke="#1E0400" stroke-width="1.57063" stroke-miterlimit="10" stroke-linecap="round" stroke-linejoin="round"/>
</svg>
