<svg width="97" height="178" viewBox="0 0 97 178" fill="none" xmlns="http://www.w3.org/2000/svg">
<g clip-path="url(#clip0_9_293)">
<path d="M75.9333 125.685C72.5178 123.465 67.9532 124.392 64.2269 126.037C60.5006 127.682 56.9399 129.996 52.8893 130.423C44.2463 131.333 37.3099 123.595 32.6993 116.228C28.3196 109.23 23.7357 101.217 16.0799 98.55C16.6874 114.221 20.7469 129.564 27.9686 143.485C31.3804 150.041 35.6055 156.374 41.5548 160.758C47.5046 165.143 55.4367 167.329 62.4651 165.043C72.662 161.727 77.9907 150.404 79.682 139.816C80.4968 134.714 80.2654 128.499 75.9333 125.685Z" fill="#E7816D"/>
<path d="M95.7119 85.0095C93.2174 84.8605 90.7254 84.6763 88.2346 84.4789C88.2128 83.6788 88.1884 82.8786 88.1759 82.0784C88.1197 80.529 88.0595 78.9795 87.9953 77.4302C87.6648 79.6016 87.3303 81.9561 87.0002 84.3768C73.2448 83.253 59.5289 81.6066 45.7281 81.147C33.5583 80.8314 21.3818 81.4055 9.29576 82.8646C9.27398 82.5753 9.24925 82.2874 9.22822 81.9979C9.19425 82.2924 9.1651 82.5887 9.13221 82.8838C6.08271 83.2351 3.03863 83.6234 -3.05176e-05 84.0487C2.96159 84.4152 5.92617 84.7841 8.8937 85.1554C6.17725 112.801 9.58305 142.303 28.73 163.783C32.7696 167.97 37.4345 171.504 42.5582 174.26C48.2477 177.388 55.0257 179.257 61.361 177.014C75.7836 172.057 82.6779 148.883 85.5351 135.251C87.1391 127.454 88.5599 119.577 88.9564 111.615C89.2001 103.305 88.592 95.0013 88.3007 86.6942C90.793 86.2821 93.2805 85.8394 95.7577 85.345C96.9116 85.1007 97.3824 85.1204 95.7119 85.0095ZM84.2262 106.414C82.9741 115.451 80.2115 124.182 77.3969 132.833C74.1624 142.449 72.7855 146.54 67.2411 155.648C63.6547 160.774 64.5099 160.548 60.3361 164.267C59.9601 164.534 59.5685 164.779 59.1634 164.999C58.8713 165.156 58.649 165.271 58.4696 165.363C58.0116 165.533 57.5433 165.674 57.0676 165.785C56.8523 165.825 56.6725 165.858 56.5248 165.886C56.1375 165.918 55.7505 165.962 55.3614 165.961C54.9748 165.953 54.5878 165.94 54.2016 165.919C53.3208 165.735 52.4559 165.483 51.6151 165.163C51.5029 165.119 51.3906 165.076 51.2784 165.032C50.3084 164.57 48.2278 163.581 47.5443 163.149C44.1537 161.361 40.9603 159.223 38.0166 156.768C31.1563 150.5 29.8141 148.291 24.8531 140.951C14.4245 124.769 11.1176 105.371 9.48008 85.2273C30.125 87.7806 50.8959 90.0733 71.6929 88.5708C76.7047 88.2951 81.6984 87.7548 86.6532 86.9524C85.7039 94.1021 84.8195 101.504 84.2262 106.414V106.414Z" fill="black"/>
<path d="M61.4009 13.8089C58.5818 7.98954 54.0676 2.80375 47.8065 0.676775C41.3172 -1.62512 34.2087 2.21177 31.2416 8.15182C28.0141 14.1698 27.269 21.1059 26.8547 27.8212C26.1417 44.4506 30.5337 59.9593 31.7858 75.8459C33.7295 61.9035 32.8643 41.911 34.4746 31.6015C36.1036 19.0012 40.1415 11.0261 42.5715 10.833C42.6512 10.817 42.6937 10.8079 42.7579 10.7947C42.8119 10.7944 42.8654 10.7974 42.9189 10.7984C43.1405 10.8483 43.3657 10.8821 43.5825 10.9506C43.8066 11.0247 44.0255 11.1132 44.2478 11.1929C44.5535 11.3351 44.846 11.5037 45.1425 11.6642C48.9936 14.2684 47.2238 12.9463 50.1544 16.322C54.7992 23.3057 57.7536 31.2753 58.7834 39.5991C60.8475 51.1353 61.3426 60.7276 62.6574 73.2625C62.7017 73.6655 62.7416 74.069 62.7815 74.4716C63.1663 72.2365 63.4978 69.9925 63.846 67.7516C66.3099 50.004 69.8084 30.5081 61.4009 13.8089Z" fill="black"/>
<path d="M49.2166 103.633C41.2426 103.83 41.2633 115.513 49.2166 115.732C57.1909 115.534 57.1699 103.852 49.2166 103.633Z" fill="black"/>
<path d="M52.1978 139.952C52.3626 135.311 52.0508 130.665 51.2673 126.088C50.5776 131.695 49.4267 137.869 50.8527 143.34C51.5118 143.708 51.8666 143.389 52.0494 142.752L52.0538 142.753C52.0545 142.745 52.0542 142.737 52.0549 142.729C52.2305 141.814 52.2786 140.879 52.1978 139.952V139.952Z" fill="black"/>
</g>
<defs>
<clipPath id="clip0_9_293">
<rect width="96.7999" height="178" fill="white"/>
</clipPath>
</defs>
</svg>
